<?xml version="1.0" encoding="UTF-8" standalone="no"?>
<!-- Created with Inkscape (http://www.inkscape.org/) -->

<svg
   xmlns:dc="http://purl.org/dc/elements/1.1/"
   xmlns:cc="http://creativecommons.org/ns#"
   xmlns:rdf="http://www.w3.org/1999/02/22-rdf-syntax-ns#"
   xmlns:svg="http://www.w3.org/2000/svg"
   xmlns="http://www.w3.org/2000/svg"
   xmlns:sodipodi="http://sodipodi.sourceforge.net/DTD/sodipodi-0.dtd"
   xmlns:inkscape="http://www.inkscape.org/namespaces/inkscape"
   version="1.1"
   id="svg12627"
   xml:space="preserve"
   width="58.505997"
   height="49.542645"
   viewBox="0 0 58.505997 49.542644"
   sodipodi:docname="big_rock.svg"
   inkscape:version="0.92.3 (2405546, 2018-03-11)"><metadata
     id="metadata12633"><rdf:RDF><cc:Work
         rdf:about=""><dc:format>image/svg+xml</dc:format><dc:type
           rdf:resource="http://purl.org/dc/dcmitype/StillImage" /><dc:title></dc:title></cc:Work></rdf:RDF></metadata><defs
     id="defs12631" /><sodipodi:namedview
     pagecolor="#ffffff"
     bordercolor="#666666"
     borderopacity="1"
     objecttolerance="10"
     gridtolerance="10"
     guidetolerance="10"
     inkscape:pageopacity="0"
     inkscape:pageshadow="2"
     inkscape:window-width="1858"
     inkscape:window-height="1071"
     id="namedview12629"
     showgrid="false"
     inkscape:zoom="5.0816697"
     inkscape:cx="-36.62733"
     inkscape:cy="16.627885"
     inkscape:window-x="0"
     inkscape:window-y="0"
     inkscape:window-maximized="1"
     inkscape:current-layer="g12637" /><g
     id="g12635"
     inkscape:groupmode="layer"
     inkscape:label="ink_ext_XXXXXX"
     transform="matrix(1.3333333,0,0,-1.3333333,-190.90733,65.834761)"><g
       id="g12637"
       transform="scale(0.1)"><path
         d="m 1538.8,346.5 c 25,63.5 95.1,61 151.2,47.398 49.5,-12 118.5,-45.597 134.4,-100 l 1,-0.996 c -2.81,21.942 -11.6,42.7 -25.4,60 -34.81,42.469 -79.96,75.286 -131.1,95.297 l -12.8,6.199 c -40,18.399 -88.6,38.102 -133.7,32.704 -106.3,-12.903 -91.9,-161.903 -77.1,-235.704 3.1,-15.796 3.1,-39.3 17.1,-49.996 16.7,-12.5 50,-12.097 70,-14.902 34.3,-5.449 68.97,-8.254 103.7,-8.398 -72,29.902 -127.6,91.597 -97.3,168.398"
         style="fill:#949294;fill-opacity:1;fill-rule:nonzero;stroke:none"
         id="path12639"
         inkscape:connector-curvature="0" /><path
         d="m 1690,393.602 c -56.1,13.597 -126.2,16.097 -151.2,-47.407 -30,-76.797 25.3,-138.496 97,-168.3 16.02,0.109 32.02,1.203 47.9,3.3 42.9,5.801 97.3,20 125.8,55.403 12.7,15.765 18.44,36.019 15.9,56.101 l -1,0.996 c -15.9,54.606 -84.4,88.203 -134.4,99.907"
         style="fill:#a09a9f;fill-opacity:1;fill-rule:nonzero;stroke:none"
         id="path12641"
         inkscape:connector-curvature="0" /><path
         d="m 1736.2,187.203 c 46,15.598 76.8,39.492 89.2,61.098 11.3,20 10.8,56.597 -13.9,95.597 -14.24,18.946 -30.54,36.25 -48.6,51.602 -18.81,12.918 -38.27,24.867 -58.3,35.801 0,0 62.7,-44.403 70,-71.102 -23.6,12.75 -48.43,23.102 -74.1,30.903 -24.07,7.418 -48.73,12.836 -73.7,16.199 -14,0.801 -35.1,-1.602 -44.7,-14.301 83.8,-1.699 142.4,-27.5 188.3,-75.801 27.1,-28.597 29.5,-66.004 0.6,-94.195 -37.5,-36.602 -125.8,-44.5 -123.8,-44.5 29.93,-1.535 59.93,1.402 89,8.699"
         style="fill:#bbb4b8;fill-opacity:1;fill-rule:nonzero;stroke:none"
         id="path12643"
         inkscape:connector-curvature="0" /><path
         d="m 1586.9,180.504 c -13.7,4.797 -50.8,6.301 -78.1,46.992 -20,30.004 -25.2,95.203 -23,114.902 3.1,28.797 20,70.801 95.8,78.5 0.7,0 46.3,20.899 21.6,46.602 25.42,-6.219 50.43,-14 74.9,-23.301 -23.9,17.797 -110.8,64.496 -173.7,42.301 -32.3,-9.57 -56.69,-36.187 -63.4,-69.199 -9.11,-45.785 -9.92,-92.832 -2.4,-138.903 4.8,-29.3 -4.5,-64.398 20,-83.097 19.3,-14.199 90.2,-21.699 128.3,-14.797"
         style="fill:#837e83;fill-opacity:1;fill-rule:nonzero;stroke:none"
         id="path12645"
         inkscape:connector-curvature="0" /><path
         d="m 1640.5,194.801 c -16.8,18.398 -77.2,36.496 -93.2,54.199 -24,26.402 -2.1,71.199 -4.5,106.402 -28.2,-23.703 -36.3,-78.605 -14.3,-109.004 7.38,-9.656 16.63,-17.71 27.2,-23.699 8.9,-7.898 76.2,-28.394 84.8,-27.898"
         style="fill:#bbb4b8;fill-opacity:1;fill-rule:nonzero;stroke:none"
         id="path12647"
         inkscape:connector-curvature="0" /><path
         d="m 1450.8,216.996 c -1.4,5.606 -5.6,23.606 -1.5,32.805 12.73,1.855 24.7,7.183 34.6,15.398 -13.5,-1.504 -30,-1.695 -38.5,10.5 -2.25,3.196 -3.84,6.797 -4.7,10.602 -0.6,7.301 -1.1,14.5 -1.6,21.801 0,3.695 0,7.398 0,10.699 -0.7,26.898 -2.6,68.398 6.1,93.5 6.25,12.058 14.65,22.871 24.8,31.898 8.19,5.192 15.96,11.047 23.2,17.5 8.22,7.813 17.19,14.781 26.8,20.801 14.3,7.797 34.8,3.301 50,7.301 -23.06,5.863 -47.29,5.203 -70,-1.899 -16.64,-4.832 -31.41,-14.636 -42.3,-28.101 -12.98,-19.113 -21.18,-41.059 -23.9,-64 -2.66,-31.41 -2.66,-62.992 0,-94.403 1.5,-22.101 1.8,-44.402 4.8,-66.199 2.6,-17.996 8,-39.195 31.1,-45.496 -10.7,12.102 -16.6,17.899 -18.9,27.293"
         style="fill:#676369;fill-opacity:1;fill-rule:nonzero;stroke:none"
         id="path12649"
         inkscape:connector-curvature="0" /><path
         d="m 1837.5,213.602 c -12.2,4.89 -24.73,8.894 -37.5,12 -8.19,2.089 -16.68,2.793 -25.1,2.097 -8.7,-2.898 -20,-7.898 -16.2,-17.801 3.96,-10.714 9.05,-20.964 15.2,-30.593 0,0 37.1,6.89 44.3,8.394 14.27,3.918 28.21,8.93 41.7,15 l -1.2,2.102 c -3.5,4.597 -15.5,7.004 -21.2,8.801"
         style="fill:#a09a9f;fill-opacity:1;fill-rule:nonzero;stroke:none"
         id="path12661"
         inkscape:connector-curvature="0" /><path
         d="m 1771.9,191.297 c 2.04,-3.938 4.52,-7.629 7.4,-10.996 0,0 -3.4,4.5 -7.4,10.996"
         style="fill:#676369;fill-opacity:1;fill-rule:nonzero;stroke:none"
         id="path12663"
         inkscape:connector-curvature="0" /><path
         d="m 1769.3,160.301 c 4.3,7.515 9.4,14.558 15.2,20.996 -3,3.601 -10.7,6.199 -12.6,10 -3.67,5.855 -6.69,12.09 -9,18.601 -3.4,10 3.3,14.903 12,17.801 -8.54,-0.777 -16.6,-4.285 -23,-10 -11.8,-8.828 -21.35,-20.301 -27.9,-33.504 8.48,-7.832 18.34,-14.004 29.1,-18.191 4.6,-2.402 11.1,-6.301 16.2,-5.703"
         style="fill:#837e83;fill-opacity:1;fill-rule:nonzero;stroke:none"
         id="path12665"
         inkscape:connector-curvature="0" /><path
         d="m 1870.6,148.102 c -0.6,12.949 -2.47,25.808 -5.6,38.398 h -0.9 c -11.2,-4.102 -21.8,-10 -32.6,-14.902 -10.71,-3.875 -20.97,-8.907 -30.6,-15 -9.02,-9.035 -13.8,-21.446 -13.2,-34.2 h 1.7 c 26.4,2.403 56,17.704 81.2,25.704"
         style="fill:#545057;fill-opacity:1;fill-rule:nonzero;stroke:none"
         id="path12667"
         inkscape:connector-curvature="0" /><path
         d="m 1769.3,160.301 c -5.1,-0.598 -11.6,3.797 -16.2,5.703 -10.76,4.187 -20.62,10.359 -29.1,18.191 -6.11,-11.457 -11.36,-23.359 -15.7,-35.593 16.23,-9.438 33.6,-16.731 51.7,-21.704 2,6.204 3.6,15.704 5.1,20.5 0.61,4.524 2.04,8.887 4.2,12.903"
         style="fill:#676369;fill-opacity:1;fill-rule:nonzero;stroke:none"
         id="path12669"
         inkscape:connector-curvature="0" /><path
         d="m 1787.9,181.898 -8.6,-1.597 c -4.05,-6.289 -7.4,-12.992 -10,-20 5.5,7.195 10,16.101 12,17.898 2.02,1.531 4.24,2.781 6.6,3.699"
         style="fill:#676369;fill-opacity:1;fill-rule:nonzero;stroke:none"
         id="path12671"
         inkscape:connector-curvature="0" /><path
         d="m 1860,202.699 c -13.49,-6.07 -27.43,-11.082 -41.7,-15 l -4.2,-0.801 c -2.6,-6.992 -6.32,-13.503 -11,-19.296 -4.3,-2.813 -9.03,-4.903 -14,-6.2 -2.4,-1.203 -7.4,-3 -10,-4.304 -5.07,-9.512 -8.45,-19.836 -10,-30.5 -0.1,-0.743 -0.26,-1.485 -0.5,-2.2 6.04,-1.582 12.26,-2.312 18.5,-2.195 -0.61,12.742 4.19,25.156 13.2,34.199 9.63,6.082 19.89,11.114 30.6,15 10.8,5.196 21.4,10.801 32.6,14.895 h 0.9 c -0.84,5.625 -2.31,11.121 -4.4,16.402"
         style="fill:#676369;fill-opacity:1;fill-rule:nonzero;stroke:none"
         id="path12673"
         inkscape:connector-curvature="0" /><path
         d="m 1814.7,188.297 c 2,3.906 -16.3,-1.602 -26.8,-6.399 l 26.1,5 0.7,1.399"
         style="fill:#545057;fill-opacity:1;fill-rule:nonzero;stroke:none"
         id="path12675"
         inkscape:connector-curvature="0" /><path
         d="m 1779.3,157.098 c 2.3,1.304 7.3,3.101 10,4.304 4.97,1.297 9.69,3.387 14,6.2 4.69,5.793 8.4,12.304 11,19.296 l -26.1,-5 c -2.36,-0.918 -4.59,-2.168 -6.6,-3.699 -1.7,-1.797 -6.5,-10.703 -12,-17.898 -2.27,-3.996 -3.79,-8.363 -4.5,-12.903 -1.5,-4.796 -3.1,-14.296 -5.1,-20.5 3.2,-0.894 6.4,-1.796 9.5,-2.5 0.24,0.715 0.4,1.457 0.5,2.2 1.34,10.625 4.48,20.937 9.3,30.5"
         style="fill:#545057;fill-opacity:1;fill-rule:nonzero;stroke:none"
         id="path12677"
         inkscape:connector-curvature="0" /><path
         d="m 1857.4,201.598 c -17.73,-2.825 -35.21,-7 -52.3,-12.5 -12.64,-4.539 -26.77,-0.938 -35.7,9.101 -5.89,6.922 -7.22,16.653 -3.4,24.903 -7.6,-1.004 -4.9,-16.7 -3.2,-20.899 1.11,-3.867 2.8,-7.539 5,-10.906 2.26,-2.895 3.67,-6.352 4.1,-10 0.5,-9.301 -4.1,-13.402 -2.6,-20.902 10,11.703 13.4,17.902 28,22.101 10,2.899 37.7,10 39.3,10.508 7.34,1.766 14.36,4.668 20.8,8.594"
         style="fill:#bbb4b8;fill-opacity:1;fill-rule:nonzero;stroke:none"
         id="path12679"
         inkscape:connector-curvature="0" /><path
         d="m 1836.8,181.898 c -6.9,-2.898 -4.3,-4.597 -10.6,-8.699 -2.4,-1.601 -11.2,-5.801 -14.4,-8 -3.2,-2.195 -13,-3.101 -14.5,-5.801 -2.47,-5.007 -4.25,-10.32 -5.3,-15.796 3.9,3.601 7,10 12.9,14.097 6.87,1.028 13.34,3.813 18.8,8.098 11.49,7.109 23.64,13.074 36.3,17.805 -7.76,1.238 -15.7,0.664 -23.2,-1.704"
         style="fill:#bbb4b8;fill-opacity:1;fill-rule:nonzero;stroke:none"
         id="path12681"
         inkscape:connector-curvature="0" /></g></g></svg>