<?xml version="1.0" encoding="UTF-8" standalone="no"?>
<!-- Created with Inkscape (http://www.inkscape.org/) -->

<svg
   xmlns:dc="http://purl.org/dc/elements/1.1/"
   xmlns:cc="http://creativecommons.org/ns#"
   xmlns:rdf="http://www.w3.org/1999/02/22-rdf-syntax-ns#"
   xmlns:svg="http://www.w3.org/2000/svg"
   xmlns="http://www.w3.org/2000/svg"
   xmlns:sodipodi="http://sodipodi.sourceforge.net/DTD/sodipodi-0.dtd"
   xmlns:inkscape="http://www.inkscape.org/namespaces/inkscape"
   version="1.1"
   id="svg12375"
   xml:space="preserve"
   width="123.69703"
   height="53.257809"
   viewBox="0 0 123.69703 53.257808"
   sodipodi:docname="broken_rocks.svg"
   inkscape:version="0.92.3 (2405546, 2018-03-11)"><metadata
     id="metadata12381"><rdf:RDF><cc:Work
         rdf:about=""><dc:format>image/svg+xml</dc:format><dc:type
           rdf:resource="http://purl.org/dc/dcmitype/StillImage" /><dc:title></dc:title></cc:Work></rdf:RDF></metadata><defs
     id="defs12379" /><sodipodi:namedview
     pagecolor="#ffffff"
     bordercolor="#666666"
     borderopacity="1"
     objecttolerance="10"
     gridtolerance="10"
     guidetolerance="10"
     inkscape:pageopacity="0"
     inkscape:pageshadow="2"
     inkscape:window-width="1858"
     inkscape:window-height="1071"
     id="namedview12377"
     showgrid="false"
     inkscape:zoom="3.5932831"
     inkscape:cx="-30.586663"
     inkscape:cy="31.466362"
     inkscape:window-x="0"
     inkscape:window-y="0"
     inkscape:window-maximized="1"
     inkscape:current-layer="g12385" /><g
     id="g12383"
     inkscape:groupmode="layer"
     inkscape:label="ink_ext_XXXXXX"
     transform="matrix(1.3333333,0,0,-1.3333333,-184.86666,54.71145)"><g
       id="g12385"
       transform="scale(0.1)"><path
         d="m 2287.9,261.598 c 12,2.898 26.2,6.703 25,21.8 -0.9,11.801 -13.8,24.704 -26.1,33.598 -21.8,22.703 -56,38.406 -84.5,34.106 -34.4,-5.204 -55.5,-42.102 -34.2,-72.204 27.1,-38.398 81.3,-26.597 119.8,-17.3"
         style="fill:#949294;fill-opacity:1;fill-rule:nonzero;stroke:none"
         id="path12399"
         inkscape:connector-curvature="0" /><path
         d="m 2247.9,310.898 c -8.5,17.102 -46.4,32.204 -63.6,16.903 -4.79,-3.352 -8.3,-8.211 -10,-13.801 -1.04,-13.121 7.01,-25.254 19.5,-29.398 12.7,-5.801 28.9,-12.004 42.5,-5.907 11.8,4.864 17.42,18.368 12.56,30.164 -0.29,0.692 -0.61,1.375 -0.96,2.039"
         style="fill:#a09a9f;fill-opacity:1;fill-rule:nonzero;stroke:none"
         id="path12401"
         inkscape:connector-curvature="0" /><path
         d="m 2256.3,342.102 c -3.7,1.699 -9.5,-2.301 -6.4,-6.403 6.3,-8.398 21,-23.101 23.3,-33.199 1.4,-6.398 11.6,-28.805 -40.8,-29.5 -30.7,0 -58.3,11.801 -71.6,42.098 -4,-9.317 -4.75,-19.711 -2.1,-29.496 9.3,-22.098 29.3,-28.704 51.9,-31.106 29.3,-4.125 59.14,-2.078 87.6,6.004 46.8,16.199 -21.8,72.402 -41.9,81.602"
         style="fill:#837e83;fill-opacity:1;fill-rule:nonzero;stroke:none"
         id="path12403"
         inkscape:connector-curvature="0" /><path
         d="m 2260,342.699 c -25.5,20 -70.7,18.801 -89,-8.601 25.2,11.8 52.3,15.199 75.3,-0.7 12.45,-7.25 21.38,-19.285 24.7,-33.3 1.58,-7.293 0.09,-14.922 -4.1,-21.098 26.2,15.199 13.1,48.301 -6.9,63.699"
         style="fill:#bbb4b8;fill-opacity:1;fill-rule:nonzero;stroke:none"
         id="path12405"
         inkscape:connector-curvature="0" /><path
         d="m 2301.3,305.199 c -3.1,-44.699 -65.1,-46.695 -77.1,-46 -21.3,1.301 -51.4,7.699 -67,40 -10,-33.597 28,-53.597 79.2,-51 22.21,1.305 44.15,5.61 65.2,12.805 22.8,9.894 9.6,36.098 -0.3,44.195"
         style="fill:#676369;fill-opacity:1;fill-rule:nonzero;stroke:none"
         id="path12407"
         inkscape:connector-curvature="0" /><path
         d="m 2081.3997,105.34615 c -8.394,-1.3008 -16.098,-15.902395 -18.492,-25.097695 -2.164,-7.793 -3.668,-15.7656 -4.504,-23.8008 0,-12.00388 17.797,-11.50388 27.301,-12.30466 2.125,0 4.242,0.27344 6.297,0.80078 -1.098,10.99608 -11.098,17.70308 -12.196,26.19918 -2.011,11.3789 -1.464,23.0586 1.594,34.203195"
         style="fill:#949294;fill-opacity:1;fill-rule:nonzero;stroke:none"
         id="path12431"
         inkscape:connector-curvature="0" /><path
         d="m 2108.7007,64.045355 c -3.195,20 -18.996,41.601495 -26.098,41.699195 h -1.203 c -3.074,-11.171895 -3.621,-22.890595 -1.594,-34.296895 1.098,-8.8008 11.098,-15.5078 12.196,-26.10154 7.804,1.59766 18.902,7.19534 16.699,18.69924"
         style="fill:#676369;fill-opacity:1;fill-rule:nonzero;stroke:none"
         id="path12433"
         inkscape:connector-curvature="0" /><path
         d="m 2094.6027,97.346155 c -1.558,3.371095 -4.058,6.210895 -7.199,8.195295 -2.598,1.5039 -5,3.3008 -8.703,0 -5.258,-3.9571 -9.34,-9.289095 -11.797,-15.394595 2.102,0 4.098,5.6954 9.199,9.999995 -1.984,-11.265595 -0.301,-22.870995 4.801,-33.101495 0,5.2031 -1.699,13.6992 -1.301,19.0976 0.219,4.9336 1.235,9.7969 3,14.398495 1.699,3.5039 3.598,0 5.801,-1.300795 1.953,-0.8398 3.723,-2.0703 5.199,-3.5938 1.301,-1.8046 4.102,-8.3984 6.699,-8.3984 -0.296,0.5977 -4.398,8.0977 -5.699,10.0977"
         style="fill:#bbb4b8;fill-opacity:1;fill-rule:nonzero;stroke:none"
         id="path12435"
         inkscape:connector-curvature="0" /><path
         d="m 1426.7,109.195 c 4.9,-3.496 19.3,-4.394 24.5,-7.39 8.5,-5.0003 8,-15.0003 16.2,-27.5003 13,-20 23.7,-20 54.2,-13.0078 -11.06,12.8086 -23.09,24.7539 -36,35.6992 -10.8,11.3009 -23.8,29.9999 -40.8,29.9999 -5.65,0.891 -11.42,0.512 -16.9,-1.094 -3.46,-1.597 -6.58,-3.836 -9.2,-6.597 0,0 0,0 0,-0.703 1.48,-3.977 4.31,-7.305 8,-9.407"
         style="fill:#a09a9f;fill-opacity:1;fill-rule:nonzero;stroke:none"
         id="path12437"
         inkscape:connector-curvature="0" /><path
         d="m 1499.1,49.3047 c 7.29,2.5469 15.22,2.5469 22.5,0 5,-2.9024 6.7,-19.1055 7.4,-24.0039 0,-0.9961 0,-2.1016 0,-3.2031 l 4.3,1.1015 c 0.33,13.7617 -3.85,27.2461 -11.9,38.3985 -30,-7.5 -41.2,-6.7969 -54.2,13 -8.2,12.5 -7.7,22.5 -16.2,27.5003 -5.2,3.004 -20,3.906 -24.5,7.398 -3.6,2.043 -6.39,5.258 -7.9,9.106 0,0 0,0.496 0,0.703 -3.05,-3.086 -5.84,-6.438 -8.3,-10 -3.67,-5.539 -7.01,-11.2816 -10,-17.2073 9.42,-3.2149 18.25,-7.9141 26.2,-13.8985 10,-8.8945 28,-16.6992 30,-30 1.98,-11.8945 2.65,-23.9648 2,-35.9961 2.9,0 5.9,0 8.9,0 0,6.8946 7.2,13.9922 14.1,24.793 4.31,5.9687 10.51,10.3047 17.6,12.3086"
         style="fill:#837e83;fill-opacity:1;fill-rule:nonzero;stroke:none"
         id="path12439"
         inkscape:connector-curvature="0" /><path
         d="m 1529,24.9961 c -0.7,4.9023 -2.4,21.1055 -7.4,24.0039 -7.28,2.5508 -15.21,2.5508 -22.5,0 -7.47,-2.0898 -13.96,-6.7695 -18.3,-13.2031 -6.9,-10.8008 -13.7,-17.9024 -14.1,-24.793 21.16,0.7695 42.15,4.1289 62.5,10 0,1.8906 -0.1,2.5977 -0.2,3.9922"
         style="fill:#545057;fill-opacity:1;fill-rule:nonzero;stroke:none"
         id="path12441"
         inkscape:connector-curvature="0" /><path
         d="m 1440,56.8984 c 9.5,-1.7968 12.1,-2.1953 15.8,-10 v 0 c -1.7,13.8008 -19.3,21.6055 -30,30 -7.77,6.2032 -16.48,11.125 -25.8,14.6016 -7.38,-12.8711 -11.98,-27.1406 -13.5,-41.9023 5.1,-4.8946 11.8,-11.5938 19.3,-17.9024 0.81,9.5117 3.54,18.7695 8,27.207 6.2,5.5938 19.4,-0.7031 26.2,-2.0039"
         style="fill:#676369;fill-opacity:1;fill-rule:nonzero;stroke:none"
         id="path12443"
         inkscape:connector-curvature="0" /><path
         d="m 1455.8,46.6953 c -3.7,8.0078 -6.3,8.4063 -15.8,10 -6.8,1.3086 -20,7.6094 -26.3,2 -4.46,-8.4336 -7.19,-17.6836 -8,-27.1953 9.33,-9.082 20.82,-15.625 33.4,-19.0039 5.86,-0.8984 11.77,-1.4258 17.7,-1.5938 h 1 c 0,2.6993 0.8,5.1993 0.8,7.793 -0.25,9.3985 -1.18,18.75 -2.8,28"
         style="fill:#545057;fill-opacity:1;fill-rule:nonzero;stroke:none"
         id="path12445"
         inkscape:connector-curvature="0" /><path
         d="m 1512.7,59.1953 c -5.1,0 -14.6,0 -20,0.8008 -6.74,0.3906 -12.84,4.1484 -16.2,10 -5.46,6.0625 -10.12,12.7812 -13.9,20 -1.6,3.1055 -2.1,11.1989 -5.4,12.6059 -1.1,0.5 -8.2,3.402 -10.7,4.601 -2.5,1.199 -10,1.492 -14.5,4.492 -2.92,2.508 -4.6,6.16 -4.6,10 0,2.305 8.2,5.403 7.6,5.508 -7.6,0.598 -11.2,-1.902 -17.4,-8.906 -2.2,-2.5 8.8,-10 9.1,-10.496 6,-3.801 20,-5.5 22.6,-9.5041 2.6,-3.9922 0.8,-13.4961 -1.1,-18.8985 -2.63,-8.6015 -3.45,-17.664 -2.4,-26.5976 2.3,-7.1016 5.8,-4.5039 7.1,-5.5977 3.1,-2.6054 1,-14.707 5,-19.1992 0.6,5 -1.3,22.3906 4.2,28.9922 1.6,1.9062 5.3,1.0078 16.1,0 11.43,-3.0469 23.55,-2.2734 34.5,2.1992"
         style="fill:#bbb4b8;fill-opacity:1;fill-rule:nonzero;stroke:none"
         id="path12447"
         inkscape:connector-curvature="0" /><path
         d="m 1907.3057,89.142955 c 1.496,0 0.801,7.7032 2.297,8.3008 4.699,1.7071 9.508,3.074195 14.403,4.101595 10.738,1.1015 21.562,1.1015 32.296,0 15.153,0.793 30.211,2.8984 45,6.3008 -7,-0.5977 -9.097,3.2031 -8.097,4.5976 -6.5,15.0977 -9.305,23.0977 -26.102,23.3985 -21.59,-0.8594 -42.754,-6.2813 -62.097,-15.8985 -6.075,-2.1601 -12.016,-4.6601 -17.801,-7.5 -1.149,-3.2812 -2.117,-6.6094 -2.903,-10 -1.195,-7.898395 16.602,-13.894495 23.004,-13.300795"
         style="fill:#837e83;fill-opacity:1;fill-rule:nonzero;stroke:none"
         id="path12449"
         inkscape:connector-curvature="0" /><path
         d="m 1874.0057,96.342255 c 0,-11.3985 16.296,-17.2969 24.695,-20.5977 19.406,-5.9844 39.738,-8.3906 60,-7.1016 11.707,0 28.605,-0.6015 38.805,6.2032 9.41,7.2461 11.714,20.5 5.296,30.499995 -15.355,-2.6211 -30.918,-3.8985 -46.5,-3.8008 -10.734,1.1015 -21.558,1.1015 -32.296,0 -4.895,-1.0274 -9.704,-2.394495 -14.403,-4.101595 -1.496,-0.5976 -0.801,-8.2031 -2.297,-8.3008 -6.601,-0.5937 -24.199,5.4024 -23.004,13.203195 0.786,3.3789 1.754,6.7187 2.903,10 -7.199,-3.3985 -13.305,-8.5039 -13.199,-16.003895"
         style="fill:#676369;fill-opacity:1;fill-rule:nonzero;stroke:none"
         id="path12451"
         inkscape:connector-curvature="0" /><path
         d="m 1989.0057,122.24845 c -13.598,-3.4062 -27.5,-12.9023 -41.5,-13.8086 -7,0 -20,1.707 -25.704,-2.0976 -3.093,-4.1055 -7.339,-7.199295 -12.199,-8.898495 8.602,-6.9023 28.199,0 38.899,0 7.875,-0.7695 15.793,-1.0469 23.703,-0.8008 10.594,1.4532 20.906,4.492195 30.597,9.003895 -1.296,3.8985 -7.394,5 -10,7.1016 -1.007,3.2617 -2.281,6.4336 -3.796,9.5"
         style="fill:#949294;fill-opacity:1;fill-rule:nonzero;stroke:none"
         id="path12453"
         inkscape:connector-curvature="0" /><path
         d="m 1985.1027,128.74065 c -11.402,15.3049 -41.402,7.0039 -50,4.3008 -13.988,-3.8789 -27.429,-9.5235 -40,-16.8008 -5.297,-3.4922 6.297,0 7.805,0.8047 12.297,3.1015 30,10.8945 42.898,13.4961 7.2,1.5039 35.098,-4.6016 39.297,-1.8008"
         style="fill:#bbb4b8;fill-opacity:1;fill-rule:nonzero;stroke:none"
         id="path12455"
         inkscape:connector-curvature="0" /><path
         d="m 1568.5406,361.67946 c 1.496,0 0.801,7.703 2.301,8.301 4.668,1.809 9.484,3.176 14.398,4.102 10.778,1.054 21.625,1.054 32.403,0 15.125,0.703 30.158,2.812 44.898,6.297 -7,-0.594 -9.1,3.109 -8.1,4.601 -6.4,15 -9.298,23.008 -26.099,23.301 -21.582,-0.82 -42.746,-6.211 -62.102,-15.801 -4.398,-1.894 -11.402,-4.199 -17.699,-7.5 -1.164,-3.281 -2.164,-6.609 -3,-10 -1.199,-7.898 16.402,-13.894 23,-13.301"
         style="fill:#837e83;fill-opacity:1;fill-rule:nonzero;stroke:none"
         id="path12457"
         inkscape:connector-curvature="0" /><path
         d="m 1535.2396,368.58646 c 0,-11.399 16.305,-17.407 24.699,-20.598 19.399,-6.035 39.735,-8.445 60,-7.102 11.704,0 28.602,-0.703 38.802,6.094 10.07,7.348 12.42,21.379 5.3,31.606 -15.33,-2.59 -30.855,-3.821 -46.398,-3.704 -10.778,1.055 -21.625,1.055 -32.403,0 -4.914,-0.925 -9.73,-2.296 -14.398,-4.101 -1.5,-0.598 -0.805,-8.098 -2.301,-8.301 -6.598,-0.598 -24.199,5.399 -23,13.301 0.836,3.379 1.836,6.719 3,10 -7.199,-4.199 -13.398,-9.395 -13.301,-17.195"
         style="fill:#676369;fill-opacity:1;fill-rule:nonzero;stroke:none"
         id="path12459"
         inkscape:connector-curvature="0" /><path
         d="m 1650.2406,394.88246 c -13.598,-3.398 -27.501,-13 -41.501,-13.796 -6.996,0 -20,1.699 -25.699,-2.2 -3.094,-4.113 -7.344,-7.207 -12.199,-8.906 8.601,-6.894 28.203,0 38.898,0 7.875,-0.769 15.793,-1.035 23.703,-0.801 10.59,1.453 20.908,4.493 30.598,9.004 -1.3,3.899 -7.4,5 -10,7.196 -1.01,3.261 -2.28,6.449 -3.8,9.503"
         style="fill:#949294;fill-opacity:1;fill-rule:nonzero;stroke:none"
         id="path12461"
         inkscape:connector-curvature="0" /><path
         d="m 1646.3416,401.28146 c -11.403,15.398 -41.403,7.105 -50,4.305 -13.988,-3.848 -27.43,-9.461 -40,-16.7 -5.301,-3.507 6.301,0 7.801,0.696 12.296,3.101 30,11.004 42.898,13.504 7.203,1.496 34.602,-4.5 39.301,-1.805"
         style="fill:#bbb4b8;fill-opacity:1;fill-rule:nonzero;stroke:none"
         id="path12463"
         inkscape:connector-curvature="0" /><path
         d="m 1740.7406,378.58646 c -8.2,-5.903 -32.1,-7.407 -40.7,-12.407 -14,-8.191 -13.3,-24.898 -26.8,-45.496 -21.6,-32.8982 -39.302,-34.199 -90.001,-21.699 16.797,23.496 41.004,40 60,59.297 19.001,19.305 40.001,49.101 67.701,49.199 9.39,1.524 19,0.867 28.1,-1.894 5.73,-2.559 10.9,-6.231 15.2,-10.801 0.04,-0.43 0.04,-0.867 0,-1.297 -2.59,-6.418 -7.37,-11.699 -13.5,-14.902"
         style="fill:#a09a9f;fill-opacity:1;fill-rule:nonzero;stroke:none"
         id="path12465"
         inkscape:connector-curvature="0" /><path
         d="m 1620.6386,278.58606 c -11.996,2.3007 -26.996,5.3984 -37.297,-0.5977 -8.403,-4.8047 -11.301,-31.707 -12.301,-40 0,-1.707 0,-3.5078 0,-5.3047 l -7.102,1.7969 c -0.511,22.8555 6.516,45.2461 20,63.7031 50.602,-12.5 68.302,-11.2031 90.002,21.6988 13.5,20.606 12.8,37.305 26.8,45.497 8.6,5 32.5,6.503 40.7,12.406 5.94,3.301 10.54,8.562 13,14.898 0.04,0.434 0.04,0.871 0,1.301 5.1,-5.305 9.75,-11.023 13.9,-17.102 6.1,-9.128 11.71,-18.574 16.8,-28.296 -15.59,-5.344 -30.23,-13.11 -43.4,-23 -17.3,-14.6997 -46.5,-27.8012 -49.3,-50.6059 -3.29,-19.8125 -4.39,-39.9336 -3.3,-60.00001 -4.8,0 -10,0 -14.8,0 -0.6,11.40621 -12,23.20311 -23.4,41.19921 -7.119,10.832 -17.861,18.7813 -30.302,22.4063"
         style="fill:#837e83;fill-opacity:1;fill-rule:nonzero;stroke:none"
         id="path12467"
         inkscape:connector-curvature="0" /><path
         d="m 1571.0406,238.58606 c 1,8.0937 3.898,35 12.301,40 10,5.9961 25.301,2.8984 37.297,0.5937 12.257,-3.5547 22.879,-11.3086 30.002,-21.8945 11.4,-17.9961 22.8,-30 23.4,-41.19924 -35.145,1.55078 -69.969,7.40235 -103.699,17.40234 0.398,1.5977 0.5,3.3945 0.699,5.0977"
         style="fill:#545057;fill-opacity:1;fill-rule:nonzero;stroke:none"
         id="path12469"
         inkscape:connector-curvature="0" /><path
         d="m 1718.7406,291.48446 c -15.9,-2.9961 -20,-3.4961 -26.4,-16.9023 v 0.7031 c 2.8,22.8008 32,35.8945 49.3,50.6012 13.17,9.895 27.82,17.657 43.4,23 12.26,-21.308 19.89,-44.9528 22.4,-69.4059 -8.5,-8.3008 -20,-19.2969 -32,-30 -0.8,7.5 -6.3,39.1055 -13.3,45.1016 -10.9,9.5 -32.3,-0.9961 -43.4,-3.0977"
         style="fill:#676369;fill-opacity:1;fill-rule:nonzero;stroke:none"
         id="path12471"
         inkscape:connector-curvature="0" /><path
         d="m 1692.3406,274.58216 c 6.2,13.4062 10,13.9062 26.4,16.9023 11.1,2.1016 32.5,12.5977 43.5,3.3008 7,-6.0039 12.5,-37.5977 13.3,-45.0977 -17.3,-14.8047 -37.1,-28.50779 -55.5,-31.50388 -9.7,-1.49609 -19.49,-2.36329 -29.3,-2.59766 h -1.6 c 0,4.59766 -1.3,8.70313 -1.3,13.00004 0.37,15.4179 1.88,30.7968 4.5,45.9961"
         style="fill:#545057;fill-opacity:1;fill-rule:nonzero;stroke:none"
         id="path12473"
         inkscape:connector-curvature="0" /><path
         d="m 1598.0406,295.37896 c 8.504,0.7071 24.297,0 32.699,1.2032 11.035,0.5546 21.081,6.5507 26.801,16.0039 9.11,10.2264 16.88,21.5824 23.1,33.8004 2.7,5.196 3.5,18.594 8.9,20.996 1.8,0.801 13.6,5.606 17.9,7.598 4.3,2 17,2.402 24,7.5 4.7,4.055 7.46,9.902 7.6,16.106 0,3.894 -13.6,9 -12.7,9.097 12.7,1.098 18.6,-3.101 28.9,-14.804 3.8,-4.2 -14.5,-17.196 -15,-17.293 -10,-6.407 -32.6,-9.2 -37.5,-15.899 -4.9,-6.699 -1.4,-22.305 1.8,-31.301 4.32,-14.3122 5.71,-29.3434 4.1,-44.2067 -3.9,-11.6992 -10,-7.2969 -12,-9.0937 -5,-4.4024 -1.6,-24.5 -8.3,-32 -0.9,8.3984 2.3,37.1992 -6.9,48.0937 -2.7,3.2031 -8.8,1.6992 -26.7,0 -15.598,-1.1992 -23.598,-7.0976 -56.7,4.1992"
         style="fill:#bbb4b8;fill-opacity:1;fill-rule:nonzero;stroke:none"
         id="path12475"
         inkscape:connector-curvature="0" /><path
         d="m 2004.8,300.602 c -11.6,-1.907 -22.2,-22.098 -25.5,-34.704 -2.99,-10.738 -5.06,-21.707 -6.2,-32.796 -0.6,-16.602 24.5,-15.899 37.7,-17 2.9,-0.024 5.79,0.339 8.6,1.101 -2,15 -15.6,24.297 -16.7,35.996 -1.1,11.699 -3.8,34.602 2.1,47.403"
         style="fill:#949294;fill-opacity:1;fill-rule:nonzero;stroke:none"
         id="path12485"
         inkscape:connector-curvature="0" /><path
         d="m 2042.6,243.602 c -4.6,27.898 -26.3,57.402 -36,57.5 -0.6,0.046 -1.2,0.046 -1.8,0 -5.9,-12.801 -3.3,-34.403 -2.1,-47.407 1.2,-12.996 14.7,-20.996 16.7,-35.996 10.6,2.199 25.7,9.903 23.2,25.903"
         style="fill:#676369;fill-opacity:1;fill-rule:nonzero;stroke:none"
         id="path12487"
         inkscape:connector-curvature="0" /><path
         d="m 2023.1,289.398 c -2.22,4.598 -5.69,8.473 -10,11.204 -3.6,2.199 -6.9,4.597 -12,0.796 -7.23,-5.472 -12.87,-12.796 -16.3,-21.199 2.9,0 5.7,7.801 12.7,13.899 -4.8,-13.598 1.7,-36.797 6.7,-46.598 0,7.301 -2.3,18.898 -1.9,26.5 0.39,6.832 1.76,13.57 4.1,20 2.4,4.801 5.1,-0.496 8.1,-1.801 2.73,-1.187 5.18,-2.922 7.2,-5.097 1.8,-2.403 5.6,-11.5 9.2,-11.5 -0.4,0.593 -6.1,11.296 -7.8,13.796"
         style="fill:#bbb4b8;fill-opacity:1;fill-rule:nonzero;stroke:none"
         id="path12489"
         inkscape:connector-curvature="0" /></g></g></svg>