<?xml version="1.0" encoding="iso-8859-1"?>
<!-- Generator: Adobe Illustrator 19.0.0, SVG Export Plug-In . SVG Version: 6.00 Build 0)  -->
<svg version="1.1" id="Capa_1" xmlns="http://www.w3.org/2000/svg" xmlns:xlink="http://www.w3.org/1999/xlink" x="0px" y="0px"
	 viewBox="0 0 512 512" style="enable-background:new 0 0 512 512;" xml:space="preserve">
<g>
	<g>
		<path d="M256,0C114.507,0,0,114.497,0,256c0,141.493,114.497,256,256,256c141.493,0,256-114.497,256-256
			C512,114.507,397.503,0,256,0z M256,482C131.09,482,30,380.922,30,256C30,131.089,131.078,30,256,30c124.91,0,226,101.078,226,226
			C482,380.911,380.922,482,256,482z"/>
	</g>
</g>
<g>
	<g>
		<path d="M256,60C147.925,60,60,147.925,60,256s87.925,196,196,196c32.488,0,64.697-8.153,93.145-23.578
			c7.283-3.949,9.985-13.054,6.037-20.336c-3.948-7.282-13.053-9.985-20.336-6.037C310.774,415.101,283.51,422,256,422
			c-91.532,0-166-74.467-166-166S164.468,90,256,90s166,74.467,166,166c0,27.744-7.011,55.213-20.273,79.438
			c-3.979,7.267-1.313,16.382,5.954,20.361c7.266,3.977,16.382,1.313,20.36-5.954C443.715,321.216,452,288.765,452,256
			C452,147.925,364.075,60,256,60z"/>
	</g>
</g>
<g>
	<g>
		<path d="M201,216c-22.056,0-40,17.944-40,40c0,22.056,17.944,40,40,40c22.056,0,40-17.944,40-40C241,233.944,223.056,216,201,216z
			 M201,266c-5.514,0-10-4.486-10-10c0-5.514,4.486-10,10-10c5.514,0,10,4.486,10,10C211,261.514,206.514,266,201,266z"/>
	</g>
</g>
<g>
	<g>
		<path d="M311,216c-22.056,0-40,17.944-40,40c0,22.056,17.944,40,40,40c22.056,0,40-17.944,40-40C351,233.944,333.056,216,311,216z
			 M311,266c-5.514,0-10-4.486-10-10c0-5.514,4.486-10,10-10c5.514,0,10,4.486,10,10C321,261.514,316.514,266,311,266z"/>
	</g>
</g>
<g>
</g>
<g>
</g>
<g>
</g>
<g>
</g>
<g>
</g>
<g>
</g>
<g>
</g>
<g>
</g>
<g>
</g>
<g>
</g>
<g>
</g>
<g>
</g>
<g>
</g>
<g>
</g>
<g>
</g>
</svg>
