<?xml version="1.0" encoding="iso-8859-1"?>
<!-- Generator: Adobe Illustrator 19.0.0, SVG Export Plug-In . SVG Version: 6.00 Build 0)  -->
<svg xmlns="http://www.w3.org/2000/svg" xmlns:xlink="http://www.w3.org/1999/xlink" version="1.1" id="Layer_1" x="0px" y="0px" viewBox="0 0 512.004 512.004" style="enable-background:new 0 0 512.004 512.004;" xml:space="preserve" width="512" height="512">
<g id="XMLID_1100_">
	<path id="XMLID_1101_" d="M308.131,134.81c3.445,1.878,7.166,2.769,10.838,2.769c8.056,0,15.872-4.288,19.991-11.845c0,0,0,0,0,0   c5.997-11.002,1.926-24.832-9.076-30.829c-5.33-2.906-11.471-3.561-17.295-1.847c-5.822,1.714-10.629,5.594-13.534,10.923   c-2.905,5.33-3.562,11.472-1.848,17.294C298.922,127.098,302.801,131.905,308.131,134.81z M312.225,111.16   c0.988-1.812,2.622-3.13,4.601-3.713c0.723-0.213,1.46-0.318,2.192-0.318c1.274,0,2.536,0.319,3.687,0.946   c3.74,2.039,5.124,6.74,3.086,10.48c-2.038,3.74-6.739,5.125-10.48,3.085c-1.812-0.987-3.13-2.621-3.713-4.601   S311.238,112.972,312.225,111.16z"/>
	<path id="XMLID_1104_" d="M385.496,151.1C385.496,151.1,385.496,151.1,385.496,151.1c5.997-11.003,1.926-24.833-9.076-30.83   c-5.33-2.905-11.47-3.562-17.295-1.847c-5.823,1.714-10.63,5.594-13.535,10.923c-5.997,11.002-1.926,24.833,9.077,30.83   c3.444,1.877,7.165,2.768,10.838,2.768C373.56,162.945,381.376,158.657,385.496,151.1z M372.326,143.92   c-2.039,3.74-6.741,5.123-10.48,3.086c-3.74-2.039-5.124-6.74-3.086-10.48c0.988-1.812,2.622-3.13,4.602-3.713   c0.723-0.213,1.46-0.318,2.192-0.318c1.274,0,2.536,0.319,3.687,0.946C372.98,135.479,374.364,140.181,372.326,143.92z"/>
	<path id="XMLID_1107_" d="M305.003,140.549c-11.006-5.999-24.834-1.926-30.83,9.077c-5.997,11.002-1.926,24.832,9.077,30.83   c3.444,1.877,7.166,2.768,10.838,2.768c8.056,0,15.872-4.288,19.991-11.845v0C320.077,160.376,316.005,146.546,305.003,140.549z    M300.91,164.199C300.91,164.199,300.91,164.199,300.91,164.199c-2.039,3.74-6.742,5.124-10.48,3.086   c-3.74-2.039-5.124-6.74-3.086-10.48c1.4-2.569,4.058-4.027,6.796-4.027c1.248,0,2.514,0.303,3.685,0.941   C301.564,155.758,302.948,160.459,300.91,164.199z"/>
	<path id="XMLID_1110_" d="M351.539,165.915c-11.005-5.999-24.833-1.926-30.83,9.076c-5.997,11.002-1.926,24.833,9.076,30.83   c3.445,1.878,7.167,2.769,10.839,2.769c8.056,0,15.872-4.288,19.991-11.845C366.612,185.742,362.54,171.912,351.539,165.915z    M347.445,189.565c-2.039,3.74-6.742,5.124-10.48,3.086c-3.74-2.039-5.124-6.74-3.086-10.48c1.4-2.569,4.058-4.027,6.796-4.027   c1.248,0,2.514,0.303,3.685,0.941C348.099,181.124,349.483,185.825,347.445,189.565z"/>
	<path id="XMLID_1113_" d="M120.851,344.07c5.557-2.444,9.829-6.905,12.031-12.562c2.201-5.657,2.067-11.833-0.376-17.389   c-5.043-11.471-18.477-16.7-29.951-11.654c-11.47,5.044-16.697,18.479-11.653,29.95c2.443,5.557,6.904,9.829,12.561,12.03   c2.674,1.041,5.463,1.56,8.248,1.56C114.819,346.004,117.921,345.358,120.851,344.07z M104.632,326.376   c-1.714-3.899,0.063-8.466,3.961-10.181c0.997-0.438,2.052-0.658,3.108-0.658c0.946,0,1.895,0.176,2.804,0.53   c1.923,0.749,3.439,2.201,4.271,4.089c0.83,1.889,0.876,3.988,0.127,5.911c-0.748,1.923-2.2,3.439-4.089,4.27   C110.914,332.054,106.347,330.275,104.632,326.376z"/>
	<path id="XMLID_1116_" d="M151.978,323.11c2.674,1.041,5.463,1.56,8.248,1.56c3.108,0,6.211-0.646,9.141-1.935   c5.557-2.444,9.829-6.905,12.031-12.562c2.201-5.657,2.067-11.833-0.376-17.389s-6.904-9.829-12.561-12.03   c-5.657-2.201-11.834-2.068-17.389,0.375c-5.557,2.444-9.829,6.905-12.031,12.561c-2.201,5.657-2.067,11.833,0.376,17.389   S146.322,320.909,151.978,323.11z M157.11,294.861c0.997-0.438,2.052-0.658,3.108-0.658c0.946,0,1.895,0.176,2.803,0.53   c1.923,0.748,3.439,2.201,4.271,4.089c0.83,1.889,0.876,3.988,0.127,5.911c-0.748,1.923-2.2,3.439-4.089,4.27   c-3.9,1.715-8.466-0.063-10.182-3.962C151.434,301.143,153.211,296.576,157.11,294.861z"/>
	<path id="XMLID_1119_" d="M140.872,349.677c-5.658-2.202-11.834-2.068-17.389,0.375c-5.557,2.444-9.829,6.905-12.031,12.562   c-2.201,5.657-2.067,11.833,0.376,17.389s6.904,9.829,12.562,12.03c2.674,1.041,5.463,1.56,8.248,1.56   c3.107,0,6.211-0.646,9.142-1.935c11.47-5.044,16.697-18.48,11.653-29.95C150.989,356.15,146.528,351.878,140.872,349.677z    M135.741,377.926c-1.892,0.832-3.989,0.875-5.912,0.128c-1.923-0.749-3.439-2.201-4.271-4.09c-0.83-1.889-0.876-3.988-0.127-5.911   c0.748-1.923,2.2-3.439,4.089-4.27c0.997-0.438,2.051-0.658,3.107-0.658c0.947,0,1.896,0.176,2.804,0.53   c1.923,0.749,3.439,2.201,4.271,4.09C141.416,371.644,139.639,376.212,135.741,377.926z"/>
	<path id="XMLID_1122_" d="M189.387,328.342c-5.657-2.201-11.833-2.068-17.389,0.375c-5.557,2.444-9.829,6.905-12.03,12.562   s-2.067,11.832,0.376,17.389s6.904,9.829,12.561,12.03c2.674,1.041,5.463,1.56,8.248,1.56c3.108,0,6.211-0.646,9.141-1.935   c5.557-2.444,9.829-6.905,12.031-12.562c2.201-5.657,2.067-11.833-0.376-17.389S195.044,330.543,189.387,328.342z M188.345,352.322   c-0.748,1.923-2.2,3.439-4.089,4.27c-1.892,0.831-3.991,0.875-5.911,0.128c-1.923-0.749-3.439-2.201-4.271-4.09   c-1.715-3.899,0.063-8.466,3.962-10.181c0.996-0.438,2.051-0.658,3.107-0.658c0.946,0,1.895,0.176,2.804,0.53   c1.923,0.748,3.439,2.201,4.271,4.089C189.048,348.299,189.094,350.399,188.345,352.322z"/>
	<path id="XMLID_1125_" d="M445.666,239.888c4.717-6.12,8.979-12.641,12.698-19.463c18.715-34.332,22.939-73.896,11.896-111.406   c-11.044-37.509-36.032-68.473-70.364-87.188c-70.872-38.63-159.96-12.403-198.593,58.469   c-11.274,20.683-17.276,43.033-17.84,66.427c-0.409,17.017,2.224,34.156,7.656,50.344c-33.055-10.587-69.851-9.531-103.621,5.32   c-17.449,7.673-32.98,18.458-46.162,32.056c-2.884,2.974-2.81,7.722,0.164,10.605c2.976,2.885,7.724,2.809,10.605-0.165   c11.826-12.199,25.766-21.877,41.431-28.765c59.007-25.949,128.298-4.99,163.068,48.678c-8.142,9.086-15.167,19.191-20.858,30.099   c-22.478-48.425-79.874-70.258-128.972-48.669C57.061,268.093,34.4,326.326,56.262,376.042   c16.209,36.859,52.404,58.845,90.304,58.845c13.22,0,26.65-2.677,39.507-8.33c14.908-6.555,27.62-16.398,37.481-28.868   c2.953,11.892,7.386,23.369,13.202,34.157c-10.928,10.346-23.505,18.689-37.441,24.818c-17.154,7.543-35.063,11.113-52.701,11.112   c-50.551-0.002-98.84-29.332-120.459-78.495c-8.513-19.359-12.182-39.8-10.906-60.754c1.218-19.998,7.118-39.796,17.062-57.255   c2.051-3.599,0.795-8.179-2.805-10.229c-3.6-2.049-8.178-0.794-10.229,2.805c-11.073,19.441-17.644,41.491-19,63.767   c-1.423,23.36,2.664,46.139,12.147,67.704c24.089,54.78,77.884,87.459,134.211,87.456c19.647-0.001,39.609-3.978,58.718-12.381   c14.533-6.391,27.743-14.948,39.366-25.479c3.258,4.77,6.804,9.366,10.64,13.755c23.07,26.394,54.792,43.655,89.32,48.604   c4.102,0.589,7.901-2.26,8.488-6.36c0.588-4.1-2.26-7.9-6.359-8.488c-30.979-4.44-59.445-19.933-80.155-43.626   c-20.905-23.917-32.419-54.606-32.419-86.413c0-72.446,58.939-131.386,131.386-131.386s131.386,58.939,131.386,131.386   c0,32.676-12.073,63.995-33.995,88.187c-21.77,24.024-51.433,39.107-83.525,42.471c-4.119,0.432-7.108,4.121-6.677,8.241   c0.404,3.854,3.658,6.719,7.45,6.719c0.261,0,0.525-0.014,0.791-0.042c35.769-3.749,68.824-20.553,93.076-47.317   c24.428-26.957,37.88-61.853,37.88-98.259C512.004,311.193,485.583,266.061,445.666,239.888z M180.036,412.825   c-42.146,18.533-91.511-0.678-110.043-42.821c-18.532-42.145,0.678-91.509,42.821-110.042   c42.146-18.533,91.509,0.675,110.043,42.822c1.734,3.943,3.16,8.037,4.266,12.176c-5.11,14.881-7.89,30.835-7.89,47.427   c0,4.592,0.22,9.161,0.646,13.697C210.993,392.562,197.23,405.264,180.036,412.825z M303.839,229.696   c-4.8-1.58-9.494-3.585-13.966-6.023c-19.583-10.674-33.836-28.335-40.135-49.729s-3.89-43.961,6.784-63.543   c22.035-40.423,72.851-55.385,113.273-33.349c11.883,6.477,21.72,15.414,29.236,26.562c2.317,3.435,6.977,4.342,10.412,2.025   c3.434-2.315,4.341-6.977,2.025-10.411c-8.749-12.976-20.677-23.815-34.494-31.347c-47.688-25.994-107.63-8.347-133.623,39.34   c-12.592,23.1-15.435,49.721-8.004,74.959c7.431,25.238,24.245,46.072,47.345,58.663c1.388,0.757,2.795,1.477,4.217,2.166   c-6.922,4.432-13.448,9.43-19.513,14.928c-14.751-21.695-34.652-38.374-57.185-49.243c-8.159-18.006-12.226-37.899-11.752-57.606   c0.505-20.985,5.893-41.041,16.014-59.608C249.149,23.869,329.11,0.329,392.717,35.002c30.814,16.796,53.242,44.587,63.154,78.253   c9.911,33.666,6.12,69.176-10.677,99.99c-3.652,6.699-7.882,13.074-12.593,19.004c-10.363-5.355-21.443-9.505-33.056-12.271   c6.595-6.601,12.214-14.117,16.77-22.475c11.32-20.768,14.794-44.92,9.779-68.008c-0.879-4.047-4.868-6.619-8.921-5.737   c-4.048,0.879-6.616,4.873-5.737,8.921c4.25,19.568,1.306,40.04-8.291,57.646c-5.685,10.429-13.321,19.303-22.675,26.425   c-4.885-0.494-9.839-0.749-14.852-0.749C343.555,216.001,322.621,220.917,303.839,229.696z"/>
	<path id="XMLID_1129_" d="M464.114,362.386c0-54.311-44.185-98.495-98.495-98.495s-98.495,44.185-98.495,98.495   s44.185,98.496,98.495,98.496S464.114,416.697,464.114,362.386z M365.619,445.882c-46.039,0-83.495-37.456-83.495-83.496   s37.456-83.495,83.495-83.495s83.495,37.456,83.495,83.495S411.658,445.882,365.619,445.882z"/>
	<path id="XMLID_1132_" d="M336.119,339.662c-12.53,0-22.725,10.194-22.725,22.725c0,12.531,10.194,22.725,22.725,22.725   c12.531,0,22.726-10.194,22.726-22.725C358.844,349.856,348.65,339.662,336.119,339.662z M336.119,370.111   c-4.26,0-7.725-3.465-7.725-7.725c0-4.259,3.465-7.725,7.725-7.725s7.726,3.465,7.726,7.725   C343.844,366.646,340.378,370.111,336.119,370.111z"/>
	<path id="XMLID_1135_" d="M395.119,339.662c-12.531,0-22.726,10.194-22.726,22.725c0,12.531,10.194,22.725,22.726,22.725   c12.53,0,22.725-10.194,22.725-22.725C417.843,349.856,407.649,339.662,395.119,339.662z M395.119,370.111   c-4.26,0-7.726-3.465-7.726-7.725c0-4.259,3.466-7.725,7.726-7.725s7.725,3.465,7.725,7.725   C402.843,366.646,399.378,370.111,395.119,370.111z"/>
</g>















</svg>
