<?xml version="1.0" encoding="UTF-8" standalone="no"?>
<!-- Created with Inkscape (http://www.inkscape.org/) -->

<svg
   xmlns:dc="http://purl.org/dc/elements/1.1/"
   xmlns:cc="http://creativecommons.org/ns#"
   xmlns:rdf="http://www.w3.org/1999/02/22-rdf-syntax-ns#"
   xmlns:svg="http://www.w3.org/2000/svg"
   xmlns="http://www.w3.org/2000/svg"
   xmlns:sodipodi="http://sodipodi.sourceforge.net/DTD/sodipodi-0.dtd"
   xmlns:inkscape="http://www.inkscape.org/namespaces/inkscape"
   version="1.1"
   id="svg29"
   xml:space="preserve"
   width="225"
   height="225"
   viewBox="0 0 225 225"
   sodipodi:docname="button.svg"
   inkscape:version="0.92.3 (2405546, 2018-03-11)"><metadata
     id="metadata35"><rdf:RDF><cc:Work
         rdf:about=""><dc:format>image/svg+xml</dc:format><dc:type
           rdf:resource="http://purl.org/dc/dcmitype/StillImage" /><dc:title></dc:title></cc:Work></rdf:RDF></metadata><defs
     id="defs33" /><sodipodi:namedview
     pagecolor="#ffffff"
     bordercolor="#666666"
     borderopacity="1"
     objecttolerance="10"
     gridtolerance="10"
     guidetolerance="10"
     inkscape:pageopacity="0"
     inkscape:pageshadow="2"
     inkscape:window-width="3840"
     inkscape:window-height="1823"
     id="namedview31"
     showgrid="false"
     inkscape:zoom="5.3967742"
     inkscape:cx="189.24001"
     inkscape:cy="95.189012"
     inkscape:window-x="0"
     inkscape:window-y="0"
     inkscape:window-maximized="1"
     inkscape:current-layer="g37" /><g
     id="g37"
     inkscape:groupmode="layer"
     inkscape:label="ink_ext_XXXXXX"
     transform="matrix(1.3333333,0,0,-1.3333333,0,289.72134)"><path
       inkscape:connector-curvature="0"
       id="path51"
       style="fill:#c3c0bf;fill-opacity:1;fill-rule:nonzero;stroke:none;stroke-width:0.1"
       d="m 110.009,88.4551 c 0,0.0031 0,0.0019 0,0.0051 0,-0.002 0,-0.0032 0,-0.0051 m -0.001,0.0758 c 0,0.0019 0,0.005 0,0.0062 0,-0.0031 0,-0.0031 0,-0.0062 m -10e-4,0.0781 c 0,0.0019 0,0.0031 0,0.0039 V 88.609 m -0.001,0.232 c 0,0.0051 0,0.011 0,0.016 0,-0.0058 0,-0.0101 0,-0.016 m -0.001,0.0731 c 0,0.0078 0,0.0148 0,0.023 0,-0.0062 0,-0.0172 0,-0.023 m 0,0.0738 c 0,0.0082 0,0.018 0,0.0262 0,-0.009 0,-0.018 0,-0.0262 m 0,0.073 c 0,0.0082 0,0.02 0,0.0282 0,-0.009 0,-0.02 0,-0.0282 m 0,0.075 c 0,0.009 0,0.0172 0,0.027 0,-0.009 0,-0.0188 0,-0.027 m 0,0.0762 c 0,0.0078 -10e-4,0.0168 -10e-4,0.025 0,-0.0062 10e-4,-0.0199 10e-4,-0.025" /><path
       inkscape:connector-curvature="0"
       id="path53"
       style="fill:#d42e43;fill-opacity:1;fill-rule:nonzero;stroke:none;stroke-width:0.1"
       d="m 110.296,82.241 c -0.17,2.05 -0.267,4.125 -0.287,6.2141 0,0.0019 0,0.0031 0,0.0051 -0.001,0.023 -0.001,0.048 -0.001,0.0707 0,0.0031 0,0.0031 0,0.0062 0,0.0238 -10e-4,0.0481 -10e-4,0.0719 v 0.0039 c 0,0.0762 -0.001,0.1519 -0.001,0.2281 0,0.0059 0,0.0102 0,0.016 0,0.0192 -0.001,0.0379 -0.001,0.0571 0,0.0058 0,0.0168 0,0.023 0,0.018 0,0.0328 0,0.0508 0,0.0082 0,0.0172 0,0.0262 0,0.016 0,0.03 0,0.0468 0,0.0082 0,0.0192 0,0.0282 0,0.016 0,0.03 0,0.0468 0,0.0082 0,0.018 0,0.027 0,0.016 0,0.0332 0,0.0492 0,0.0051 -10e-4,0.0188 -10e-4,0.025 0,0.0238 0,0.0481 0,0.0731 v 0 c 0,25.0418 10.884,47.5398 28.183,63.0218 1.124,-3.133 1.981,-6.388 2.544,-9.747 -14.39,-14.681 -23.469,-34.586 -24.125,-56.6112 -2.014,-1.3738 -4.122,-2.6218 -6.31,-3.7328" /><path
       inkscape:connector-curvature="0"
       id="path59"
       style="fill:#ef2d43;fill-opacity:1;fill-rule:nonzero;stroke:none;stroke-width:0.1"
       d="m 84.5422,190.063 c 31.4668,0 56.9778,-25.507 56.9778,-56.981 0,-31.466 -25.511,-56.9808 -56.9778,-56.9808 -31.4699,0 -56.9774,25.5148 -56.9774,56.9808 0,31.474 25.5075,56.981 56.9774,56.981 m 0,-141.522 c 46.6928,0 84.5418,37.8481 84.5418,84.541 0,46.693 -37.849,84.549 -84.5418,84.549 C 37.8488,217.631 0,179.775 0,133.082 0,86.3891 37.8488,48.541 84.5422,48.541" /><path
       inkscape:connector-curvature="0"
       id="path61"
       style="fill:#43a2b1;fill-opacity:1;fill-rule:nonzero;stroke:none;stroke-width:0.1"
       d="m 65.9922,125.896 c 5.3492,0 9.6777,-4.33 9.6777,-9.678 0,-5.341 -4.3285,-9.67 -9.6777,-9.67 -5.3383,0 -9.6766,4.329 -9.6766,9.67 0,5.348 4.3383,9.678 9.6766,9.678 z m 0,33.727 c 5.3492,0 9.6777,-4.328 9.6777,-9.677 0,-5.341 -4.3285,-9.677 -9.6777,-9.677 -5.3383,0 -9.6766,4.336 -9.6766,9.677 0,5.349 4.3383,9.677 9.6766,9.677 z m 37.0998,-33.727 c 5.338,0 9.678,-4.33 9.678,-9.678 0,-5.341 -4.34,-9.67 -9.678,-9.67 -5.3482,0 -9.6736,4.329 -9.6736,9.67 0,5.348 4.3254,9.678 9.6736,9.678 z m 0,33.727 c 5.338,0 9.678,-4.328 9.678,-9.677 0,-5.341 -4.34,-9.677 -9.678,-9.677 -5.3482,0 -9.6736,4.336 -9.6736,9.677 0,5.349 4.3254,9.677 9.6736,9.677 z M 84.5422,76.1012 c 31.4668,0 56.9778,25.5148 56.9778,56.9808 0,31.474 -25.511,56.981 -56.9778,56.981 -31.4699,0 -56.9774,-25.507 -56.9774,-56.981 0,-31.466 25.5075,-56.9808 56.9774,-56.9808" /><path
       inkscape:connector-curvature="0"
       id="path63"
       style="fill:#6fcebc;fill-opacity:1;fill-rule:nonzero;stroke:none;stroke-width:0.1"
       d="m 84.5422,190.063 c 31.4668,0 56.9778,-25.507 56.9778,-56.981 0,-31.466 -25.511,-56.9808 -56.9778,-56.9808 -31.4699,0 -56.9774,25.5148 -56.9774,56.9808 0,31.474 25.5075,56.981 56.9774,56.981 m 0,-141.522 c 46.6928,0 84.5418,37.8481 84.5418,84.541 0,46.693 -37.849,84.549 -84.5418,84.549 C 37.8488,217.631 0,179.775 0,133.082 0,86.3891 37.8488,48.541 84.5422,48.541" /><path
       inkscape:connector-curvature="0"
       id="path65"
       style="fill:#dbd6d6;fill-opacity:1;fill-rule:nonzero;stroke:none;stroke-width:0.1"
       d="m 0.00429688,132.228 v 0.004 -0.004 m -7.8125e-4,0.076 c 0,0.002 0,0.003 0,0.005 0,-0.003 0,-0.002 0,-0.005 m -7.8125e-4,0.078 v 0.004 -0.004 m -0.0015625,0.232 c 0,0.004 0,0.01 0,0.015 0,-0.006 0,-0.01 0,-0.015 m 0,0.073 c -3.9063e-4,0.008 -3.9063e-4,0.014 -3.9063e-4,0.022 0,-0.005 0,-0.016 3.9063e-4,-0.022 m -3.9063e-4,0.073 c 0,0.008 0,0.018 -3.90625e-4,0.026 3.90625e-4,-0.009 3.90625e-4,-0.017 3.90625e-4,-0.026 m -3.90625e-4,0.073 c 0,0.008 0,0.02 0,0.028 0,-0.008 0,-0.02 0,-0.028 m 0,0.075 c 0,0.01 0,0.017 0,0.027 0,-0.008 0,-0.019 0,-0.027 M 0,132.984 c 0,0.008 0,0.017 0,0.025 0,-0.005 0,-0.019 0,-0.025 m 84.7551,84.647 c -0.0028,0 -0.0047,0 -0.0074,0 0.0027,0 0.0046,0 0.0074,0 m -0.0735,0 h -0.0023 c 0.0012,0 8e-4,0 0.0023,0 m -0.041,0 c -0.034,0 -0.0644,0 -0.0984,0 0.0328,0 0.0656,0 0.0984,0" /><path
       inkscape:connector-curvature="0"
       id="path67"
       style="fill:#63b4a5;fill-opacity:1;fill-rule:nonzero;stroke:none;stroke-width:0.1"
       d="M 31.227,67.4988 C 12.3863,82.8371 0.2625,106.102 0.00429688,132.228 v 0.004 c -3.9063e-4,0.024 -3.9063e-4,0.048 -7.8125e-4,0.072 0,0.003 0,0.002 0,0.005 -3.9063e-4,0.026 -3.9063e-4,0.048 -7.8125e-4,0.073 v 0.004 c -3.9063e-4,0.075 -0.00117188,0.152 -0.0015625,0.228 0,0.005 0,0.009 0,0.015 0,0.019 0,0.039 0,0.058 -3.9063e-4,0.006 -3.9063e-4,0.017 -3.9063e-4,0.022 0,0.018 0,0.034 0,0.051 0,0.009 0,0.017 -3.90625e-4,0.026 0,0.016 0,0.031 0,0.047 0,0.008 0,0.02 0,0.028 0,0.016 0,0.031 0,0.047 0,0.008 0,0.019 0,0.027 C 0,132.951 0,132.968 0,132.984 c 0,0.006 0,0.02 0,0.025 0,0.024 0,0.049 0,0.073 v 0 c 0,46.693 37.8488,84.549 84.5422,84.549 v 0 c 0.034,0 0.0644,0 0.0984,0 0.0129,0 0.0254,0 0.0387,0 h 0.0023 c 0.0215,0 0.0446,0 0.0661,0 0.0027,0 0.0046,0 0.0074,0 23.3109,-0.058 44.4049,-9.558 59.6639,-24.869 -14.55,11.841 -33.096,18.958 -53.3178,18.958 -46.6907,0 -84.53831,-37.847 -84.53831,-84.541 0,-23.301 9.42381,-44.3899 24.66411,-59.6802" /><path
       style="fill:#ffffff;stroke-width:0.18529588"
       d="m 85.270494,102.76807 c -7.379658,-1.64466 -11.798296,-9.395838 -9.433815,-16.548802 1.347723,-4.077093 5.028218,-7.469356 9.155871,-8.438845 1.717445,-0.403387 4.441296,-0.369473 6.187126,0.07703 4.505023,1.152191 8.0481,4.703038 9.204554,9.224742 0.43886,1.71591 0.47063,4.452189 0.0715,6.160004 -0.957776,4.09846 -4.374176,7.805981 -8.440273,9.159471 -1.968414,0.65525 -4.766843,0.80724 -6.744993,0.36639 z"
       id="path78"
       inkscape:connector-curvature="0"
       transform="matrix(0.75000002,0,0,-0.75000002,0,217.631)" /><path
       style="fill:#ffffff;stroke-width:0.18529588"
       d="m 134.74449,102.76573 c -0.71339,-0.14682 -2.0874,-0.6534 -3.05335,-1.12573 -4.52002,-2.210194 -7.27699,-6.979846 -6.99642,-12.104042 0.18385,-3.357886 1.33652,-5.866522 3.84338,-8.364648 2.55485,-2.545941 5.28119,-3.670923 8.90987,-3.676516 7.16347,-0.01104 12.77703,5.602519 12.76599,12.765993 -0.005,3.385283 -1.10622,6.210602 -3.36116,8.625168 -3.19014,3.415975 -7.55937,4.815975 -12.10831,3.879775 z"
       id="path80"
       inkscape:connector-curvature="0"
       transform="matrix(0.75000002,0,0,-0.75000002,0,217.631)" /><path
       style="fill:#ffffff;stroke-width:0.18529588"
       d="m 135.55415,147.90268 c -2.70174,-0.42632 -5.20017,-1.71093 -7.16069,-3.68177 -1.4807,-1.48851 -2.465,-3.09364 -3.13844,-5.11798 -0.43269,-1.30063 -0.49315,-1.77768 -0.49315,-3.89121 0,-2.11353 0.0605,-2.59058 0.49315,-3.89121 1.97039,-5.92293 7.7435,-9.61154 13.78487,-8.80759 3.91174,0.52056 7.38017,2.76864 9.39902,6.09203 2.17382,3.57849 2.36067,8.50414 0.4684,12.34789 -1.56578,3.18055 -4.76783,5.76784 -8.23335,6.65263 -1.44287,0.36839 -3.80118,0.50529 -5.11981,0.29721 z"
       id="path82"
       inkscape:connector-curvature="0"
       transform="matrix(0.75000002,0,0,-0.75000002,0,217.631)" /><path
       style="fill:#ffffff;stroke-width:0.18529588"
       d="m 86.196974,147.90421 c -1.461807,-0.21986 -2.48994,-0.54482 -3.849323,-1.21665 -3.160463,-1.56194 -5.447634,-4.20294 -6.56846,-7.58463 -0.430344,-1.2984 -0.491317,-1.7813 -0.491317,-3.89121 0,-2.10991 0.06097,-2.59281 0.491317,-3.89121 1.966089,-5.93196 7.780749,-9.63197 13.834305,-8.80313 4.837082,0.66229 8.663718,3.73423 10.441154,8.38192 0.56396,1.47468 0.58626,1.6387 0.58626,4.31242 0,2.67372 -0.0223,2.83774 -0.58626,4.31242 -2.218825,5.80185 -7.95127,9.2684 -13.857676,8.38007 z"
       id="path84"
       inkscape:connector-curvature="0"
       transform="matrix(0.75000002,0,0,-0.75000002,0,217.631)" /></g></svg>