<?xml version="1.0" encoding="UTF-8" standalone="no"?>
<!-- Created with Inkscape (http://www.inkscape.org/) -->

<svg
   xmlns:dc="http://purl.org/dc/elements/1.1/"
   xmlns:cc="http://creativecommons.org/ns#"
   xmlns:rdf="http://www.w3.org/1999/02/22-rdf-syntax-ns#"
   xmlns:svg="http://www.w3.org/2000/svg"
   xmlns="http://www.w3.org/2000/svg"
   xmlns:sodipodi="http://sodipodi.sourceforge.net/DTD/sodipodi-0.dtd"
   xmlns:inkscape="http://www.inkscape.org/namespaces/inkscape"
   version="1.1"
   id="svg3810"
   xml:space="preserve"
   width="540.8667"
   height="297.09332"
   viewBox="0 0 540.8667 297.09332"
   sodipodi:docname="coal.svg"
   inkscape:version="0.92.3 (2405546, 2018-03-11)"><metadata
     id="metadata3816"><rdf:RDF><cc:Work
         rdf:about=""><dc:format>image/svg+xml</dc:format><dc:type
           rdf:resource="http://purl.org/dc/dcmitype/StillImage" /><dc:title></dc:title></cc:Work></rdf:RDF></metadata><defs
     id="defs3814" /><sodipodi:namedview
     pagecolor="#ffffff"
     bordercolor="#666666"
     borderopacity="1"
     objecttolerance="10"
     gridtolerance="10"
     guidetolerance="10"
     inkscape:pageopacity="0"
     inkscape:pageshadow="2"
     inkscape:window-width="1527"
     inkscape:window-height="843"
     id="namedview3812"
     showgrid="false"
     inkscape:zoom="0.79436319"
     inkscape:cx="270.43335"
     inkscape:cy="148.54666"
     inkscape:window-x="1416"
     inkscape:window-y="776"
     inkscape:window-maximized="0"
     inkscape:current-layer="g3818" /><g
     id="g3818"
     inkscape:groupmode="layer"
     inkscape:label="ink_ext_XXXXXX"
     transform="matrix(1.3333333,0,0,-1.3333333,0,297.09333)"><g
       id="g3820"
       transform="scale(0.1)"><path
         d="m 2776.8,1655.68 c 0,0 61.99,379.3 418.83,530.52 l 91.59,-141.96 -270.33,-391.32 -240.09,2.76"
         style="fill:#2c2b2a;fill-opacity:1;fill-rule:nonzero;stroke:none"
         id="path3822"
         inkscape:connector-curvature="0" /><path
         d="M 3829.82,1074.4 3426.09,1397.49 3153.75,1250.79 3402,779.922 c 140.94,100.34 284.85,196.859 427.82,294.478"
         style="fill:#1b1b1b;fill-opacity:1;fill-rule:nonzero;stroke:none"
         id="path3824"
         inkscape:connector-curvature="0" /><path
         d="m 3181.67,1488.14 c 0,0 -398.03,-190.64 -495.62,-495.628 0,0 -139.62,181.498 -97.73,279.228 0,0 195.46,153.57 188.48,383.94 0,0 111.69,125.64 244.32,132.62 l 160.55,-300.16"
         style="fill:#1f1d1b;fill-opacity:1;fill-rule:nonzero;stroke:none"
         id="path3826"
         inkscape:connector-curvature="0" /><path
         d="m 3518.75,2156.67 c -75.71,-10.38 -153.44,-3 -227.28,20.77 l -95.84,8.76 c 0,-153.57 -174.51,-397.9 -174.51,-397.9 l 155.17,-290.1 c 152.12,0.86 326.49,-163.64 354.41,-205.52 62.09,-93.13 163.36,-177.68 260.37,-244.71 62.24,42.38 124.32,84.96 186,128.03 -15.9,122.2 12.11,251.34 79.42,354.45 -167.82,355.03 -536.01,626.05 -536.01,626.05 l -1.73,0.17"
         style="fill:#0b0b0c;fill-opacity:1;fill-rule:nonzero;stroke:none"
         id="path3828"
         inkscape:connector-curvature="0" /><path
         d="m 3176.28,1498.21 c -362.99,-55.85 -490.23,-505.698 -490.23,-505.698 28.53,-118.223 80.8,-201.653 140.45,-260.762 144.43,52.32 307.4,32.672 442.13,-49.281 71.03,53 143.04,104.742 215.8,155.5 -207.19,301.351 46.28,454.711 46.28,454.711 -186.49,219.86 -354.43,205.53 -354.43,205.53"
         style="fill:#2c2929;fill-opacity:1;fill-rule:nonzero;stroke:none"
         id="path3830"
         inkscape:connector-curvature="0" /><path
         d="m 3228.44,2202.18 c -10.98,-4.43 -21.94,-9.55 -32.81,-15.98 0,0 -89.56,-296.34 -174.51,-397.9 l 155.16,-290.09 c 0,0 149.49,-0.83 354.43,-205.53 0,0 551.05,308.31 -10.23,863.82 0,0 -0.42,0.29 -0.51,0.36 -98.02,-13.68 -199.51,2.33 -291.53,45.32"
         style="fill:#191819;fill-opacity:1;fill-rule:nonzero;stroke:none"
         id="path3832"
         inkscape:connector-curvature="0" /><path
         d="m 1667.99,2055.51 c 0,0 420.92,302.65 905.53,106.53 l -48.05,-222.76 -631.1,-115.41 -226.38,231.64"
         style="fill:#2c2b2a;fill-opacity:1;fill-rule:nonzero;stroke:none"
         id="path3834"
         inkscape:connector-curvature="0" /><path
         d="m 2160.71,111.262 c 0,0 -239.71,53.258 -386.19,199.758 0,0 -150.85,-181.719 -441.64,2.351 l 308.47,996.399 399.69,-119.86 119.67,-1078.648"
         style="fill:#1b1b1b;fill-opacity:1;fill-rule:nonzero;stroke:none"
         id="path3836"
         inkscape:connector-curvature="0" /><path
         d="m 1894.37,1509.51 c 0,0 -561.49,197.83 -945.491,0 0,0 39.953,306.29 173.121,359.56 0,0 332.92,-39.95 545.99,186.44 0,0 226.38,13.31 359.55,-106.53 l -133.17,-439.47"
         style="fill:#1f1d1b;fill-opacity:1;fill-rule:nonzero;stroke:none"
         id="path3838"
         inkscape:connector-curvature="0" /><path
         d="m 2160.71,111.262 c 0,0 -190.9,523.679 -119.85,878.91 13.31,66.578 3.89,389.798 -142.02,534.098 l 128.7,424.71 c 0,0 399.5,66.58 545.98,213.06 l 281.54,-338.17 c 0,0 224.5,-1472.909 -694.35,-1712.608"
         style="fill:#0b0b0c;fill-opacity:1;fill-rule:nonzero;stroke:none"
         id="path3840"
         inkscape:connector-curvature="0" /><path
         d="M 948.887,1509.51 C 655.918,1030.12 1015.47,672.801 1015.47,672.801 1067.73,628.172 1116.62,553.18 1153.05,488.25 l 0.04,0.078 c 0.35,-0.75 0.8,-1.379 1.16,-2.129 1.63,-2.91 2.99,-5.508 4.56,-8.371 96.91,-192.039 319.67,-235.43 391.46,-244.43 -69.25,895.212 490.59,756.774 490.59,756.774 31.84,387.578 -142.02,534.098 -142.02,534.098 -399.5,292.97 -949.953,-14.76 -949.953,-14.76"
         style="fill:#2c2929;fill-opacity:1;fill-rule:nonzero;stroke:none"
         id="path3842"
         inkscape:connector-curvature="0" /><path
         d="m 1153.09,488.328 -0.04,-0.078 c 0.37,-0.66 0.83,-1.379 1.2,-2.051 -0.36,0.75 -0.81,1.379 -1.16,2.129"
         style="fill:#464544;fill-opacity:1;fill-rule:nonzero;stroke:none"
         id="path3844"
         inkscape:connector-curvature="0" /><path
         d="m 2040.86,990.172 c 0,0 819.69,-231.543 814.2,833.698 0,0 -48.29,278.27 -281.54,338.17 0,0 -368.08,-197.22 -545.98,-213.06 l -128.7,-424.71 c 0,0 141.8,-143.38 142.02,-534.098"
         style="fill:#191819;fill-opacity:1;fill-rule:nonzero;stroke:none"
         id="path3846"
         inkscape:connector-curvature="0" /><path
         d="m 3499.35,729.711 c 0,0 194.17,-270.039 68.35,-580.941 l -142.91,30.832 -74.04,404.867 148.6,145.242"
         style="fill:#2c2b2a;fill-opacity:1;fill-rule:nonzero;stroke:none"
         id="path3848"
         inkscape:connector-curvature="0" /><path
         d="m 2252.03,413.609 c 0,0 34.17,153.782 128.15,247.762 0,0 -116.58,96.777 1.51,283.328 l 639.24,-197.898 -76.89,-256.422 -692.01,-76.77"
         style="fill:#1b1b1b;fill-opacity:1;fill-rule:nonzero;stroke:none"
         id="path3850"
         inkscape:connector-curvature="0" /><path
         d="m 3149.08,584.469 c 0,0 126.91,360.23 0,606.591 0,0 196.49,-25.64 230.66,-111.07 0,0 -25.62,-213.58 119.61,-350.279 0,0 8.55,-145.242 -68.35,-230.672 l -281.92,85.43"
         style="fill:#1f1d1b;fill-opacity:1;fill-rule:nonzero;stroke:none"
         id="path3852"
         inkscape:connector-curvature="0" /><path
         d="m 2252.03,413.609 c 0,0 335.97,122.469 563.86,76.891 42.72,-8.551 250.08,-2.5 342.64,91.109 L 3431,499.039 c 0,0 42.72,-256.289 136.7,-350.269 L 3260.14,37.7109 c 0,0 -854.33,-213.5899 -1008.11,375.8981"
         style="fill:#0b0b0c;fill-opacity:1;fill-rule:nonzero;stroke:none"
         id="path3854"
         inkscape:connector-curvature="0" /><path
         d="m 3149.08,1191.06 c -307.56,187.94 -536.8,-42.73 -536.8,-42.73 -28.63,-33.52 -76.73,-64.89 -118.39,-88.26 l 0.05,-0.03 c -0.48,-0.22 -0.89,-0.52 -1.36,-0.74 -1.87,-1.05 -3.54,-1.92 -5.38,-2.93 C 2364,994.199 2336.17,851.289 2330.39,805.238 2904.71,849.66 2815.89,490.5 2815.89,490.5 c 248.66,-20.43 342.65,91.109 342.65,91.109 187.95,256.301 -9.46,609.451 -9.46,609.451"
         style="fill:#2c2929;fill-opacity:1;fill-rule:nonzero;stroke:none"
         id="path3856"
         inkscape:connector-curvature="0" /><path
         d="m 2493.94,1060.04 -0.05,0.03 c -0.43,-0.24 -0.89,-0.53 -1.31,-0.77 0.47,0.22 0.88,0.52 1.36,0.74"
         style="fill:#464544;fill-opacity:1;fill-rule:nonzero;stroke:none"
         id="path3858"
         inkscape:connector-curvature="0" /><path
         d="m 535.074,1298.53 c 0,0 270.043,194.17 580.946,68.34 l -30.83,-142.91 -404.877,-74.05 -145.239,148.62"
         style="fill:#2c2b2a;fill-opacity:1;fill-rule:nonzero;stroke:none"
         id="path3860"
         inkscape:connector-curvature="0" /><path
         d="m 851.176,51.1992 c 0,0 -153.781,34.1719 -247.754,128.1528 0,0 -96.777,-116.5903 -283.332,1.507 l 197.898,639.243 256.418,-76.903 76.77,-691.9998"
         style="fill:#1b1b1b;fill-opacity:1;fill-rule:nonzero;stroke:none"
         id="path3862"
         inkscape:connector-curvature="0" /><path
         d="m 680.313,948.238 c 0,0 -360.223,126.932 -606.5786,0 0,0 25.6289,196.512 111.0626,230.682 0,0 213.586,-25.64 350.277,119.61 0,0 145.239,8.54 230.672,-68.35 L 680.313,948.238"
         style="fill:#1f1d1b;fill-opacity:1;fill-rule:nonzero;stroke:none"
         id="path3864"
         inkscape:connector-curvature="0" /><path
         d="m 851.176,51.1992 c 0,0 -122.465,335.9728 -76.887,563.8598 8.539,42.711 2.496,250.082 -91.113,342.652 l 82.57,272.469 c 0,0 256.294,42.71 350.274,136.69 l 111.06,-307.56 c 0,0 213.58,-854.33 -375.904,-1008.1108"
         style="fill:#0b0b0c;fill-opacity:1;fill-rule:nonzero;stroke:none"
         id="path3866"
         inkscape:connector-curvature="0" /><path
         d="M 73.7383,948.238 C -114.215,640.68 116.453,411.461 116.453,411.461 149.98,382.82 181.352,334.719 204.715,293.059 l 0.027,0.05 c 0.227,-0.48 0.52,-0.89 0.746,-1.371 1.043,-1.867 1.918,-3.527 2.926,-5.367 62.172,-123.199 205.078,-151.043 251.141,-156.812 -44.426,574.32 314.734,485.5 314.734,485.5 20.43,248.652 -91.113,342.652 -91.113,342.652 C 426.879,1145.67 73.7383,948.238 73.7383,948.238"
         style="fill:#2c2929;fill-opacity:1;fill-rule:nonzero;stroke:none"
         id="path3868"
         inkscape:connector-curvature="0" /><path
         d="m 204.742,293.109 -0.027,-0.05 c 0.238,-0.418 0.531,-0.887 0.773,-1.321 -0.226,0.481 -0.519,0.891 -0.746,1.371"
         style="fill:#464544;fill-opacity:1;fill-rule:nonzero;stroke:none"
         id="path3870"
         inkscape:connector-curvature="0" /><path
         d="m 774.289,615.059 c 0,0 131.57,-415.559 439.951,-224.09 0,0 -69,-259.899 -363.064,-339.7698 0,0 -128.586,364.2808 -76.887,563.8598"
         style="fill:#2c2b2a;fill-opacity:1;fill-rule:nonzero;stroke:none"
         id="path3872"
         inkscape:connector-curvature="0" /></g></g></svg>