<?xml version="1.0" encoding="UTF-8" standalone="no"?>
<!-- Created with Inkscape (http://www.inkscape.org/) -->

<svg
   xmlns:dc="http://purl.org/dc/elements/1.1/"
   xmlns:cc="http://creativecommons.org/ns#"
   xmlns:rdf="http://www.w3.org/1999/02/22-rdf-syntax-ns#"
   xmlns:svg="http://www.w3.org/2000/svg"
   xmlns="http://www.w3.org/2000/svg"
   xmlns:sodipodi="http://sodipodi.sourceforge.net/DTD/sodipodi-0.dtd"
   xmlns:inkscape="http://www.inkscape.org/namespaces/inkscape"
   version="1.1"
   id="svg3912"
   xml:space="preserve"
   width="332.23999"
   height="158"
   viewBox="0 0 332.23999 158"
   sodipodi:docname="cookies.svg"
   inkscape:version="0.92.3 (2405546, 2018-03-11)"><metadata
     id="metadata3918"><rdf:RDF><cc:Work
         rdf:about=""><dc:format>image/svg+xml</dc:format><dc:type
           rdf:resource="http://purl.org/dc/dcmitype/StillImage" /><dc:title></dc:title></cc:Work></rdf:RDF></metadata><defs
     id="defs3916" /><sodipodi:namedview
     pagecolor="#ffffff"
     bordercolor="#666666"
     borderopacity="1"
     objecttolerance="10"
     gridtolerance="10"
     guidetolerance="10"
     inkscape:pageopacity="0"
     inkscape:pageshadow="2"
     inkscape:window-width="855"
     inkscape:window-height="493"
     id="namedview3914"
     showgrid="false"
     inkscape:zoom="1.4936709"
     inkscape:cx="166.12"
     inkscape:cy="79"
     inkscape:window-x="0"
     inkscape:window-y="0"
     inkscape:window-maximized="0"
     inkscape:current-layer="g3920" /><g
     id="g3920"
     inkscape:groupmode="layer"
     inkscape:label="ink_ext_XXXXXX"
     transform="matrix(1.3333333,0,0,-1.3333333,0,158)"><g
       id="g3922"
       transform="scale(0.1)"><path
         d="M 1867.85,268.984 C 1824.34,169.148 1741.31,125.941 1639.53,109.398 1430.51,75.4609 1221.83,39.1719 1012.36,8.26953 893.84,-9.21094 776.109,1.91016 659.422,33.0898 529.043,67.9297 395.902,92.6289 266.086,129.281 c -61.156,17.258 -117.352,52.11 -175.793,78.996 2.1758,2.375 4.3359,4.758 6.4726,7.168 C 171.57,192.449 245.926,167.84 321.332,147.02 374.461,132.359 429.09,123.18 482.918,110.969 613.266,81.3789 738.695,24.6289 875.336,30.1211 c 89.707,3.5977 179.444,14.5508 268.354,27.6875 108.17,16.0117 215.62,37.0312 323.11,57.3124 79.2,14.938 157.95,32.258 236.94,48.348 117.87,24.011 143.84,102.156 108.72,222.894 1.03,5.727 2.07,11.45 3.11,17.168 51.52,-16.441 56.74,-56.648 52.27,-101.836 0,-10.906 0.01,-21.804 0.01,-32.711"
         style="fill:#906439;fill-opacity:1;fill-rule:nonzero;stroke:none"
         id="path3924"
         inkscape:connector-curvature="0" /><path
         d="m 208.293,587.039 c -1.922,0.715 -3.852,1.438 -5.781,2.156 -0.301,-2.703 -0.602,-5.41 -0.903,-8.113 2.047,0.352 4.391,0.234 6.016,1.262 0.863,0.547 0.488,3.062 0.668,4.695 z M 91.0586,442.5 c 20.4684,14.773 41.9184,28.398 61.0624,44.727 12.746,10.867 22.199,25.593 33.125,38.601 -14.062,10.078 -27.137,22.149 -42.433,29.738 -18.45,9.149 -38.524,19.317 -58.3599,20.387 -32.0312,1.742 -41.3008,22.055 -49.7461,46.067 0.6719,14.953 1.3516,29.902 2.0313,44.855 67.8637,-24.277 137.7887,-44.113 202.8947,-74.34 45.683,-21.211 85.14,-17.488 127.98,-0.293 10.442,4.192 22.028,5.531 33.086,8.176 -0.816,-9.348 -1.633,-18.68 -2.449,-28.016 -4.281,0.965 -8.609,1.27 -12.977,0.899 -47.566,-22.383 -95.132,-44.758 -142.699,-67.141 -38.211,-22.375 -76.426,-44.746 -114.636,-67.117 -12.293,1.152 -24.59,2.305 -36.8794,3.457"
         style="fill:#906439;fill-opacity:1;fill-rule:nonzero;stroke:none"
         id="path3926"
         inkscape:connector-curvature="0" /><path
         d="m 697.367,1087.56 c 7.488,-1.64 14.977,-3.28 22.461,-4.92 2.11,-8.68 4.219,-17.34 6.324,-26.01 -1.004,-86.302 -44.382,-139.689 -125.507,-146.357 -62.469,-5.128 -121.008,8.114 -162.575,61.836 l 3.301,2.86 c 17.797,10.051 35.594,20.097 53.395,30.141 19.164,-7.551 38.257,-15.29 57.507,-22.622 48.825,-18.613 62.872,38.632 99.848,45.942 -6.066,19.36 -12.141,38.74 -18.211,58.1 21.153,0.34 42.305,0.68 63.457,1.03"
         style="fill:#743e19;fill-opacity:1;fill-rule:nonzero;stroke:none"
         id="path3928"
         inkscape:connector-curvature="0" /><path
         d="m 441.371,974.969 -3.301,-2.86 C 399.77,952.32 361.473,932.547 323.172,912.762 l -0.582,-0.203 C 294.289,899.148 265.984,885.75 237.684,872.352 l 0.296,0.234 c -4.859,-4.578 -9.718,-9.168 -14.578,-13.762 l -0.129,0.09 c -28.277,-13.359 -56.55,-26.711 -84.828,-40.066 l -0.086,-0.157 c -4.843,-4.64 -9.687,-9.289 -14.535,-13.925 l -0.039,0.429 c -10.656,-4.23 -21.312,-8.449 -31.9647,-12.675 -17.75,-9.348 -35.5039,-18.684 -53.2578,-28.02 -3.3242,0.402 -6.6562,0.383 -9.9766,-0.066 28.9414,25.554 54.3633,57.683 87.4771,75.468 105.894,56.875 214.644,108.418 322.289,162.018 1.007,-8.982 2.011,-17.967 3.019,-26.951"
         style="fill:#906439;fill-opacity:1;fill-rule:nonzero;stroke:none"
         id="path3930"
         inkscape:connector-curvature="0" /><path
         d="m 633.91,1086.53 c 6.07,-19.36 12.145,-38.74 18.211,-58.1 -36.976,-7.31 -51.023,-64.555 -99.848,-45.942 -19.25,7.332 -38.343,15.071 -57.507,22.622 -5.75,12.79 -11.496,25.57 -17.243,38.37 17.59,15.75 35.192,31.51 52.782,47.26 34.539,-1.4 69.074,-2.81 103.605,-4.21"
         style="fill:#a05e1d;fill-opacity:1;fill-rule:nonzero;stroke:none"
         id="path3932"
         inkscape:connector-curvature="0" /><path
         d="m 28.5859,764.434 c 3.3204,0.449 6.6524,0.468 9.9766,0.066 -0.0781,-9.473 -0.1562,-18.945 -0.2344,-28.418 l 0.3711,0.402 c -0.3281,-10.539 -0.6601,-21.066 -0.9844,-31.601 -0.3281,-12.668 -0.6523,-25.344 -0.9765,-38.008 -0.6797,-14.953 -1.3594,-29.902 -2.0313,-44.855 -44.8008,54.992 -45.5664,72.843 -6.1211,142.414"
         style="fill:#718164;fill-opacity:1;fill-rule:nonzero;stroke:none"
         id="path3934"
         inkscape:connector-curvature="0" /><path
         d="m 633.91,1086.53 c -34.531,1.4 -69.066,2.81 -103.605,4.21 56.289,30.51 112.164,39.21 167.062,-3.18 -21.152,-0.35 -42.304,-0.69 -63.457,-1.03"
         style="fill:#5e6145;fill-opacity:1;fill-rule:nonzero;stroke:none"
         id="path3936"
         inkscape:connector-curvature="0" /><path
         d="m 90.293,208.277 c -21.4805,21.028 -42.961,42.051 -64.4414,63.078 0.9687,5.313 1.9336,10.625 2.9023,15.95 26.0586,-20.754 75.4571,-19.407 68.0117,-71.86 -2.1367,-2.41 -4.2968,-4.793 -6.4726,-7.168"
         style="fill:#906439;fill-opacity:1;fill-rule:nonzero;stroke:none"
         id="path3938"
         inkscape:connector-curvature="0" /><path
         d="m 726.152,1056.63 c -2.105,8.67 -4.214,17.33 -6.324,26.01 12.594,1.41 25.184,2.83 37.777,4.25 34.512,-4.69 69.02,-9.38 103.532,-14.07 -44.996,-5.39 -89.992,-10.79 -134.985,-16.19"
         style="fill:#7c6b37;fill-opacity:1;fill-rule:nonzero;stroke:none"
         id="path3940"
         inkscape:connector-curvature="0" /><path
         d="m 477.523,1043.48 c 5.747,-12.8 11.493,-25.58 17.243,-38.37 -17.801,-10.044 -35.598,-20.09 -53.395,-30.141 -1.008,8.984 -2.012,17.969 -3.019,26.951 1.601,3.82 4.472,5.63 8.609,5.42 1.664,2.67 3.594,5.13 5.785,7.39 8.258,9.59 16.52,19.16 24.777,28.75"
         style="fill:#7c6b37;fill-opacity:1;fill-rule:nonzero;stroke:none"
         id="path3942"
         inkscape:connector-curvature="0" /><path
         d="m 452.746,1014.73 c -2.191,-2.26 -4.121,-4.72 -5.785,-7.39 -0.66,4.37 1.269,6.83 5.785,7.39"
         style="fill:#906439;fill-opacity:1;fill-rule:nonzero;stroke:none"
         id="path3944"
         inkscape:connector-curvature="0" /><path
         d="m 28.7539,287.305 c 1.0156,27.539 2.0313,55.066 3.0469,82.605 4.707,0.496 9.414,0.988 14.1172,1.477 4.3672,-0.063 8.7343,-0.117 13.1054,-0.188 4.4844,4.192 8.9688,8.371 13.4571,12.559 4.6914,0.078 9.3789,0.168 14.0664,0.246 -2.1836,-50.078 29.8481,-89.668 64.6331,-107.426 75.105,-38.34 155.894,-74.48 243.472,-66.89 104.676,9.07 203.891,-20.04 286.5,-70.219 113.922,-69.1877 228.403,-40.5393 336.588,-21.36 77.44,13.731 156.24,30.723 234.76,40.95 123.49,16.113 248.75,19.332 371.84,37.558 35.76,5.293 79.83,36.399 96.15,68.02 16.58,32.148 33.36,57.871 60.41,80.578 10.26,8.609 12.14,27.226 17.83,41.289 4.57,-0.031 9.15,-0.07 13.73,-0.141 35.12,-120.738 9.15,-198.883 -108.72,-222.894 C 1624.75,147.379 1546,130.059 1466.8,115.121 1359.31,94.8398 1251.86,73.8203 1143.69,57.8086 1054.78,44.6719 965.043,33.7188 875.336,30.1211 738.695,24.6289 613.266,81.3789 482.918,110.969 429.09,123.18 374.461,132.359 321.332,147.02 245.926,167.84 171.57,192.449 96.7656,215.445 c 7.4454,52.453 -41.9531,51.106 -68.0117,71.86"
         style="fill:#b46626;fill-opacity:1;fill-rule:nonzero;stroke:none"
         id="path3946"
         inkscape:connector-curvature="0" /><path
         d="m 1812.46,386.363 c -4.58,0.071 -9.16,0.11 -13.73,0.141 -26.82,24.422 -53.62,48.855 -80.43,73.289 -47.4,32.93 -94.81,65.867 -142.21,98.801 33.07,-4.856 66.12,-9.699 99.19,-14.551 25.91,-20.977 53.75,-40.012 77.18,-63.457 23.35,-23.383 42.25,-51.191 63.11,-77.055 -1.04,-5.718 -2.08,-11.441 -3.11,-17.168"
         style="fill:#7c6b37;fill-opacity:1;fill-rule:nonzero;stroke:none"
         id="path3948"
         inkscape:connector-curvature="0" /><path
         d="m 842.133,569.598 c 2.051,-3.828 3.265,-8.887 6.449,-11.055 2.125,-1.445 7.051,1.23 10.723,2.07 -1.719,3.899 -2.465,9.461 -5.442,11.192 -2.605,1.515 -7.718,-1.278 -11.73,-2.207 z M 241.391,380.469 c 2.91,-10.481 2.422,-24.914 9.269,-30.801 44.223,-38 99.121,-31.445 151.555,-30.539 7.769,0.137 20.543,19.055 21.312,29.961 0.797,11.25 -7.418,29.328 -16.726,33.723 -15.629,7.363 -35.262,6.238 -53.199,8.691 -39.02,12.734 -79.297,38.269 -112.211,-11.035 z M 1576.09,558.594 c 47.4,-32.934 94.81,-65.871 142.21,-98.801 -39.25,-29.668 -78.5,-59.324 -117.75,-88.984 -15.37,5.078 -30.39,12.363 -46.17,14.863 -58.22,9.23 -114.85,10.598 -154.56,-44.895 -21.08,-0.808 -42.18,-1.629 -63.26,-2.437 -71.02,-6.875 -142.06,-13.75 -213.09,-20.625 -13.38,60.203 -67.1,57.176 -110.43,70.437 -58.02,31.602 -115.665,50.86 -170.989,-5.254 -13.34,-0.507 -26.676,-1.023 -40.016,-1.535 -23.637,-3.875 -47.281,-7.761 -70.918,-11.636 l 0.531,0.398 c -9.66,-4.598 -19.32,-9.199 -28.98,-13.809 l -0.508,1.485 c -47.992,-15.125 -25.047,-52.305 -25.535,-82.188 -9.996,-1.511 -20.176,-5.097 -29.953,-4.211 -71.172,6.418 -142.285,13.578 -213.383,20.832 -57.297,5.84 -115.781,6.875 -171.406,19.961 -42.528,10.008 -91.422,22.442 -94.297,85.215 -0.664,14.492 -24.418,27.918 -37.551,41.848 l -2.097,-0.215 c 38.21,22.371 76.425,44.742 114.636,67.117 59.098,-5.449 118.196,-10.898 177.293,-16.347 74.512,-33.25 139.688,-14.168 199.391,35.585 75.793,-3.386 142.89,21.641 206.371,60.911 15.215,9.402 34.516,12.195 51.937,18.027 l 0.231,-0.246 c 7.558,-9.317 15.117,-18.633 22.676,-27.949 15.453,-40.567 47.816,-56.321 87.371,-42.157 38.486,13.778 29.196,39.215 15.616,65.536 57.83,24.367 119.08,27.207 176.62,8.703 32.56,-10.481 78.18,-23.321 75.28,-75.879 -14.36,-6.567 -28.71,-13.125 -43.06,-19.692 -30.67,-4.019 -35.7,-24.48 -18.64,-43.367 31.27,-34.637 75.43,-31.941 116.86,-25.574 34.93,5.359 59.54,24.852 57.89,65.152 22.06,22.602 39.92,41.516 80.88,31.321 30.18,-7.52 67.29,12.812 101.31,20.742 8.5,-0.781 17,-1.551 25.49,-2.332"
         style="fill:#dca154;fill-opacity:1;fill-rule:nonzero;stroke:none"
         id="path3950"
         inkscape:connector-curvature="0" /><path
         d="m 664.031,805.684 c 2.594,12.144 6.055,19.949 5.047,27.109 -0.523,3.77 -8.871,6.445 -13.687,9.617 -2.899,-7.265 -7.575,-14.441 -7.918,-21.816 -0.164,-3.535 7.89,-7.442 16.558,-14.91 z m -260.855,-77.61 c 9.25,-0.215 18.558,-1.238 27.73,-0.508 33.41,2.688 69.75,7.375 68.864,50.547 -0.778,37.696 -30.969,54.348 -65.68,59.832 -11.172,1.77 -23.262,1.274 -34.395,-0.918 -38.23,-7.5 -89.136,-11.089 -88.132,-59.968 1.097,-53.496 53.324,-45.938 91.613,-48.985 z m 621.684,124.114 c 48.72,8.308 76.26,-20.5 99.53,-56.79 -57.76,-18.371 -115.51,-36.746 -173.253,-55.117 -9.504,0.157 -19.004,0.305 -28.508,0.457 0.254,5.578 0.504,11.157 0.754,16.723 1.898,0.738 4.082,1.133 5.586,2.352 0.926,0.753 0.82,2.773 1.176,4.23 -2.278,-2.168 -4.551,-4.34 -6.832,-6.508 -9.887,-8.504 -19.774,-17.008 -29.668,-25.515 -14.129,9.316 -28.262,18.64 -42.395,27.968 28.555,30.481 28.105,52.063 -3.621,62.688 -16.707,5.594 -36.418,6.758 -53.91,4.14 -15.946,-2.394 -30.727,-12.589 -46.02,-19.336 9.871,-13.917 17.914,-29.882 30.317,-40.968 7.328,-6.543 21.55,-5.371 32.675,-7.664 -7.769,-3.985 -16.043,-12.168 -23.238,-11.301 -80.961,9.726 -157.035,-10.047 -230.93,-39.102 -12.632,-4.968 -19.636,-24.25 -29.234,-36.914 -32.723,-9.492 -65.434,-18.972 -98.156,-28.465 -41.453,0.887 -83.649,-2.851 -124.219,3.614 -83.613,13.328 -171.016,25.261 -193.769,130.601 3.847,4.953 7.695,9.907 11.543,14.867 0.578,4.325 0.945,8.68 1.097,13.047 l 0.039,-0.429 c 4.848,4.636 9.692,9.285 14.535,13.925 l 0.086,0.157 c 18.797,-4.297 37.598,-8.586 56.391,-12.883 5.277,-4.852 10.559,-9.715 15.832,-14.578 -0.914,4.683 -1.832,9.375 -2.75,14.058 5.117,17.825 10.238,35.649 15.355,53.469 l 0.129,-0.09 c 4.86,4.594 9.719,9.184 14.578,13.762 l -0.296,-0.234 c 33.539,2.336 78.402,-19.239 84.906,40.207 l 0.582,0.203 c 64.801,-6.532 131.051,-6.746 194.039,-21.184 83.066,-19.043 156.004,-20.332 212.539,55.11 4.676,6.242 16.055,7.773 24.574,10.773 61.582,21.648 124.313,34.031 189.856,22.715 7.683,-13.606 15.363,-27.219 23.047,-40.832 -15.649,-6.133 -31.289,-12.254 -46.942,-18.391 6.903,-15.691 9.735,-39.461 21.535,-45.398 25.215,-12.688 55.078,-16.133 83.04,-23.367"
         style="fill:#dca154;fill-opacity:1;fill-rule:nonzero;stroke:none"
         id="path3952"
         inkscape:connector-curvature="0" /><path
         d="m 1255.36,532.344 c 2.9,52.558 -42.72,65.398 -75.28,75.879 -57.54,18.504 -118.79,15.664 -176.62,-8.703 -40.62,19.914 -75.405,14.132 -102.987,-23.379 -7.559,9.316 -15.118,18.632 -22.676,27.949 1.851,0.773 3.98,1.211 5.453,2.433 0.914,0.758 0.836,2.715 1.199,4.129 -2.293,-2.109 -4.59,-4.218 -6.883,-6.316 -17.421,-5.832 -36.722,-8.625 -51.937,-18.027 -63.481,-39.27 -130.578,-64.297 -206.371,-60.911 -5.227,38.606 -10.457,77.2 -15.68,115.801 117.156,36.446 234.75,72.774 359.637,60.481 112.295,-11.047 224.205,-25.989 336.285,-39.211 83.7,-33.848 167.4,-67.696 251.1,-101.543 -34.02,-7.93 -71.13,-28.262 -101.31,-20.742 -40.96,10.195 -58.82,-8.719 -80.88,-31.321 -28.17,49.242 -68.49,37.856 -109.71,22.024 l -3.34,1.457"
         style="fill:#e1b06d;fill-opacity:1;fill-rule:nonzero;stroke:none"
         id="path3954"
         inkscape:connector-curvature="0" /><path
         d="m 806.945,1032 c -0.715,-7.72 -1.386,-13.57 -1.41,-19.43 0,-0.28 8.141,-1.43 8.391,-0.73 1.355,3.82 2.387,8.3 1.586,12.15 -0.508,2.48 -4.36,4.27 -8.567,8.01 z M 944.18,980.176 c -65.543,11.316 -128.274,-1.067 -189.856,-22.715 -8.519,-3 -19.898,-4.531 -24.574,-10.773 -56.535,-75.442 -129.473,-74.153 -212.539,-55.11 -62.988,14.438 -129.238,14.652 -194.039,21.184 38.301,19.785 76.598,39.558 114.898,59.347 41.567,-53.722 100.106,-66.964 162.575,-61.836 81.125,6.668 124.503,60.055 125.507,146.357 44.993,5.4 89.989,10.8 134.985,16.19 54.5,-6.84 65.062,-53.07 83.043,-92.644"
         style="fill:#e1b06d;fill-opacity:1;fill-rule:nonzero;stroke:none"
         id="path3956"
         inkscape:connector-curvature="0" /><path
         d="m 1299.5,662.469 c -112.08,13.222 -223.99,28.164 -336.285,39.211 -124.887,12.293 -242.481,-24.035 -359.637,-60.481 -1.676,4.578 -3.351,9.16 -5.019,13.75 23.578,12.649 45.879,29.832 71.023,36.934 43.609,12.312 89.777,15.703 133.184,28.547 15.054,4.453 25.089,25.855 37.414,39.519 l 5.531,0.196 5.539,-0.157 c 14.133,-9.328 28.266,-18.652 42.395,-27.968 9.664,2.91 19.328,5.808 28.984,8.718 9.504,-0.152 19.004,-0.3 28.508,-0.457 7.926,-3.933 15.515,-10.312 23.824,-11.433 90.599,-12.239 181.319,-23.653 271.999,-35.305 17.51,-10.352 35.03,-20.715 52.54,-31.074"
         style="fill:#a05e1d;fill-opacity:1;fill-rule:nonzero;stroke:none"
         id="path3958"
         inkscape:connector-curvature="0" /><path
         d="m 1246.96,693.543 c -90.68,11.652 -181.4,23.066 -271.999,35.305 -8.309,1.121 -15.898,7.5 -23.824,11.433 57.743,18.371 115.493,36.746 173.253,55.117 40.85,-33.953 81.71,-67.898 122.57,-101.855"
         style="fill:#c58138;fill-opacity:1;fill-rule:nonzero;stroke:none"
         id="path3960"
         inkscape:connector-curvature="0" /><path
         d="m 1024.86,852.188 c -27.962,7.234 -57.825,10.679 -83.04,23.367 -11.8,5.937 -14.632,29.707 -21.535,45.398 15.653,6.137 31.293,12.258 46.942,18.391 51.603,-7.637 36.033,-59.688 57.633,-87.156"
         style="fill:#743e19;fill-opacity:1;fill-rule:nonzero;stroke:none"
         id="path3962"
         inkscape:connector-curvature="0" /><path
         d="m 111.145,777.281 c 22.753,-105.34 110.156,-117.273 193.769,-130.601 40.57,-6.465 82.766,-2.727 124.219,-3.614 -9.477,-14.211 -18.953,-28.429 -28.434,-42.648 -11.058,-2.645 -22.644,-3.984 -33.086,-8.176 -42.84,-17.195 -82.297,-20.918 -127.98,0.293 -65.106,30.227 -135.031,50.063 -202.8947,74.34 0.3242,12.664 0.6484,25.34 0.9765,38.008 0.3243,10.535 0.6563,21.062 0.9844,31.601 l -0.3711,-0.402 c 24.2735,13.731 48.5469,27.473 72.8169,41.199"
         style="fill:#c58138;fill-opacity:1;fill-rule:nonzero;stroke:none"
         id="path3964"
         inkscape:connector-curvature="0" /><path
         d="m 469.832,554.961 c 34.766,6.816 60.941,8.672 84.234,17.852 11.914,4.695 26.469,23.113 25.586,34.199 -0.918,11.406 -19.707,30.894 -29.699,30.308 -31.332,-1.863 -63.285,-8.621 -92.715,-19.586 -11.465,-4.281 -26.644,-30.695 -23.004,-36.808 7.996,-13.391 26.926,-20.254 35.598,-25.965 z m -69.133,45.457 c 9.481,14.219 18.957,28.437 28.434,42.648 32.722,9.493 65.433,18.973 98.156,28.465 23.754,-5.527 47.508,-11.054 71.27,-16.582 1.668,-4.59 3.343,-9.172 5.019,-13.75 5.223,-38.601 10.453,-77.195 15.68,-115.801 -59.703,-49.753 -124.879,-68.835 -199.391,-35.585 -6.953,23.144 -13.906,46.289 -20.863,69.433 0.672,4.434 0.418,8.82 -0.754,13.156 0.816,9.336 1.633,18.668 2.449,28.016"
         style="fill:#743e19;fill-opacity:1;fill-rule:nonzero;stroke:none"
         id="path3966"
         inkscape:connector-curvature="0" /><path
         d="m 399.004,559.246 c 6.957,-23.144 13.91,-46.289 20.863,-69.433 -59.097,5.449 -118.195,10.898 -177.293,16.347 47.567,22.383 95.133,44.758 142.699,67.141 4.575,-4.688 9.153,-9.367 13.731,-14.055"
         style="fill:#e1b06d;fill-opacity:1;fill-rule:nonzero;stroke:none"
         id="path3968"
         inkscape:connector-curvature="0" /><path
         d="m 208.293,587.039 c -0.18,-1.633 0.195,-4.148 -0.668,-4.695 -1.625,-1.028 -3.969,-0.91 -6.016,-1.262 0.301,2.703 0.602,5.41 0.903,8.113 1.929,-0.718 3.859,-1.441 5.781,-2.156"
         style="fill:#c58138;fill-opacity:1;fill-rule:nonzero;stroke:none"
         id="path3970"
         inkscape:connector-curvature="0" /><path
         d="m 399.004,559.246 c -4.578,4.688 -9.156,9.367 -13.731,14.055 4.368,0.371 8.696,0.066 12.977,-0.899 1.172,-4.336 1.426,-8.722 0.754,-13.156"
         style="fill:#c58138;fill-opacity:1;fill-rule:nonzero;stroke:none"
         id="path3972"
         inkscape:connector-curvature="0" /><path
         d="m 223.273,858.914 c -5.117,-17.82 -10.238,-35.644 -15.355,-53.469 -4.41,-1.09 -8.77,-0.925 -13.082,0.52 -18.793,4.297 -37.594,8.586 -56.391,12.883 28.278,13.355 56.551,26.707 84.828,40.066"
         style="fill:#e1b06d;fill-opacity:1;fill-rule:nonzero;stroke:none"
         id="path3974"
         inkscape:connector-curvature="0" /><path
         d="m 111.145,777.281 c -24.27,-13.726 -48.5434,-27.468 -72.8169,-41.199 0.0782,9.473 0.1563,18.945 0.2344,28.418 17.7539,9.336 35.5078,18.672 53.2578,28.02 10.2887,-0.129 20.5777,-0.254 30.8677,-0.372 -3.848,-4.96 -7.696,-9.914 -11.543,-14.867"
         style="fill:#e1b06d;fill-opacity:1;fill-rule:nonzero;stroke:none"
         id="path3976"
         inkscape:connector-curvature="0" /><path
         d="m 322.59,912.559 c -6.504,-59.446 -51.367,-37.871 -84.906,-40.207 28.3,13.398 56.605,26.796 84.906,40.207"
         style="fill:#e1b06d;fill-opacity:1;fill-rule:nonzero;stroke:none"
         id="path3978"
         inkscape:connector-curvature="0" /><path
         d="m 122.688,792.148 c -10.29,0.118 -20.579,0.243 -30.8677,0.372 10.6527,4.226 21.3087,8.445 31.9647,12.675 -0.152,-4.367 -0.519,-8.722 -1.097,-13.047"
         style="fill:#c1cdac;fill-opacity:1;fill-rule:nonzero;stroke:none"
         id="path3980"
         inkscape:connector-curvature="0" /><path
         d="m 138.359,818.691 c -4.843,-4.64 -9.687,-9.289 -14.535,-13.925 4.848,4.636 9.692,9.285 14.535,13.925"
         style="fill:#c1cdac;fill-opacity:1;fill-rule:nonzero;stroke:none"
         id="path3982"
         inkscape:connector-curvature="0" /><path
         d="m 237.98,872.586 c -4.859,-4.578 -9.718,-9.168 -14.578,-13.762 4.86,4.594 9.719,9.184 14.578,13.762"
         style="fill:#e1b06d;fill-opacity:1;fill-rule:nonzero;stroke:none"
         id="path3984"
         inkscape:connector-curvature="0" /><path
         d="m 38.6992,736.484 c -0.3281,-10.539 -0.6601,-21.066 -0.9844,-31.601 0.3243,10.535 0.6563,21.062 0.9844,31.601"
         style="fill:#e1b06d;fill-opacity:1;fill-rule:nonzero;stroke:none"
         id="path3986"
         inkscape:connector-curvature="0" /><path
         d="m 86.5469,384.004 c -4.6875,-0.078 -9.375,-0.168 -14.0664,-0.246 0.5976,9.316 1.1992,18.625 1.8008,27.937 14.1367,5.043 28.2657,10.09 42.4027,15.129 -0.45,-5.234 -0.899,-10.469 -1.348,-15.703 -9.504,-8.965 -19.004,-17.93 -28.5001,-26.894 l -0.289,-0.223"
         style="fill:#dca154;fill-opacity:1;fill-rule:nonzero;stroke:none"
         id="path3988"
         inkscape:connector-curvature="0" /><path
         d="m 59.0234,371.199 c -4.3711,0.071 -8.7382,0.125 -13.1054,0.188 4.3672,0.215 8.7383,0.156 13.1054,-0.188"
         style="fill:#dca154;fill-opacity:1;fill-rule:nonzero;stroke:none"
         id="path3990"
         inkscape:connector-curvature="0" /><path
         d="m 115.336,411.121 c 0.449,5.234 0.898,10.469 1.348,15.703 4.453,4.141 8.906,8.289 13.351,12.434 13.133,-13.93 36.887,-27.356 37.551,-41.848 2.875,-62.773 51.769,-75.207 94.297,-85.215 55.625,-13.086 114.109,-14.121 171.406,-19.961 71.098,-7.254 142.211,-14.414 213.383,-20.832 9.777,-0.886 19.957,2.7 29.953,4.211 42.406,-10.359 84.785,-29.062 127.238,-29.25 74.067,-0.32 148.078,12.992 222.307,16.203 43.86,1.907 76.78,15.664 97.3,55.149 71.03,6.875 142.07,13.75 213.09,20.625 -1.35,-12.668 -2.68,-25.332 -4.03,-38 -8.34,-14.649 -25.93,-32.102 -22.57,-43.192 3.74,-12.328 25.58,-22.929 41.38,-26.886 21.99,-5.508 46.33,-1.289 68.57,-6.211 113.82,-25.176 183.65,30.949 180.64,146.758 39.25,29.66 78.5,59.316 117.75,88.984 26.81,-24.434 53.61,-48.867 80.43,-73.289 -5.69,-14.063 -7.57,-32.68 -17.83,-41.289 -27.05,-22.707 -43.83,-48.43 -60.41,-80.578 -16.32,-31.621 -60.39,-62.727 -96.15,-68.02 -123.09,-18.226 -248.35,-21.445 -371.84,-37.558 -78.52,-10.227 -157.32,-27.219 -234.76,-40.95 -108.185,-19.1793 -222.666,-47.8277 -336.588,21.36 -82.609,50.179 -181.824,79.289 -286.5,70.219 -87.578,-7.59 -168.367,28.55 -243.472,66.89 -34.785,17.758 -66.8167,57.348 -64.6331,107.426 l 0.289,0.223 c 9.4961,8.964 18.9961,17.929 28.5001,26.894"
         style="fill:#c58138;fill-opacity:1;fill-rule:nonzero;stroke:none"
         id="path3992"
         inkscape:connector-curvature="0" /><path
         d="m 1123.47,317.715 c -20.52,-39.485 -53.44,-53.242 -97.3,-55.149 -74.229,-3.211 -148.24,-16.523 -222.307,-16.203 -42.453,0.188 -84.832,18.891 -127.238,29.25 0.488,29.883 -22.457,67.063 25.535,82.188 5.36,-51.485 40.324,-47.102 77.399,-42.637 37.812,4.563 77.636,0.281 113.566,10.488 39.902,11.336 91,-9.843 119.385,37.481 0.18,8.34 0.35,16.68 0.53,25.019 43.33,-13.261 97.05,-10.234 110.43,-70.437"
         style="fill:#743e19;fill-opacity:1;fill-rule:nonzero;stroke:none"
         id="path3994"
         inkscape:connector-curvature="0" /><path
         d="M 1600.55,370.809 C 1603.56,255 1533.73,198.875 1419.91,224.051 c -22.24,4.922 -46.58,0.703 -68.57,6.211 -15.8,3.957 -37.64,14.558 -41.38,26.886 -3.36,11.09 14.23,28.543 22.57,43.192 48.85,-6.152 97.66,-16.184 146.56,-16.555 19.89,-0.144 42.35,17.973 59.18,32.824 14.34,12.668 24.11,35.246 -11.01,34.168 -42.54,-1.297 -84.97,-6.492 -127.44,-10 39.71,55.493 96.34,54.125 154.56,44.895 15.78,-2.5 30.8,-9.785 46.17,-14.863"
         style="fill:#7a431a;fill-opacity:1;fill-rule:nonzero;stroke:none"
         id="path3996"
         inkscape:connector-curvature="0" /><path
         d="m 1012.51,363.133 c -28.385,-47.324 -79.483,-26.145 -119.385,-37.481 -35.93,-10.207 -75.754,-5.925 -113.566,-10.488 -37.075,-4.465 -72.039,-8.848 -77.399,42.637 l 0.508,-1.485 c 9.66,4.61 19.32,9.211 28.98,13.809 l -0.531,-0.398 c 23.637,3.875 47.281,7.761 70.918,11.636 13.34,0.512 26.676,1.028 40.016,1.535 5.047,-4.414 13.711,-13.339 14.633,-12.605 54.293,43.516 104.671,9.656 155.826,-7.16"
         style="fill:#a05e1d;fill-opacity:1;fill-rule:nonzero;stroke:none"
         id="path3998"
         inkscape:connector-curvature="0" /><path
         d="m 1399.82,340.777 c 42.47,3.508 84.9,8.703 127.44,10 35.12,1.078 25.35,-21.5 11.01,-34.168 -16.83,-14.851 -39.29,-32.968 -59.18,-32.824 -48.9,0.371 -97.71,10.403 -146.56,16.555 1.35,12.668 2.68,25.332 4.03,38 21.08,0.808 42.18,1.629 63.26,2.437"
         style="fill:#a05e1d;fill-opacity:1;fill-rule:nonzero;stroke:none"
         id="path4000"
         inkscape:connector-curvature="0" /><path
         d="m 1258.7,530.879 c 41.22,15.84 81.54,27.226 109.71,-22.016 1.65,-40.3 -22.96,-59.793 -57.89,-65.152 -41.43,-6.367 -85.59,-9.063 -116.86,25.574 -17.06,18.887 -12.03,39.348 18.64,43.367 15.67,-56.238 58.72,-15.664 88.04,-23.433 7.07,-1.875 18.55,12.89 28.01,20.008 -9.77,4.843 -19.09,11.093 -29.39,14.152 -13.01,3.863 -26.8,5.125 -40.26,7.5"
         style="fill:#7a431a;fill-opacity:1;fill-rule:nonzero;stroke:none"
         id="path4002"
         inkscape:connector-curvature="0" /><path
         d="m 353.602,391.504 c 17.937,-2.453 37.57,-1.328 53.199,-8.691 9.308,-4.395 17.523,-22.473 16.726,-33.723 -0.769,-10.906 -13.543,-29.824 -21.312,-29.961 -52.434,-0.906 -107.332,-7.461 -151.555,30.539 -6.847,5.887 -6.359,20.32 -9.269,30.801 25.289,-9.895 49.894,-22.754 76.078,-28.723 20.254,-4.609 42.476,-0.605 63.824,-0.422 -9.23,13.391 -18.465,26.789 -27.691,40.18"
         style="fill:#743e19;fill-opacity:1;fill-rule:nonzero;stroke:none"
         id="path4004"
         inkscape:connector-curvature="0" /><path
         d="m 900.473,576.141 c 27.582,37.511 62.367,43.293 102.987,23.379 13.58,-26.321 22.87,-51.758 -15.616,-65.536 -39.555,-14.164 -71.918,1.59 -87.371,42.157"
         style="fill:#7a431a;fill-opacity:1;fill-rule:nonzero;stroke:none"
         id="path4006"
         inkscape:connector-curvature="0" /><path
         d="m 353.602,391.504 c 9.226,-13.391 18.461,-26.789 27.691,-40.18 -21.348,-0.183 -43.57,-4.187 -63.824,0.422 -26.184,5.969 -50.789,18.828 -76.078,28.723 32.914,49.304 73.191,23.769 112.211,11.035"
         style="fill:#7a431a;fill-opacity:1;fill-rule:nonzero;stroke:none"
         id="path4008"
         inkscape:connector-curvature="0" /><path
         d="m 1012.51,363.133 c -51.155,16.816 -101.533,50.676 -155.826,7.16 -0.922,-0.734 -9.586,8.191 -14.633,12.605 55.324,56.114 112.969,36.856 170.989,5.254 -0.18,-8.339 -0.35,-16.679 -0.53,-25.019"
         style="fill:#7a431a;fill-opacity:1;fill-rule:nonzero;stroke:none"
         id="path4010"
         inkscape:connector-curvature="0" /><path
         d="m 1258.7,530.879 c 13.46,-2.375 27.25,-3.637 40.26,-7.5 10.3,-3.059 19.62,-9.309 29.39,-14.152 -9.46,-7.118 -20.94,-21.883 -28.01,-20.008 -29.32,7.769 -72.37,-32.805 -88.04,23.433 14.35,6.567 28.7,13.125 43.06,19.692 0,0 3.34,-1.457 3.34,-1.465"
         style="fill:#a05e1d;fill-opacity:1;fill-rule:nonzero;stroke:none"
         id="path4012"
         inkscape:connector-curvature="0" /><path
         d="m 802.035,381.363 c -23.637,-3.875 -47.281,-7.761 -70.918,-11.636 23.637,3.875 47.281,7.761 70.918,11.636"
         style="fill:#7a431a;fill-opacity:1;fill-rule:nonzero;stroke:none"
         id="path4014"
         inkscape:connector-curvature="0" /><path
         d="m 842.137,569.609 c 4.008,0.918 9.121,3.711 11.726,2.196 2.977,-1.731 3.723,-7.293 5.442,-11.192 -3.672,-0.84 -8.598,-3.515 -10.723,-2.07 -3.184,2.168 -4.398,7.227 -6.445,11.066"
         style="fill:#e1b06d;fill-opacity:1;fill-rule:nonzero;stroke:none"
         id="path4016"
         inkscape:connector-curvature="0" /><path
         d="m 731.648,370.125 c -9.66,-4.598 -19.32,-9.199 -28.98,-13.809 9.66,4.61 19.32,9.211 28.98,13.809"
         style="fill:#743e19;fill-opacity:1;fill-rule:nonzero;stroke:none"
         id="path4018"
         inkscape:connector-curvature="0" /><path
         d="m 403.148,728.047 c -38.261,3.074 -90.488,-4.484 -91.585,49.012 -1.004,48.879 49.902,52.468 88.132,59.968 11.133,2.192 23.223,2.688 34.395,0.918 34.711,-5.484 64.902,-22.136 65.68,-59.832 0.886,-43.172 -35.454,-47.859 -68.864,-50.547 -9.172,-0.73 -18.48,0.293 -27.758,0.481"
         style="fill:#7a431a;fill-opacity:1;fill-rule:nonzero;stroke:none"
         id="path4020"
         inkscape:connector-curvature="0" /><path
         d="m 598.559,654.949 c -23.762,5.528 -47.516,11.055 -71.27,16.582 9.598,12.664 16.602,31.946 29.234,36.914 73.895,29.055 149.969,48.828 230.93,39.102 7.195,-0.867 15.469,7.316 23.238,11.301 9.829,0.371 19.661,0.742 29.489,1.101 -12.325,-13.664 -22.36,-35.066 -37.414,-39.519 -43.407,-12.844 -89.575,-16.235 -133.184,-28.547 -25.144,-7.102 -47.445,-24.285 -71.023,-36.934"
         style="fill:#c58138;fill-opacity:1;fill-rule:nonzero;stroke:none"
         id="path4022"
         inkscape:connector-curvature="0" /><path
         d="m 840.18,759.949 c -9.828,-0.359 -19.66,-0.73 -29.489,-1.101 -11.125,2.293 -25.347,1.121 -32.675,7.664 -12.403,11.086 -20.446,27.051 -30.317,40.968 15.293,6.747 30.074,16.942 46.02,19.336 17.492,2.618 37.203,1.454 53.91,-4.14 31.726,-10.625 32.176,-32.207 3.621,-62.688 l -5.539,0.157 -5.531,-0.196"
         style="fill:#7a431a;fill-opacity:1;fill-rule:nonzero;stroke:none"
         id="path4024"
         inkscape:connector-curvature="0" /><path
         d="m 664.031,805.684 c -8.668,7.468 -16.722,11.375 -16.558,14.91 0.343,7.375 5.019,14.551 7.918,21.816 4.816,-3.172 13.164,-5.847 13.687,-9.617 1.008,-7.16 -2.453,-14.965 -5.047,-27.109"
         style="fill:#c58138;fill-opacity:1;fill-rule:nonzero;stroke:none"
         id="path4026"
         inkscape:connector-curvature="0" /><path
         d="m 922.629,740.738 c -9.656,-2.91 -19.32,-5.808 -28.984,-8.718 9.894,8.507 19.781,17.011 29.668,25.515 l 0.07,-0.074 c -0.25,-5.566 -0.5,-11.145 -0.754,-16.723"
         style="fill:#c58138;fill-opacity:1;fill-rule:nonzero;stroke:none"
         id="path4028"
         inkscape:connector-curvature="0" /><path
         d="m 194.836,805.965 c 4.312,-1.445 8.672,-1.61 13.082,-0.52 0.918,-4.683 1.836,-9.375 2.75,-14.058 -5.273,4.863 -10.555,9.726 -15.832,14.578"
         style="fill:#c58138;fill-opacity:1;fill-rule:nonzero;stroke:none"
         id="path4030"
         inkscape:connector-curvature="0" /><path
         d="m 923.313,757.535 c 2.281,2.168 4.554,4.34 6.832,6.508 -0.356,-1.457 -0.25,-3.477 -1.176,-4.23 -1.504,-1.219 -3.688,-1.614 -5.586,-2.352 l -0.07,0.074"
         style="fill:#c58138;fill-opacity:1;fill-rule:nonzero;stroke:none"
         id="path4032"
         inkscape:connector-curvature="0" /><path
         d="m 877.566,604.336 c 2.293,2.098 4.59,4.207 6.883,6.316 -0.363,-1.414 -0.285,-3.371 -1.199,-4.129 -1.473,-1.222 -3.602,-1.66 -5.453,-2.433 l -0.231,0.246"
         style="fill:#dca154;fill-opacity:1;fill-rule:nonzero;stroke:none"
         id="path4034"
         inkscape:connector-curvature="0" /><path
         d="m 806.945,1032 c 4.207,-3.74 8.059,-5.53 8.567,-8.01 0.801,-3.85 -0.231,-8.33 -1.586,-12.15 -0.25,-0.7 -8.391,0.45 -8.391,0.73 0.024,5.86 0.695,11.71 1.41,19.43"
         style="fill:#dca154;fill-opacity:1;fill-rule:nonzero;stroke:none"
         id="path4036"
         inkscape:connector-curvature="0" /><path
         d="m 469.832,554.961 c -8.672,5.711 -27.602,12.574 -35.598,25.965 -3.64,6.113 11.539,32.527 23.004,36.808 29.43,10.965 61.383,17.723 92.715,19.586 9.992,0.586 28.781,-18.902 29.699,-30.308 0.883,-11.086 -13.672,-29.504 -25.586,-34.199 -23.293,-9.18 -49.468,-11.036 -84.234,-17.852"
         style="fill:#a05e1d;fill-opacity:1;fill-rule:nonzero;stroke:none"
         id="path4038"
         inkscape:connector-curvature="0" /><path
         d="m 115.336,411.121 c -9.504,-8.965 -19.004,-17.93 -28.5001,-26.894 9.4961,8.964 18.9961,17.929 28.5001,26.894"
         style="fill:#b46626;fill-opacity:1;fill-rule:nonzero;stroke:none"
         id="path4040"
         inkscape:connector-curvature="0" /><path
         d="m 2291.58,781.102 c 9.37,-2.625 18.73,-5.254 28.1,-7.879 0.76,-10.891 -2.7,-25.743 3.1,-31.887 14.84,-15.711 33.79,-27.559 51.1,-40.957 -9.92,2.043 -19.84,4.082 -29.76,6.125 -37.48,15.496 -74.96,30.996 -112.44,46.492 -47.12,32.93 -98.05,61.574 -140.69,99.531 -175.51,156.293 -381.24,232.573 -614.04,241.603 0.78,7.46 1.57,14.92 2.36,22.38 120.62,4.64 230.91,-41.9 344.93,-69.88 55.06,-13.5 109.67,-28.83 164.5,-43.33 2.6,-9.679 5.2,-19.355 7.8,-29.034 -1.95,-1.219 -4.51,-2.039 -5.67,-3.789 -1.08,-1.602 -1.63,-5.508 -0.74,-6.172 60.31,-45.149 118.77,-93.223 182.06,-133.778 35.69,-22.882 79.33,-33.359 119.39,-49.425"
         style="fill:#7c6b37;fill-opacity:1;fill-rule:nonzero;stroke:none"
         id="path4042"
         inkscape:connector-curvature="0" /><path
         d="m 996.727,681.68 c -5.762,3.015 -11.524,6.043 -17.286,9.07 -16.296,71.863 -85.789,85.828 -135.476,118.367 -39.485,25.871 -89.059,37.094 -135.078,51.926 -29.039,9.363 -26.418,27.449 -20.246,49.094 137.242,-22.824 259.961,-72.883 352.209,-183.086 13.85,-16.543 35.4,-26.633 53.39,-39.707 15.41,-17.949 29.32,-37.563 46.71,-53.321 13.75,-12.48 31.78,-20.246 47.91,-30.109 -18.96,3.008 -39.66,2.156 -56.55,9.766 -46.05,20.754 -90.5,45.078 -135.583,68"
         style="fill:#b46626;fill-opacity:1;fill-rule:nonzero;stroke:none"
         id="path4044"
         inkscape:connector-curvature="0" /><path
         d="m 996.727,681.68 c 45.083,-22.922 89.533,-47.246 135.583,-68 16.89,-7.61 37.59,-6.758 56.55,-9.766 13.2,-3.437 26.42,-6.887 39.62,-10.332 12.9,-58.242 64.46,-46.328 100.08,-46.934 113.62,-1.953 217.23,-39.328 319.6,-80.761 39.27,-15.887 73.18,-45.028 109.52,-68.133 -13.69,2.996 -27.37,5.996 -41.06,9.004 -17.44,5.984 -34.87,11.98 -52.32,17.969 -34.8,13.593 -69.61,27.183 -104.42,40.769 -104.18,21.77 -208.39,43.399 -312.54,65.332 -100.96,21.25 -182.06,75.664 -250.613,150.852"
         style="fill:#906439;fill-opacity:1;fill-rule:nonzero;stroke:none"
         id="path4046"
         inkscape:connector-curvature="0" /><path
         d="m 2443.24,625.34 c 6.95,-11.289 13.91,-22.578 20.86,-33.867 -2.41,-7.469 -4.82,-14.93 -7.24,-22.403 -7.94,-29.004 -15.89,-58.007 -23.83,-87.019 -1.08,-4.973 -2.15,-9.953 -3.24,-14.934 l 0.73,0.383 c -5.16,-4.934 -10.32,-9.863 -15.48,-14.785 l 0.34,-0.527 c -16.41,0.253 -32.9,-0.383 -49.2,1.14 -8.9,0.828 -17.45,5.313 -26.17,8.145 -4.17,0.91 -8.34,1.828 -12.52,2.734 -5.59,-3.074 -11.17,-6.141 -16.76,-9.219 -4.72,1.68 -9.42,3.352 -14.14,5.02 -19.63,35.879 -27.99,81.183 -77.24,92.258 1.28,4.976 2.56,9.961 3.85,14.937 24.17,6.77 48.34,13.547 72.52,20.317 40.71,-8.274 81.13,-14.668 115.46,17.996 10.68,6.613 21.38,13.214 32.06,19.824"
         style="fill:#c58138;fill-opacity:1;fill-rule:nonzero;stroke:none"
         id="path4048"
         inkscape:connector-curvature="0" /><path
         d="m 688.641,910.137 c -6.172,-21.645 -8.793,-39.731 20.246,-49.094 46.019,-14.832 95.593,-26.055 135.078,-51.926 49.687,-32.539 119.18,-46.504 135.476,-118.367 -80.062,41.973 -159.281,85.684 -240.433,125.43 -74.856,36.66 -127.637,84.621 -113.309,177.031 3.949,2.766 8.317,3.652 13.117,2.656 7.747,-6.894 15.493,-13.777 23.239,-20.672 -1.094,-4.836 -2.188,-9.66 -3.282,-14.496 -12.511,-30.172 -1.007,-46.16 29.93,-50.664 l -0.062,0.102"
         style="fill:#906439;fill-opacity:1;fill-rule:nonzero;stroke:none"
         id="path4050"
         inkscape:connector-curvature="0" /><path
         d="m 2340.01,461.473 c 8.72,-2.832 17.27,-7.317 26.17,-8.145 16.3,-1.523 32.79,-0.887 49.2,-1.14 -29.32,-46.692 -79.42,-50.481 -125.85,-57.122 -92.99,-13.289 -186.55,-22.5 -279.87,-33.398 7.87,12.043 15.74,24.082 23.61,36.133 37.73,4.765 75.41,10.051 113.2,14.179 50.24,5.5 105.57,-12.16 146.78,33.145 l 0.26,0.383 c 5.75,3.164 11.48,6.316 17.22,9.48 5.59,3.078 11.17,6.145 16.76,9.219 l 6.35,-0.977 6.17,-1.757"
         style="fill:#906439;fill-opacity:1;fill-rule:nonzero;stroke:none"
         id="path4052"
         inkscape:connector-curvature="0" /><path
         d="m 2456.86,569.07 c 2.42,7.473 4.83,14.934 7.24,22.403 9.66,-31.16 25.35,-61.914 27.46,-93.575 2.69,-40.449 -21.15,-59.207 -63.11,-44.738 0.69,4.778 1.38,9.563 2.07,14.34 l -0.73,-0.383 c 4.5,4.395 8.99,8.789 13.48,13.196 4.53,29.589 9.06,59.167 13.59,88.757"
         style="fill:#906439;fill-opacity:1;fill-rule:nonzero;stroke:none"
         id="path4054"
         inkscape:connector-curvature="0" /><path
         d="m 1716.62,406.758 c 13.69,-3.008 27.37,-6.008 41.06,-9.004 50.06,-12.949 100.11,-25.891 150.17,-38.828 8.92,-2.934 17.84,-5.86 26.77,-8.789 -81.52,-15.188 -150.59,17.5 -218,56.621"
         style="fill:#b46626;fill-opacity:1;fill-rule:nonzero;stroke:none"
         id="path4056"
         inkscape:connector-curvature="0" /><path
         d="m 1934.62,350.137 c -8.93,2.929 -17.85,5.855 -26.77,8.789 41.81,12.957 83.61,25.918 125.42,38.875 -7.87,-12.051 -15.74,-24.09 -23.61,-36.133 -25.02,-3.848 -50.03,-7.695 -75.04,-11.531"
         style="fill:#a05e1d;fill-opacity:1;fill-rule:nonzero;stroke:none"
         id="path4058"
         inkscape:connector-curvature="0" /><path
         d="m 1559.88,465.496 c 34.81,-13.586 69.62,-27.176 104.42,-40.769 -34.8,13.593 -69.61,27.183 -104.42,40.769"
         style="fill:#dca154;fill-opacity:1;fill-rule:nonzero;stroke:none"
         id="path4060"
         inkscape:connector-curvature="0" /><path
         d="m 2443.24,625.34 c -10.68,-6.61 -21.38,-13.211 -32.06,-19.824 -2.61,14.082 -5.22,28.156 -7.82,42.238 7.83,-0.434 15.65,-0.859 23.48,-1.289 5.47,-7.043 10.93,-14.082 16.4,-21.125"
         style="fill:#a05e1d;fill-opacity:1;fill-rule:nonzero;stroke:none"
         id="path4062"
         inkscape:connector-curvature="0" /><path
         d="m 2344.12,706.504 c 9.92,-2.043 19.84,-4.082 29.76,-6.125 5.68,-4.348 11.36,-8.691 17.05,-13.035 -3.03,-1.856 -6.01,-3.781 -8.95,-5.774 -12.62,8.313 -25.24,16.621 -37.86,24.934"
         style="fill:#906439;fill-opacity:1;fill-rule:nonzero;stroke:none"
         id="path4064"
         inkscape:connector-curvature="0" /><path
         d="m 2426.84,646.465 c -7.83,0.43 -15.65,0.855 -23.48,1.289 -3.62,5.777 -7.23,11.562 -10.84,17.344 3.99,2.222 7.61,4.949 10.87,8.164 7.82,-8.938 15.64,-17.871 23.45,-26.797"
         style="fill:#906439;fill-opacity:1;fill-rule:nonzero;stroke:none"
         id="path4066"
         inkscape:connector-curvature="0" /><path
         d="m 2430.52,467.5 c -0.69,-4.777 -1.38,-9.562 -2.07,-14.34 -4.47,-0.144 -8.94,-0.301 -13.41,-0.445 5.16,4.922 10.32,9.851 15.48,14.785"
         style="fill:#906439;fill-opacity:1;fill-rule:nonzero;stroke:none"
         id="path4068"
         inkscape:connector-curvature="0" /><path
         d="m 2390.93,687.344 c 4.15,-4.699 8.31,-9.387 12.46,-14.082 -3.26,-3.215 -6.88,-5.942 -10.87,-8.164 -3.51,5.488 -7.02,10.972 -10.54,16.472 2.94,1.993 5.92,3.918 8.95,5.774"
         style="fill:#906439;fill-opacity:1;fill-rule:nonzero;stroke:none"
         id="path4070"
         inkscape:connector-curvature="0" /><path
         d="m 644.699,1020.68 c 52.403,26.57 103.317,57.06 157.926,77.84 22.281,8.48 52.574,-4.08 79.219,-7.07 -17.469,-9.58 -34.942,-19.16 -52.41,-28.74 l -0.059,0.15 c -15.906,-5.56 -31.812,-11.1 -47.719,-16.65 l 0.055,-0.08 c -5.801,-3.37 -11.602,-6.74 -17.402,-10.11 l -0.02,0.47 c -10.664,-3.36 -21.32,-6.71 -31.98,-10.06 -4.45,-2.48 -8.891,-4.96 -13.336,-7.44 -13.274,-11.33 -26.543,-22.642 -39.821,-33.963 -5.699,-3.281 -11.398,-6.562 -17.097,-9.832 -7.746,6.895 -15.492,13.778 -23.239,20.672 1.961,8.273 3.926,16.543 5.883,24.813"
         style="fill:#7c6b37;fill-opacity:1;fill-rule:nonzero;stroke:none"
         id="path4072"
         inkscape:connector-curvature="0" /><path
         d="m 2381.98,681.57 c 3.52,-5.5 7.03,-10.984 10.54,-16.472 3.61,-5.782 7.22,-11.567 10.84,-17.344 2.6,-14.082 5.21,-28.156 7.82,-42.238 -34.33,-32.664 -74.75,-26.27 -115.46,-17.996 -4.81,18.433 -5.62,50.175 -15.12,53.015 -41.3,12.403 -84.97,18.008 -128.15,22.07 -8.45,0.793 -24.21,-15.058 -26.29,-25.332 -1.98,-9.738 6.63,-27.265 15.71,-32.539 25.71,-14.929 54.04,-25.339 81.33,-37.531 -1.29,-4.976 -2.57,-9.961 -3.85,-14.937 l -0.05,-0.032 c -13.61,3.489 -27.21,6.985 -40.83,10.469 -18.06,4.992 -36.13,9.992 -54.2,14.992 -40.82,31.832 -86.35,44.805 -137.72,34.278 -37.63,35.242 -74.82,71.57 -133.76,52 -13.07,0.82 -26.14,1.632 -39.21,2.441 -8.52,-5 -17.05,-10.012 -25.57,-15.019 l -0.72,1.894 c -61.33,7.805 -64.31,5.293 -79.58,-66.844 -48.58,17.118 -97.17,34.239 -145.76,51.356 -1.22,46.582 -41.96,48.847 -71.45,63.742 -1.68,8.57 -1.3,18.32 -5.37,25.555 -31.02,55.117 -91.72,51.445 -141.19,70.117 14.03,78.437 9.86,87.433 -56.73,122.512 -42.35,18.218 -83.39,49.175 -131.29,13.511 -15.37,-5.164 -30.73,-10.34 -46.09,-15.515 -15.52,-15.664 -31.04,-31.328 -46.57,-46.985 -19.78,36.723 -55.63,47.063 -92.26,51.606 -43.449,5.39 -87.535,5.39 -131.281,8.633 -55.028,4.082 -80.606,33.425 -78.942,89.093 1.172,5.48 2.34,10.95 3.512,16.42 l 0.02,-0.47 c 5.8,3.37 11.601,6.74 17.402,10.11 l -0.055,0.08 c 20.121,-6.52 40.774,-14.59 47.719,16.65 l 0.059,-0.15 c 48.937,-15.77 98.175,-62.53 146.496,1.39 0.773,1.01 4.461,-0.13 6.785,-0.31 79.085,-6.27 159.845,7.67 236.245,-29.88 34.76,-17.07 77.42,-32.07 114.26,-27.96 74.29,8.29 120.19,-35.063 159.99,-79.79 52.31,-58.769 114.83,-88.613 188.65,-101.816 43.13,-7.715 86.46,-15.391 130.03,-18.75 13.36,-1.024 27.82,12.324 41.77,19.094 l 0.21,-0.266 c 85.19,-18.281 170.2,-37.512 255.67,-54.422 40.25,-7.961 81.4,-11.477 122.14,-17.004 37.48,-15.496 74.96,-30.996 112.44,-46.492 12.62,-8.313 25.24,-16.621 37.86,-24.934"
         style="fill:#dca154;fill-opacity:1;fill-rule:nonzero;stroke:none"
         id="path4074"
         inkscape:connector-curvature="0" /><path
         d="m 1631.96,967.391 c 0.31,-1.914 0.26,-4.004 1.07,-5.684 0.48,-1.023 2.29,-1.426 3.5,-2.098 -1.53,2.586 -3.07,5.172 -4.61,7.762 -7.06,10.656 -14.12,21.32 -21.18,31.973 -3.93,-4.434 -7.85,-8.875 -11.79,-13.313 11.01,-6.211 22.01,-12.429 33.01,-18.64 z m 221.7,-142.703 c -13.95,-6.77 -28.41,-20.118 -41.77,-19.094 -43.57,3.359 -86.9,11.035 -130.03,18.75 -73.82,13.203 -136.34,43.047 -188.65,101.816 -39.8,44.727 -85.7,88.08 -159.99,79.79 -36.84,-4.11 -79.5,10.89 -114.26,27.96 -76.4,37.55 -157.16,23.61 -236.245,29.88 -2.324,0.18 -6.012,1.32 -6.785,0.31 -48.321,-63.92 -97.559,-17.16 -146.496,-1.39 17.468,9.58 34.941,19.16 52.41,28.74 l -0.653,-0.33 c 24.852,3.1 49.625,7.91 74.571,8.98 76.518,3.28 153.108,5.13 229.678,7.54 14.19,-15.99 25.65,-40.91 43.09,-46.24 48.02,-14.65 98.27,-23.08 148.18,-30.22 49.29,-7.04 85.46,12.3 100.24,62.95 232.8,-9.03 438.53,-85.31 614.04,-241.603 42.64,-37.957 93.57,-66.601 140.69,-99.531 -40.74,5.527 -81.89,9.043 -122.14,17.004 -85.47,16.91 -170.48,36.141 -255.67,54.422 49.15,41.941 50.26,60.312 -3.32,90.48 -29.68,16.715 -65.11,25.789 -99.08,31.231 -16.69,2.676 -35.95,-10.754 -54.05,-16.887 6.55,-18.008 8.13,-46.016 20.57,-52.219 43.18,-21.531 90.14,-35.496 135.67,-52.339"
         style="fill:#e1b06d;fill-opacity:1;fill-rule:nonzero;stroke:none"
         id="path4076"
         inkscape:connector-curvature="0" /><path
         d="m 1476.95,1094.13 c -14.78,-50.65 -50.95,-69.99 -100.24,-62.95 -49.91,7.14 -100.16,15.57 -148.18,30.22 -17.44,5.33 -28.9,30.25 -43.09,46.24 3.22,11.7 6.44,23.41 9.66,35.12 6.47,3.81 12.94,7.63 19.4,11.44 48.13,-18.71 95.23,-41.8 145.02,-53.46 14.88,-3.49 37.26,24.97 56.2,38.78 10.32,-1.84 20.66,-3.68 30.98,-5.52 10.87,-5.83 21.74,-11.66 32.61,-17.49 -0.79,-7.46 -1.58,-14.92 -2.36,-22.38"
         style="fill:#743e19;fill-opacity:1;fill-rule:nonzero;stroke:none"
         id="path4078"
         inkscape:connector-curvature="0" /><path
         d="m 1561.95,637.801 c 48.59,-17.117 97.18,-34.238 145.76,-51.356 16.27,-9.621 32.54,-19.242 48.81,-28.871 36.11,-9.031 72.2,-18.074 108.29,-27.117 94.33,-11.121 121.35,6.973 121.74,81.516 51.37,10.527 96.9,-2.446 137.72,-34.278 -5.69,-8 -11.37,-15.988 -17.06,-23.984 -25.36,21.355 -43.1,20.105 -54.93,-14.758 -2.5,-7.39 -19.41,-14.355 -29.38,-13.965 -34.3,1.336 -49.73,-14.492 -56.84,-46.789 -1.71,-7.742 -24.93,-19.422 -31.61,-16.062 -58.79,29.551 -133.35,15.019 -184.35,66.965 -8.4,8.55 -26.24,10.918 -39.69,10.839 -33.53,-0.187 -59.72,10.274 -87.13,31.661 -43.28,33.765 -80.03,27.656 -111.68,-7.707 -9.01,2.363 -18.02,4.726 -27.03,7.089 6.28,30.735 -16.73,34.422 -37.08,38.371 -44.06,8.536 -88.69,14.278 -132.56,23.661 -56,11.984 -114.82,15.754 -160.25,59.054 -18.58,17.711 -43.22,32.879 -60.44,-4.726 -17.99,13.074 -39.54,23.164 -53.39,39.707 -92.248,110.203 -214.967,160.262 -352.209,183.086 l 0.062,-0.102 c -5.219,19.699 19.336,56.992 -29.93,50.664 1.094,4.836 2.188,9.66 3.282,14.496 5.699,3.27 11.398,6.551 17.097,9.832 13.278,11.321 26.547,22.633 39.821,33.963 4.445,2.48 8.886,4.96 13.336,7.44 9.488,-2.11 18.976,-4.23 28.468,-6.36 -1.664,-55.668 23.914,-85.011 78.942,-89.093 43.746,-3.243 87.832,-3.243 131.281,-8.633 36.63,-4.543 72.48,-14.883 92.26,-51.606 4.4,-49.527 33.7,-71.968 80.93,-79.707 35.64,-5.828 70.84,-15.738 105.36,-26.609 40.65,-12.805 73.02,-7.219 94.39,32.793 49.47,-18.672 110.17,-15 141.19,-70.117 4.07,-7.235 3.69,-16.985 5.37,-25.555 -27.55,3.785 -61.37,11.082 -62.81,-29.18 -1.11,-31.359 24.11,-47.582 56.61,-44.582 25.97,2.403 51.77,6.614 77.65,10.02"
         style="fill:#c58138;fill-opacity:1;fill-rule:nonzero;stroke:none"
         id="path4080"
         inkscape:connector-curvature="0" /><path
         d="m 1094.24,687.344 c 17.22,37.605 41.86,22.437 60.44,4.726 45.43,-43.3 104.25,-47.07 160.25,-59.054 43.87,-9.383 88.5,-15.125 132.56,-23.661 20.35,-3.949 43.36,-7.636 37.08,-38.371 -26.82,3.145 -53.57,7.024 -80.46,9.27 -58.51,4.883 -117.08,8.934 -175.63,13.328 -13.2,3.445 -26.42,6.895 -39.62,10.332 -16.13,9.863 -34.16,17.629 -47.91,30.109 -17.39,15.758 -31.3,35.372 -46.71,53.321"
         style="fill:#c97f35;fill-opacity:1;fill-rule:nonzero;stroke:none"
         id="path4082"
         inkscape:connector-curvature="0" /><path
         d="m 1228.48,593.582 c 58.55,-4.394 117.12,-8.445 175.63,-13.328 26.89,-2.246 53.64,-6.125 80.46,-9.27 9.01,-2.363 18.02,-4.726 27.03,-7.089 7.22,-5.79 13.65,-13.204 21.78,-17.129 70.15,-33.875 138.36,-73.828 211.68,-98.489 62.15,-20.906 130.48,-33.347 195.81,-32.351 74.35,1.133 148.12,24.101 222.73,32.16 42.62,4.598 86.4,-1.613 129.65,-2.961 -41.21,-45.305 -96.54,-27.645 -146.78,-33.145 -37.79,-4.128 -75.47,-9.414 -113.2,-14.179 -41.81,-12.957 -83.61,-25.918 -125.42,-38.875 -50.06,12.937 -100.11,25.879 -150.17,38.828 -36.34,23.105 -70.25,52.246 -109.52,68.133 -102.37,41.433 -205.98,78.808 -319.6,80.761 -35.62,0.606 -87.18,-11.308 -100.08,46.934"
         style="fill:#b46626;fill-opacity:1;fill-rule:nonzero;stroke:none"
         id="path4084"
         inkscape:connector-curvature="0" /><path
         d="m 2213.67,482.383 c 9.33,2.82 16.12,3.828 21.37,7.226 1.27,0.829 -1.61,13.192 -4.25,13.875 -5.84,1.524 -13.66,0.528 -18.75,-2.597 -2.09,-1.278 0.78,-10.672 1.63,-18.504 z m 79.58,-37.258 c -43.25,1.348 -87.03,7.559 -129.65,2.961 -74.61,-8.059 -148.38,-31.027 -222.73,-32.16 -65.33,-0.996 -133.66,11.445 -195.81,32.351 -73.32,24.661 -141.53,64.614 -211.68,98.489 -8.13,3.925 -14.56,11.339 -21.78,17.129 31.65,35.363 68.4,41.472 111.68,7.707 27.41,-21.387 53.6,-31.848 87.13,-31.661 13.45,0.079 31.29,-2.289 39.69,-10.839 51,-51.946 125.56,-37.414 184.35,-66.965 6.68,-3.36 29.9,8.32 31.61,16.062 7.11,32.297 22.54,48.125 56.84,46.789 9.97,-0.39 26.88,6.575 29.38,13.965 11.83,34.863 29.57,36.113 54.93,14.758 5.69,7.996 11.37,15.984 17.06,23.984 18.07,-5 36.14,-10 54.2,-14.992 -3.83,-11.75 -7.67,-23.484 -11.52,-35.223 12.51,1.278 25.81,0.418 37.22,4.668 6.62,2.461 10.18,13.125 15.13,20.086 l 0.05,0.032 c 49.25,-11.075 57.61,-56.379 77.24,-92.258 -1.03,-4.832 -2.05,-9.668 -3.08,-14.5 l -0.26,-0.383"
         style="fill:#c97f35;fill-opacity:1;fill-rule:nonzero;stroke:none"
         id="path4086"
         inkscape:connector-curvature="0" /><path
         d="m 2223.2,567.203 c -27.29,12.192 -55.62,22.602 -81.33,37.531 -9.08,5.274 -17.69,22.801 -15.71,32.539 2.08,10.274 17.84,26.125 26.29,25.332 43.18,-4.062 86.85,-9.667 128.15,-22.07 9.5,-2.84 10.31,-34.582 15.12,-53.015 -24.18,-6.77 -48.35,-13.547 -72.52,-20.317"
         style="fill:#7a431a;fill-opacity:1;fill-rule:nonzero;stroke:none"
         id="path4088"
         inkscape:connector-curvature="0" /><path
         d="m 2456.86,569.07 c -4.53,-29.59 -9.06,-59.168 -13.59,-88.757 -3.46,0.312 -6.88,0.898 -10.24,1.738 7.94,29.012 15.89,58.015 23.83,87.019"
         style="fill:#5e6145;fill-opacity:1;fill-rule:nonzero;stroke:none"
         id="path4090"
         inkscape:connector-curvature="0" /><path
         d="m 2433.03,482.051 c 3.36,-0.84 6.78,-1.426 10.24,-1.738 -4.49,-4.407 -8.98,-8.801 -13.48,-13.196 1.09,4.981 2.16,9.961 3.24,14.934"
         style="fill:#906439;fill-opacity:1;fill-rule:nonzero;stroke:none"
         id="path4092"
         inkscape:connector-curvature="0" /><path
         d="m 2340.01,461.473 -6.17,1.757 -6.35,0.977 c 4.18,-0.906 8.35,-1.824 12.52,-2.734"
         style="fill:#c97f35;fill-opacity:1;fill-rule:nonzero;stroke:none"
         id="path4094"
         inkscape:connector-curvature="0" /><path
         d="m 2293.51,445.508 c 1.03,4.832 2.05,9.668 3.08,14.5 4.72,-1.668 9.42,-3.34 14.14,-5.02 -5.74,-3.164 -11.47,-6.316 -17.22,-9.48"
         style="fill:#b46626;fill-opacity:1;fill-rule:nonzero;stroke:none"
         id="path4096"
         inkscape:connector-curvature="0" /><path
         d="m 658.773,960.699 c 49.266,6.328 24.711,-30.965 29.93,-50.664 -30.937,4.504 -42.441,20.492 -29.93,50.664"
         style="fill:#b46626;fill-opacity:1;fill-rule:nonzero;stroke:none"
         id="path4098"
         inkscape:connector-curvature="0" /><path
         d="m 1415.72,1139.52 c -18.94,-13.81 -41.32,-42.27 -56.2,-38.78 -49.79,11.66 -96.89,34.75 -145.02,53.46 19.63,55.89 64.8,16.74 96.93,26.04 34.77,-13.57 69.53,-27.14 104.29,-40.72"
         style="fill:#a05e1d;fill-opacity:1;fill-rule:nonzero;stroke:none"
         id="path4100"
         inkscape:connector-curvature="0" /><path
         d="m 1195.1,1142.76 c -3.22,-11.71 -6.44,-23.42 -9.66,-35.12 -76.57,-2.41 -153.16,-4.26 -229.678,-7.54 -24.946,-1.07 -49.719,-5.88 -74.571,-8.98 29.758,11.73 58.684,29.98 89.438,33.9 74.371,9.48 149.591,12.26 224.471,17.74"
         style="fill:#7c6b37;fill-opacity:1;fill-rule:nonzero;stroke:none"
         id="path4102"
         inkscape:connector-curvature="0" /><path
         d="m 1415.72,1139.52 c -34.76,13.58 -69.52,27.15 -104.29,40.72 50.94,1.69 104.16,10.09 135.27,-46.24 -10.32,1.84 -20.66,3.68 -30.98,5.52"
         style="fill:#7a431a;fill-opacity:1;fill-rule:nonzero;stroke:none"
         id="path4104"
         inkscape:connector-curvature="0" /><path
         d="m 718.973,1018.99 c -13.274,-11.33 -26.543,-22.642 -39.821,-33.963 13.278,11.321 26.547,22.633 39.821,33.963"
         style="fill:#dca154;fill-opacity:1;fill-rule:nonzero;stroke:none"
         id="path4106"
         inkscape:connector-curvature="0" /><path
         d="m 829.375,1062.86 c -6.945,-31.24 -27.598,-23.17 -47.719,-16.65 15.907,5.55 31.813,11.09 47.719,16.65"
         style="fill:#e1b06d;fill-opacity:1;fill-rule:nonzero;stroke:none"
         id="path4108"
         inkscape:connector-curvature="0" /><path
         d="m 760.777,1020.07 c -9.492,2.13 -18.98,4.25 -28.468,6.36 10.66,3.35 21.316,6.7 31.98,10.06 -1.172,-5.47 -2.34,-10.94 -3.512,-16.42"
         style="fill:#e1b06d;fill-opacity:1;fill-rule:nonzero;stroke:none"
         id="path4110"
         inkscape:connector-curvature="0" /><path
         d="m 781.711,1046.13 c -5.801,-3.37 -11.602,-6.74 -17.402,-10.11 5.8,3.37 11.601,6.74 17.402,10.11"
         style="fill:#e1b06d;fill-opacity:1;fill-rule:nonzero;stroke:none"
         id="path4112"
         inkscape:connector-curvature="0" /><path
         d="m 1343.94,797.215 c -21.37,-40.012 -53.74,-45.598 -94.39,-32.793 -34.52,10.871 -69.72,20.781 -105.36,26.609 -47.23,7.739 -76.53,30.18 -80.93,79.707 15.53,15.657 31.05,31.321 46.57,46.985 14.53,-10.743 27.92,-23.739 43.83,-31.707 25.85,-12.942 52.78,-24.446 80.37,-32.922 17.55,-5.391 37.12,-4.207 55.79,-5.965 -2.93,17.832 -5.86,35.664 -8.78,53.492 2.05,6.367 4.11,12.738 6.17,19.106 66.59,-35.079 70.76,-44.075 56.73,-122.512"
         style="fill:#743e19;fill-opacity:1;fill-rule:nonzero;stroke:none"
         id="path4114"
         inkscape:connector-curvature="0" /><path
         d="m 1756.52,557.574 c -16.27,9.629 -32.54,19.25 -48.81,28.871 15.27,72.137 18.25,74.649 79.58,66.844 -2.34,-9.492 -7.06,-27.207 -6.7,-27.312 33.96,-9.805 67.99,-20.168 102.79,-25.825 13.05,-2.117 27.93,6.918 41.98,10.864 -7.94,9.422 -14.37,21.054 -24.16,27.754 -14.91,10.195 -32.16,16.98 -48.41,25.203 58.94,19.57 96.13,-16.758 133.76,-52 -0.39,-74.543 -27.41,-92.637 -121.74,-81.516 -36.09,9.043 -72.18,18.086 -108.29,27.117"
         style="fill:#7a431a;fill-opacity:1;fill-rule:nonzero;stroke:none"
         id="path4116"
         inkscape:connector-curvature="0" /><path
         d="m 1281.04,900.621 c 2.92,-17.828 5.85,-35.66 8.78,-53.492 -18.67,1.758 -38.24,0.574 -55.79,5.965 -27.59,8.476 -54.52,19.98 -80.37,32.922 -15.91,7.968 -29.3,20.964 -43.83,31.707 15.36,5.175 30.72,10.351 46.09,15.515 41.71,-10.867 83.41,-21.734 125.12,-32.617"
         style="fill:#a05e1d;fill-opacity:1;fill-rule:nonzero;stroke:none"
         id="path4118"
         inkscape:connector-curvature="0" /><path
         d="m 1561.95,637.801 c -25.88,-3.406 -51.68,-7.617 -77.65,-10.02 -32.5,-3 -57.72,13.223 -56.61,44.582 1.44,40.262 35.26,32.965 62.81,29.18 29.49,-14.895 70.23,-17.16 71.45,-63.742"
         style="fill:#7a431a;fill-opacity:1;fill-rule:nonzero;stroke:none"
         id="path4120"
         inkscape:connector-curvature="0" /><path
         d="m 1852.79,663.973 c 16.25,-8.223 33.5,-15.008 48.41,-25.203 9.79,-6.7 16.22,-18.332 24.16,-27.754 -14.05,-3.946 -28.93,-12.981 -41.98,-10.864 -34.8,5.657 -68.83,16.02 -102.79,25.825 -0.36,0.105 4.36,17.82 6.7,27.312 l 0.72,-1.894 c 8.52,5.007 17.05,10.019 25.57,15.031 13.07,-0.821 26.14,-1.633 39.21,-2.453"
         style="fill:#a05e1d;fill-opacity:1;fill-rule:nonzero;stroke:none"
         id="path4122"
         inkscape:connector-curvature="0" /><path
         d="m 1281.04,900.621 c -41.71,10.883 -83.41,21.75 -125.12,32.617 47.9,35.664 88.94,4.707 131.29,-13.511 -2.06,-6.368 -4.12,-12.739 -6.17,-19.106"
         style="fill:#7a431a;fill-opacity:1;fill-rule:nonzero;stroke:none"
         id="path4124"
         inkscape:connector-curvature="0" /><path
         d="m 2219.3,552.234 c -4.95,-6.961 -8.51,-17.625 -15.13,-20.086 -11.41,-4.25 -24.71,-3.39 -37.22,-4.668 3.85,11.739 7.69,23.473 11.52,35.223 13.62,-3.484 27.22,-6.98 40.83,-10.469"
         style="fill:#c58138;fill-opacity:1;fill-rule:nonzero;stroke:none"
         id="path4126"
         inkscape:connector-curvature="0" /><path
         d="m 1813.58,666.426 c -8.52,-5.012 -17.05,-10.024 -25.57,-15.031 8.52,5.007 17.05,10.019 25.57,15.031"
         style="fill:#7a431a;fill-opacity:1;fill-rule:nonzero;stroke:none"
         id="path4128"
         inkscape:connector-curvature="0" /><path
         d="m 1853.66,824.688 c -45.53,16.843 -92.49,30.808 -135.67,52.339 -12.44,6.203 -14.02,34.211 -20.57,52.219 18.1,6.133 37.36,19.563 54.05,16.887 33.97,-5.442 69.4,-14.516 99.08,-31.231 53.58,-30.168 52.47,-48.539 3.32,-90.48 l -0.21,0.266"
         style="fill:#7a431a;fill-opacity:1;fill-rule:nonzero;stroke:none"
         id="path4130"
         inkscape:connector-curvature="0" /><path
         d="m 1631.96,967.391 c -11,6.211 -22,12.429 -33.01,18.64 3.94,4.438 7.86,8.879 11.79,13.313 7.06,-10.653 14.12,-21.317 21.18,-31.973 l 0.04,0.02"
         style="fill:#dca154;fill-opacity:1;fill-rule:nonzero;stroke:none"
         id="path4132"
         inkscape:connector-curvature="0" /><path
         d="m 1631.92,967.371 c 1.54,-2.59 3.08,-5.176 4.61,-7.762 -1.21,0.672 -3.02,1.075 -3.5,2.098 -0.81,1.68 -0.76,3.77 -1.07,5.684 l -0.04,-0.02"
         style="fill:#dca154;fill-opacity:1;fill-rule:nonzero;stroke:none"
         id="path4134"
         inkscape:connector-curvature="0" /><path
         d="m 1756.52,557.574 c 36.11,-9.031 72.2,-18.074 108.29,-27.117 -36.09,9.043 -72.18,18.086 -108.29,27.117"
         style="fill:#743e19;fill-opacity:1;fill-rule:nonzero;stroke:none"
         id="path4136"
         inkscape:connector-curvature="0" /><path
         d="m 2213.67,482.383 c -0.85,7.832 -3.72,17.226 -1.63,18.504 5.09,3.125 12.91,4.121 18.75,2.597 2.64,-0.683 5.52,-13.046 4.25,-13.875 -5.25,-3.398 -12.04,-4.406 -21.37,-7.226"
         style="fill:#c58138;fill-opacity:1;fill-rule:nonzero;stroke:none"
         id="path4138"
         inkscape:connector-curvature="0" /></g></g></svg>