<?xml version="1.0" encoding="UTF-8" standalone="no"?>
<!-- Created with Inkscape (http://www.inkscape.org/) -->

<svg
   xmlns:dc="http://purl.org/dc/elements/1.1/"
   xmlns:cc="http://creativecommons.org/ns#"
   xmlns:rdf="http://www.w3.org/1999/02/22-rdf-syntax-ns#"
   xmlns:svg="http://www.w3.org/2000/svg"
   xmlns="http://www.w3.org/2000/svg"
   xmlns:sodipodi="http://sodipodi.sourceforge.net/DTD/sodipodi-0.dtd"
   xmlns:inkscape="http://www.inkscape.org/namespaces/inkscape"
   version="1.1"
   id="svg4169"
   xml:space="preserve"
   width="257.95032"
   height="91.611359"
   viewBox="0 0 257.95032 91.611359"
   sodipodi:docname="cookie.svg"
   inkscape:version="0.92.3 (2405546, 2018-03-11)"><metadata
     id="metadata4175"><rdf:RDF><cc:Work
         rdf:about=""><dc:format>image/svg+xml</dc:format><dc:type
           rdf:resource="http://purl.org/dc/dcmitype/StillImage" /><dc:title></dc:title></cc:Work></rdf:RDF></metadata><defs
     id="defs4173" /><sodipodi:namedview
     pagecolor="#ffffff"
     bordercolor="#666666"
     borderopacity="1"
     objecttolerance="10"
     gridtolerance="10"
     guidetolerance="10"
     inkscape:pageopacity="0"
     inkscape:pageshadow="2"
     inkscape:window-width="3840"
     inkscape:window-height="1823"
     id="namedview4171"
     showgrid="false"
     inkscape:zoom="5.9746835"
     inkscape:cx="115.55461"
     inkscape:cy="42.810507"
     inkscape:window-x="0"
     inkscape:window-y="0"
     inkscape:window-maximized="1"
     inkscape:current-layer="g4179" /><g
     id="g4177"
     inkscape:groupmode="layer"
     inkscape:label="ink_ext_XXXXXX"
     transform="matrix(1.3333333,0,0,-1.3333333,-82.714915,157.106)"><g
       id="g4179"
       transform="scale(0.1)"><path
         d="m 38.6992,736.484 c -0.3281,-10.539 -0.6601,-21.066 -0.9844,-31.601 0.3243,10.535 0.6563,21.062 0.9844,31.601"
         style="fill:#e1b06d;fill-opacity:1;fill-rule:nonzero;stroke:none"
         id="path4243"
         inkscape:connector-curvature="0" /><path
         d="m 59.0234,371.199 c -4.3711,0.071 -8.7382,0.125 -13.1054,0.188 4.3672,0.215 8.7383,0.156 13.1054,-0.188"
         style="fill:#dca154;fill-opacity:1;fill-rule:nonzero;stroke:none"
         id="path4247"
         inkscape:connector-curvature="0" /><g
         id="g4574"><path
           inkscape:connector-curvature="0"
           id="path4197"
           style="fill:#7c6b37;fill-opacity:1;fill-rule:nonzero;stroke:none"
           d="m 700.97798,889.08129 c -4.27724,7.82976 -8.55575,15.64883 -12.8404,23.48696 11.79993,4.62152 23.59342,9.25167 35.3898,13.88259 34.54989,4.40217 69.09592,8.8033 103.64581,13.20548 -42.06776,-16.85217 -84.13293,-33.71399 -126.19521,-50.57503" /><path
           inkscape:connector-curvature="0"
           id="path4205"
           style="fill:#7c6b37;fill-opacity:1;fill-rule:nonzero;stroke:none"
           d="m 1923.7488,522.81028 c -4.4423,-1.11681 -8.8764,-2.26453 -13.2987,-3.41739 -32.227,16.64831 -64.4375,33.31243 -96.658,49.97492 -54.3078,19.53992 -108.627,39.08401 -162.9359,58.62778 33.2,3.86861 66.3773,7.7446 99.5763,11.61708 30.4564,-13.55623 62.2744,-24.7371 90.974,-41.3191 28.6064,-16.54282 54.0596,-38.51161 80.9029,-58.09535 0.4754,-5.79233 0.952,-11.5895 1.4394,-17.38794" /><path
           inkscape:connector-curvature="0"
           id="path4217"
           style="fill:#c58138;fill-opacity:1;fill-rule:nonzero;stroke:none"
           d="m 1298.0137,673.16121 c -90.6059,-12.21475 -181.1889,-24.66973 -271.8685,-36.29651 -8.316,-1.06773 -17.2974,3.12973 -25.9713,4.87732 51.0207,32.69001 102.0472,65.3857 153.0843,98.08011 48.2457,-22.22332 96.4991,-44.43633 144.7555,-66.66092" /><path
           inkscape:connector-curvature="0"
           id="path4219"
           style="fill:#743e19;fill-opacity:1;fill-rule:nonzero;stroke:none"
           d="m 1042.4212,768.9168 c -28.8815,-0.24959 -58.61856,-4.65109 -86.25827,1.07845 -12.93454,2.68064 -21.82217,24.90772 -32.55108,38.27744 13.53126,9.97918 27.05411,19.93954 40.58255,29.91382 51.8213,5.97907 50.2536,-48.32815 78.2268,-69.26971" /><path
           inkscape:connector-curvature="0"
           id="path4285"
           style="fill:#c58138;fill-opacity:1;fill-rule:nonzero;stroke:none"
           d="m 972.51905,634.80504 c -8.57381,-5.31001 -17.15846,-10.61049 -25.74001,-15.92256 7.3551,10.77789 14.70421,21.55107 22.05332,32.32424 l 0.0868,-0.0534 c 1.1991,-5.44104 2.40157,-10.89465 3.59992,-16.34832" /><path
           inkscape:connector-curvature="0"
           id="path4289"
           style="fill:#c58138;fill-opacity:1;fill-rule:nonzero;stroke:none"
           d="m 968.83236,651.20672 c 1.64216,2.6845 3.27555,5.37078 4.91481,8.0545 0.0332,-1.49949 0.65843,-3.42323 -0.0411,-4.39024 -1.13725,-1.56672 -3.1446,-2.51353 -4.78692,-3.71762 l -0.0868,0.0534" /><path
           inkscape:connector-curvature="0"
           id="path4291"
           style="fill:#dca154;fill-opacity:1;fill-rule:nonzero;stroke:none"
           d="m 964.29497,491.38766 c 1.67187,2.61998 3.34475,5.25163 5.01377,7.88224 0.0153,-1.45977 0.59719,-3.3299 -0.0895,-4.29863 -1.10654,-1.56161 -3.04963,-2.53571 -4.63749,-3.76144 l -0.2868,0.17783" /><path
           inkscape:connector-curvature="0"
           id="path4293"
           style="fill:#dca154;fill-opacity:1;fill-rule:nonzero;stroke:none"
           d="m 785.39274,886.2013 c 5.03163,-2.52371 9.21566,-3.25575 10.34822,-5.51976 1.77016,-3.5115 1.93284,-8.10595 1.6127,-12.14649 -0.0603,-0.74085 -8.22156,-1.73708 -8.29403,-1.46662 -1.49349,5.66653 -2.35945,11.49087 -3.66689,19.13287" /><path
           inkscape:connector-curvature="0"
           id="path4299"
           style="fill:#7c6b37;fill-opacity:1;fill-rule:nonzero;stroke:none"
           d="m 2284.3772,1028.1043 c 9.7301,-0.1105 19.4516,-0.2273 29.1818,-0.3378 3.5529,-10.3232 4.0547,-25.5646 11.2473,-29.9981 18.4006,-11.33478 39.7714,-17.87445 59.9593,-26.33577 -10.1108,-0.5941 -20.2205,-1.19206 -30.3313,-1.78616 -40.2135,5.26745 -80.4281,10.53877 -120.6417,15.80621 -54.0373,19.61242 -110.6455,34.09872 -161.6566,59.72632 -209.9813,105.5421 -428.4439,125.9761 -655.6486,74.4453 -1.1773,7.4077 -2.345,14.818 -3.5127,22.2283 115.309,35.7006 233.8864,19.2916 351.263,21.7755 56.678,1.2106 113.3949,0.5371 170.1095,0.7222 5.0165,-8.6763 10.0322,-17.3497 15.0487,-26.0259 -1.568,-1.6822 -3.8286,-3.1368 -4.4961,-5.1274 -0.6286,-1.827 -0.1489,-5.7422 0.8826,-6.1532 69.9404,-28.0012 138.8509,-59.3066 210.4808,-82.0991 40.3962,-12.865 85.2608,-11.6902 128.114,-16.8404" /><path
           inkscape:connector-curvature="0"
           id="path4301"
           style="fill:#b46626;fill-opacity:1;fill-rule:nonzero;stroke:none"
           d="m 1059.3776,596.93736 c -6.346,1.42095 -12.6954,2.85446 -19.0445,4.287 -34.3403,65.19662 -105.07976,60.69966 -161.49543,79.26998 -44.83548,14.76999 -95.62502,12.77988 -143.91476,15.1959 -30.47284,1.52812 -32.62215,19.67622 -32.2626,42.18111 138.47288,13.47456 269.96655,-3.11671 387.59389,-85.68909 17.6597,-12.39467 41.0869,-16.56331 61.8477,-24.53567 19.5305,-13.349 38.043,-28.6945 58.9189,-39.4147 16.5116,-8.49599 35.9372,-11.33086 54.0703,-16.68304 -19.0925,-2.0017 -38.8666,-8.18222 -57.1507,-5.20298 -49.8524,8.12821 -99.0834,20.11888 -148.5628,30.59149" /><path
           inkscape:connector-curvature="0"
           id="path4303"
           style="fill:#906439;fill-opacity:1;fill-rule:nonzero;stroke:none"
           d="m 1059.3776,596.93736 c 49.4794,-10.47261 98.7104,-22.46328 148.5628,-30.59149 18.2841,-2.97924 38.0582,3.20128 57.1507,5.20298 13.6398,0.0965 27.3023,0.18567 40.9441,0.27447 27.5346,-52.91869 74.2542,-28.06594 108.8173,-19.43215 110.2539,27.52056 220.0069,18.23533 329.6124,4.70943 42.0437,-5.18184 82.3405,-24.55333 123.4223,-37.46557 -13.999,-0.64931 -27.9893,-1.29218 -41.9914,-1.92991 -18.3945,1.2663 -36.7824,2.54677 -55.1879,3.81531 -37.1324,4.12293 -74.2736,8.24037 -111.4138,12.35394 -106.2646,-5.93556 -212.5217,-12.01508 -318.7996,-17.78543 -103.0198,-5.60445 -195.4397,25.96521 -281.1169,80.84842" /><path
           inkscape:connector-curvature="0"
           id="path4305"
           style="fill:#c58138;fill-opacity:1;fill-rule:nonzero;stroke:none"
           d="m 2471.1837,916.90221 c 9.635,-9.10554 19.2796,-18.2085 28.9146,-27.31404 -0.3947,-7.83825 -0.7916,-15.66878 -1.195,-23.51349 -0.1626,-30.07073 -0.3352,-60.14309 -0.4958,-90.22155 0.2439,-5.08308 0.4993,-10.17032 0.7356,-15.26371 l 0.606,0.55888 c -3.7072,-6.10138 -7.4156,-12.19794 -11.1259,-18.28773 l 0.4648,-0.42104 c -15.9163,-4.00284 -31.6798,-8.8851 -47.8186,-11.63274 -8.811,-1.50371 -18.2305,0.61557 -27.3863,1.09417 -4.2635,-0.20029 -8.529,-0.39284 -12.801,-0.59958 -4.604,-4.41605 -9.2,-8.82276 -13.8029,-13.24267 -4.994,0.40113 -9.9666,0.7997 -14.9575,1.18924 -28.2473,29.57584 -48.0479,71.17241 -98.4862,69.1232 -0.052,5.13774 -0.1053,10.28417 -0.1472,15.42449 21.5943,12.79498 43.1867,25.59671 64.7905,38.39427 41.4644,2.54446 82.162,6.82979 106.8681,47.26605 8.6046,9.15186 17.2315,18.2973 25.8368,27.44625" /><path
           inkscape:connector-curvature="0"
           id="path4307"
           style="fill:#906439;fill-opacity:1;fill-rule:nonzero;stroke:none"
           d="m 702.66031,737.87135 c -0.35955,-22.50489 1.78976,-40.65299 32.2626,-42.18111 48.28974,-2.41602 99.07928,-0.42591 143.91476,-15.1959 56.41567,-18.57032 127.15513,-14.07336 161.49543,-79.26998 -88.19739,19.82124 -176.03031,41.53944 -264.70414,58.92744 -81.79365,16.03668 -145.1894,48.70272 -155.26708,141.67229 3.09854,3.69383 7.08839,5.68016 11.98262,5.96043 9.26733,-4.65403 18.53084,-9.29768 27.79746,-13.95293 0.19492,-4.95436 0.38674,-9.89714 0.58167,-14.8515 -4.27561,-32.382 10.9744,-44.84777 42.02297,-41.19121 l -0.0863,0.0825" /><path
           inkscape:connector-curvature="0"
           id="path4309"
           style="fill:#906439;fill-opacity:1;fill-rule:nonzero;stroke:none"
           d="m 2413.8831,731.90096 c 9.1558,-0.4786 18.5753,-2.59788 27.3863,-1.09417 16.1388,2.74764 31.9023,7.6299 47.8186,11.63274 -16.2361,-52.68959 -63.6484,-69.31631 -106.7775,-87.74799 -86.382,-36.90378 -174.37,-70.01603 -261.6896,-104.69568 4.4849,13.66955 8.9708,27.33524 13.4536,41.01251 35.2111,14.36788 70.2391,29.22607 105.673,42.99418 47.1046,18.31566 105.12,15.57787 133.2,70.00507 l 0.1521,0.43725 c 4.7351,4.54439 9.4541,9.07203 14.1796,13.61384 4.6029,4.41991 9.1989,8.82662 13.8029,13.24267 l 6.3865,0.6998 6.4145,-0.10022" /><path
           inkscape:connector-curvature="0"
           id="path4311"
           style="fill:#906439;fill-opacity:1;fill-rule:nonzero;stroke:none"
           d="m 2498.9033,866.07468 c 0.4034,7.84471 0.8003,15.67524 1.195,23.51349 17.3957,-27.59806 40.5108,-53.24327 50.7433,-83.27934 13.0674,-38.37451 -5.1054,-62.66359 -49.3805,-59.54766 -0.5701,4.79378 -1.1421,9.59432 -1.712,14.38713 l -0.606,-0.55888 c 3.2092,5.40993 6.4089,10.8163 9.6053,16.23523 -3.2825,29.75323 -6.5622,59.49584 -9.8451,89.25003" /><path
           inkscape:connector-curvature="0"
           id="path4313"
           style="fill:#b46626;fill-opacity:1;fill-rule:nonzero;stroke:none"
           d="m 1825.8958,517.70512 c 14.0021,0.63773 27.9924,1.2806 41.9914,1.92991 51.7057,0.44871 103.3999,0.90159 155.1025,1.36189 9.3754,-0.52536 18.7488,-1.04299 28.1326,-1.56093 -74.8114,-35.76941 -149.9881,-22.07186 -225.2265,-1.73087" /><path
           inkscape:connector-curvature="0"
           id="path4315"
           style="fill:#a05e1d;fill-opacity:1;fill-rule:nonzero;stroke:none"
           d="m 2051.1223,519.43599 c -9.3838,0.51794 -18.7572,1.03557 -28.1326,1.56093 37.0318,23.33673 74.053,46.67473 111.0848,70.01145 -4.4828,-13.67727 -8.9687,-27.34296 -13.4536,-41.01251 -23.1715,-10.19254 -46.3337,-20.38152 -69.4986,-30.55987" /><path
           inkscape:connector-curvature="0"
           id="path4317"
           style="fill:#dca154;fill-opacity:1;fill-rule:nonzero;stroke:none"
           d="m 1659.2941,533.87437 c 37.1402,-4.11357 74.2814,-8.23101 111.4138,-12.35394 -37.1324,4.12293 -74.2736,8.24037 -111.4138,12.35394" /><path
           inkscape:connector-curvature="0"
           id="path4319"
           style="fill:#a05e1d;fill-opacity:1;fill-rule:nonzero;stroke:none"
           d="m 2471.1837,916.90221 c -8.6053,-9.14895 -17.2322,-18.29439 -25.8368,-27.44625 -6.1657,12.92665 -12.3294,25.84557 -18.4855,38.77481 7.6755,1.60734 15.3391,3.22079 23.0136,4.832 7.1064,-5.38728 14.2022,-10.77328 21.3087,-16.16056" /><path
           inkscape:connector-curvature="0"
           id="path4321"
           style="fill:#906439;fill-opacity:1;fill-rule:nonzero;stroke:none"
           d="m 2354.4343,969.64647 c 10.1108,0.5941 20.2205,1.19206 30.3313,1.78616 6.6118,-2.72975 13.2223,-5.45467 19.8427,-8.17798 -2.4464,-2.57698 -4.8266,-5.20766 -7.1506,-7.89368 -14.3416,4.76344 -28.6818,9.52206 -43.0234,14.2855" /><path
           inkscape:connector-curvature="0"
           id="path4323"
           style="fill:#906439;fill-opacity:1;fill-rule:nonzero;stroke:none"
           d="m 2449.875,933.06277 c -7.6745,-1.61121 -15.3381,-3.22466 -23.0136,-4.832 -4.9919,4.64323 -9.9761,9.29677 -14.9596,13.94742 3.279,3.17898 6.0698,6.74998 8.3866,10.69918 9.8669,-6.60948 19.7325,-13.21413 29.5866,-19.8146" /><path
           inkscape:connector-curvature="0"
           id="path4325"
           style="fill:#906439;fill-opacity:1;fill-rule:nonzero;stroke:none"
           d="m 2499.7491,761.1483 c 0.5699,-4.79281 1.1419,-9.59335 1.712,-14.38713 -4.2804,-1.29601 -8.5575,-2.60458 -12.8379,-3.9006 3.7103,6.08979 7.4187,12.18635 11.1259,18.28773" /><path
           inkscape:connector-curvature="0"
           id="path4327"
           style="fill:#906439;fill-opacity:1;fill-rule:nonzero;stroke:none"
           d="m 2404.6083,963.25465 c 5.2248,-3.46478 10.4564,-6.91635 15.6801,-10.37728 -2.3168,-3.9492 -5.1076,-7.5202 -8.3866,-10.69918 -4.8108,4.39255 -9.6206,8.78123 -14.4441,13.18278 2.324,2.68602 4.7042,5.3167 7.1506,7.89368" /><path
           inkscape:connector-curvature="0"
           id="path4329"
           style="fill:#7c6b37;fill-opacity:1;fill-rule:nonzero;stroke:none"
           d="m 631.60497,833.27467 c 43.74058,39.22754 85.02834,81.85613 132.39832,116.06192 19.32701,13.9578 51.83857,9.66617 78.34953,13.67429 -14.39427,-13.77488 -28.79241,-27.55079 -43.18571,-41.32541 l -0.0958,0.12961 c -13.92499,-9.48732 -27.85514,-18.95532 -41.78368,-28.43325 l 0.0738,-0.063 c -4.73112,-4.75658 -9.46223,-9.51316 -14.19238,-14.26948 l -0.14096,0.44881 c -9.43101,-6.00555 -18.85687,-11.99938 -28.28659,-17.99424 -3.6565,-3.54724 -7.30431,-7.09216 -10.95598,-10.6381 -9.88928,-14.37951 -19.77838,-28.74033 -29.67386,-43.11217 -4.65562,-4.64422 -9.31125,-9.28843 -13.96972,-13.92202 -9.26662,4.65525 -18.53013,9.2989 -27.79746,13.95293 -0.24703,8.49864 -0.48942,16.99543 -0.73953,25.49015" /><path
           inkscape:connector-curvature="0"
           id="path4331"
           style="fill:#dca154;fill-opacity:1;fill-rule:nonzero;stroke:none"
           d="m 2397.4577,955.36097 c 4.8235,-4.40155 9.6333,-8.79023 14.4441,-13.18278 4.9835,-4.65065 9.9677,-9.30419 14.9596,-13.94742 6.1561,-12.92924 12.3198,-25.84816 18.4855,-38.77481 -24.7061,-40.43626 -65.4037,-44.72159 -106.8681,-47.26605 -9.4169,16.56 -18.4147,47.01077 -28.326,47.29522 -43.1029,1.29115 -86.7356,-4.59746 -129.4956,-11.84968 -8.3673,-1.42104 -19.4877,-20.81092 -18.8378,-31.27319 0.6079,-9.91864 13.4608,-24.61999 23.5964,-27.36421 28.6979,-7.76607 58.7569,-10.48901 88.2725,-15.20241 0.042,-5.14032 0.096,-10.28675 0.1472,-15.42449 l -0.04,-0.0438 c -14.0493,-0.15241 -28.0907,-0.29547 -42.1483,-0.4553 -18.7367,0.14763 -37.4851,0.3004 -56.2334,0.45317 -47.6679,20.18235 -95.0041,20.92928 -141.8991,-2.53456 -45.4691,24.3018 -90.7943,49.76647 -142.6609,15.60851 -12.8369,-2.5907 -25.6717,-5.18914 -38.5057,-7.79047 -6.9356,-7.03477 -13.8777,-14.08371 -20.8115,-21.12524 l -1.1857,1.64311 c -61.2603,-8.33432 -63.4886,-11.532 -59.5679,-85.16316 -51.3551,3.96129 -102.7207,7.92288 -154.0852,11.88062 -13.2348,44.679 -53.1728,36.32253 -85.5131,43.07742 -3.8408,7.84317 -5.9972,17.3593 -11.8011,23.29438 -44.2284,45.21037 -101.9097,25.95317 -154.5267,31.18516 -6.749,79.39555 -13.1053,87.00575 -86.5054,103.6547 -45.6221,6.63625 -93.276,25.91648 -130.3133,-20.92973 -13.5098,-8.96609 -27.0067,-17.94118 -40.504,-26.91531 -10.937,-19.14713 -21.874,-38.29427 -32.8225,-57.43723 -28.6106,30.35226 -65.9153,31.06127 -102.47294,25.96893 -43.36355,-6.03909 -85.94735,-17.44939 -129.0421,-25.63919 -54.20946,-10.29938 -86.51044,11.4237 -99.31108,65.62554 -0.28626,5.59661 -0.5738,11.18252 -0.85747,16.76947 l 0.14096,-0.44881 c 4.73015,4.75632 9.46126,9.5129 14.19238,14.26948 l -0.0738,0.063 c 21.12289,-1.09014 43.16083,-3.53977 41.78368,28.43325 l 0.0958,-0.12961 c 51.35109,-2.56683 111.01372,-34.98979 141.14451,39.25859 0.48525,1.17565 4.34264,1.02902 6.63404,1.45665 78.01302,14.41235 152.41322,48.77958 235.92862,32.28284 37.9936,-7.49181 83.0823,-10.93947 117.6033,2.56538 69.613,27.23516 125.1696,-2.7608 175.1896,-35.66277 65.7381,-43.22767 133.852,-55.87339 208.5739,-49.52049 43.6571,3.71075 87.4974,7.51093 130.4521,15.54313 13.1698,2.46872 23.6824,19.10442 35.4049,29.25426 l 0.2717,-0.20258 c 87.0187,4.3907 174.1094,7.81719 261.0437,13.60465 40.9389,2.72773 81.5968,9.98194 122.3791,15.18755 40.2136,-5.26744 80.4282,-10.53876 120.6417,-15.80621 14.3416,-4.76344 28.6818,-9.52206 43.0234,-14.2855" /><path
           inkscape:connector-curvature="0"
           id="path4333"
           style="fill:#e1b06d;fill-opacity:1;fill-rule:nonzero;stroke:none"
           d="m 1599.0181,1037.3234 c 0.7948,-1.7686 1.2874,-3.8003 2.5046,-5.2134 0.7285,-0.8639 2.5811,-0.7847 3.9238,-1.1206 -2.1472,2.1019 -4.304,4.2012 -6.4619,6.3043 -9.5774,8.4657 -19.1569,16.939 -28.7335,25.4018 -2.6485,-5.3001 -5.2855,-10.6043 -7.9426,-15.9109 12.2423,-3.1497 24.4769,-6.3088 36.7096,-9.4612 z m 251.08,-80.46034 c -11.7225,-10.14984 -22.2351,-26.78554 -35.4049,-29.25426 -42.9547,-8.0322 -86.795,-11.83238 -130.4521,-15.54313 -74.7219,-6.3529 -142.8358,6.29282 -208.5739,49.52049 -50.02,32.90197 -105.5766,62.89794 -175.1896,35.66277 -34.521,-13.50485 -79.6097,-10.05719 -117.6033,-2.56538 -83.5154,16.49675 -157.9156,-17.87049 -235.92864,-32.28284 -2.2914,-0.42763 -6.14879,-0.281 -6.63404,-1.45665 -30.13079,-74.24838 -89.79342,-41.82542 -141.14451,-39.25859 14.3933,13.77462 28.79144,27.55053 43.18571,41.32541 l -0.54534,-0.48776 c 23.20285,9.42654 45.88681,20.48436 69.70586,27.9744 73.06179,22.97258 146.56326,44.58248 219.90046,66.72808 17.845,-11.7725 35.3642,-32.8773 53.5895,-33.5119 50.1755,-1.7223 100.8951,3.1406 150.9524,9.1616 49.4326,5.957 79.3645,33.9995 80.5317,86.749 227.2047,51.5308 445.6673,31.0968 655.6486,-74.4453 51.0111,-25.6276 107.6193,-40.1139 161.6566,-59.72632 -40.7823,-5.20561 -81.4402,-12.45982 -122.3791,-15.18755 -86.9343,-5.78746 -174.025,-9.21395 -261.0437,-13.60465 36.6201,53.23282 32.9375,71.26512 -26.6248,86.53772 -32.9949,8.4637 -69.5662,8.0585 -103.7872,4.523 -16.8139,-1.7349 -31.9417,-19.6921 -47.8376,-30.3008 10.9877,-15.6991 19.7628,-42.3438 33.3844,-45.11572 47.2813,-9.62155 96.2556,-10.95656 144.5935,-15.44162" /><path
           inkscape:connector-curvature="0"
           id="path4335"
           style="fill:#743e19;fill-opacity:1;fill-rule:nonzero;stroke:none"
           d="m 1416.4874,1119.6243 c -1.1672,-52.7495 -31.0991,-80.792 -80.5317,-86.749 -50.0573,-6.021 -100.7769,-10.8839 -150.9524,-9.1616 -18.2253,0.6346 -35.7445,21.7394 -53.5895,33.5119 0.082,12.1348 0.1616,24.2792 0.2411,36.4236 5.2634,5.3547 10.5243,10.7191 15.778,16.0712 51.3326,-5.6155 102.8038,-15.7283 153.9151,-14.1044 15.2762,0.4801 29.5277,33.7627 44.248,52.0042 10.4446,0.8937 20.9085,1.7926 31.3531,2.6863 12.0085,-2.818 24.017,-5.636 36.0256,-8.4539 1.1677,-7.4103 2.3354,-14.8206 3.5127,-22.2283" /><path
           inkscape:connector-curvature="0"
           id="path4337"
           style="fill:#c58138;fill-opacity:1;fill-rule:nonzero;stroke:none"
           d="m 1616.6978,700.84398 c 51.3645,-3.95774 102.7301,-7.91933 154.0852,-11.88062 18.2057,-5.08219 36.4115,-10.16438 54.6192,-15.25429 37.217,0.62268 74.4178,1.22859 111.6185,1.8345 93.9941,13.67234 115.4104,38.1431 96.494,110.24704 46.895,23.46384 94.2312,22.71691 141.8991,2.53456 -3.4256,-9.20009 -6.8446,-18.386 -10.2712,-27.58222 -30.023,14.06369 -46.835,8.26484 -49.2387,-28.47206 -0.5021,-7.78524 -15.0332,-18.88955 -24.7645,-21.09326 -33.477,-7.58702 -44.2847,-26.86927 -42.7933,-59.90598 0.352,-7.92078 -19.0538,-25.21257 -26.3758,-23.69597 -64.4351,13.3281 -132.6934,-20.00628 -195.4002,16.96993 -10.3267,6.08459 -28.1717,3.75457 -41.1429,0.19714 -32.3391,-8.85883 -60.3442,-5.53275 -92.3556,8.03128 -50.5443,21.4128 -84.461,6.00035 -105.8799,-36.3493 -9.3146,-0.0495 -18.6292,-0.099 -27.9438,-0.14843 -1.8887,31.31311 -25.069,28.91905 -45.7476,27.46653 -44.768,-3.15843 -89.3634,-9.16318 -134.1671,-11.45429 -57.1935,-2.91821 -114.985,-14.5004 -170.0739,15.56604 -22.5308,12.29865 -50.257,20.57251 -57.1574,-20.20799 -20.7608,7.97236 -44.188,12.141 -61.8477,24.53567 -117.62734,82.57238 -249.12101,99.16365 -387.59389,85.68909 l 0.0863,-0.0825 c -10.13964,17.67699 3.92653,60.05457 -42.02297,41.19121 -0.19493,4.95436 -0.38675,9.89714 -0.58167,14.8515 4.65847,4.63359 9.3141,9.2778 13.96972,13.92202 9.89548,14.37184 19.78458,28.73266 29.67386,43.11217 3.65167,3.54594 7.29948,7.09086 10.95598,10.6381 9.71081,0.41757 19.42421,0.82548 29.14406,1.22477 12.80064,-54.20184 45.10162,-75.92492 99.31108,-65.62554 43.09475,8.1898 85.67855,19.6001 129.0421,25.63919 36.55763,5.09234 73.86233,4.38333 102.47293,-25.96893 17.0686,-46.7006 51.1784,-60.79354 98.8021,-56.04482 35.934,3.59489 72.4994,3.133 108.6568,1.56685 42.5791,-1.84768 72.4003,11.92595 82.6863,56.10554 52.617,-5.23199 110.2983,14.02521 154.5267,-31.18516 5.8039,-5.93508 7.9603,-15.45121 11.8011,-23.29438 -27.5909,-3.47443 -62.1471,-5.17933 -53.1174,-44.44214 7.0441,-30.57775 35.6036,-39.72055 66.2197,-28.41116 24.4632,9.04265 48.2942,19.7877 72.4108,29.77588" /><path
           inkscape:connector-curvature="0"
           id="path4339"
           style="fill:#c97f35;fill-opacity:1;fill-rule:nonzero;stroke:none"
           d="m 1152.1019,627.64659 c 6.9004,40.7805 34.6266,32.50664 57.1574,20.20799 55.0889,-30.06644 112.8804,-18.48425 170.0739,-15.56604 44.8037,2.29111 89.3991,8.29586 134.1671,11.45429 20.6786,1.45252 43.8589,3.84658 45.7476,-27.46653 -26.7201,-3.90369 -53.5625,-7.08028 -80.1176,-11.87045 -57.7801,-10.42689 -115.4029,-21.67295 -173.0951,-32.58253 -13.6418,-0.0888 -27.3043,-0.17794 -40.9441,-0.27447 -18.1331,5.35218 -37.5587,8.18705 -54.0703,16.68304 -20.8759,10.7202 -39.3884,26.0657 -58.9189,39.4147" /><path
           inkscape:connector-curvature="0"
           id="path4341"
           style="fill:#b46626;fill-opacity:1;fill-rule:nonzero;stroke:none"
           d="m 1306.0352,571.82332 c 57.6922,10.90958 115.315,22.15564 173.0951,32.58253 26.5551,4.79017 53.3975,7.96676 80.1176,11.87045 9.3146,0.0495 18.6292,0.099 27.9438,0.14843 8.4725,-3.72404 16.6023,-9.22121 25.4712,-10.90827 76.5272,-14.56458 152.7536,-35.50217 229.958,-40.34625 65.4431,-4.10804 134.6648,1.55998 197.511,19.43069 71.5233,20.33759 136.8351,61.61605 206.817,88.71094 39.9777,15.47219 83.8735,20.80393 125.9986,30.69578 -28.08,-54.4272 -86.0954,-51.68941 -133.2,-70.00507 -35.4339,-13.76811 -70.4619,-28.6263 -105.673,-42.99418 -37.0318,-23.33672 -74.053,-46.67472 -111.0848,-70.01145 -51.7026,-0.4603 -103.3968,-0.91318 -155.1025,-1.36189 -41.0818,12.91224 -81.3786,32.28373 -123.4223,37.46557 -109.6055,13.5259 -219.3585,22.81113 -329.6124,-4.70943 -34.5631,-8.63379 -81.2827,-33.48654 -108.8173,19.43215" /><path
           inkscape:connector-curvature="0"
           id="path4343"
           style="fill:#c97f35;fill-opacity:1;fill-rule:nonzero;stroke:none"
           d="m 2286.4361,719.39927 c 8.2822,5.13869 14.58,7.86972 18.7716,12.51074 1.0122,1.12945 -4.9695,12.3258 -7.6963,12.30224 -6.0354,-0.0394 -13.3312,-3.02546 -17.439,-7.36137 -1.688,-1.77538 3.5156,-10.10648 6.3637,-17.45161 z m 86.5114,-15.39165 c -42.1251,-9.89185 -86.0209,-15.22359 -125.9986,-30.69578 -69.9819,-27.09489 -135.2937,-68.37335 -206.817,-88.71094 -62.8462,-17.87071 -132.0679,-23.53873 -197.511,-19.43069 -77.2044,4.84408 -153.4308,25.78167 -229.958,40.34625 -8.8689,1.68706 -16.9987,7.18423 -25.4712,10.90827 21.4189,42.34965 55.3356,57.7621 105.8799,36.3493 32.0114,-13.56403 60.0165,-16.89011 92.3556,-8.03128 12.9712,3.55743 30.8162,5.88745 41.1429,-0.19714 62.7068,-36.97621 130.9651,-3.64183 195.4002,-16.96993 7.322,-1.5166 26.7278,15.77519 26.3758,23.69597 -1.4914,33.03671 9.3163,52.31896 42.7933,59.90598 9.7313,2.20371 24.2624,13.30802 24.7645,21.09326 2.4037,36.7369 19.2157,42.53575 49.2387,28.47206 3.4266,9.19622 6.8456,18.38213 10.2712,27.58222 18.7483,-0.15277 37.4967,-0.30554 56.2334,-0.45317 -0.6584,-12.34091 -1.3306,-24.66894 -2.0111,-37.0044 11.7529,4.47228 24.8223,7.08388 34.7436,14.14219 5.7574,4.09052 6.4361,15.31255 9.4158,23.31751 l 0.04,0.0438 c 50.4383,2.04921 70.2389,-39.54736 98.4862,-69.1232 0.2557,-4.93393 0.5222,-9.86915 0.7779,-14.80308 l -0.1521,-0.43725" /><path
           inkscape:connector-curvature="0"
           id="path4345"
           style="fill:#7a431a;fill-opacity:1;fill-rule:nonzero;stroke:none"
           d="m 2273.6883,803.79564 c -29.5156,4.7134 -59.5746,7.43634 -88.2725,15.20241 -10.1356,2.74422 -22.9885,17.44557 -23.5964,27.36421 -0.6499,10.46227 10.4705,29.85215 18.8378,31.27319 42.76,7.25222 86.3927,13.14083 129.4956,11.84968 9.9113,-0.28445 18.9091,-30.73522 28.326,-47.29522 -21.6038,-12.79756 -43.1962,-25.59929 -64.7905,-38.39427" /><path
           inkscape:connector-curvature="0"
           id="path4347"
           style="fill:#5e6145;fill-opacity:1;fill-rule:nonzero;stroke:none"
           d="m 2498.9033,866.07468 c 3.2829,-29.75419 6.5626,-59.4968 9.8451,-89.25003 -3.4228,-0.59414 -6.878,-0.91327 -10.3409,-0.97152 0.1606,30.07846 0.3332,60.15082 0.4958,90.22155" /><path
           inkscape:connector-curvature="0"
           id="path4349"
           style="fill:#906439;fill-opacity:1;fill-rule:nonzero;stroke:none"
           d="m 2498.4075,775.85313 c 3.4629,0.0583 6.9181,0.37738 10.3409,0.97152 -3.1964,-5.41893 -6.3961,-10.8253 -9.6053,-16.23523 -0.2363,5.09339 -0.4917,10.18063 -0.7356,15.26371" /><path
           inkscape:connector-curvature="0"
           id="path4351"
           style="fill:#c97f35;fill-opacity:1;fill-rule:nonzero;stroke:none"
           d="m 2413.8831,731.90096 -6.4145,0.10022 -6.3865,-0.6998 c 4.272,0.20674 8.5375,0.39929 12.801,0.59958" /><path
           inkscape:connector-curvature="0"
           id="path4353"
           style="fill:#b46626;fill-opacity:1;fill-rule:nonzero;stroke:none"
           d="m 2373.0996,704.44487 c -0.2557,4.93393 -0.5222,9.86915 -0.7779,14.80308 4.9909,-0.38954 9.9635,-0.78811 14.9575,-1.18924 -4.7255,-4.54181 -9.4445,-9.06945 -14.1796,-13.61384" /><path
           inkscape:connector-curvature="0"
           id="path4355"
           style="fill:#b46626;fill-opacity:1;fill-rule:nonzero;stroke:none"
           d="m 660.72363,778.98009 c 45.9495,18.86336 31.88333,-23.51422 42.02297,-41.19121 -31.04857,-3.65656 -46.29858,8.80921 -42.02297,41.19121" /><path
           inkscape:connector-curvature="0"
           id="path4357"
           style="fill:#a05e1d;fill-opacity:1;fill-rule:nonzero;stroke:none"
           d="m 1345.596,1147.6202 c -14.7203,-18.2415 -28.9718,-51.5241 -44.248,-52.0042 -51.1113,-1.6239 -102.5825,8.4889 -153.9151,14.1044 4.4958,59.0662 58.2594,32.9411 86.8876,50.2401 37.0974,-4.1085 74.1852,-8.2196 111.2755,-12.3403" /><path
           inkscape:connector-curvature="0"
           id="path4359"
           style="fill:#7c6b37;fill-opacity:1;fill-rule:nonzero;stroke:none"
           d="m 1131.6549,1093.6492 c -0.08,-12.1444 -0.159,-24.2888 -0.2411,-36.4236 -73.3372,-22.1456 -146.83867,-43.7555 -219.90046,-66.72808 -23.81905,-7.49004 -46.50301,-18.54786 -69.70586,-27.9744 25.70808,19.03224 48.925,44.14698 77.61651,55.89318 69.38327,28.4056 141.32071,50.5592 212.23091,75.2329" /><path
           inkscape:connector-curvature="0"
           id="path4361"
           style="fill:#7a431a;fill-opacity:1;fill-rule:nonzero;stroke:none"
           d="m 1345.596,1147.6202 c -37.0903,4.1207 -74.1781,8.2318 -111.2755,12.3403 48.7668,14.8166 97.9993,36.7048 142.6286,-9.654 -10.4446,-0.8937 -20.9085,-1.7926 -31.3531,-2.6863" /><path
           inkscape:connector-curvature="0"
           id="path4363"
           style="fill:#dca154;fill-opacity:1;fill-rule:nonzero;stroke:none"
           d="m 703.78554,850.86578 c -9.88928,-14.37951 -19.77838,-28.74033 -29.67386,-43.11217 9.89548,14.37184 19.78458,28.73266 29.67386,43.11217" /><path
           inkscape:connector-curvature="0"
           id="path4365"
           style="fill:#e1b06d;fill-opacity:1;fill-rule:nonzero;stroke:none"
           d="m 799.0713,921.81508 c 1.37715,-31.97302 -20.66079,-29.52339 -41.78368,-28.43325 13.92854,9.47793 27.85869,18.94593 41.78368,28.43325" /><path
           inkscape:connector-curvature="0"
           id="path4367"
           style="fill:#e1b06d;fill-opacity:1;fill-rule:nonzero;stroke:none"
           d="m 743.88558,862.72865 c -9.71985,-0.39929 -19.43325,-0.8072 -29.14406,-1.22477 9.42972,5.99486 18.85558,11.98869 28.28659,17.99424 0.28367,-5.58695 0.57121,-11.17286 0.85747,-16.76947" /><path
           inkscape:connector-curvature="0"
           id="path4369"
           style="fill:#e1b06d;fill-opacity:1;fill-rule:nonzero;stroke:none"
           d="m 757.36145,893.31879 c -4.73112,-4.75658 -9.46223,-9.51316 -14.19238,-14.26948 4.73015,4.75632 9.46126,9.5129 14.19238,14.26948" /><path
           inkscape:connector-curvature="0"
           id="path4371"
           style="fill:#743e19;fill-opacity:1;fill-rule:nonzero;stroke:none"
           d="m 1364.8569,798.40094 c -10.286,-44.17959 -40.1072,-57.95322 -82.6863,-56.10554 -36.1574,1.56615 -72.7228,2.02804 -108.6568,-1.56685 -47.6237,-4.74872 -81.7335,9.34422 -98.8021,56.04482 10.9485,19.14296 21.8855,38.2901 32.8225,57.43723 16.8154,-6.6163 33.1128,-15.70388 50.5429,-19.28257 28.3189,-5.81054 57.3087,-9.95255 86.1523,-10.99892 18.3473,-0.66503 36.9441,5.54371 55.4329,8.67776 -7.4454,16.46605 -14.8908,32.9321 -22.3256,49.39688 0.3323,6.68063 0.6731,13.36771 1.0148,20.05189 73.4001,-16.64895 79.7564,-24.25915 86.5054,-103.6547" /><path
           inkscape:connector-curvature="0"
           id="path4373"
           style="fill:#7a431a;fill-opacity:1;fill-rule:nonzero;stroke:none"
           d="m 1825.4022,673.70907 c -18.2077,5.08991 -36.4135,10.1721 -54.6192,15.25429 -3.9207,73.63116 -1.6924,76.82884 59.5679,85.16316 0.1965,-9.7742 0.2223,-28.1072 0.5972,-28.11545 35.3405,-0.68141 70.8931,-1.88369 105.9715,1.65897 13.1532,1.33273 25.1878,13.91109 37.7377,21.35905 -10.108,7.04593 -19.3295,16.61737 -30.52,20.55523 -17.0406,5.98862 -35.4589,8.0778 -53.2835,11.8148 51.8666,34.15796 97.1918,8.69329 142.6609,-15.60851 18.9164,-72.10394 -2.4999,-96.5747 -96.494,-110.24704 -37.2007,-0.60591 -74.4015,-1.21182 -111.6185,-1.8345" /><path
           inkscape:connector-curvature="0"
           id="path4375"
           style="fill:#a05e1d;fill-opacity:1;fill-rule:nonzero;stroke:none"
           d="m 1277.3367,882.00375 c 7.4348,-16.46478 14.8802,-32.93083 22.3256,-49.39688 -18.4888,-3.13405 -37.0856,-9.34279 -55.4329,-8.67776 -28.8436,1.04637 -57.8334,5.18838 -86.1523,10.99892 -17.4301,3.57869 -33.7275,12.66627 -50.5429,19.28257 13.4973,8.97413 26.9942,17.94922 40.504,26.91531 43.1013,0.29863 86.193,0.59467 129.2985,0.87784" /><path
           inkscape:connector-curvature="0"
           id="path4377"
           style="fill:#7a431a;fill-opacity:1;fill-rule:nonzero;stroke:none"
           d="m 1616.6978,700.84398 c -24.1166,-9.98818 -47.9476,-20.73323 -72.4108,-29.77588 -30.6161,-11.30939 -59.1756,-2.16659 -66.2197,28.41116 -9.0297,39.26281 25.5265,40.96771 53.1174,44.44214 32.3403,-6.75489 72.2783,1.60158 85.5131,-43.07742" /><path
           inkscape:connector-curvature="0"
           id="path4379"
           style="fill:#a05e1d;fill-opacity:1;fill-rule:nonzero;stroke:none"
           d="m 1890.8538,801.39912 c 17.8246,-3.737 36.2429,-5.82618 53.2835,-11.8148 11.1905,-3.93786 20.412,-13.5093 30.52,-20.55523 -12.5499,-7.44796 -24.5845,-20.02632 -37.7377,-21.35905 -35.0784,-3.54266 -70.631,-2.34038 -105.9715,-1.65897 -0.3749,0.008 -0.4007,18.34125 -0.5972,28.11545 l 1.1857,-1.64311 c 6.9338,7.04153 13.8759,14.09047 20.8084,21.13683 12.8371,2.58974 25.6719,5.18818 38.5088,7.77888" /><path
           inkscape:connector-curvature="0"
           id="path4381"
           style="fill:#7a431a;fill-opacity:1;fill-rule:nonzero;stroke:none"
           d="m 1277.3367,882.00375 c -43.1055,-0.28317 -86.1972,-0.57921 -129.2985,-0.87784 37.0373,46.84621 84.6912,27.56598 130.3133,20.92973 -0.3417,-6.68418 -0.6825,-13.37126 -1.0148,-20.05189" /><path
           inkscape:connector-curvature="0"
           id="path4383"
           style="fill:#c58138;fill-opacity:1;fill-rule:nonzero;stroke:none"
           d="m 2273.7955,788.3273 c -2.9797,-8.00496 -3.6584,-19.22699 -9.4158,-23.31751 -9.9213,-7.05831 -22.9907,-9.66991 -34.7436,-14.14219 0.6805,12.33546 1.3527,24.66349 2.0111,37.0044 14.0576,0.15983 28.099,0.30289 42.1483,0.4553" /><path
           inkscape:connector-curvature="0"
           id="path4385"
           style="fill:#7a431a;fill-opacity:1;fill-rule:nonzero;stroke:none"
           d="m 1852.345,793.62024 c -6.9325,-7.04636 -13.8746,-14.0953 -20.8084,-21.13683 6.9338,7.04153 13.8759,14.09047 20.8084,21.13683" /><path
           inkscape:connector-curvature="0"
           id="path4387"
           style="fill:#7a431a;fill-opacity:1;fill-rule:nonzero;stroke:none"
           d="m 1850.0981,956.86306 c -48.3379,4.48506 -97.3122,5.82007 -144.5935,15.44162 -13.6216,2.77192 -22.3967,29.41662 -33.3844,45.11572 15.8959,10.6087 31.0237,28.5659 47.8376,30.3008 34.221,3.5355 70.7923,3.9407 103.7872,-4.523 59.5623,-15.2726 63.2449,-33.3049 26.6248,-86.53772 l -0.2717,0.20258" /><path
           inkscape:connector-curvature="0"
           id="path4389"
           style="fill:#dca154;fill-opacity:1;fill-rule:nonzero;stroke:none"
           d="m 1599.0181,1037.3234 c -12.2327,3.1524 -24.4673,6.3115 -36.7096,9.4612 2.6571,5.3066 5.2941,10.6108 7.9426,15.9109 9.5766,-8.4628 19.1561,-16.9361 28.7335,-25.4018 l 0.034,0.03" /><path
           inkscape:connector-curvature="0"
           id="path4391"
           style="fill:#dca154;fill-opacity:1;fill-rule:nonzero;stroke:none"
           d="m 1598.9846,1037.2937 c 2.1579,-2.1031 4.3147,-4.2024 6.4619,-6.3043 -1.3427,0.3359 -3.1953,0.2567 -3.9238,1.1206 -1.2172,1.4131 -1.7098,3.4448 -2.5046,5.2134 l -0.034,-0.03" /><path
           inkscape:connector-curvature="0"
           id="path4393"
           style="fill:#743e19;fill-opacity:1;fill-rule:nonzero;stroke:none"
           d="m 1825.4022,673.70907 c 37.217,0.62268 74.4178,1.22859 111.6185,1.8345 -37.2007,-0.60591 -74.4015,-1.21182 -111.6185,-1.8345" /><path
           inkscape:connector-curvature="0"
           id="path4395"
           style="fill:#c58138;fill-opacity:1;fill-rule:nonzero;stroke:none"
           d="m 2286.4361,719.39927 c -2.8481,7.34513 -8.0517,15.67623 -6.3637,17.45161 4.1078,4.33591 11.4036,7.32194 17.439,7.36137 2.7268,0.0236 8.7085,-11.17279 7.6963,-12.30224 -4.1916,-4.64102 -10.4894,-7.37205 -18.7716,-12.51074" /></g></g></g></svg>