<?xml version="1.0" encoding="iso-8859-1"?>
<!-- Generator: Adobe Illustrator 19.0.0, SVG Export Plug-In . SVG Version: 6.00 Build 0)  -->
<svg version="1.1" id="Capa_1" xmlns="http://www.w3.org/2000/svg" xmlns:xlink="http://www.w3.org/1999/xlink" x="0px" y="0px"
	 viewBox="0 0 512 512" style="enable-background:new 0 0 512 512;" xml:space="preserve">
<g>
	<g>
		<path d="M335.217,243.107c-4.159,0-7.529,3.371-7.529,7.529v12.5c0,4.159,3.37,7.529,7.529,7.529s7.529-3.37,7.529-7.529v-12.5
			C342.747,246.477,339.377,243.107,335.217,243.107z"/>
	</g>
</g>
<g>
	<g>
		<path d="M173.272,243.107c-4.158,0-7.529,3.37-7.529,7.529v12.5c0,4.159,3.371,7.529,7.529,7.529c4.158,0,7.529-3.37,7.529-7.529
			v-12.5C180.801,246.477,177.43,243.107,173.272,243.107z"/>
	</g>
</g>
<g>
	<g>
		<path d="M418.038,140.879c-7.363-12.16-23.473-21.371-44.2-25.272c-14.131-2.655-25.848,1.917-34.826,13.595
			c-7.047,9.166-11.344,21.271-15.141,32.883c-2.304,7.046-1.685,14.317,1.792,21.029c8.999,17.379,34.161,26.716,44.563,29.925
			c4.091,1.262,7.905,1.894,11.483,1.894c4.547,0,8.712-1.023,12.57-3.069c10.859-5.76,18.871-19.291,26.788-45.242
			C423.819,157.602,422.771,148.699,418.038,140.879z M406.662,162.229c-6.373,20.89-12.732,32.774-19.44,36.333
			c-2.199,1.166-5.612,2.231-12.557,0.087c-17.618-5.433-31.269-14.039-35.629-22.459c-1.645-3.175-1.916-6.171-0.852-9.424
			c7.69-23.521,14.769-36.804,28.359-36.804c1.429,0,2.93,0.147,4.511,0.445c16.04,3.017,29.106,10.018,34.103,18.27
			C407.68,152.846,408.171,157.278,406.662,162.229z"/>
	</g>
</g>
<g>
	<g>
		<path d="M178.935,328.964c-5.361-13.34-15.52-20.758-30.194-22.045c-11.514-1.012-24.032,1.879-35.866,4.923
			c-12,3.089-19.713,13.19-21.718,28.439c-0.542,4.122,2.361,7.905,6.483,8.446c4.126,0.545,7.905-2.36,8.447-6.483
			c1.783-13.564,8.375-15.261,10.541-15.818c26.482-6.816,42.03-7.534,48.332,8.153c6.084,15.143,7.211,29.925,2.94,38.576
			c-2.156,4.371-5.628,7.171-10.613,8.559c-21.037,5.865-34.476,6.896-41.086,3.154c-2.165-1.227-4.899-3.533-6.829-10.538
			c-0.18-0.652-0.355-1.313-0.525-1.98c-1.03-4.028-5.13-6.459-9.161-5.427c-4.029,1.03-6.459,5.132-5.428,9.161
			c0.194,0.755,0.393,1.504,0.596,2.244c2.581,9.375,7.137,15.8,13.928,19.645c4.893,2.77,10.833,4.162,18.341,4.162
			c8.909,0,20.024-1.963,34.207-5.916c9.087-2.533,16.03-8.204,20.074-16.401C187.697,367.07,186.797,348.534,178.935,328.964z"/>
	</g>
</g>
<g>
	<g>
		<path d="M408.797,353.766c-1.946-14.082-13.092-28.919-30.581-40.706c-11.924-8.036-24.494-8.475-37.363-1.307
			c-10.1,5.626-18.84,15.04-26.924,24.201c-4.904,5.556-7.214,12.479-6.68,20.018c1.381,19.521,20.79,38.061,29.071,45.125
			c6.714,5.728,13.408,8.532,20.405,8.532c0.712,0,1.429-0.028,2.147-0.087c12.253-0.989,24.966-10.241,42.513-30.935v-0.001
			C407.485,371.41,410.048,362.82,408.797,353.766z M389.897,368.87c-14.123,16.658-24.669,25.053-32.239,25.663
			c-2.478,0.207-6.038-0.175-11.565-4.891c-14.027-11.966-23.154-25.276-23.824-34.734c-0.252-3.568,0.686-6.424,2.949-8.99
			c13.282-15.049,23.529-24.071,33.585-24.071c3.645,0,7.266,1.187,10.996,3.7c13.532,9.121,22.759,20.723,24.079,30.279
			C394.546,360.656,393.243,364.922,389.897,368.87z"/>
	</g>
</g>
<g>
	<g>
		<path d="M206.29,113.232c-4.971-10.438-13.809-19.759-22.437-28.411c-5.232-5.25-12.029-8.021-19.552-7.941
			c-19.569,0.136-39.307,18.324-46.886,26.137c-6.769,6.981-9.996,14.167-9.864,21.971c0.208,12.29,8.632,25.568,28.167,44.394
			c6.187,5.961,13.713,9.069,21.894,9.069c0.801,0,1.61-0.029,2.423-0.09c14.178-1.044,29.695-11.224,42.572-27.926
			C211.386,139.048,212.626,126.531,206.29,113.232z M190.681,141.241c-9.964,12.924-22.13,21.395-31.752,22.103
			c-4.861,0.366-9.034-1.213-12.761-4.805c-15.725-15.155-23.432-26.212-23.56-33.806c-0.042-2.489,0.558-6.015,5.617-11.232
			c12.836-13.236,26.699-21.498,36.18-21.563c3.571-0.015,6.368,1.093,8.784,3.517C192.498,114.819,201.004,127.851,190.681,141.241
			z"/>
	</g>
</g>
<g>
	<g>
		<path d="M243.287,377.87c-12.456,0-22.588,10.134-22.588,22.588c0,12.454,10.133,22.588,22.588,22.588
			c12.456,0,22.588-10.134,22.588-22.588C265.875,388.004,255.743,377.87,243.287,377.87z M243.287,407.988
			c-4.152,0-7.529-3.377-7.529-7.529s3.377-7.529,7.529-7.529c4.152,0,7.529,3.377,7.529,7.529S247.44,407.988,243.287,407.988z"/>
	</g>
</g>
<g>
	<g>
		<path d="M420.008,248.427c-12.455,0-22.588,10.134-22.588,22.588c0,12.454,10.134,22.588,22.588,22.588
			c12.454,0,22.588-10.134,22.588-22.588C442.596,258.561,432.462,248.427,420.008,248.427z M420.008,278.545
			c-4.152,0-7.529-3.377-7.529-7.529s3.377-7.529,7.529-7.529s7.529,3.377,7.529,7.529S424.16,278.545,420.008,278.545z"/>
	</g>
</g>
<g>
	<g>
		<path d="M78.07,228.048c-12.456,0-22.588,10.134-22.588,22.588s10.133,22.588,22.588,22.588c12.456,0,22.588-10.134,22.588-22.588
			S90.526,228.048,78.07,228.048z M78.07,258.165c-4.152,0-7.529-3.377-7.529-7.529c0-4.152,3.377-7.529,7.529-7.529
			s7.529,3.377,7.529,7.529C85.599,254.788,82.221,258.165,78.07,258.165z"/>
	</g>
</g>
<g>
	<g>
		<path d="M307.451,67.219c-12.455,0-22.588,10.134-22.588,22.588s10.134,22.588,22.588,22.588
			c12.454,0,22.588-10.134,22.588-22.588S319.906,67.219,307.451,67.219z M307.451,97.336c-4.152,0-7.529-3.377-7.529-7.529
			c0-4.152,3.377-7.529,7.529-7.529s7.529,3.377,7.529,7.529C314.98,93.959,311.603,97.336,307.451,97.336z"/>
	</g>
</g>
<g>
	<g>
		<path d="M283.199,258.525c-2.547-3.288-7.278-3.883-10.563-1.334c-10.828,8.398-25.953,8.398-36.784,0
			c-3.286-2.552-8.016-1.951-10.564,1.334c-2.549,3.286-1.951,8.015,1.335,10.564c8.132,6.307,17.877,9.46,27.621,9.46
			c9.744,0,19.49-3.153,27.621-9.461C285.151,266.54,285.748,261.81,283.199,258.525z"/>
	</g>
</g>
<g>
	<g>
		<path d="M437.02,74.981C388.667,26.628,324.38,0,256,0S123.333,26.628,74.981,74.981C26.629,123.334,0,187.62,0,256
			s26.629,132.667,74.981,181.02C123.333,485.373,187.62,512,256,512s132.667-26.628,181.02-74.981
			C485.373,388.666,512,324.38,512,256S485.372,123.333,437.02,74.981z M256,496.941C123.145,496.941,15.059,388.855,15.059,256
			S123.145,15.059,256,15.059S496.941,123.145,496.941,256S388.855,496.941,256,496.941z"/>
	</g>
</g>
<g>
</g>
<g>
</g>
<g>
</g>
<g>
</g>
<g>
</g>
<g>
</g>
<g>
</g>
<g>
</g>
<g>
</g>
<g>
</g>
<g>
</g>
<g>
</g>
<g>
</g>
<g>
</g>
<g>
</g>
</svg>
