<?xml version="1.0" encoding="UTF-8" standalone="no"?>
<!-- Created with Inkscape (http://www.inkscape.org/) -->

<svg
   xmlns:dc="http://purl.org/dc/elements/1.1/"
   xmlns:cc="http://creativecommons.org/ns#"
   xmlns:rdf="http://www.w3.org/1999/02/22-rdf-syntax-ns#"
   xmlns:svg="http://www.w3.org/2000/svg"
   xmlns="http://www.w3.org/2000/svg"
   xmlns:sodipodi="http://sodipodi.sourceforge.net/DTD/sodipodi-0.dtd"
   xmlns:inkscape="http://www.inkscape.org/namespaces/inkscape"
   version="1.1"
   id="svg4178"
   xml:space="preserve"
   width="655.54669"
   height="499.48001"
   viewBox="0 0 655.54669 499.48001"
   sodipodi:docname="cottonballs.svg"
   inkscape:version="0.92.3 (2405546, 2018-03-11)"><metadata
     id="metadata4184"><rdf:RDF><cc:Work
         rdf:about=""><dc:format>image/svg+xml</dc:format><dc:type
           rdf:resource="http://purl.org/dc/dcmitype/StillImage" /><dc:title></dc:title></cc:Work></rdf:RDF></metadata><defs
     id="defs4182" /><sodipodi:namedview
     pagecolor="#ffffff"
     bordercolor="#666666"
     borderopacity="1"
     objecttolerance="10"
     gridtolerance="10"
     guidetolerance="10"
     inkscape:pageopacity="0"
     inkscape:pageshadow="2"
     inkscape:window-width="855"
     inkscape:window-height="493"
     id="namedview4180"
     showgrid="false"
     inkscape:zoom="0.47249138"
     inkscape:cx="327.77335"
     inkscape:cy="249.74001"
     inkscape:window-x="0"
     inkscape:window-y="0"
     inkscape:window-maximized="0"
     inkscape:current-layer="g4186" /><g
     id="g4186"
     inkscape:groupmode="layer"
     inkscape:label="ink_ext_XXXXXX"
     transform="matrix(1.3333333,0,0,-1.3333333,0,499.48)"><g
       id="g4188"
       transform="scale(0.1)"><path
         d="m 1287.39,3213.46 c -8.21,-7.44 -21.33,-13.71 -21.67,-20.62 -1.59,-31.68 -24.65,-48.81 -40.63,-71.72 -27.93,-40.04 -58.03,-79.75 -57,-133.83 0.7,-37.14 -5.45,-74.41 -9.49,-123.24 5.27,-12.58 15.46,-36.87 25.13,-59.94 -7.72,-16.49 -13.97,-29.87 -20.23,-43.25 4.74,-30.19 3.98,-59.56 -0.14,-88.45 -7.47,-52.38 16.46,-113.73 60.7,-138.22 36.93,-20.44 56.54,-47.67 59.2,-90.49 2.41,-38.77 21.54,-73.31 58.36,-86.58 63.28,-22.81 99.04,-69.31 127.09,-125.97 33.95,-68.57 64.59,-82.51 140.06,-70.87 18.37,2.83 45.17,3.27 56.13,-7.44 40.77,-39.83 87.95,-42.49 141.24,-36.39 29.15,31.27 63,33.73 103.01,15.68 18.51,-8.34 42.13,-7.22 63.4,-6.99 16.17,0.18 32.27,5.74 45.22,8.29 6.69,-2.75 10.16,-3.46 12.75,-5.35 63.97,-46.88 99.26,-46.78 165.17,1.91 23.78,17.57 46.48,36.61 66.65,52.59 48.01,-9.7 91.47,-18.47 135.54,-27.35 14.73,10.37 27.97,19.7 40.25,28.34 -1.5,19.76 -2.73,35.84 -4.01,52.61 12.12,8.42 22.81,15.85 32.32,22.47 14.78,-4.46 27.29,-8.25 42.08,-12.72 13.3,15.22 26.17,29.94 38.25,43.77 73.61,10.86 78.37,16.64 89.08,108.48 7.67,10.54 16.42,22.57 23.92,32.89 2.84,23.33 5.39,44.27 7.75,63.66 19.65,7.8 34.71,13.78 51.81,20.58 0,22.29 0,43.3 0,67.9 8.94,7 20.94,15.68 32.12,25.29 43.25,37.23 61.62,83.11 38.03,143.17 -14.16,36.05 -14,64.63 -4.14,99.72 12.14,43.15 17.9,87.32 -17.22,126.88 -10.73,12.1 -15.71,34.25 -14.47,51.15 4.26,58.08 -15.01,104.2 -60,140.43 -3.67,2.95 -5.52,8.17 -7.71,11.56 -14.14,102.38 -16.72,119.03 -111.11,182.31 -2.76,1.85 -6.64,2.8 -8.38,5.3 -8.27,11.85 -20.66,23.23 -23.11,36.36 -11.34,60.74 -50.15,90.8 -106.99,103.57 -25.38,5.7 -46.17,17.34 -57.42,43.05 -21.2,48.43 -57.72,70.43 -111.38,63.47 -35.97,-4.67 -69.32,2.64 -97.62,27.48 -5.99,5.26 -14.13,8.06 -23.75,13.35 -17.66,-8.1 -36.6,-14.67 -53.29,-24.89 -34.16,-20.93 -70.04,-22.91 -105.14,-7.87 -34.2,14.66 -67.65,13.4 -105.6,7.24 -27.62,-40.7 -69.65,-50.42 -117.46,-45.74 -29.96,2.94 -54.78,-7.66 -76.9,-28.52 -14.03,-13.22 -31.75,-22.53 -43.44,-30.58 -38.87,4.87 -67.13,28.44 -103.14,9.59 -36.17,-18.92 -35.09,-58.11 -53.56,-84.3 -90.85,-21.41 -90.85,-21.41 -110.14,-105.3 -35.84,-35.8 -65.89,-65.82 -94.36,-94.26 1.81,-16.33 3.08,-27.69 4.24,-38.21 z M 861.926,2894.44 c 10.91,45.21 37.578,80.9 68.629,113.99 38.086,40.59 69.031,83.5 73.685,142.89 4.19,53.63 42.73,88.24 82.1,120.4 21.71,17.74 42.67,36.41 59.98,51.24 2.72,11.36 4.61,16.15 4.92,21.04 5.11,80.36 18.5,97.33 96.27,114.29 34.61,7.55 59.74,19.67 71.26,58.57 20.54,69.34 51.09,86.26 122.86,77.56 13.13,-1.6 25.83,-6.69 38.96,-8.29 38.06,-4.65 74.28,-0.25 99.51,32.56 23.94,31.13 54.78,41 92.19,36.69 8.22,-0.94 16.77,0.78 24.96,-0.29 44.29,-5.78 83.68,7.18 114.81,37.3 43.45,42.03 92.99,37.24 144.69,26.06 8.1,-1.76 16.33,-4.05 23.76,-7.63 57.01,-27.56 111.16,-16.18 161.57,15.26 41.5,25.88 79.98,27.57 120.34,-0.31 25.66,-17.72 54.8,-21.72 85.72,-20.89 36.3,0.97 71.98,2.01 107.55,-14.23 30.59,-13.97 54.13,-32.2 69.35,-61 26.56,-50.24 66.15,-83.69 122.43,-93.24 59.22,-10.05 90.1,-50.77 103.87,-101.97 13.74,-51.03 45.78,-82.84 85.22,-111.97 23.99,-17.72 48.35,-35.61 69.26,-56.68 23.95,-24.12 38.55,-54.15 36.93,-89.81 -2.32,-51.05 15.33,-94.49 50.12,-131.38 -11.42,-22.21 -20.71,-45.89 -34.71,-66.33 -29.76,-43.45 -29.58,-90.67 -21.44,-139.06 3.58,-21.2 10.37,-41.97 17.02,-62.51 20.77,-64.21 9.75,-122.43 -36.03,-171.45 -39.27,-42.05 -56.66,-92.1 -65.35,-147.08 -9.57,-60.47 -28.81,-117.37 -78.58,-156.73 -24.42,-19.31 -53.16,-34.13 -81.74,-46.97 -36.33,-16.33 -56.95,-44.42 -70.58,-79.63 -10.2,-26.36 -19.66,-53.01 -29.94,-79.34 -24.45,-62.58 -79.6,-101.04 -145.8,-101.66 -33.3,-0.31 -66.63,-0.87 -99.9,0.21 -41.42,1.33 -78.49,-9.35 -112.61,-33.14 -60.61,-42.23 -127.72,-61.65 -202.11,-57.77 -23.83,1.24 -48.03,-4.6 -71.54,-7.15 -21.38,12.04 -44.45,24.09 -66.55,37.71 -25.38,15.66 -51.26,30.99 -74.48,49.53 -40.22,32.1 -82.56,54.39 -136.24,51.14 -38.16,-2.31 -76.64,-2.11 -114.84,-0.18 -89.11,4.49 -164.12,37.17 -217.26,112.48 -19.74,27.99 -41.83,54.33 -64.03,82.93 -9.75,50.21 -38.9,91.42 -86.31,114.2 -47.24,22.71 -98.47,37.11 -147.03,54.81 -16.58,13.76 -34.91,26.86 -50.62,42.57 -16.251,16.25 -34.548,32.94 -43.778,53.17 -17.184,37.63 -30.109,77.25 -26.824,120.49 7.136,93.93 -29.844,179.16 -55.246,266.55 -1.543,5.3 -9.469,8.74 -14.426,13.05"
         style="fill:#f3f3f3;fill-opacity:1;fill-rule:nonzero;stroke:none"
         id="path4190"
         inkscape:connector-curvature="0" /><path
         d="m 861.926,2894.44 c 4.957,-4.31 12.883,-7.75 14.426,-13.05 25.402,-87.39 62.382,-172.62 55.246,-266.55 -3.285,-43.24 9.64,-82.86 26.824,-120.49 9.23,-20.23 27.527,-36.92 43.778,-53.17 15.71,-15.71 34.04,-28.81 50.62,-42.57 48.56,-17.7 99.79,-32.1 147.03,-54.81 47.41,-22.78 76.56,-63.99 86.31,-114.2 22.2,-28.6 44.29,-54.94 64.03,-82.93 53.14,-75.31 128.15,-107.99 217.26,-112.48 38.2,-1.93 76.68,-2.13 114.84,0.18 53.68,3.25 96.02,-19.04 136.24,-51.14 23.22,-18.54 49.1,-33.87 74.48,-49.53 22.1,-13.62 45.17,-25.67 66.55,-37.71 23.51,2.55 47.71,8.39 71.54,7.15 74.39,-3.88 141.5,15.54 202.11,57.77 34.12,23.79 71.19,34.47 112.61,33.14 33.27,-1.08 66.6,-0.52 99.9,-0.21 66.2,0.62 121.35,39.08 145.8,101.66 10.28,26.33 19.74,52.98 29.94,79.34 13.63,35.21 34.25,63.3 70.58,79.63 28.58,12.84 57.32,27.66 81.74,46.97 49.77,39.36 69.01,96.26 78.58,156.73 8.69,54.98 26.08,105.03 65.35,147.08 45.78,49.02 56.8,107.24 36.03,171.45 -6.65,20.54 -13.44,41.31 -17.02,62.51 -8.14,48.39 -8.32,95.61 21.44,139.06 14,20.44 23.29,44.12 34.71,66.33 42.06,-28.08 63.65,-67.6 59.62,-117.91 -4.44,-55.53 11.37,-103.26 40.93,-149.89 21.51,-33.91 30.52,-73.22 9.87,-112.93 -1.32,10.18 -2.64,20.36 -5.07,39.09 -13.57,-26.12 -22.05,-44.07 -31.94,-61.21 -25.73,-44.58 -38.21,-91.97 -33.66,-143.65 1.17,-13.24 -0.93,-26.79 0.42,-40 2.54,-24.91 -5.74,-45.9 -20.82,-64.75 -8.28,-10.36 -15.5,-23.48 -26.42,-29.5 -63.51,-34.97 -84.72,-96.59 -100.5,-160.17 -11.28,-45.43 -35.17,-81.97 -64.42,-116.61 -42.87,-50.74 -85.01,-102.1 -128.06,-152.68 -41.41,-48.67 -90.52,-82.86 -158.16,-80.75 -21.65,0.67 -43.45,-1.21 -65,0.42 -38.53,2.88 -72.28,-8.02 -102.84,-30.83 -11.99,-8.95 -24.48,-17.24 -36.29,-26.42 -94.6,-73.47 -196.27,-81.46 -305.02,-35.15 -35.17,14.97 -71.45,28.54 -108.49,37.41 -19.69,4.72 -43.04,1.31 -63.09,-4.31 -27.03,-7.59 -52.32,-21.23 -78.63,-31.59 -43.62,-17.19 -85.52,-12.51 -123.23,14.88 -22.74,16.52 -45.08,34.64 -63.81,55.45 -38.58,42.87 -85.95,67.31 -141.91,76.93 -8.18,1.4 -16.46,3.01 -24.71,3.07 -112.47,0.77 -147.74,60.03 -166.34,146.59 -17.17,79.86 -63.45,115.97 -134.77,134.17 -35.45,9.05 -71.17,17.31 -106.2,27.81 -70.244,21.07 -117.084,67.35 -142.33,136.09 -5.664,15.41 -12.973,30.22 -19.527,45.31 13.879,32.41 12.886,64.1 -2.715,95.97 -10.176,20.79 -17.867,42.78 -27.567,63.82 -13.937,30.23 -20.476,65.42 -3.125,91.11 50.571,74.89 43.344,157.53 42.86,240.07"
         style="fill:#e2e1e1;fill-opacity:1;fill-rule:nonzero;stroke:none"
         id="path4192"
         inkscape:connector-curvature="0" /><path
         d="m 852.473,2403.47 c 6.554,-15.09 13.863,-29.9 19.527,-45.31 25.246,-68.74 72.086,-115.02 142.33,-136.09 35.03,-10.5 70.75,-18.76 106.2,-27.81 71.32,-18.2 117.6,-54.31 134.77,-134.17 18.6,-86.56 53.87,-145.82 166.34,-146.59 8.25,-0.06 16.53,-1.67 24.71,-3.07 55.96,-9.62 103.33,-34.06 141.91,-76.93 18.73,-20.81 41.07,-38.93 63.81,-55.45 37.71,-27.39 79.61,-32.07 123.23,-14.88 26.31,10.36 51.6,24 78.63,31.59 20.05,5.62 43.4,9.03 63.09,4.31 37.04,-8.87 73.32,-22.44 108.49,-37.41 108.75,-46.31 210.42,-38.32 305.02,35.15 11.81,9.18 24.3,17.47 36.29,26.42 30.56,22.81 64.31,33.71 102.84,30.83 21.55,-1.63 43.35,0.25 65,-0.42 67.64,-2.11 116.75,32.08 158.16,80.75 43.05,50.58 85.19,101.94 128.06,152.68 29.25,34.64 53.14,71.18 64.42,116.61 15.78,63.58 36.99,125.2 100.5,160.17 10.92,6.02 18.14,19.14 26.42,29.5 15.08,18.85 23.36,39.84 20.82,64.75 -1.35,13.21 0.75,26.76 -0.42,40 -4.55,51.68 7.93,99.07 33.66,143.65 9.89,17.14 18.37,35.09 31.94,61.21 2.43,-18.73 3.75,-28.91 5.07,-39.09 -2.34,-11.36 -2.97,-23.42 -7.3,-33.95 -19.51,-47.39 -17.96,-90.81 6.67,-138.32 31.36,-60.45 1.13,-156.23 -60.81,-200.33 -31.68,-22.56 -45.9,-43.77 -33.32,-82.93 8.75,-27.23 -1.68,-42.69 -28.85,-55.41 -13.38,-6.27 -28.01,-9.86 -44.9,-15.62 -3,-9.67 -11.77,-22.36 -8.75,-30.85 15.96,-44.94 -4.59,-73.56 -33.86,-92.44 -10.07,-42.8 -15.91,-80.45 -28.03,-115.97 -16.65,-48.8 -64.65,-29.32 -96.46,-37.26 -19.85,-24.08 -37.41,-45.38 -54.62,-66.26 -24.31,7.35 -42.94,12.98 -65.7,19.86 -10.46,-18.22 -21.71,-34.42 -29.56,-52.12 -34.13,-76.89 -85.54,-100.19 -164.98,-73.15 -11.01,3.75 -21.55,8.88 -32.27,13.47 -29.38,12.58 -55.52,5.97 -78.31,-14.65 -17.3,-15.63 -32.39,-33.77 -50.08,-48.89 -56.75,-48.55 -120.34,-72.44 -193.4,-42.01 -23.86,9.95 -43.91,29 -68.39,45.72 -18.15,-6.02 -38.63,-12.12 -58.6,-19.61 -30.09,-11.29 -58.44,-9.7 -85.74,7.99 -6.95,4.51 -14.82,7.6 -22.31,11.27 -34.12,16.69 -67.33,17.86 -98.28,-7.07 -26.7,-21.51 -56.05,-26.94 -89.12,-18.54 -10.84,2.75 -22.73,2.1 -34.11,1.84 -31.57,-0.75 -60.87,7.07 -78.57,33.93 -17.21,26.11 -39.39,32.55 -68.08,31.47 -38.29,-1.45 -76.73,0.55 -114.99,-1.33 -47.32,-2.35 -79.36,16.26 -98.97,60.05 -14.94,33.38 -32.65,65.63 -50.93,97.35 -23.05,39.97 -55.48,70.42 -98.47,88.83 -10.7,4.59 -20.49,11.76 -31.5,15.16 -59.54,18.38 -83.98,63.27 -87.7,120.58 -3.77,58.11 -28.68,98.11 -79.02,129.38 -82.757,51.41 -106.71,120.46 -81.507,209.41"
         style="fill:#d1d1d1;fill-opacity:1;fill-rule:nonzero;stroke:none"
         id="path4194"
         inkscape:connector-curvature="0" /><path
         d="m 1287.39,3213.46 c -1.16,10.52 -2.43,21.88 -4.24,38.21 28.47,28.44 58.52,58.46 94.36,94.26 19.29,83.89 19.29,83.89 110.14,105.3 18.47,26.19 17.39,65.38 53.56,84.3 36.01,18.85 64.27,-4.72 103.14,-9.59 11.69,8.05 29.41,17.36 43.44,30.58 22.12,20.86 46.94,31.46 76.9,28.52 47.81,-4.68 89.84,5.04 117.46,45.74 37.95,6.16 71.4,7.42 105.6,-7.24 35.1,-15.04 70.98,-13.06 105.14,7.87 16.69,10.22 35.63,16.79 53.29,24.89 9.62,-5.29 17.76,-8.09 23.75,-13.35 28.3,-24.84 61.65,-32.15 97.62,-27.48 53.66,6.96 90.18,-15.04 111.38,-63.47 11.25,-25.71 32.04,-37.35 57.42,-43.05 56.84,-12.77 95.65,-42.83 106.99,-103.57 2.45,-13.13 14.84,-24.51 23.11,-36.36 1.74,-2.5 5.62,-3.45 8.38,-5.3 94.39,-63.28 96.97,-79.93 111.11,-182.31 2.19,-3.39 4.04,-8.61 7.71,-11.56 44.99,-36.23 64.26,-82.35 60,-140.43 -1.24,-16.9 3.74,-39.05 14.47,-51.15 35.12,-39.56 29.36,-83.73 17.22,-126.88 -9.86,-35.09 -10.02,-63.67 4.14,-99.72 23.59,-60.06 5.22,-105.94 -38.03,-143.17 -11.18,-9.61 -23.18,-18.29 -32.12,-25.29 0,-24.6 0,-45.61 0,-67.9 -17.1,-6.8 -32.16,-12.78 -51.81,-20.58 -2.36,-19.39 -4.91,-40.33 -7.75,-63.66 -7.5,-10.32 -16.25,-22.35 -23.92,-32.89 -10.71,-91.84 -15.47,-97.62 -89.08,-108.48 -12.08,-13.83 -24.95,-28.55 -38.25,-43.77 -14.79,4.47 -27.3,8.26 -42.08,12.72 -9.51,-6.62 -20.2,-14.05 -32.32,-22.47 1.28,-16.77 2.51,-32.85 4.01,-52.61 -12.28,-8.64 -25.52,-17.97 -40.25,-28.34 -44.07,8.88 -87.53,17.65 -135.54,27.35 -20.17,-15.98 -42.87,-35.02 -66.65,-52.59 -65.91,-48.69 -101.2,-48.79 -165.17,-1.91 -2.59,1.89 -6.06,2.6 -12.75,5.35 -12.95,-2.55 -29.05,-8.11 -45.22,-8.29 -21.27,-0.23 -44.89,-1.35 -63.4,6.99 -40.01,18.05 -73.86,15.59 -103.01,-15.68 -53.29,-6.1 -100.47,-3.44 -141.24,36.39 -10.96,10.71 -37.76,10.27 -56.13,7.44 -75.47,-11.64 -106.11,2.3 -140.06,70.87 -28.05,56.66 -63.81,103.16 -127.09,125.97 -36.82,13.27 -55.95,47.81 -58.36,86.58 -2.66,42.82 -22.27,70.05 -59.2,90.49 -44.24,24.49 -68.17,85.84 -60.7,138.22 4.12,28.89 4.88,58.26 0.14,88.45 6.26,13.38 12.51,26.76 20.23,43.25 -9.67,23.07 -19.86,47.36 -25.13,59.94 4.04,48.83 10.19,86.1 9.49,123.24 -1.03,54.08 29.07,93.79 57,133.83 15.98,22.91 39.04,40.04 40.63,71.72 0.34,6.91 13.46,13.18 21.67,20.62"
         style="fill:#fefefe;fill-opacity:1;fill-rule:nonzero;stroke:none"
         id="path4196"
         inkscape:connector-curvature="0" /><path
         d="m 2945.45,3049.94 c -8.21,-7.44 -21.33,-13.71 -21.68,-20.62 -1.58,-31.68 -24.65,-48.81 -40.62,-71.72 -27.94,-40.04 -58.04,-79.76 -57.01,-133.83 0.71,-37.14 -5.44,-74.41 -9.49,-123.24 5.28,-12.58 15.46,-36.87 25.13,-59.95 -7.71,-16.48 -13.97,-29.86 -20.22,-43.24 4.74,-30.19 3.98,-59.56 -0.14,-88.45 -7.47,-52.38 16.45,-113.74 60.69,-138.22 36.94,-20.44 56.54,-47.67 59.21,-90.49 2.41,-38.76 21.53,-73.31 58.35,-86.58 63.29,-22.81 99.04,-69.32 127.1,-125.98 33.95,-68.55 64.58,-82.5 140.06,-70.86 18.37,2.83 45.16,3.26 56.13,-7.45 40.76,-39.82 87.95,-42.49 141.24,-36.39 29.15,31.27 63,33.73 103,15.7 18.52,-8.35 42.14,-7.24 63.41,-7.01 16.16,0.19 32.26,5.76 45.21,8.3 6.69,-2.76 10.17,-3.45 12.76,-5.36 63.96,-46.87 99.26,-46.77 165.16,1.92 23.78,17.58 46.48,36.61 66.65,52.59 48.02,-9.69 91.48,-18.46 135.55,-27.36 14.73,10.38 27.97,19.7 40.24,28.35 -1.5,19.77 -2.72,35.84 -4,52.62 12.11,8.42 22.8,15.85 32.32,22.46 14.78,-4.46 27.29,-8.25 42.07,-12.71 13.31,15.2 26.18,29.94 38.27,43.76 73.6,10.85 78.36,16.64 89.07,108.47 7.66,10.55 16.41,22.57 23.92,32.9 2.84,23.33 5.39,44.27 7.75,63.66 19.65,7.8 34.72,13.78 51.81,20.57 0,22.29 0,43.31 0,67.91 8.93,7 20.93,15.67 32.11,25.29 43.26,37.23 61.63,83.11 38.04,143.17 -14.16,36.05 -14.01,64.62 -4.14,99.71 12.13,43.16 17.89,87.33 -17.23,126.89 -10.73,12.09 -15.7,34.25 -14.46,51.15 4.26,58.07 -15.02,104.2 -60,140.43 -3.67,2.96 -5.53,8.17 -7.71,11.56 -14.13,102.38 -16.73,119.03 -111.12,182.31 -2.76,1.85 -6.63,2.8 -8.38,5.3 -8.27,11.85 -20.65,23.23 -23.1,36.36 -11.35,60.74 -50.15,90.8 -106.99,103.57 -25.38,5.7 -46.18,17.34 -57.43,43.05 -21.2,48.43 -57.71,70.43 -111.38,63.47 -35.97,-4.66 -69.32,2.64 -97.62,27.48 -5.99,5.26 -14.12,8.06 -23.75,13.35 -17.66,-8.1 -36.59,-14.67 -53.28,-24.89 -34.17,-20.94 -70.04,-22.91 -105.15,-7.87 -34.2,14.65 -67.64,13.4 -105.59,7.24 -27.63,-40.7 -69.66,-50.42 -117.46,-45.74 -29.95,2.94 -54.78,-7.66 -76.91,-28.52 -14.02,-13.23 -31.74,-22.53 -43.44,-30.58 -38.87,4.87 -67.11,28.44 -103.14,9.59 -36.16,-18.92 -35.09,-58.12 -53.55,-84.3 -90.85,-21.41 -90.85,-21.41 -110.14,-105.3 -35.84,-35.8 -65.9,-65.82 -94.37,-94.26 1.82,-16.33 3.08,-27.69 4.25,-38.21 z m -425.47,-319.02 c 10.91,45.2 37.58,80.9 68.63,113.99 38.08,40.59 69.03,83.49 73.68,142.89 4.19,53.63 42.74,88.24 82.1,120.4 21.72,17.74 42.67,36.4 59.99,51.24 2.71,11.36 4.61,16.15 4.91,21.04 5.12,80.35 18.51,97.32 96.28,114.29 34.61,7.55 59.74,19.67 71.26,58.56 20.54,69.35 51.08,86.27 122.85,77.56 13.13,-1.59 25.84,-6.68 38.97,-8.29 38.06,-4.65 74.27,-0.24 99.51,32.57 23.93,31.13 54.77,40.99 92.19,36.69 8.23,-0.95 16.77,0.78 24.96,-0.29 44.28,-5.78 83.68,7.18 114.81,37.3 43.45,42.03 92.99,37.24 144.69,26.05 8.09,-1.75 16.33,-4.04 23.76,-7.63 57.01,-27.55 111.16,-16.17 161.57,15.27 41.5,25.88 79.97,27.57 120.33,-0.31 25.67,-17.73 54.81,-21.72 85.72,-20.89 36.3,0.97 71.99,2.01 107.55,-14.23 30.6,-13.97 54.13,-32.2 69.36,-61 26.56,-50.24 66.15,-83.7 122.43,-93.25 59.21,-10.04 90.09,-50.76 103.87,-101.96 13.73,-51.03 45.77,-82.85 85.22,-111.97 24,-17.73 48.35,-35.61 69.26,-56.68 23.93,-24.12 38.54,-54.15 36.92,-89.81 -2.31,-51.05 15.34,-94.49 50.13,-131.39 -11.43,-22.2 -20.71,-45.87 -34.72,-66.32 -29.75,-43.45 -29.58,-90.67 -21.43,-139.06 3.57,-21.2 10.37,-41.97 17.02,-62.51 20.77,-64.21 9.75,-122.43 -36.04,-171.45 -39.26,-42.05 -56.66,-92.1 -65.35,-147.08 -9.56,-60.47 -28.81,-117.37 -78.58,-156.73 -24.42,-19.31 -53.16,-34.13 -81.74,-46.97 -36.33,-16.33 -56.95,-44.41 -70.58,-79.64 -10.2,-26.36 -19.65,-53.01 -29.94,-79.33 -24.44,-62.57 -79.6,-101.04 -145.8,-101.66 -33.3,-0.32 -66.63,-0.86 -99.89,0.21 -41.43,1.34 -78.49,-9.35 -112.62,-33.13 -60.6,-42.24 -127.71,-61.66 -202.11,-57.79 -23.83,1.24 -48.01,-4.6 -71.53,-7.15 -21.38,12.05 -44.45,24.1 -66.55,37.73 -25.38,15.64 -51.26,30.99 -74.49,49.51 -40.22,32.1 -82.55,54.4 -136.24,51.15 -38.15,-2.31 -76.64,-2.11 -114.84,-0.18 -89.1,4.49 -164.11,37.18 -217.26,112.48 -19.74,27.99 -41.82,54.32 -64.02,82.94 -9.75,50.2 -38.91,91.41 -86.31,114.2 -47.24,22.69 -98.47,37.1 -147.03,54.8 -16.58,13.75 -34.91,26.86 -50.63,42.57 -16.24,16.25 -34.54,32.94 -43.78,53.17 -17.18,37.63 -30.1,77.24 -26.81,120.49 7.13,93.93 -29.85,179.16 -55.25,266.54 -1.55,5.31 -9.47,8.75 -14.43,13.06"
         style="fill:#f3f3f3;fill-opacity:1;fill-rule:nonzero;stroke:none"
         id="path4198"
         inkscape:connector-curvature="0" /><path
         d="m 2519.98,2730.92 c 4.96,-4.31 12.88,-7.75 14.43,-13.06 25.4,-87.38 62.38,-172.61 55.25,-266.54 -3.29,-43.25 9.63,-82.86 26.81,-120.49 9.24,-20.23 27.54,-36.92 43.78,-53.17 15.72,-15.71 34.05,-28.82 50.63,-42.57 48.56,-17.7 99.79,-32.11 147.03,-54.8 47.4,-22.79 76.56,-64 86.31,-114.2 22.2,-28.62 44.28,-54.95 64.02,-82.94 53.15,-75.3 128.16,-107.99 217.26,-112.48 38.2,-1.93 76.69,-2.13 114.84,0.18 53.69,3.25 96.02,-19.05 136.24,-51.15 23.23,-18.52 49.11,-33.87 74.49,-49.51 22.1,-13.63 45.17,-25.68 66.55,-37.73 23.52,2.55 47.7,8.39 71.53,7.15 74.4,-3.87 141.51,15.55 202.11,57.79 34.13,23.78 71.19,34.47 112.62,33.13 33.26,-1.07 66.59,-0.53 99.89,-0.21 66.2,0.62 121.36,39.09 145.8,101.66 10.29,26.32 19.74,52.97 29.94,79.33 13.63,35.23 34.25,63.31 70.58,79.64 28.58,12.84 57.32,27.66 81.74,46.97 49.77,39.36 69.02,96.26 78.58,156.73 8.69,54.98 26.09,105.03 65.35,147.08 45.79,49.02 56.81,107.24 36.04,171.45 -6.65,20.54 -13.45,41.31 -17.02,62.51 -8.15,48.39 -8.32,95.61 21.43,139.06 14.01,20.45 23.29,44.12 34.72,66.32 42.06,-28.08 63.64,-67.59 59.62,-117.9 -4.44,-55.53 11.37,-103.27 40.93,-149.89 21.51,-33.91 30.51,-73.22 9.87,-112.93 -1.33,10.18 -2.65,20.36 -5.08,39.09 -13.56,-26.13 -22.04,-44.08 -31.93,-61.21 -25.73,-44.58 -38.21,-91.97 -33.66,-143.65 1.17,-13.24 -0.93,-26.79 0.42,-40 2.54,-24.91 -5.75,-45.9 -20.82,-64.75 -8.29,-10.36 -15.5,-23.49 -26.42,-29.5 -63.52,-34.98 -84.73,-96.59 -100.51,-160.16 -11.28,-45.44 -35.16,-81.98 -64.42,-116.61 -42.86,-50.74 -85,-102.1 -128.05,-152.7 -41.41,-48.67 -90.53,-82.85 -158.16,-80.75 -21.66,0.67 -43.45,-1.2 -65,0.42 -38.54,2.89 -72.29,-8.02 -102.84,-30.82 -11.99,-8.95 -24.48,-17.25 -36.29,-26.42 -94.61,-73.47 -196.27,-81.45 -305.02,-35.15 -35.17,14.98 -71.45,28.53 -108.49,37.41 -19.7,4.72 -43.05,1.31 -63.09,-4.32 -27.04,-7.58 -52.33,-21.23 -78.63,-31.59 -43.62,-17.19 -85.52,-12.51 -123.23,14.89 -22.74,16.53 -45.09,34.63 -63.81,55.44 -38.58,42.88 -85.96,67.32 -141.92,76.94 -8.18,1.4 -16.46,3.01 -24.7,3.06 -112.47,0.79 -147.74,60.03 -166.35,146.6 -17.17,79.87 -63.45,115.96 -134.76,134.17 -35.46,9.05 -71.17,17.3 -106.2,27.81 -70.25,21.07 -117.08,67.35 -142.33,136.09 -5.67,15.41 -12.98,30.22 -19.53,45.3 13.88,32.42 12.89,64.11 -2.72,95.98 -10.18,20.79 -17.86,42.78 -27.56,63.82 -13.94,30.22 -20.48,65.41 -3.13,91.11 50.57,74.89 43.35,157.53 42.86,240.07"
         style="fill:#e2e1e1;fill-opacity:1;fill-rule:nonzero;stroke:none"
         id="path4200"
         inkscape:connector-curvature="0" /><path
         d="m 2510.53,2239.94 c 6.55,-15.08 13.86,-29.89 19.53,-45.3 25.25,-68.74 72.08,-115.02 142.33,-136.09 35.03,-10.51 70.74,-18.76 106.2,-27.81 71.31,-18.21 117.59,-54.3 134.76,-134.17 18.61,-86.57 53.88,-145.81 166.35,-146.6 8.24,-0.05 16.52,-1.66 24.7,-3.06 55.96,-9.62 103.34,-34.06 141.92,-76.94 18.72,-20.81 41.07,-38.91 63.81,-55.44 37.71,-27.4 79.61,-32.08 123.23,-14.89 26.3,10.36 51.59,24.01 78.63,31.59 20.04,5.63 43.39,9.04 63.09,4.32 37.04,-8.88 73.32,-22.43 108.49,-37.41 108.75,-46.3 210.41,-38.32 305.02,35.15 11.81,9.17 24.3,17.47 36.29,26.42 30.55,22.8 64.3,33.71 102.84,30.82 21.55,-1.62 43.34,0.25 65,-0.42 67.63,-2.1 116.75,32.08 158.16,80.75 43.05,50.6 85.19,101.96 128.05,152.7 29.26,34.63 53.14,71.17 64.42,116.61 15.78,63.57 36.99,125.18 100.51,160.16 10.92,6.01 18.13,19.14 26.42,29.5 15.07,18.85 23.36,39.84 20.82,64.75 -1.35,13.21 0.75,26.76 -0.42,40 -4.55,51.68 7.93,99.07 33.66,143.65 9.89,17.13 18.37,35.08 31.93,61.21 2.43,-18.73 3.75,-28.91 5.08,-39.09 -2.34,-11.36 -2.97,-23.42 -7.3,-33.96 -19.52,-47.38 -17.96,-90.8 6.67,-138.31 31.34,-60.46 1.13,-156.23 -60.82,-200.33 -31.67,-22.56 -45.89,-43.76 -33.32,-82.93 8.75,-27.23 -1.68,-42.7 -28.84,-55.41 -13.38,-6.26 -28.01,-9.86 -44.91,-15.63 -2.99,-9.67 -11.76,-22.35 -8.75,-30.85 15.97,-44.94 -4.59,-73.54 -33.85,-92.44 -10.08,-42.79 -15.91,-80.45 -28.03,-115.96 -16.65,-48.79 -64.65,-29.32 -96.47,-37.25 -19.85,-24.08 -37.41,-45.39 -54.61,-66.27 -24.32,7.35 -42.94,12.98 -65.7,19.86 -10.46,-18.23 -21.72,-34.42 -29.57,-52.13 -34.12,-76.88 -85.54,-100.18 -164.97,-73.13 -11,3.74 -21.55,8.88 -32.27,13.46 -29.38,12.57 -55.53,5.96 -78.31,-14.64 -17.3,-15.65 -32.4,-33.77 -50.08,-48.91 -56.76,-48.54 -120.34,-72.43 -193.4,-41.99 -23.86,9.93 -43.92,28.98 -68.4,45.71 -18.14,-6.02 -38.63,-12.12 -58.59,-19.62 -30.1,-11.29 -58.44,-9.69 -85.75,8 -6.94,4.5 -14.81,7.6 -22.3,11.26 -34.12,16.69 -67.33,17.86 -98.29,-7.07 -26.7,-21.5 -56.05,-26.93 -89.11,-18.54 -10.84,2.76 -22.74,2.11 -34.11,1.84 -31.57,-0.74 -60.87,7.07 -78.58,33.94 -17.21,26.12 -39.38,32.55 -68.06,31.47 -38.31,-1.44 -76.74,0.56 -115,-1.34 -47.32,-2.33 -79.37,16.26 -98.97,60.06 -14.94,33.37 -32.65,65.64 -50.94,97.35 -23.04,39.98 -55.47,70.42 -98.46,88.82 -10.71,4.59 -20.5,11.76 -31.5,15.17 -59.55,18.39 -83.98,63.27 -87.7,120.58 -3.78,58.1 -28.68,98.11 -79.02,129.37 -82.76,51.42 -106.72,120.47 -81.51,209.41"
         style="fill:#d1d1d1;fill-opacity:1;fill-rule:nonzero;stroke:none"
         id="path4202"
         inkscape:connector-curvature="0" /><path
         d="m 2945.45,3049.94 c -1.17,10.52 -2.43,21.88 -4.25,38.21 28.47,28.44 58.53,58.46 94.37,94.26 19.29,83.89 19.29,83.89 110.14,105.3 18.46,26.18 17.39,65.38 53.55,84.3 36.03,18.85 64.27,-4.72 103.14,-9.59 11.7,8.05 29.42,17.35 43.44,30.58 22.13,20.86 46.96,31.46 76.91,28.52 47.8,-4.68 89.83,5.04 117.46,45.74 37.95,6.16 71.39,7.41 105.59,-7.24 35.11,-15.04 70.98,-13.07 105.15,7.87 16.69,10.22 35.62,16.79 53.28,24.89 9.63,-5.29 17.76,-8.09 23.75,-13.35 28.3,-24.84 61.65,-32.14 97.62,-27.48 53.67,6.96 90.18,-15.04 111.38,-63.47 11.25,-25.71 32.05,-37.35 57.43,-43.05 56.84,-12.77 95.64,-42.83 106.99,-103.57 2.45,-13.13 14.83,-24.51 23.1,-36.36 1.75,-2.5 5.62,-3.45 8.38,-5.3 94.39,-63.28 96.99,-79.93 111.12,-182.31 2.18,-3.39 4.04,-8.6 7.71,-11.56 44.98,-36.23 64.26,-82.36 60,-140.43 -1.24,-16.9 3.73,-39.06 14.46,-51.15 35.12,-39.56 29.36,-83.73 17.23,-126.89 -9.87,-35.09 -10.02,-63.66 4.14,-99.71 23.59,-60.06 5.22,-105.94 -38.04,-143.17 -11.18,-9.62 -23.18,-18.29 -32.11,-25.29 0,-24.6 0,-45.62 0,-67.91 -17.09,-6.79 -32.16,-12.77 -51.81,-20.57 -2.36,-19.39 -4.91,-40.33 -7.75,-63.66 -7.51,-10.33 -16.26,-22.35 -23.92,-32.9 -10.71,-91.83 -15.47,-97.62 -89.07,-108.47 -12.09,-13.82 -24.96,-28.56 -38.27,-43.76 -14.78,4.46 -27.29,8.25 -42.07,12.71 -9.52,-6.61 -20.21,-14.04 -32.32,-22.46 1.28,-16.78 2.5,-32.85 4,-52.62 -12.27,-8.65 -25.51,-17.97 -40.24,-28.35 -44.07,8.9 -87.53,17.67 -135.55,27.36 -20.17,-15.98 -42.87,-35.01 -66.65,-52.59 -65.9,-48.69 -101.2,-48.79 -165.16,-1.92 -2.59,1.91 -6.07,2.6 -12.76,5.36 -12.95,-2.54 -29.05,-8.11 -45.21,-8.3 -21.27,-0.23 -44.89,-1.34 -63.41,7.01 -40,18.03 -73.85,15.57 -103,-15.7 -53.29,-6.1 -100.48,-3.43 -141.24,36.39 -10.97,10.71 -37.76,10.28 -56.13,7.45 -75.48,-11.64 -106.11,2.31 -140.06,70.86 -28.06,56.66 -63.81,103.17 -127.1,125.98 -36.82,13.27 -55.94,47.82 -58.35,86.58 -2.67,42.82 -22.27,70.05 -59.21,90.49 -44.24,24.48 -68.16,85.84 -60.69,138.22 4.12,28.89 4.88,58.26 0.14,88.45 6.25,13.38 12.51,26.76 20.22,43.24 -9.67,23.08 -19.85,47.37 -25.13,59.95 4.05,48.83 10.2,86.1 9.49,123.24 -1.03,54.07 29.07,93.79 57.01,133.83 15.97,22.91 39.04,40.04 40.62,71.72 0.35,6.91 13.47,13.18 21.68,20.62"
         style="fill:#fefefe;fill-opacity:1;fill-rule:nonzero;stroke:none"
         id="path4204"
         inkscape:connector-curvature="0" /><path
         d="m 1785.45,1629.93 c -8.21,-7.44 -21.33,-13.71 -21.68,-20.61 -1.59,-31.68 -24.64,-48.81 -40.62,-71.72 -27.94,-40.04 -58.04,-79.75 -57.01,-133.83 0.71,-37.15 -5.44,-74.41 -9.49,-123.24 5.28,-12.59 15.46,-36.87 25.13,-59.94 -7.71,-16.49 -13.97,-29.87 -20.22,-43.25 4.74,-30.2 3.98,-59.56 -0.14,-88.45 -7.47,-52.38 16.45,-113.742 60.69,-138.218 36.94,-20.442 56.54,-47.684 59.21,-90.492 2.41,-38.758 21.54,-73.309 58.35,-86.578 63.29,-22.813 99.04,-69.321 127.1,-125.981 33.95,-68.551 64.58,-82.5 140.06,-70.859 18.37,2.828 45.16,3.258 56.13,-7.453 40.76,-39.821 87.95,-42.489 141.24,-36.387 29.15,31.269 63,33.726 103,15.699 18.52,-8.351 42.14,-7.242 63.41,-7.012 16.16,0.192 32.27,5.762 45.21,8.301 6.69,-2.762 10.16,-3.449 12.76,-5.359 63.96,-46.871 99.26,-46.77 165.16,1.918 23.78,17.582 46.48,36.613 66.65,52.59 48.02,-9.688 91.48,-18.457 135.55,-27.36 14.73,10.383 27.97,19.699 40.24,28.352 -1.5,19.769 -2.72,35.84 -4,52.621 12.11,8.418 22.8,15.848 32.32,22.457 14.78,-4.457 27.29,-8.25 42.07,-12.707 13.31,15.199 26.18,29.937 38.27,43.758 73.6,10.851 78.36,16.64 89.07,108.468 7.66,10.551 16.41,22.571 23.92,32.891 2.84,23.34 5.39,44.281 7.75,63.66 19.65,7.813 34.72,13.793 51.81,20.582 0,22.301 0,43.309 0,67.91 8.93,6.999 20.93,15.669 32.11,25.289 43.26,37.23 61.63,83.11 38.04,143.17 -14.16,36.05 -14.01,64.63 -4.14,99.71 12.13,43.16 17.89,87.33 -17.23,126.89 -10.73,12.1 -15.7,34.25 -14.46,51.15 4.26,58.07 -15.02,104.2 -60,140.43 -3.67,2.96 -5.53,8.18 -7.71,11.55 -14.13,102.39 -16.73,119.04 -111.12,182.32 -2.76,1.85 -6.63,2.8 -8.38,5.29 -8.27,11.86 -20.65,23.23 -23.1,36.37 -11.35,60.74 -50.15,90.8 -106.99,103.56 -25.38,5.71 -46.17,17.35 -57.43,43.06 -21.19,48.43 -57.71,70.44 -111.38,63.47 -35.96,-4.66 -69.31,2.64 -97.62,27.48 -5.99,5.26 -14.12,8.05 -23.74,13.35 -17.67,-8.1 -36.6,-14.66 -53.29,-24.9 -34.17,-20.92 -70.04,-22.91 -105.15,-7.86 -34.2,14.65 -67.64,13.4 -105.59,7.24 -27.62,-40.7 -69.66,-50.43 -117.46,-45.74 -29.96,2.94 -54.78,-7.66 -76.91,-28.53 -14.03,-13.21 -31.74,-22.52 -43.44,-30.57 -38.87,4.87 -67.12,28.43 -103.14,9.59 -36.16,-18.92 -35.08,-58.11 -53.55,-84.3 -90.85,-21.41 -90.85,-21.41 -110.15,-105.3 -35.84,-35.81 -65.88,-65.82 -94.36,-94.26 1.82,-16.32 3.08,-27.7 4.25,-38.22 z m -425.47,-319.02 c 10.91,45.22 37.58,80.91 68.63,114 38.08,40.59 69.03,83.49 73.68,142.89 4.19,53.63 42.74,88.24 82.1,120.4 21.72,17.73 42.67,36.4 59.99,51.24 2.71,11.36 4.61,16.15 4.91,21.03 5.12,80.36 18.51,97.34 96.28,114.3 34.61,7.55 59.74,19.68 71.25,58.56 20.55,69.34 51.09,86.26 122.86,77.56 13.13,-1.59 25.84,-6.69 38.97,-8.29 38.06,-4.65 74.27,-0.24 99.5,32.57 23.94,31.13 54.78,41 92.2,36.69 8.22,-0.95 16.77,0.78 24.96,-0.29 44.29,-5.79 83.68,7.18 114.81,37.3 43.45,42.02 92.98,37.24 144.69,26.06 8.1,-1.76 16.33,-4.05 23.75,-7.63 57.02,-27.56 111.17,-16.18 161.57,15.26 41.51,25.88 79.98,27.57 120.35,-0.31 25.66,-17.73 54.8,-21.72 85.71,-20.89 36.3,0.97 71.99,2.01 107.55,-14.24 30.6,-13.96 54.13,-32.19 69.36,-60.99 26.56,-50.24 66.15,-83.7 122.43,-93.25 59.21,-10.04 90.09,-50.76 103.87,-101.96 13.73,-51.03 45.77,-82.84 85.22,-111.97 24,-17.73 48.35,-35.61 69.26,-56.67 23.93,-24.12 38.54,-54.16 36.92,-89.82 -2.31,-51.06 15.34,-94.5 50.13,-131.38 -11.43,-22.22 -20.71,-45.89 -34.72,-66.33 -29.75,-43.45 -29.58,-90.67 -21.43,-139.06 3.57,-21.2 10.37,-41.98 17.02,-62.51 20.77,-64.21 9.75,-122.43 -36.04,-171.45 -39.26,-42.05 -56.66,-92.101 -65.35,-147.089 -9.56,-60.461 -28.81,-117.36 -78.58,-156.719 -24.42,-19.313 -53.16,-34.133 -81.74,-46.973 -36.33,-16.328 -56.95,-44.41 -70.58,-79.64 -10.2,-26.36 -19.65,-53.008 -29.94,-79.329 -24.44,-62.57 -79.6,-101.039 -145.8,-101.66 -33.3,-0.32 -66.62,-0.859 -99.89,0.211 -41.43,1.34 -78.49,-9.351 -112.62,-33.133 -60.6,-42.238 -127.72,-61.66 -202.11,-57.789 -23.83,1.243 -48.02,-4.597 -71.53,-7.148 -21.38,12.051 -44.45,24.098 -66.56,37.73 -25.37,15.641 -51.25,30.989 -74.48,49.508 -40.22,32.102 -82.55,54.403 -136.23,51.153 -38.16,-2.313 -76.65,-2.11 -114.84,-0.18 -89.11,4.488 -164.12,37.18 -217.26,112.476 -19.75,27.993 -41.83,54.321 -64.03,82.942 -9.75,50.199 -38.91,91.41 -86.31,114.199 -47.24,22.691 -98.47,37.102 -147.03,54.801 -16.58,13.75 -34.91,26.859 -50.63,42.57 -16.24,16.25 -34.54,32.949 -43.78,53.172 -17.18,37.629 -30.1,77.238 -26.81,120.488 7.13,93.93 -29.85,179.15 -55.25,266.54 -1.55,5.31 -9.47,8.74 -14.43,13.05"
         style="fill:#f3f3f3;fill-opacity:1;fill-rule:nonzero;stroke:none"
         id="path4206"
         inkscape:connector-curvature="0" /><path
         d="m 1359.98,1310.91 c 4.96,-4.31 12.88,-7.74 14.43,-13.05 25.4,-87.39 62.38,-172.61 55.25,-266.54 -3.29,-43.25 9.63,-82.859 26.81,-120.488 9.24,-20.223 27.54,-36.922 43.78,-53.172 15.72,-15.711 34.05,-28.82 50.63,-42.57 48.56,-17.699 99.79,-32.11 147.03,-54.801 47.4,-22.789 76.56,-64 86.31,-114.199 22.2,-28.621 44.28,-54.949 64.03,-82.942 53.14,-75.296 128.15,-107.988 217.26,-112.476 38.19,-1.93 76.68,-2.133 114.84,0.18 53.68,3.25 96.01,-19.051 136.23,-51.153 23.23,-18.519 49.11,-33.867 74.48,-49.508 22.11,-13.632 45.18,-25.679 66.56,-37.73 23.51,2.551 47.7,8.391 71.53,7.148 74.39,-3.871 141.51,15.551 202.11,57.789 34.13,23.782 71.19,34.473 112.62,33.133 33.27,-1.07 66.59,-0.531 99.89,-0.211 66.2,0.621 121.36,39.09 145.8,101.66 10.29,26.321 19.74,52.969 29.94,79.329 13.63,35.23 34.25,63.312 70.58,79.64 28.58,12.84 57.32,27.66 81.74,46.973 49.77,39.359 69.02,96.258 78.58,156.719 8.69,54.988 26.09,105.039 65.35,147.089 45.79,49.02 56.81,107.24 36.04,171.45 -6.65,20.53 -13.45,41.31 -17.02,62.51 -8.15,48.39 -8.32,95.61 21.43,139.06 14.01,20.44 23.29,44.11 34.72,66.33 42.06,-28.09 63.64,-67.6 59.62,-117.91 -4.44,-55.53 11.37,-103.26 40.93,-149.89 21.51,-33.91 30.51,-73.23 9.87,-112.93 -1.33,10.18 -2.65,20.36 -5.08,39.1 -13.56,-26.14 -22.04,-44.09 -31.93,-61.22 -25.73,-44.58 -38.21,-91.968 -33.66,-143.66 1.17,-13.23 -0.93,-26.781 0.42,-39.988 2.54,-24.91 -5.75,-45.902 -20.82,-64.75 -8.29,-10.363 -15.5,-23.492 -26.42,-29.5 -63.52,-34.98 -84.73,-96.59 -100.51,-160.16 -11.28,-45.442 -35.16,-81.981 -64.42,-116.613 -42.86,-50.739 -85,-102.098 -128.05,-152.7 -41.41,-48.668 -90.53,-82.847 -158.16,-80.75 -21.66,0.672 -43.45,-1.199 -65,0.422 -38.54,2.891 -72.29,-8.019 -102.84,-30.82 -11.99,-8.949 -24.48,-17.25 -36.29,-26.422 -94.61,-73.469 -196.28,-81.449 -305.02,-35.148 -35.17,14.98 -71.45,28.531 -108.49,37.41 -19.7,4.719 -43.04,1.308 -63.09,-4.321 -27.03,-7.582 -52.32,-21.23 -78.63,-31.589 -43.63,-17.192 -85.52,-12.512 -123.23,14.89 -22.74,16.528 -45.08,34.629 -63.81,55.438 -38.58,42.883 -85.96,67.32 -141.92,76.941 -8.17,1.399 -16.46,3.012 -24.7,3.059 -112.47,0.793 -147.74,60.031 -166.35,146.601 -17.17,79.871 -63.45,115.961 -134.76,134.168 -35.46,9.051 -71.17,17.301 -106.2,27.813 -70.25,21.07 -117.08,67.347 -142.33,136.09 -5.67,15.41 -12.98,30.218 -19.53,45.3 13.88,32.418 12.89,64.11 -2.72,95.981 -10.18,20.789 -17.86,42.777 -27.56,63.828 -13.94,30.21 -20.48,65.41 -3.13,91.1 50.57,74.9 43.35,157.52 42.86,240.06"
         style="fill:#e2e1e1;fill-opacity:1;fill-rule:nonzero;stroke:none"
         id="path4208"
         inkscape:connector-curvature="0" /><path
         d="m 1350.53,819.941 c 6.55,-15.082 13.86,-29.89 19.53,-45.3 25.25,-68.743 72.08,-115.02 142.33,-136.09 35.03,-10.512 70.74,-18.762 106.2,-27.813 71.31,-18.207 117.59,-54.297 134.76,-134.168 18.61,-86.57 53.88,-145.808 166.35,-146.601 8.24,-0.047 16.53,-1.66 24.7,-3.059 55.96,-9.621 103.34,-34.058 141.92,-76.941 18.73,-20.809 41.07,-38.91 63.81,-55.438 37.71,-27.402 79.6,-32.082 123.23,-14.89 26.31,10.359 51.6,24.007 78.63,31.589 20.05,5.629 43.39,9.04 63.09,4.321 37.04,-8.879 73.32,-22.43 108.49,-37.41 108.74,-46.301 210.41,-38.321 305.02,35.148 11.81,9.172 24.3,17.473 36.29,26.422 30.55,22.801 64.3,33.711 102.84,30.82 21.55,-1.621 43.34,0.25 65,-0.422 67.63,-2.097 116.75,32.082 158.16,80.75 43.05,50.602 85.19,101.961 128.05,152.7 29.26,34.632 53.14,71.171 64.42,116.613 15.78,63.57 36.99,125.18 100.51,160.16 10.92,6.008 18.13,19.137 26.42,29.5 15.07,18.848 23.36,39.84 20.82,64.75 -1.35,13.207 0.75,26.758 -0.42,39.988 -4.55,51.692 7.93,99.08 33.66,143.66 9.89,17.13 18.37,35.08 31.93,61.22 2.43,-18.74 3.75,-28.92 5.08,-39.1 -2.34,-11.36 -2.97,-23.42 -7.3,-33.96 -19.52,-47.378 -17.96,-90.8 6.67,-138.308 31.34,-60.461 1.13,-156.23 -60.82,-200.332 -31.67,-22.559 -45.89,-43.758 -33.32,-82.93 8.75,-27.23 -1.68,-42.699 -28.84,-55.41 -13.38,-6.262 -28.01,-9.859 -44.91,-15.629 -2.99,-9.672 -11.76,-22.351 -8.75,-30.851 15.97,-44.942 -4.59,-73.539 -33.85,-92.442 -10.08,-42.789 -15.91,-80.449 -28.03,-115.957 -16.65,-48.793 -64.65,-29.32 -96.47,-37.25 -19.85,-24.082 -37.41,-45.39 -54.61,-66.269 -24.32,7.347 -42.94,12.98 -65.7,19.859 -10.46,-18.23 -21.72,-34.422 -29.57,-52.129 -34.12,-76.883 -85.54,-100.1834 -164.97,-73.133 -11,3.743 -21.55,8.879 -32.27,13.461 -29.38,12.571 -55.53,5.961 -78.31,-14.64 -17.3,-15.6487 -32.4,-33.7698 -50.09,-48.9105 -56.75,-48.53903 -120.33,-72.4297 -193.39,-41.9882 -23.86,9.9296 -43.91,28.9804 -68.39,45.707 -18.15,-6.0195 -38.64,-12.1172 -58.6,-19.6172 -30.1,-11.2891 -58.45,-9.6914 -85.74,8 -6.95,4.5 -14.82,7.5977 -22.31,11.2578 -34.13,16.6914 -67.33,17.8594 -98.29,-7.0703 -26.7,-21.5 -56.05,-26.9297 -89.11,-18.5391 -10.84,2.7618 -22.73,2.1094 -34.11,1.8399 -31.57,-0.7383 -60.88,7.0703 -78.57,33.9414 -17.21,26.1211 -39.4,32.5512 -68.08,31.4692 -38.29,-1.438 -76.73,0.562 -114.99,-1.3403 -47.32,-2.3281 -79.37,16.2613 -98.97,60.0583 -14.94,33.371 -32.65,65.641 -50.94,97.352 -23.04,39.98 -55.47,70.422 -98.46,88.82 -10.71,4.59 -20.5,11.762 -31.5,15.172 -59.55,18.387 -83.98,63.27 -87.7,120.578 -3.78,58.102 -28.68,98.11 -79.02,129.371 -82.76,51.418 -106.72,120.469 -81.51,209.41"
         style="fill:#d1d1d1;fill-opacity:1;fill-rule:nonzero;stroke:none"
         id="path4210"
         inkscape:connector-curvature="0" /><path
         d="m 1785.45,1629.93 c -1.17,10.52 -2.43,21.9 -4.25,38.22 28.48,28.44 58.52,58.45 94.36,94.26 19.3,83.89 19.3,83.89 110.15,105.3 18.47,26.19 17.39,65.38 53.55,84.3 36.02,18.84 64.27,-4.72 103.14,-9.59 11.7,8.05 29.41,17.36 43.44,30.57 22.13,20.87 46.95,31.47 76.91,28.53 47.8,-4.69 89.84,5.04 117.46,45.74 37.95,6.16 71.39,7.41 105.59,-7.24 35.11,-15.05 70.98,-13.06 105.15,7.86 16.69,10.24 35.62,16.8 53.29,24.9 9.62,-5.3 17.75,-8.09 23.74,-13.35 28.31,-24.84 61.66,-32.14 97.62,-27.48 53.67,6.97 90.19,-15.04 111.38,-63.47 11.26,-25.71 32.05,-37.35 57.43,-43.06 56.84,-12.76 95.64,-42.82 106.99,-103.56 2.45,-13.14 14.83,-24.51 23.1,-36.37 1.75,-2.49 5.62,-3.44 8.38,-5.29 94.39,-63.28 96.99,-79.93 111.12,-182.32 2.18,-3.37 4.04,-8.59 7.71,-11.55 44.98,-36.23 64.26,-82.36 60,-140.43 -1.24,-16.9 3.73,-39.05 14.46,-51.15 35.12,-39.56 29.36,-83.73 17.23,-126.89 -9.87,-35.08 -10.02,-63.66 4.14,-99.71 23.59,-60.06 5.22,-105.94 -38.04,-143.17 -11.18,-9.62 -23.18,-18.29 -32.11,-25.289 0,-24.601 0,-45.609 0,-67.91 -17.09,-6.789 -32.16,-12.769 -51.81,-20.582 -2.36,-19.379 -4.91,-40.32 -7.75,-63.66 -7.51,-10.32 -16.26,-22.34 -23.92,-32.891 -10.71,-91.828 -15.47,-97.617 -89.07,-108.468 -12.09,-13.821 -24.96,-28.559 -38.27,-43.758 -14.78,4.457 -27.29,8.25 -42.07,12.707 -9.52,-6.609 -20.21,-14.039 -32.32,-22.457 1.28,-16.781 2.5,-32.852 4,-52.621 -12.27,-8.653 -25.51,-17.969 -40.24,-28.352 -44.07,8.903 -87.53,17.672 -135.55,27.36 -20.17,-15.977 -42.87,-35.008 -66.65,-52.59 -65.9,-48.688 -101.2,-48.789 -165.16,-1.918 -2.6,1.91 -6.07,2.597 -12.76,5.359 -12.94,-2.539 -29.05,-8.109 -45.21,-8.301 -21.27,-0.23 -44.89,-1.339 -63.41,7.012 -40,18.027 -73.85,15.57 -103,-15.699 -53.29,-6.102 -100.48,-3.434 -141.24,36.387 -10.97,10.711 -37.76,10.281 -56.13,7.453 -75.48,-11.641 -106.11,2.308 -140.06,70.859 -28.06,56.66 -63.81,103.168 -127.1,125.981 -36.81,13.269 -55.94,47.82 -58.35,86.578 -2.67,42.808 -22.27,70.05 -59.21,90.492 -44.24,24.476 -68.16,85.838 -60.69,138.218 4.12,28.89 4.88,58.25 0.14,88.45 6.25,13.38 12.51,26.76 20.22,43.25 -9.67,23.07 -19.85,47.35 -25.13,59.94 4.05,48.83 10.2,86.09 9.49,123.24 -1.03,54.08 29.07,93.79 57.01,133.83 15.98,22.91 39.03,40.04 40.62,71.72 0.35,6.9 13.47,13.17 21.68,20.61"
         style="fill:#fefefe;fill-opacity:1;fill-rule:nonzero;stroke:none"
         id="path4212"
         inkscape:connector-curvature="0" /><path
         d="m 478.773,1952.41 c -8.21,-7.45 -21.335,-13.72 -21.675,-20.62 -1.594,-31.69 -24.649,-48.82 -40.629,-71.72 -27.934,-40.05 -58.028,-79.76 -57.004,-133.84 0.703,-37.13 -5.445,-74.4 -9.492,-123.23 5.277,-12.59 15.461,-36.87 25.132,-59.95 -7.714,-16.49 -13.968,-29.87 -20.226,-43.25 4.742,-30.19 3.98,-59.55 -0.141,-88.45 -7.465,-52.37 16.457,-113.73 60.696,-138.21 36.933,-20.44 56.543,-47.68 59.203,-90.49 2.41,-38.77 21.543,-73.31 58.359,-86.58 63.285,-22.81 99.039,-69.32 127.094,-125.98 33.945,-68.559 64.586,-82.512 140.058,-70.871 18.372,2.832 45.168,3.273 56.133,-7.438 40.766,-39.82 87.949,-42.492 141.242,-36.39 29.147,31.269 62.997,33.73 102.997,15.699 18.52,-8.348 42.14,-7.238 63.41,-7 16.17,0.172 32.27,5.742 45.21,8.289 6.69,-2.758 10.17,-3.457 12.76,-5.359 63.97,-46.872 99.26,-46.77 165.16,1.921 23.78,17.571 46.48,36.61 66.65,52.59 48.02,-9.699 91.48,-18.472 135.55,-27.359 14.73,10.367 27.97,19.699 40.25,28.34 -1.5,19.769 -2.73,35.84 -4.01,52.617 12.11,8.422 22.8,15.851 32.32,22.473 14.78,-4.473 27.29,-8.25 42.08,-12.723 13.3,15.211 26.17,29.941 38.25,43.771 73.61,10.85 78.37,16.64 89.08,108.47 7.67,10.55 16.41,22.57 23.92,32.89 2.84,23.34 5.39,44.27 7.75,63.67 19.65,7.8 34.71,13.78 51.81,20.57 0,22.29 0,43.3 0,67.91 8.94,7 20.94,15.67 32.12,25.29 43.25,37.22 61.62,83.1 38.03,143.17 -14.16,36.04 -14.01,64.62 -4.14,99.72 12.13,43.15 17.9,87.32 -17.23,126.88 -10.73,12.09 -15.7,34.25 -14.46,51.14 4.26,58.08 -15.02,104.21 -60,140.43 -3.67,2.96 -5.52,8.18 -7.72,11.56 -14.13,102.39 -16.72,119.03 -111.1,182.32 -2.77,1.84 -6.64,2.79 -8.38,5.29 -8.28,11.86 -20.66,23.23 -23.11,36.36 -11.34,60.74 -50.15,90.81 -106.99,103.57 -25.38,5.7 -46.17,17.34 -57.42,43.06 -21.2,48.42 -57.72,70.43 -111.39,63.47 -35.96,-4.67 -69.31,2.63 -97.61,27.48 -5.99,5.25 -14.13,8.05 -23.75,13.35 -17.67,-8.11 -36.6,-14.67 -53.29,-24.9 -34.17,-20.93 -70.04,-22.91 -105.15,-7.86 -34.19,14.65 -67.64,13.4 -105.59,7.23 -27.62,-40.69 -69.66,-50.42 -117.46,-45.74 -29.961,2.94 -54.781,-7.66 -76.91,-28.52 -14.019,-13.22 -31.742,-22.52 -43.433,-30.57 -38.875,4.87 -67.125,28.43 -103.141,9.59 -36.168,-18.92 -35.09,-58.12 -53.555,-84.3 -90.851,-21.42 -90.851,-21.42 -110.14,-105.3 -35.848,-35.8 -65.895,-65.82 -94.364,-94.26 1.813,-16.33 3.078,-27.7 4.246,-38.21 z M 53.3047,1633.38 c 10.9062,45.21 37.5781,80.9 68.6253,114 38.086,40.58 69.035,83.49 73.683,142.89 4.196,53.63 42.739,88.24 82.098,120.39 21.715,17.74 42.676,36.41 59.992,51.25 2.715,11.35 4.606,16.14 4.918,21.03 5.106,80.36 18.5,97.33 96.27,114.29 34.605,7.56 59.734,19.68 71.257,58.57 20.54,69.34 51.086,86.26 122.856,77.56 13.133,-1.59 25.836,-6.69 38.965,-8.29 38.062,-4.65 74.277,-0.24 99.504,32.57 23.937,31.13 54.785,40.99 92.195,36.68 8.23,-0.94 16.77,0.79 24.961,-0.28 44.289,-5.78 83.68,7.18 114.811,37.3 43.45,42.02 92.99,37.24 144.69,26.05 8.1,-1.75 16.33,-4.04 23.75,-7.63 57.02,-27.55 111.17,-16.17 161.58,15.26 41.5,25.89 79.97,27.58 120.34,-0.3 25.66,-17.73 54.8,-21.72 85.71,-20.9 36.31,0.97 71.99,2.02 107.56,-14.23 30.59,-13.97 54.12,-32.2 69.35,-61 26.56,-50.24 66.15,-83.69 122.43,-93.24 59.21,-10.05 90.09,-50.76 103.87,-101.96 13.73,-51.03 45.77,-82.85 85.22,-111.98 24,-17.72 48.35,-35.6 69.26,-56.67 23.94,-24.12 38.54,-54.15 36.92,-89.81 -2.31,-51.06 15.34,-94.5 50.13,-131.39 -11.43,-22.21 -20.72,-45.88 -34.72,-66.32 -29.76,-43.46 -29.58,-90.67 -21.43,-139.06 3.57,-21.2 10.37,-41.98 17.02,-62.52 20.77,-64.2 9.75,-122.43 -36.03,-171.45 -39.27,-42.04 -56.66,-92.1 -65.36,-147.08 -9.56,-60.47 -28.81,-117.36 -78.58,-156.73 -24.42,-19.3 -53.15,-34.12 -81.73,-46.97 -36.34,-16.328 -56.96,-44.41 -70.59,-79.629 -10.2,-26.351 -19.65,-53.011 -29.94,-79.332 -24.44,-62.578 -79.6,-101.051 -145.8,-101.66 -33.29,-0.32 -66.62,-0.867 -99.89,0.199 -41.42,1.344 -78.49,-9.34 -112.62,-33.129 -60.6,-42.238 -127.72,-61.648 -202.11,-57.777 -23.83,1.238 -48.02,-4.602 -71.53,-7.152 -21.38,12.05 -44.45,24.101 -66.55,37.718 -25.38,15.653 -51.26,30.993 -74.49,49.524 -40.216,32.098 -82.548,54.398 -136.232,51.137 -38.156,-2.297 -76.645,-2.11 -114.844,-0.168 -89.105,4.488 -164.113,37.168 -217.254,112.48 -19.746,27.988 -41.832,54.32 -64.027,82.93 -9.758,50.199 -38.906,91.419 -86.316,114.199 -47.239,22.7 -98.465,37.11 -147.024,54.81 -16.582,13.75 -34.914,26.85 -50.625,42.57 -16.25,16.25 -34.547,32.94 -43.781,53.17 -17.184,37.62 -30.106,77.24 -26.82,120.48 7.132,93.93 -29.8442,179.16 -55.2504,266.56 -1.5391,5.29 -9.4688,8.74 -14.4219,13.04"
         style="fill:#f3f3f3;fill-opacity:1;fill-rule:nonzero;stroke:none"
         id="path4214"
         inkscape:connector-curvature="0" /><path
         d="m 53.3047,1633.38 c 4.9531,-4.3 12.8828,-7.75 14.4219,-13.04 25.4062,-87.4 62.3824,-172.63 55.2504,-266.56 -3.286,-43.24 9.636,-82.86 26.82,-120.48 9.234,-20.23 27.531,-36.92 43.781,-53.17 15.711,-15.72 34.043,-28.82 50.625,-42.57 48.559,-17.7 99.785,-32.11 147.024,-54.81 47.41,-22.78 76.558,-64 86.316,-114.199 22.195,-28.61 44.281,-54.942 64.027,-82.93 53.141,-75.312 128.149,-107.992 217.254,-112.48 38.199,-1.942 76.688,-2.129 114.844,0.168 53.684,3.261 96.016,-19.039 136.232,-51.137 23.23,-18.531 49.11,-33.871 74.49,-49.524 22.1,-13.617 45.17,-25.668 66.55,-37.718 23.51,2.55 47.7,8.39 71.53,7.152 74.39,-3.871 141.51,15.539 202.11,57.777 34.13,23.789 71.2,34.473 112.62,33.129 33.27,-1.066 66.6,-0.519 99.89,-0.199 66.2,0.609 121.36,39.082 145.8,101.66 10.29,26.321 19.74,52.981 29.94,79.332 13.63,35.219 34.25,63.301 70.59,79.629 28.58,12.85 57.31,27.67 81.73,46.97 49.77,39.37 69.02,96.26 78.58,156.73 8.7,54.98 26.09,105.04 65.36,147.08 45.78,49.02 56.8,107.25 36.03,171.45 -6.65,20.54 -13.45,41.32 -17.02,62.52 -8.15,48.39 -8.33,95.6 21.43,139.06 14,20.44 23.29,44.11 34.72,66.32 42.06,-28.08 63.64,-67.6 59.62,-117.9 -4.44,-55.53 11.36,-103.27 40.93,-149.88 21.51,-33.93 30.51,-73.24 9.87,-112.94 -1.32,10.17 -2.65,20.36 -5.08,39.09 -13.56,-26.13 -22.04,-44.08 -31.93,-61.22 -25.73,-44.57 -38.21,-91.97 -33.66,-143.65 1.17,-13.24 -0.93,-26.78 0.42,-39.99 2.54,-24.91 -5.75,-45.9 -20.82,-64.76 -8.28,-10.35 -15.5,-23.48 -26.42,-29.49 -63.52,-34.98 -84.73,-96.6 -100.51,-160.171 -11.28,-45.438 -35.16,-81.969 -64.42,-116.609 -42.86,-50.739 -85.01,-102.098 -128.05,-152.688 -41.41,-48.672 -90.53,-82.863 -158.16,-80.754 -21.66,0.684 -43.45,-1.199 -65,0.422 -38.54,2.879 -72.29,-8.02 -102.84,-30.828 -11.99,-8.942 -24.48,-17.242 -36.29,-26.41 -94.61,-73.473 -196.27,-81.461 -305.02,-35.153 -35.17,14.973 -71.44,28.532 -108.49,37.403 -19.7,4.73 -43.04,1.32 -63.09,-4.313 -27.03,-7.578 -52.326,-21.23 -78.634,-31.59 C 923.059,484.93 881.16,489.602 843.449,517 c -22.746,16.52 -45.082,34.629 -63.812,55.441 -38.574,42.879 -85.953,67.321 -141.914,76.938 -8.176,1.391 -16.461,3.012 -24.703,3.062 C 500.551,653.219 465.281,712.469 446.672,799.039 429.504,878.898 383.227,915 311.91,933.211 c -35.457,9.051 -71.172,17.301 -106.199,27.809 -70.25,21.062 -117.086,67.34 -142.336,136.08 -5.6562,15.42 -12.9727,30.23 -19.5234,45.31 13.875,32.41 12.8828,64.11 -2.7149,95.98 -10.1758,20.78 -17.8672,42.79 -27.5703,63.82 -13.933588,30.22 -20.47265,65.41 -3.1211,91.11 50.5664,74.89 43.3477,157.52 42.8594,240.06"
         style="fill:#e2e1e1;fill-opacity:1;fill-rule:nonzero;stroke:none"
         id="path4216"
         inkscape:connector-curvature="0" /><path
         d="m 43.8516,1142.41 c 6.5507,-15.08 13.8672,-29.89 19.5234,-45.31 25.25,-68.74 72.086,-115.018 142.336,-136.08 35.027,-10.508 70.742,-18.758 106.199,-27.809 71.317,-18.211 117.594,-54.313 134.762,-134.172 18.609,-86.57 53.879,-145.82 166.348,-146.598 8.242,-0.05 16.527,-1.671 24.703,-3.062 55.961,-9.617 103.34,-34.059 141.914,-76.938 18.73,-20.812 41.066,-38.921 63.812,-55.441 37.711,-27.398 79.61,-32.07 123.227,-14.891 26.308,10.36 51.604,24.012 78.634,31.59 20.05,5.633 43.39,9.043 63.09,4.313 37.05,-8.871 73.32,-22.43 108.49,-37.403 108.75,-46.308 210.41,-38.32 305.02,35.153 11.81,9.168 24.3,17.468 36.29,26.41 30.55,22.808 64.3,33.707 102.84,30.828 21.55,-1.621 43.34,0.262 65,-0.422 67.63,-2.109 116.75,32.082 158.16,80.754 43.04,50.59 85.19,101.949 128.05,152.688 29.26,34.64 53.14,71.171 64.42,116.609 15.78,63.571 36.99,125.191 100.51,160.171 10.92,6.01 18.14,19.14 26.42,29.49 15.07,18.86 23.36,39.85 20.82,64.76 -1.35,13.21 0.75,26.75 -0.42,39.99 -4.55,51.68 7.93,99.08 33.66,143.65 9.89,17.14 18.37,35.09 31.93,61.22 2.43,-18.73 3.76,-28.92 5.08,-39.09 -2.34,-11.36 -2.97,-23.42 -7.3,-33.96 -19.51,-47.39 -17.96,-90.8 6.67,-138.31 31.35,-60.46 1.12,-156.23 -60.82,-200.33 -31.68,-22.56 -45.89,-43.771 -33.31,-82.931 8.74,-27.238 -1.69,-42.699 -28.85,-55.41 -13.38,-6.27 -28.01,-9.867 -44.91,-15.629 -2.99,-9.66 -11.76,-22.352 -8.74,-30.852 15.97,-44.937 -4.59,-73.546 -33.87,-92.437 -10.07,-42.789 -15.9,-80.449 -28.02,-115.961 -16.65,-48.801 -64.64,-29.32 -96.46,-37.262 -19.85,-24.078 -37.41,-45.379 -54.62,-66.258 -24.32,7.34 -42.94,12.981 -65.7,19.852 -10.46,-18.223 -21.71,-34.41 -29.57,-52.121 -34.11,-76.879 -85.53,-100.18 -164.97,-73.141 -11,3.75 -21.55,8.879 -32.27,13.469 -29.38,12.57 -55.53,5.961 -78.31,-14.648 -17.3,-15.641 -32.4,-33.77 -50.09,-48.903 -56.75,-48.539 -120.33,-72.429 -193.39,-42 -23.85,9.942 -43.91,28.992 -68.39,45.711 -18.15,-6.008 -38.64,-12.117 -58.6,-19.609 -30.1,-11.289 -58.44,-9.692 -85.74,7.988 -6.95,4.512 -14.82,7.613 -22.31,11.274 -34.13,16.687 -67.334,17.859 -98.287,-7.071 -26.7,-21.5 -56.047,-26.929 -89.114,-18.531 -10.836,2.75 -22.73,2.102 -34.113,1.828 -31.566,-0.738 -60.875,7.07 -78.57,33.942 -17.207,26.109 -39.387,32.55 -68.071,31.46 -38.297,-1.441 -76.738,0.559 -114.996,-1.332 -47.316,-2.339 -79.363,16.262 -98.969,60.051 -14.941,33.379 -32.652,65.641 -50.933,97.36 -23.051,39.972 -55.477,70.421 -98.465,88.82 -10.711,4.59 -20.492,11.762 -31.504,15.16 -59.543,18.391 -83.98,63.27 -87.699,120.59 C 200.602,861.73 175.695,901.73 125.359,933 42.6016,984.422 18.6445,1053.46 43.8516,1142.41"
         style="fill:#d1d1d1;fill-opacity:1;fill-rule:nonzero;stroke:none"
         id="path4218"
         inkscape:connector-curvature="0" /><path
         d="m 478.773,1952.41 c -1.168,10.51 -2.433,21.88 -4.246,38.21 28.469,28.44 58.516,58.46 94.364,94.26 19.289,83.88 19.289,83.88 110.14,105.3 18.465,26.18 17.387,65.38 53.555,84.3 36.016,18.84 64.266,-4.72 103.141,-9.59 11.691,8.05 29.414,17.35 43.433,30.57 22.129,20.86 46.949,31.46 76.91,28.52 47.8,-4.68 89.84,5.05 117.46,45.74 37.95,6.17 71.4,7.42 105.59,-7.23 35.11,-15.05 70.98,-13.07 105.15,7.86 16.69,10.23 35.62,16.79 53.29,24.9 9.62,-5.3 17.76,-8.1 23.75,-13.35 28.3,-24.85 61.65,-32.15 97.61,-27.48 53.67,6.96 90.19,-15.05 111.39,-63.47 11.25,-25.72 32.04,-37.36 57.42,-43.06 56.84,-12.76 95.65,-42.83 106.99,-103.57 2.45,-13.13 14.83,-24.5 23.11,-36.36 1.74,-2.5 5.61,-3.45 8.38,-5.29 94.38,-63.29 96.97,-79.93 111.1,-182.32 2.2,-3.38 4.05,-8.6 7.72,-11.56 44.98,-36.22 64.26,-82.35 60,-140.43 -1.24,-16.89 3.73,-39.05 14.46,-51.14 35.13,-39.56 29.36,-83.73 17.23,-126.88 -9.87,-35.1 -10.02,-63.68 4.14,-99.72 23.59,-60.07 5.22,-105.95 -38.03,-143.17 -11.18,-9.62 -23.18,-18.29 -32.12,-25.29 0,-24.61 0,-45.62 0,-67.91 -17.1,-6.79 -32.16,-12.77 -51.81,-20.57 -2.36,-19.4 -4.91,-40.33 -7.75,-63.67 -7.51,-10.32 -16.25,-22.34 -23.92,-32.89 -10.71,-91.83 -15.47,-97.62 -89.08,-108.47 -12.08,-13.83 -24.95,-28.56 -38.25,-43.771 -14.79,4.473 -27.3,8.25 -42.08,12.723 -9.52,-6.622 -20.21,-14.051 -32.32,-22.473 1.28,-16.777 2.51,-32.848 4.01,-52.617 -12.28,-8.641 -25.52,-17.973 -40.25,-28.34 -44.07,8.887 -87.53,17.66 -135.55,27.359 -20.17,-15.98 -42.87,-35.019 -66.65,-52.59 -65.9,-48.691 -101.19,-48.793 -165.16,-1.921 -2.59,1.902 -6.07,2.601 -12.76,5.359 -12.94,-2.547 -29.04,-8.117 -45.21,-8.289 -21.27,-0.238 -44.89,-1.348 -63.41,7 -40,18.031 -73.85,15.57 -102.997,-15.699 -53.293,-6.102 -100.476,-3.43 -141.242,36.39 -10.965,10.711 -37.761,10.27 -56.133,7.438 -75.472,-11.641 -106.113,2.312 -140.058,70.871 -28.055,56.66 -63.809,103.17 -127.094,125.98 -36.816,13.27 -55.949,47.81 -58.359,86.58 -2.66,42.81 -22.27,70.05 -59.203,90.49 -44.239,24.48 -68.161,85.84 -60.696,138.21 4.121,28.9 4.883,58.26 0.141,88.45 6.258,13.38 12.512,26.76 20.226,43.25 -9.671,23.08 -19.855,47.36 -25.132,59.95 4.047,48.83 10.195,86.1 9.492,123.23 -1.024,54.08 29.07,93.79 57.004,133.84 15.98,22.9 39.035,40.03 40.629,71.72 0.34,6.9 13.465,13.17 21.675,20.62"
         style="fill:#fefefe;fill-opacity:1;fill-rule:nonzero;stroke:none"
         id="path4220"
         inkscape:connector-curvature="0" /><path
         d="m 1888.77,2852.41 c -8.21,-7.45 -21.33,-13.71 -21.67,-20.62 -1.59,-31.68 -24.65,-48.81 -40.63,-71.72 -27.93,-40.04 -58.03,-79.76 -57,-133.84 0.7,-37.13 -5.45,-74.41 -9.5,-123.23 5.28,-12.59 15.46,-36.88 25.13,-59.95 -7.71,-16.49 -13.96,-29.87 -20.22,-43.25 4.74,-30.19 3.98,-59.56 -0.14,-88.45 -7.47,-52.37 16.45,-113.73 60.69,-138.21 36.94,-20.44 56.54,-47.68 59.21,-90.49 2.41,-38.77 21.54,-73.31 58.36,-86.58 63.28,-22.81 99.03,-69.32 127.09,-125.98 33.95,-68.56 64.59,-82.51 140.06,-70.87 18.37,2.83 45.16,3.27 56.13,-7.44 40.77,-39.82 87.95,-42.49 141.24,-36.39 29.15,31.27 63,33.73 103,15.7 18.52,-8.35 42.14,-7.24 63.41,-7 16.17,0.17 32.27,5.74 45.21,8.29 6.69,-2.76 10.17,-3.46 12.76,-5.36 63.97,-46.87 99.26,-46.77 165.16,1.92 23.78,17.57 46.48,36.61 66.65,52.59 48.02,-9.7 91.48,-18.47 135.55,-27.36 14.74,10.37 27.97,19.7 40.25,28.34 -1.51,19.77 -2.73,35.84 -4.01,52.62 12.11,8.42 22.8,15.85 32.32,22.47 14.78,-4.47 27.29,-8.25 42.08,-12.72 13.3,15.21 26.17,29.94 38.26,43.77 73.6,10.85 78.36,16.64 89.07,108.47 7.67,10.55 16.42,22.57 23.92,32.89 2.85,23.34 5.39,44.27 7.75,63.67 19.65,7.8 34.72,13.78 51.81,20.57 0,22.29 0,43.3 0,67.91 8.94,7 20.93,15.67 32.11,25.29 43.26,37.22 61.64,83.11 38.04,143.16 -14.16,36.06 -14.01,64.63 -4.14,99.72 12.13,43.16 17.89,87.32 -17.23,126.89 -10.73,12.09 -15.7,34.25 -14.46,51.14 4.26,58.08 -15.02,104.21 -60,140.44 -3.67,2.95 -5.53,8.16 -7.71,11.56 -14.13,102.38 -16.73,119.02 -111.12,182.3 -2.76,1.86 -6.63,2.8 -8.38,5.3 -8.27,11.86 -20.65,23.24 -23.1,36.36 -11.35,60.74 -50.15,90.81 -106.99,103.57 -25.38,5.7 -46.17,17.34 -57.42,43.06 -21.21,48.43 -57.72,70.43 -111.39,63.47 -35.96,-4.67 -69.31,2.63 -97.61,27.48 -5.99,5.25 -14.13,8.05 -23.75,13.35 -17.66,-8.11 -36.6,-14.67 -53.29,-24.89 -34.17,-20.94 -70.04,-22.91 -105.15,-7.87 -34.19,14.65 -67.64,13.4 -105.59,7.24 -27.62,-40.7 -69.66,-50.43 -117.46,-45.75 -29.96,2.94 -54.78,-7.66 -76.91,-28.52 -14.02,-13.21 -31.74,-22.52 -43.44,-30.57 -38.87,4.87 -67.12,28.43 -103.13,9.59 -36.17,-18.93 -35.09,-58.11 -53.56,-84.3 -90.85,-21.42 -90.85,-21.42 -110.14,-105.3 -35.85,-35.81 -65.89,-65.83 -94.36,-94.27 1.81,-16.32 3.07,-27.69 4.24,-38.2 z M 1463.3,2533.38 c 10.91,45.21 37.58,80.91 68.63,114 38.09,40.59 69.03,83.49 73.68,142.89 4.2,53.62 42.74,88.24 82.1,120.39 21.72,17.74 42.68,36.41 59.99,51.25 2.72,11.36 4.61,16.14 4.92,21.03 5.11,80.36 18.5,97.33 96.27,114.29 34.61,7.56 59.74,19.68 71.26,58.57 20.54,69.34 51.08,86.26 122.86,77.56 13.13,-1.59 25.83,-6.69 38.96,-8.29 38.06,-4.65 74.28,-0.24 99.5,32.57 23.94,31.13 54.79,40.99 92.2,36.68 8.23,-0.94 16.77,0.79 24.96,-0.28 44.29,-5.79 83.68,7.18 114.81,37.3 43.45,42.02 92.99,37.24 144.69,26.05 8.1,-1.75 16.33,-4.04 23.75,-7.62 57.02,-27.56 111.17,-16.18 161.58,15.25 41.5,25.89 79.98,27.58 120.34,-0.31 25.66,-17.72 54.8,-21.71 85.71,-20.89 36.3,0.97 71.99,2.02 107.56,-14.23 30.59,-13.96 54.12,-32.2 69.35,-61 26.56,-50.24 66.15,-83.69 122.43,-93.24 59.21,-10.05 90.09,-50.76 103.87,-101.96 13.73,-51.04 45.78,-82.84 85.22,-111.98 24,-17.71 48.35,-35.6 69.26,-56.67 23.95,-24.12 38.54,-54.15 36.92,-89.81 -2.31,-51.06 15.34,-94.5 50.13,-131.39 -11.43,-22.21 -20.71,-45.88 -34.72,-66.32 -29.75,-43.45 -29.58,-90.68 -21.43,-139.07 3.57,-21.19 10.38,-41.97 17.02,-62.51 20.77,-64.2 9.75,-122.43 -36.04,-171.45 -39.26,-42.04 -56.66,-92.1 -65.35,-147.08 -9.56,-60.47 -28.81,-117.36 -78.58,-156.73 -24.42,-19.3 -53.16,-34.12 -81.73,-46.97 -36.34,-16.33 -56.95,-44.41 -70.59,-79.63 -10.2,-26.35 -19.65,-53.01 -29.94,-79.33 -24.44,-62.58 -79.6,-101.05 -145.8,-101.66 -33.29,-0.32 -66.63,-0.87 -99.89,0.2 -41.43,1.34 -78.49,-9.34 -112.62,-33.13 -60.6,-42.24 -127.72,-61.65 -202.11,-57.78 -23.82,1.24 -48.02,-4.6 -71.53,-7.15 -21.38,12.05 -44.45,24.1 -66.55,37.72 -25.38,15.65 -51.26,30.99 -74.49,49.52 -40.22,32.1 -82.55,54.4 -136.23,51.14 -38.16,-2.3 -76.65,-2.11 -114.84,-0.17 -89.11,4.49 -164.12,37.17 -217.26,112.48 -19.75,27.99 -41.83,54.32 -64.03,82.93 -9.75,50.2 -38.9,91.42 -86.31,114.2 -47.24,22.7 -98.47,37.11 -147.03,54.81 -16.58,13.75 -34.91,26.85 -50.62,42.57 -16.25,16.25 -34.55,32.94 -43.78,53.17 -17.19,37.62 -30.11,77.24 -26.82,120.49 7.13,93.92 -29.85,179.15 -55.25,266.54 -1.54,5.3 -9.47,8.75 -14.43,13.05"
         style="fill:#f3f3f3;fill-opacity:1;fill-rule:nonzero;stroke:none"
         id="path4222"
         inkscape:connector-curvature="0" /><path
         d="m 1463.3,2533.38 c 4.96,-4.3 12.89,-7.75 14.43,-13.05 25.4,-87.39 62.38,-172.62 55.25,-266.54 -3.29,-43.25 9.63,-82.87 26.82,-120.49 9.23,-20.23 27.53,-36.92 43.78,-53.17 15.71,-15.72 34.04,-28.82 50.62,-42.57 48.56,-17.7 99.79,-32.11 147.03,-54.81 47.41,-22.78 76.56,-64 86.31,-114.2 22.2,-28.61 44.28,-54.94 64.03,-82.93 53.14,-75.31 128.15,-107.99 217.26,-112.48 38.19,-1.94 76.68,-2.13 114.84,0.17 53.68,3.26 96.01,-19.04 136.23,-51.14 23.23,-18.53 49.11,-33.87 74.49,-49.52 22.1,-13.62 45.17,-25.67 66.55,-37.72 23.51,2.55 47.71,8.39 71.53,7.15 74.39,-3.87 141.51,15.54 202.11,57.78 34.13,23.79 71.19,34.47 112.62,33.13 33.26,-1.07 66.6,-0.52 99.89,-0.2 66.2,0.61 121.36,39.08 145.8,101.66 10.29,26.32 19.74,52.98 29.94,79.33 13.64,35.22 34.25,63.3 70.59,79.63 28.57,12.85 57.31,27.67 81.73,46.97 49.77,39.37 69.02,96.26 78.58,156.73 8.69,54.98 26.09,105.04 65.35,147.08 45.79,49.02 56.81,107.25 36.04,171.45 -6.64,20.54 -13.45,41.32 -17.02,62.51 -8.15,48.39 -8.32,95.62 21.43,139.07 14.01,20.44 23.29,44.11 34.72,66.32 42.06,-28.08 63.64,-67.6 59.62,-117.91 -4.44,-55.52 11.37,-103.26 40.93,-149.88 21.51,-33.92 30.51,-73.23 9.87,-112.93 -1.33,10.18 -2.65,20.36 -5.08,39.09 -13.56,-26.13 -22.04,-44.08 -31.93,-61.22 -25.73,-44.57 -38.21,-91.97 -33.66,-143.65 1.17,-13.24 -0.93,-26.78 0.42,-39.99 2.54,-24.91 -5.75,-45.9 -20.82,-64.76 -8.29,-10.35 -15.5,-23.48 -26.42,-29.49 -63.52,-34.98 -84.73,-96.6 -100.51,-160.17 -11.28,-45.44 -35.16,-81.97 -64.42,-116.61 -42.86,-50.74 -85,-102.1 -128.05,-152.69 -41.41,-48.67 -90.53,-82.86 -158.16,-80.75 -21.65,0.68 -43.45,-1.2 -65,0.42 -38.54,2.88 -72.29,-8.02 -102.83,-30.83 -12,-8.94 -24.49,-17.24 -36.3,-26.41 -94.61,-73.47 -196.27,-81.46 -305.02,-35.15 -35.17,14.97 -71.44,28.53 -108.49,37.4 -19.7,4.73 -43.04,1.32 -63.09,-4.31 -27.03,-7.58 -52.32,-21.23 -78.63,-31.59 -43.62,-17.18 -85.52,-12.51 -123.23,14.89 -22.74,16.52 -45.08,34.63 -63.81,55.44 -38.58,42.88 -85.96,67.32 -141.92,76.94 -8.17,1.39 -16.46,3.01 -24.7,3.06 -112.47,0.78 -147.74,60.03 -166.35,146.6 -17.17,79.86 -63.45,115.96 -134.76,134.17 -35.46,9.05 -71.17,17.3 -106.2,27.81 -70.25,21.06 -117.08,67.34 -142.33,136.08 -5.66,15.42 -12.98,30.23 -19.53,45.31 13.88,32.41 12.89,64.11 -2.71,95.98 -10.18,20.78 -17.87,42.79 -27.57,63.82 -13.94,30.22 -20.48,65.42 -3.12,91.11 50.56,74.89 43.34,157.52 42.85,240.06"
         style="fill:#e2e1e1;fill-opacity:1;fill-rule:nonzero;stroke:none"
         id="path4224"
         inkscape:connector-curvature="0" /><path
         d="m 1453.85,2042.41 c 6.55,-15.08 13.87,-29.89 19.53,-45.31 25.25,-68.74 72.08,-115.02 142.33,-136.08 35.03,-10.51 70.74,-18.76 106.2,-27.81 71.31,-18.21 117.59,-54.31 134.76,-134.17 18.61,-86.57 53.88,-145.82 166.35,-146.6 8.24,-0.05 16.53,-1.67 24.7,-3.06 55.96,-9.62 103.34,-34.06 141.92,-76.94 18.73,-20.81 41.07,-38.92 63.81,-55.44 37.71,-27.4 79.61,-32.07 123.23,-14.89 26.31,10.36 51.6,24.01 78.63,31.59 20.05,5.63 43.39,9.04 63.09,4.31 37.05,-8.87 73.32,-22.43 108.49,-37.4 108.75,-46.31 210.41,-38.32 305.02,35.15 11.81,9.17 24.3,17.47 36.3,26.41 30.54,22.81 64.29,33.71 102.83,30.83 21.55,-1.62 43.35,0.26 65,-0.42 67.63,-2.11 116.75,32.08 158.16,80.75 43.05,50.59 85.19,101.95 128.05,152.69 29.26,34.64 53.14,71.17 64.42,116.61 15.78,63.57 36.99,125.19 100.51,160.17 10.92,6.01 18.13,19.14 26.42,29.49 15.07,18.86 23.36,39.85 20.82,64.76 -1.35,13.21 0.75,26.75 -0.42,39.99 -4.55,51.68 7.93,99.08 33.66,143.65 9.89,17.14 18.37,35.09 31.93,61.22 2.43,-18.73 3.75,-28.91 5.08,-39.09 -2.33,-11.36 -2.97,-23.43 -7.3,-33.96 -19.52,-47.39 -17.96,-90.8 6.67,-138.31 31.35,-60.46 1.13,-156.23 -60.81,-200.33 -31.68,-22.56 -45.9,-43.77 -33.33,-82.93 8.75,-27.24 -1.67,-42.7 -28.84,-55.41 -13.38,-6.27 -28.01,-9.87 -44.91,-15.63 -2.99,-9.66 -11.76,-22.35 -8.75,-30.85 15.97,-44.94 -4.59,-73.55 -33.85,-92.44 -10.07,-42.79 -15.91,-80.45 -28.03,-115.96 -16.65,-48.8 -64.65,-29.32 -96.46,-37.26 -19.86,-24.08 -37.41,-45.38 -54.62,-66.26 -24.31,7.34 -42.94,12.98 -65.7,19.85 -10.46,-18.22 -21.72,-34.41 -29.57,-52.12 -34.12,-76.88 -85.53,-100.18 -164.97,-73.14 -11,3.75 -21.55,8.88 -32.27,13.47 -29.38,12.57 -55.52,5.96 -78.31,-14.65 -17.3,-15.64 -32.4,-33.77 -50.08,-48.9 -56.76,-48.54 -120.34,-72.43 -193.4,-42 -23.85,9.94 -43.91,28.99 -68.39,45.71 -18.15,-6.01 -38.64,-12.12 -58.6,-19.61 -30.1,-11.29 -58.44,-9.69 -85.74,7.99 -6.95,4.51 -14.82,7.61 -22.31,11.27 -34.13,16.69 -67.33,17.86 -98.29,-7.07 -26.7,-21.5 -56.05,-26.93 -89.11,-18.53 -10.84,2.75 -22.73,2.1 -34.11,1.83 -31.57,-0.74 -60.88,7.07 -78.57,33.94 -17.21,26.11 -39.39,32.55 -68.07,31.46 -38.3,-1.44 -76.74,0.56 -115,-1.33 -47.32,-2.34 -79.36,16.26 -98.97,60.05 -14.94,33.38 -32.65,65.64 -50.93,97.36 -23.05,39.97 -55.48,70.42 -98.47,88.82 -10.71,4.59 -20.49,11.76 -31.5,15.16 -59.54,18.39 -83.98,63.27 -87.7,120.59 -3.78,58.1 -28.68,98.1 -79.02,129.37 -82.76,51.42 -106.72,120.46 -81.51,209.41"
         style="fill:#d1d1d1;fill-opacity:1;fill-rule:nonzero;stroke:none"
         id="path4226"
         inkscape:connector-curvature="0" /><path
         d="m 1888.77,2852.41 c -1.17,10.51 -2.43,21.88 -4.24,38.2 28.47,28.44 58.51,58.46 94.36,94.27 19.29,83.88 19.29,83.88 110.14,105.3 18.47,26.19 17.39,65.37 53.56,84.3 36.01,18.84 64.26,-4.72 103.13,-9.59 11.7,8.05 29.42,17.36 43.44,30.57 22.13,20.86 46.95,31.46 76.91,28.52 47.8,-4.68 89.84,5.05 117.46,45.75 37.95,6.16 71.4,7.41 105.59,-7.24 35.11,-15.04 70.98,-13.07 105.15,7.87 16.69,10.22 35.63,16.78 53.29,24.89 9.62,-5.3 17.76,-8.1 23.75,-13.35 28.3,-24.85 61.65,-32.15 97.61,-27.48 53.67,6.96 90.18,-15.04 111.39,-63.47 11.25,-25.72 32.04,-37.36 57.42,-43.06 56.84,-12.76 95.64,-42.83 106.99,-103.57 2.45,-13.12 14.83,-24.5 23.1,-36.36 1.75,-2.5 5.62,-3.44 8.38,-5.3 94.39,-63.28 96.99,-79.92 111.12,-182.3 2.18,-3.4 4.04,-8.61 7.71,-11.56 44.98,-36.23 64.26,-82.36 60,-140.44 -1.24,-16.89 3.73,-39.05 14.46,-51.14 35.12,-39.57 29.36,-83.73 17.23,-126.89 -9.87,-35.09 -10.02,-63.66 4.14,-99.72 23.6,-60.05 5.22,-105.94 -38.04,-143.16 -11.18,-9.62 -23.17,-18.29 -32.11,-25.29 0,-24.61 0,-45.62 0,-67.91 -17.09,-6.79 -32.16,-12.77 -51.81,-20.57 -2.36,-19.4 -4.9,-40.33 -7.75,-63.67 -7.5,-10.32 -16.25,-22.34 -23.92,-32.89 -10.71,-91.83 -15.47,-97.62 -89.07,-108.47 -12.09,-13.83 -24.96,-28.56 -38.26,-43.77 -14.79,4.47 -27.3,8.25 -42.08,12.72 -9.52,-6.62 -20.21,-14.05 -32.32,-22.47 1.28,-16.78 2.5,-32.85 4.01,-52.62 -12.28,-8.64 -25.51,-17.97 -40.25,-28.34 -44.07,8.89 -87.53,17.66 -135.55,27.36 -20.17,-15.98 -42.87,-35.02 -66.65,-52.59 -65.9,-48.69 -101.19,-48.79 -165.16,-1.92 -2.59,1.9 -6.07,2.6 -12.76,5.36 -12.94,-2.55 -29.04,-8.12 -45.21,-8.29 -21.27,-0.24 -44.89,-1.35 -63.41,7 -40,18.03 -73.85,15.57 -103,-15.7 -53.29,-6.1 -100.47,-3.43 -141.24,36.39 -10.97,10.71 -37.76,10.27 -56.13,7.44 -75.47,-11.64 -106.11,2.31 -140.06,70.87 -28.06,56.66 -63.81,103.17 -127.09,125.98 -36.82,13.27 -55.95,47.81 -58.36,86.58 -2.67,42.81 -22.27,70.05 -59.21,90.49 -44.24,24.48 -68.16,85.84 -60.69,138.21 4.12,28.89 4.88,58.26 0.14,88.45 6.26,13.38 12.51,26.76 20.22,43.25 -9.67,23.07 -19.85,47.36 -25.13,59.95 4.05,48.82 10.2,86.1 9.5,123.23 -1.03,54.08 29.07,93.8 57,133.84 15.98,22.91 39.04,40.04 40.63,71.72 0.34,6.91 13.46,13.17 21.67,20.62"
         style="fill:#fefefe;fill-opacity:1;fill-rule:nonzero;stroke:none"
         id="path4228"
         inkscape:connector-curvature="0" /><path
         d="m 3088.77,1842.41 c -8.21,-7.45 -21.33,-13.72 -21.68,-20.62 -1.58,-31.69 -24.65,-48.82 -40.62,-71.72 -27.93,-40.05 -58.03,-79.76 -57,-133.84 0.7,-37.13 -5.45,-74.4 -9.5,-123.23 5.28,-12.59 15.46,-36.87 25.13,-59.95 -7.7,-16.49 -13.96,-29.87 -20.22,-43.25 4.74,-30.19 3.98,-59.55 -0.14,-88.45 -7.47,-52.37 16.45,-113.73 60.69,-138.21 36.94,-20.44 56.55,-47.68 59.21,-90.49 2.41,-38.77 21.54,-73.31 58.35,-86.58 63.29,-22.808 99.04,-69.32 127.1,-125.98 33.95,-68.559 64.59,-82.512 140.06,-70.871 18.37,2.832 45.16,3.273 56.13,-7.438 40.76,-39.82 87.95,-42.492 141.24,-36.39 29.15,31.269 63,33.73 103,15.699 18.53,-8.348 42.14,-7.238 63.41,-7 16.16,0.172 32.27,5.742 45.21,8.289 6.69,-2.758 10.17,-3.457 12.76,-5.359 63.96,-46.872 99.26,-46.77 165.16,1.921 23.78,17.571 46.48,36.61 66.65,52.59 48.02,-9.699 91.48,-18.472 135.55,-27.359 14.74,10.367 27.97,19.699 40.25,28.34 -1.51,19.769 -2.73,35.84 -4.01,52.617 12.11,8.422 22.8,15.851 32.32,22.473 14.78,-4.473 27.29,-8.25 42.08,-12.723 13.3,15.211 26.17,29.941 38.26,43.769 73.6,10.852 78.36,16.641 89.07,108.472 7.67,10.55 16.42,22.57 23.92,32.89 2.85,23.34 5.39,44.27 7.75,63.67 19.65,7.8 34.72,13.78 51.81,20.57 0,22.29 0,43.3 0,67.91 8.94,7 20.93,15.67 32.11,25.29 43.26,37.22 61.64,83.1 38.04,143.17 -14.16,36.04 -14.01,64.62 -4.14,99.72 12.13,43.15 17.89,87.32 -17.23,126.88 -10.73,12.09 -15.7,34.25 -14.46,51.14 4.26,58.08 -15.02,104.21 -60,140.43 -3.67,2.96 -5.53,8.18 -7.71,11.56 -14.13,102.39 -16.73,119.03 -111.12,182.32 -2.76,1.84 -6.63,2.79 -8.38,5.29 -8.27,11.86 -20.65,23.23 -23.1,36.36 -11.35,60.74 -50.15,90.81 -106.99,103.57 -25.38,5.7 -46.17,17.35 -57.42,43.06 -21.21,48.43 -57.72,70.43 -111.39,63.47 -35.97,-4.67 -69.31,2.63 -97.62,27.48 -5.99,5.25 -14.12,8.05 -23.74,13.35 -17.66,-8.11 -36.6,-14.67 -53.29,-24.9 -34.17,-20.93 -70.04,-22.91 -105.15,-7.87 -34.2,14.66 -67.64,13.41 -105.59,7.24 -27.63,-40.69 -69.65,-50.42 -117.46,-45.73 -29.95,2.93 -54.78,-7.67 -76.91,-28.53 -14.02,-13.22 -31.74,-22.52 -43.43,-30.57 -38.87,4.87 -67.12,28.43 -103.15,9.59 -36.16,-18.92 -35.08,-58.12 -53.55,-84.3 -90.84,-21.42 -90.84,-21.42 -110.14,-105.3 -35.84,-35.8 -65.89,-65.82 -94.37,-94.26 1.82,-16.33 3.08,-27.7 4.25,-38.21 z M 2663.3,1523.38 c 10.91,45.21 37.58,80.9 68.63,114 38.09,40.58 69.03,83.49 73.68,142.89 4.2,53.63 42.74,88.24 82.1,120.39 21.72,17.74 42.67,36.41 59.99,51.25 2.71,11.35 4.61,16.14 4.92,21.03 5.11,80.36 18.51,97.33 96.27,114.29 34.61,7.56 59.74,19.68 71.26,58.57 20.54,69.34 51.08,86.26 122.86,77.56 13.13,-1.59 25.83,-6.69 38.97,-8.29 38.05,-4.65 74.26,-0.24 99.5,32.57 23.93,31.13 54.77,40.99 92.19,36.68 8.23,-0.94 16.77,0.79 24.97,-0.28 44.27,-5.78 83.67,7.18 114.8,37.3 43.45,42.02 92.99,37.24 144.69,26.05 8.1,-1.75 16.33,-4.04 23.76,-7.63 57.01,-27.55 111.16,-16.17 161.57,15.26 41.5,25.89 79.97,27.58 120.33,-0.3 25.67,-17.73 54.81,-21.72 85.72,-20.9 36.3,0.97 71.99,2.02 107.56,-14.23 30.59,-13.97 54.12,-32.2 69.35,-61 26.56,-50.24 66.15,-83.68 122.43,-93.24 59.21,-10.04 90.09,-50.76 103.87,-101.96 13.73,-51.03 45.78,-82.85 85.22,-111.98 24,-17.72 48.35,-35.6 69.26,-56.67 23.95,-24.12 38.54,-54.15 36.92,-89.81 -2.31,-51.06 15.34,-94.5 50.13,-131.39 -11.43,-22.21 -20.71,-45.88 -34.72,-66.32 -29.75,-43.46 -29.58,-90.67 -21.43,-139.06 3.57,-21.2 10.38,-41.98 17.02,-62.52 20.77,-64.2 9.75,-122.43 -36.04,-171.45 -39.26,-42.04 -56.66,-92.1 -65.35,-147.08 -9.56,-60.47 -28.81,-117.36 -78.58,-156.731 -24.42,-19.297 -53.16,-34.117 -81.73,-46.969 -36.34,-16.328 -56.95,-44.41 -70.59,-79.629 -10.2,-26.351 -19.65,-53.011 -29.94,-79.332 -24.44,-62.578 -79.6,-101.051 -145.8,-101.66 -33.29,-0.32 -66.63,-0.867 -99.89,0.199 -41.43,1.344 -78.49,-9.34 -112.62,-33.129 -60.6,-42.238 -127.71,-61.648 -202.11,-57.777 -23.82,1.238 -48.01,-4.602 -71.53,-7.152 -21.38,12.05 -44.45,24.101 -66.55,37.718 -25.38,15.653 -51.26,30.993 -74.49,49.524 -40.22,32.098 -82.54,54.398 -136.23,51.137 -38.16,-2.297 -76.65,-2.11 -114.84,-0.168 -89.11,4.488 -164.12,37.168 -217.27,112.48 -19.74,27.988 -41.82,54.32 -64.02,82.93 -9.75,50.199 -38.9,91.418 -86.31,114.199 -47.24,22.699 -98.46,37.11 -147.03,54.81 -16.58,13.75 -34.91,26.85 -50.62,42.57 -16.25,16.25 -34.55,32.94 -43.78,53.17 -17.19,37.62 -30.11,77.24 -26.82,120.48 7.13,93.93 -29.85,179.16 -55.25,266.56 -1.54,5.29 -9.47,8.74 -14.43,13.04"
         style="fill:#f3f3f3;fill-opacity:1;fill-rule:nonzero;stroke:none"
         id="path4230"
         inkscape:connector-curvature="0" /><path
         d="m 2663.3,1523.38 c 4.96,-4.3 12.89,-7.75 14.43,-13.04 25.4,-87.4 62.38,-172.63 55.25,-266.56 -3.29,-43.24 9.63,-82.86 26.82,-120.48 9.23,-20.23 27.53,-36.92 43.78,-53.17 15.71,-15.72 34.04,-28.82 50.62,-42.57 48.57,-17.7 99.79,-32.111 147.03,-54.81 47.41,-22.781 76.56,-64 86.31,-114.199 22.2,-28.61 44.28,-54.942 64.02,-82.93 53.15,-75.312 128.16,-107.992 217.27,-112.48 38.19,-1.942 76.68,-2.129 114.84,0.168 53.69,3.261 96.01,-19.039 136.23,-51.137 23.23,-18.531 49.11,-33.871 74.49,-49.524 22.1,-13.617 45.17,-25.668 66.55,-37.718 23.52,2.55 47.71,8.39 71.53,7.152 74.4,-3.871 141.51,15.539 202.11,57.777 34.13,23.789 71.19,34.473 112.62,33.129 33.26,-1.066 66.6,-0.519 99.89,-0.199 66.2,0.609 121.36,39.082 145.8,101.66 10.29,26.321 19.74,52.981 29.94,79.332 13.64,35.219 34.25,63.301 70.59,79.629 28.57,12.852 57.31,27.672 81.73,46.969 49.77,39.371 69.02,96.261 78.58,156.731 8.69,54.98 26.09,105.04 65.35,147.08 45.79,49.02 56.81,107.25 36.04,171.45 -6.64,20.54 -13.45,41.32 -17.02,62.52 -8.15,48.39 -8.32,95.6 21.43,139.06 14.01,20.44 23.29,44.11 34.72,66.32 42.06,-28.08 63.64,-67.6 59.62,-117.9 -4.44,-55.53 11.37,-103.27 40.93,-149.88 21.51,-33.93 30.51,-73.24 9.87,-112.94 -1.33,10.17 -2.65,20.36 -5.08,39.09 -13.56,-26.13 -22.04,-44.08 -31.93,-61.22 -25.73,-44.57 -38.21,-91.97 -33.66,-143.65 1.17,-13.24 -0.93,-26.78 0.42,-39.99 2.54,-24.91 -5.75,-45.9 -20.82,-64.76 -8.29,-10.35 -15.5,-23.481 -26.42,-29.489 -63.52,-34.981 -84.73,-96.602 -100.51,-160.172 -11.28,-45.438 -35.16,-81.969 -64.42,-116.609 -42.86,-50.739 -85,-102.098 -128.05,-152.688 -41.41,-48.672 -90.53,-82.863 -158.16,-80.754 -21.65,0.684 -43.45,-1.199 -65,0.422 -38.54,2.879 -72.29,-8.02 -102.83,-30.828 -12,-8.942 -24.49,-17.242 -36.3,-26.41 -94.61,-73.473 -196.27,-81.461 -305.02,-35.153 -35.17,14.973 -71.45,28.532 -108.49,37.403 -19.7,4.73 -43.05,1.32 -63.09,-4.313 -27.03,-7.578 -52.32,-21.23 -78.63,-31.59 -43.62,-17.179 -85.52,-12.507 -123.23,14.891 -22.74,16.52 -45.09,34.629 -63.81,55.441 -38.58,42.879 -85.96,67.321 -141.91,76.938 -8.19,1.391 -16.47,3.012 -24.71,3.062 -112.47,0.778 -147.73,60.028 -166.35,146.598 -17.17,79.859 -63.44,115.961 -134.76,134.172 -35.46,9.051 -71.17,17.301 -106.2,27.809 -70.25,21.062 -117.08,67.339 -142.33,136.082 -5.66,15.418 -12.98,30.228 -19.53,45.308 13.88,32.41 12.89,64.11 -2.71,95.98 -10.18,20.78 -17.87,42.79 -27.57,63.82 -13.94,30.22 -20.48,65.41 -3.12,91.11 50.56,74.89 43.34,157.52 42.85,240.06"
         style="fill:#e2e1e1;fill-opacity:1;fill-rule:nonzero;stroke:none"
         id="path4232"
         inkscape:connector-curvature="0" /><path
         d="m 2653.85,1032.41 c 6.55,-15.08 13.87,-29.89 19.53,-45.308 25.25,-68.743 72.08,-115.02 142.33,-136.082 35.03,-10.508 70.74,-18.758 106.2,-27.809 71.32,-18.211 117.59,-54.313 134.76,-134.172 18.62,-86.57 53.88,-145.82 166.35,-146.598 8.24,-0.05 16.52,-1.671 24.71,-3.062 55.95,-9.617 103.33,-34.059 141.91,-76.938 18.72,-20.812 41.07,-38.921 63.81,-55.441 37.71,-27.398 79.61,-32.07 123.23,-14.891 26.31,10.36 51.6,24.012 78.63,31.59 20.04,5.633 43.39,9.043 63.09,4.313 37.04,-8.871 73.32,-22.43 108.49,-37.403 108.75,-46.308 210.41,-38.32 305.02,35.153 11.81,9.168 24.3,17.468 36.3,26.41 30.54,22.808 64.29,33.707 102.83,30.828 21.55,-1.621 43.35,0.262 65,-0.422 67.63,-2.109 116.75,32.082 158.16,80.754 43.05,50.59 85.19,101.949 128.05,152.688 29.26,34.64 53.14,71.171 64.42,116.609 15.78,63.57 36.99,125.191 100.51,160.172 10.92,6.008 18.13,19.139 26.42,29.489 15.07,18.86 23.36,39.85 20.82,64.76 -1.35,13.21 0.75,26.75 -0.42,39.99 -4.55,51.68 7.93,99.08 33.66,143.65 9.89,17.14 18.37,35.09 31.93,61.22 2.43,-18.73 3.75,-28.92 5.08,-39.09 -2.33,-11.36 -2.97,-23.42 -7.3,-33.96 -19.52,-47.39 -17.96,-90.8 6.67,-138.31 31.35,-60.46 1.13,-156.23 -60.81,-200.331 -31.68,-22.559 -45.9,-43.77 -33.33,-82.93 8.75,-27.238 -1.67,-42.699 -28.84,-55.41 -13.38,-6.27 -28.01,-9.867 -44.91,-15.629 -2.99,-9.66 -11.76,-22.352 -8.75,-30.852 15.97,-44.937 -4.59,-73.546 -33.85,-92.437 -10.07,-42.789 -15.91,-80.449 -28.03,-115.961 -16.65,-48.801 -64.65,-29.32 -96.46,-37.262 -19.86,-24.078 -37.41,-45.379 -54.62,-66.258 -24.31,7.34 -42.94,12.981 -65.7,19.852 -10.46,-18.223 -21.72,-34.41 -29.57,-52.121 -34.12,-76.879 -85.53,-100.18 -164.97,-73.141 -11,3.75 -21.55,8.879 -32.27,13.469 -29.38,12.57 -55.52,5.961 -78.31,-14.648 -17.3,-15.641 -32.4,-33.77 -50.08,-48.903 -56.76,-48.539 -120.34,-72.429 -193.4,-42 -23.86,9.942 -43.92,28.992 -68.39,45.711 -18.15,-6.008 -38.64,-12.117 -58.6,-19.609 -30.1,-11.289 -58.44,-9.692 -85.74,7.988 -6.95,4.512 -14.82,7.613 -22.31,11.274 -34.12,16.687 -67.33,17.859 -98.29,-7.071 -26.69,-21.5 -56.05,-26.929 -89.11,-18.531 -10.84,2.75 -22.73,2.102 -34.11,1.828 -31.57,-0.738 -60.87,7.07 -78.58,33.942 -17.2,26.109 -39.38,32.55 -68.06,31.46 -38.3,-1.441 -76.74,0.559 -114.99,-1.332 -47.33,-2.339 -79.37,16.262 -98.98,60.051 -14.94,33.379 -32.65,65.641 -50.94,97.36 -23.04,39.972 -55.48,70.421 -98.45,88.82 -10.72,4.59 -20.5,11.762 -31.51,15.16 -59.54,18.391 -83.98,63.27 -87.7,120.59 -3.78,58.101 -28.68,98.101 -79.02,129.371 -82.76,51.422 -106.71,120.461 -81.51,209.41"
         style="fill:#d1d1d1;fill-opacity:1;fill-rule:nonzero;stroke:none"
         id="path4234"
         inkscape:connector-curvature="0" /><path
         d="m 3088.77,1842.41 c -1.17,10.51 -2.43,21.88 -4.25,38.21 28.48,28.44 58.53,58.46 94.37,94.26 19.3,83.88 19.3,83.88 110.14,105.3 18.47,26.18 17.39,65.38 53.55,84.3 36.03,18.84 64.28,-4.72 103.15,-9.59 11.69,8.05 29.41,17.35 43.43,30.57 22.13,20.86 46.96,31.46 76.91,28.53 47.81,-4.69 89.83,5.04 117.46,45.73 37.95,6.17 71.39,7.42 105.59,-7.24 35.11,-15.04 70.98,-13.06 105.15,7.87 16.69,10.23 35.63,16.79 53.29,24.9 9.62,-5.3 17.75,-8.1 23.74,-13.35 28.31,-24.85 61.65,-32.15 97.62,-27.48 53.67,6.96 90.18,-15.04 111.39,-63.47 11.25,-25.71 32.04,-37.36 57.42,-43.06 56.84,-12.76 95.64,-42.83 106.99,-103.57 2.45,-13.13 14.83,-24.5 23.1,-36.36 1.75,-2.5 5.62,-3.45 8.38,-5.29 94.39,-63.29 96.99,-79.93 111.12,-182.32 2.18,-3.38 4.04,-8.6 7.71,-11.56 44.98,-36.22 64.26,-82.35 60,-140.43 -1.24,-16.89 3.73,-39.05 14.46,-51.14 35.12,-39.56 29.36,-83.73 17.23,-126.88 -9.87,-35.1 -10.02,-63.68 4.14,-99.72 23.6,-60.07 5.22,-105.95 -38.04,-143.17 -11.18,-9.62 -23.17,-18.29 -32.11,-25.29 0,-24.61 0,-45.62 0,-67.91 -17.09,-6.79 -32.16,-12.77 -51.81,-20.57 -2.36,-19.4 -4.9,-40.33 -7.75,-63.67 -7.5,-10.32 -16.25,-22.34 -23.92,-32.89 -10.71,-91.831 -15.47,-97.62 -89.07,-108.472 -12.09,-13.828 -24.96,-28.558 -38.26,-43.769 -14.79,4.473 -27.3,8.25 -42.08,12.723 -9.52,-6.622 -20.21,-14.051 -32.32,-22.473 1.28,-16.777 2.5,-32.848 4.01,-52.617 -12.28,-8.641 -25.51,-17.973 -40.25,-28.34 -44.07,8.887 -87.53,17.66 -135.55,27.359 -20.17,-15.98 -42.87,-35.019 -66.65,-52.59 -65.9,-48.691 -101.2,-48.793 -165.16,-1.921 -2.59,1.902 -6.07,2.601 -12.76,5.359 -12.94,-2.547 -29.05,-8.117 -45.21,-8.289 -21.27,-0.238 -44.88,-1.348 -63.41,7 -40,18.031 -73.85,15.57 -103,-15.699 -53.29,-6.102 -100.48,-3.43 -141.24,36.39 -10.97,10.711 -37.76,10.27 -56.13,7.438 -75.47,-11.641 -106.11,2.312 -140.06,70.871 -28.06,56.66 -63.81,103.172 -127.1,125.98 -36.81,13.27 -55.94,47.81 -58.35,86.58 -2.66,42.81 -22.27,70.05 -59.21,90.49 -44.24,24.48 -68.16,85.84 -60.69,138.21 4.12,28.9 4.88,58.26 0.14,88.45 6.26,13.38 12.52,26.76 20.22,43.25 -9.67,23.08 -19.85,47.36 -25.13,59.95 4.05,48.83 10.2,86.1 9.5,123.23 -1.03,54.08 29.07,93.79 57,133.84 15.97,22.9 39.04,40.03 40.62,71.72 0.35,6.9 13.47,13.17 21.68,20.62"
         style="fill:#fefefe;fill-opacity:1;fill-rule:nonzero;stroke:none"
         id="path4236"
         inkscape:connector-curvature="0" /></g></g></svg>