<?xml version="1.0" encoding="iso-8859-1"?>
<!-- Generator: Adobe Illustrator 18.0.0, SVG Export Plug-In . SVG Version: 6.00 Build 0)  -->
<!DOCTYPE svg PUBLIC "-//W3C//DTD SVG 1.1//EN" "http://www.w3.org/Graphics/SVG/1.1/DTD/svg11.dtd">
<svg version="1.1" id="Capa_1" xmlns="http://www.w3.org/2000/svg" xmlns:xlink="http://www.w3.org/1999/xlink" x="0px" y="0px"
	 viewBox="0 0 297 297" style="enable-background:new 0 0 297 297;" xml:space="preserve">
<g>
	<path d="M239.783,9.867c0-5.449-4.42-9.867-9.868-9.867H67.082c-5.449,0-9.868,4.418-9.868,9.867v17.989
		c0,2.962,2.401,5.363,5.363,5.363H234.42c2.962,0,5.363-2.401,5.363-5.363V9.867z"/>
	<path d="M246.2,49.336H50.8c-5.45,0-9.867,4.417-9.867,9.867v227.93c0,5.449,4.417,9.867,9.867,9.867h195.4
		c5.451,0,9.867-4.418,9.867-9.867V59.203C256.067,53.753,251.651,49.336,246.2,49.336z M82.83,96.482
		c0.239-0.298,0.551-0.688,0.794-1.01c-0.004-0.436-0.027-0.998-0.045-1.42c-0.134-3.193-0.333-8.021,2.852-12.409
		c3.209-4.416,7.881-5.724,10.972-6.59c0.396-0.111,0.923-0.258,1.326-0.386c0.24-0.339,0.532-0.782,0.752-1.114
		c1.781-2.699,4.471-6.777,9.707-8.479c1.419-0.463,2.925-0.698,4.474-0.698c3.25,0,6.068,1.043,8.127,1.805
		c0.442,0.163,1.04,0.386,1.473,0.523c0.435-0.138,1.032-0.36,1.474-0.523c2.058-0.762,4.876-1.805,8.128-1.805
		c1.548,0,3.055,0.235,4.477,0.698c5.233,1.701,7.924,5.779,9.703,8.479c0.22,0.332,0.512,0.775,0.75,1.114
		c0.407,0.128,0.933,0.274,1.331,0.386c3.091,0.866,7.762,2.174,10.967,6.588c3.188,4.388,2.987,9.218,2.854,12.411
		c-0.017,0.424-0.04,0.984-0.044,1.42c0.24,0.321,0.554,0.712,0.792,1.01c1.898,2.384,5.078,6.372,5.078,11.92
		c0,5.551-3.18,9.539-5.079,11.922c-0.238,0.297-0.551,0.691-0.791,1.012c0.003,0.432,0.025,0.996,0.042,1.418
		c0.135,3.195,0.336,8.026-2.854,12.415c-3.206,4.41-7.878,5.719-10.97,6.583c-0.396,0.11-0.922,0.258-1.329,0.388
		c-0.238,0.338-0.53,0.779-0.749,1.114c-1.779,2.698-4.469,6.774-9.706,8.476c-1.419,0.463-2.926,0.697-4.473,0.697
		c-3.253,0-6.071-1.042-8.129-1.802c-0.441-0.166-1.039-0.387-1.474-0.527c-0.433,0.141-1.03,0.361-1.473,0.527
		c-2.059,0.76-4.877,1.802-8.127,1.802c-1.549,0-3.055-0.234-4.478-0.697c-5.233-1.701-7.924-5.779-9.702-8.477
		c-0.221-0.334-0.511-0.775-0.752-1.115c-0.403-0.128-0.93-0.275-1.325-0.386c-3.092-0.865-7.766-2.173-10.972-6.586
		c-3.186-4.387-2.987-9.217-2.854-12.412c0.018-0.422,0.041-0.986,0.045-1.418c-0.243-0.32-0.555-0.715-0.794-1.012
		c-1.897-2.383-5.077-6.371-5.077-11.922C77.753,102.854,80.933,98.866,82.83,96.482z M148.89,246.952
		c-0.241,0.299-0.549,0.691-0.792,1.012c0.003,0.434,0.026,0.996,0.043,1.417c0.135,3.197,0.335,8.027-2.853,12.416
		c-3.206,4.412-7.877,5.719-10.971,6.586c-0.395,0.107-0.922,0.254-1.327,0.383c-0.24,0.34-0.531,0.785-0.75,1.115
		c-1.78,2.697-4.469,6.775-9.704,8.477c-1.422,0.463-2.929,0.698-4.477,0.698c-3.251,0-6.069-1.042-8.127-1.806
		c-0.439-0.163-1.038-0.383-1.473-0.523c-0.433,0.141-1.031,0.36-1.473,0.523c-2.059,0.764-4.875,1.806-8.127,1.806
		c-1.55,0-3.057-0.235-4.481-0.698c-5.232-1.701-7.922-5.779-9.699-8.477c-0.22-0.332-0.512-0.777-0.751-1.115
		c-0.405-0.129-0.931-0.275-1.327-0.383c-3.092-0.867-7.766-2.174-10.971-6.59c-3.188-4.385-2.987-9.215-2.854-12.412
		c0.018-0.421,0.041-0.983,0.046-1.418c-0.242-0.319-0.555-0.712-0.793-1.011c-1.899-2.383-5.079-6.371-5.079-11.921
		c0-5.55,3.18-9.538,5.079-11.92c0.238-0.298,0.551-0.69,0.793-1.012c-0.005-0.434-0.028-0.996-0.046-1.419
		c-0.133-3.193-0.334-8.022,2.851-12.411c3.21-4.415,7.882-5.723,10.973-6.588c0.397-0.11,0.924-0.258,1.328-0.387
		c0.24-0.339,0.532-0.781,0.75-1.114c1.78-2.698,4.47-6.774,9.705-8.478c1.421-0.463,2.928-0.697,4.478-0.697
		c3.252,0,6.068,1.043,8.127,1.805c0.441,0.162,1.04,0.385,1.473,0.523c0.435-0.139,1.033-0.361,1.473-0.523
		c2.058-0.762,4.876-1.805,8.127-1.805c1.548,0,3.055,0.234,4.48,0.699c5.231,1.701,7.921,5.777,9.701,8.476
		c0.219,0.333,0.511,0.775,0.751,1.114c0.405,0.129,0.933,0.276,1.329,0.387c3.092,0.865,7.763,2.173,10.968,6.586
		c3.187,4.389,2.988,9.219,2.854,12.413c-0.017,0.423-0.04,0.985-0.044,1.419c0.243,0.321,0.553,0.714,0.793,1.012
		c1.899,2.382,5.077,6.37,5.077,11.92C153.968,240.581,150.789,244.57,148.89,246.952z M235.077,194.328
		c-0.238,0.299-0.553,0.691-0.792,1.01c0.003,0.436,0.026,0.998,0.044,1.418c0.133,3.197,0.335,8.028-2.855,12.416
		c-3.205,4.412-7.878,5.72-10.971,6.584c-0.395,0.11-0.92,0.259-1.328,0.386c-0.239,0.338-0.531,0.782-0.749,1.117
		c-1.779,2.696-4.468,6.772-9.705,8.477c-1.42,0.461-2.928,0.695-4.477,0.695c-3.252,0-6.07-1.041-8.128-1.805
		c-0.44-0.161-1.037-0.384-1.472-0.524c-0.434,0.14-1.031,0.362-1.473,0.524c-2.058,0.764-4.875,1.805-8.126,1.805
		c-1.55,0-3.057-0.234-4.482-0.697c-5.231-1.702-7.921-5.78-9.699-8.477c-0.22-0.333-0.511-0.777-0.75-1.117
		c-0.404-0.125-0.931-0.273-1.327-0.384c-3.091-0.864-7.768-2.172-10.971-6.586c-3.186-4.388-2.988-9.217-2.855-12.414
		c0.018-0.42,0.042-0.982,0.046-1.418c-0.241-0.318-0.554-0.711-0.793-1.012c-1.898-2.381-5.077-6.367-5.077-11.92
		c0-5.548,3.179-9.536,5.077-11.92c0.239-0.297,0.552-0.688,0.793-1.01c-0.004-0.435-0.028-0.997-0.046-1.42
		c-0.133-3.194-0.332-8.023,2.853-12.411c3.207-4.415,7.883-5.723,10.972-6.588c0.397-0.11,0.924-0.258,1.327-0.385
		c0.24-0.343,0.532-0.783,0.752-1.117c1.779-2.7,4.468-6.775,9.703-8.478c1.422-0.461,2.929-0.696,4.479-0.696
		c3.251,0,6.068,1.042,8.126,1.805c0.441,0.162,1.039,0.384,1.473,0.524c0.435-0.14,1.032-0.361,1.472-0.524
		c2.058-0.763,4.876-1.805,8.127-1.805c1.55,0,3.058,0.235,4.482,0.696c5.233,1.702,7.924,5.777,9.703,8.478
		c0.218,0.334,0.51,0.774,0.749,1.117c0.408,0.127,0.933,0.274,1.33,0.385c3.093,0.865,7.764,2.173,10.968,6.586
		c3.188,4.39,2.986,9.219,2.854,12.413c-0.018,0.423-0.041,0.985-0.045,1.42c0.239,0.321,0.554,0.713,0.792,1.01
		c1.899,2.384,5.077,6.372,5.077,11.92C240.154,187.959,236.977,191.947,235.077,194.328z"/>
</g>
<g>
</g>
<g>
</g>
<g>
</g>
<g>
</g>
<g>
</g>
<g>
</g>
<g>
</g>
<g>
</g>
<g>
</g>
<g>
</g>
<g>
</g>
<g>
</g>
<g>
</g>
<g>
</g>
<g>
</g>
</svg>
