<?xml version="1.0" encoding="UTF-8" standalone="no"?>
<!-- Created with Inkscape (http://www.inkscape.org/) -->

<svg
   xmlns:dc="http://purl.org/dc/elements/1.1/"
   xmlns:cc="http://creativecommons.org/ns#"
   xmlns:rdf="http://www.w3.org/1999/02/22-rdf-syntax-ns#"
   xmlns:svg="http://www.w3.org/2000/svg"
   xmlns="http://www.w3.org/2000/svg"
   xmlns:sodipodi="http://sodipodi.sourceforge.net/DTD/sodipodi-0.dtd"
   xmlns:inkscape="http://www.inkscape.org/namespaces/inkscape"
   version="1.1"
   id="svg4295"
   xml:space="preserve"
   width="628"
   height="414.66666"
   viewBox="0 0 628 414.66666"
   sodipodi:docname="dustbunny.svg"
   inkscape:version="0.92.3 (2405546, 2018-03-11)"><metadata
     id="metadata4301"><rdf:RDF><cc:Work
         rdf:about=""><dc:format>image/svg+xml</dc:format><dc:type
           rdf:resource="http://purl.org/dc/dcmitype/StillImage" /><dc:title></dc:title></cc:Work></rdf:RDF></metadata><defs
     id="defs4299" /><sodipodi:namedview
     pagecolor="#ffffff"
     bordercolor="#666666"
     borderopacity="1"
     objecttolerance="10"
     gridtolerance="10"
     guidetolerance="10"
     inkscape:pageopacity="0"
     inkscape:pageshadow="2"
     inkscape:window-width="855"
     inkscape:window-height="493"
     id="namedview4297"
     showgrid="false"
     inkscape:zoom="0.56913185"
     inkscape:cx="314"
     inkscape:cy="207.33333"
     inkscape:window-x="0"
     inkscape:window-y="0"
     inkscape:window-maximized="0"
     inkscape:current-layer="g4303" /><g
     id="g4303"
     inkscape:groupmode="layer"
     inkscape:label="ink_ext_XXXXXX"
     transform="matrix(1.3333333,0,0,-1.3333333,0,414.66667)"><g
       id="g4305"
       transform="scale(0.1)"><path
         d="m 2910.31,3110 c 599.73,0 1199.46,0 1799.69,0 0,-1035.74 0,-2071.47 0,-3110 -1302.96,0 -2606.44,0 -3909.91,0 11.492,4.82031 22.57,11.7422 34.551,14.1211 84.347,16.8203 161.621,48.8711 227.619,103.8089 96.48,-43.68 252.41,-13.711 296.01,108.449 103.5,-36.149 200.27,-42.367 261.68,72.781 144.73,-95.34 294.93,-101.031 451.06,-41.84 32.44,-40.84 68.7,-63.129 114.73,-32.531 26.84,-8.488 50.37,-15.93 67.85,-21.449 116.35,-130.0783 228.6,-120.6017 337.36,-5.301 17.59,-8.359 30.69,-14.598 43.25,-20.578 16.27,7.719 31.12,14.769 45.98,21.809 47.01,3.859 96.27,0.179 128.18,42.992 151.12,-116.391 251.61,-47.481 354.69,72.797 36.77,-8.789 74.68,-12.399 107.14,15.882 25.95,22.61 51.48,45.719 77.39,68.789 84.01,1.918 156.91,26.129 204.64,108.329 11.81,-7.387 27.93,-11.598 31.16,-20.5 12.75,-35.149 43.59,-42.137 74.17,-52.629 7.95,-19.469 12.71,-41.489 24.8,-58.239 16.9,-23.41 35.46,-51.902 60.03,-62.242 56.62,-23.801 117.08,-11.551 174.98,2.391 49.97,12.019 98.91,28.289 148.45,42.148 4.29,1.211 9.67,-1.508 4.64,-0.578 33.85,-28.441 60.88,-51.16 84.38,-70.91 40.35,10.18 71.19,20.25 101.77,-5.82 9.66,-8.231 30.18,-4.59 45.76,-4.899 56.61,-1.14 98.68,32 142.17,61.5 9.45,6.41 17.7,15.571 28,19.598 46.68,18.25 96.35,30.492 140.3,53.68 55.34,29.211 65.7,88.429 35.27,135.613 -6.66,10.328 -16.18,18.816 -27.14,31.308 58.51,32.68 69.41,84.372 58.65,139.079 -8.72,44.339 -22.13,89.582 -58.14,122.421 -35.04,18.829 -70.09,37.649 -106.01,56.942 -0.15,86.297 -16.45,103.708 -101.75,106.598 -67.85,89.91 -125.23,109.34 -234.64,79.43 -8.22,-0.4 -16.45,-0.8 -24.68,-1.2 -16.49,25.56 -32.98,51.13 -43.75,67.81 0,51.27 1.75,94.4 -0.4,137.35 -3.43,68.9 -29.97,125.28 -93.86,159.61 -9.49,5.1 -16.24,15.26 -24.26,23.08 34.33,73.43 3.63,144.34 -55.87,180.6 -26.45,16.1 -37.98,37.2 -27.01,70.68 12.33,37.65 -6.86,75.46 -43.12,96.7 -9.48,5.55 -19.84,9.6 -27.69,13.33 19.2,42.21 41.19,80.07 53.66,120.84 13.16,43.03 14.35,88.1 -29.52,119.41 -23.63,38.41 -62.62,30.23 -98.11,31.92 -19.02,0.9 -38.12,0.16 -64.09,0.16 9.97,71.63 -24.38,131.07 -20.19,196.38 1.78,27.77 -13.94,50.63 -39.89,56.1 -46.98,9.89 -61.21,39.74 -59.7,90.49 -27.1,10.39 -55.14,21.15 -83.19,31.9 -7.82,0.47 -14.76,6.05 -17.95,13.28 -7.85,17.86 -14.13,36.43 -20.77,54.81 -18.65,51.65 -48.11,73.3 -103.83,75.11 -21.54,0.7 -43.12,0.12 -66.38,0.12 -20.06,54.73 -65.28,78.9 -117.72,93.01 44.7,83.03 18.51,142.69 -70.61,157.72 -29.68,5.01 -62.33,-2.36 -92.73,-8.47 -24.72,-4.98 -48.11,-16.52 -74.13,-25.88 10.74,36.6 20.04,68.46 29.44,100.29 20.35,68.84 17.01,130.43 -52.41,171.9"
         style="fill:#ffffff;fill-opacity:1;fill-rule:nonzero;stroke:none"
         id="path4307"
         inkscape:connector-curvature="0" /><path
         d="m 0,410 c 0,899.19 0,1798.38 0,2700 953.438,0 1906.87,0 2860.31,0 -15.5,-10.21 -29.95,-22.77 -46.67,-30.25 -98.85,-44.22 -185.52,-102.93 -242.78,-197.95 -3.43,19.07 -7.43,38.06 -10.15,57.23 -3.42,24.21 -3.77,49.02 -9.07,72.76 -7.73,34.64 -29.32,61.43 -64.54,67.69 -40.92,7.27 -85.92,10.47 -113.25,-30.03 -43.78,-64.87 -85.28,-131.41 -124.68,-199.02 -13.52,-23.18 -17.87,-51.7 -27.45,-80.97 -57.83,35.89 -104.9,25.45 -143.5,-27.1 -89.77,65.66 -187.56,97.44 -293.22,65.39 -102.83,-31.19 -182.18,-97.58 -229.41,-196.27 -57.47,0.83 -102.25,-21.33 -141.43,-59.39 -65.27,63.55 -142.72,94.62 -233.88,87.86 -31.35,-2.32 -63.23,-3.13 -93.77,-9.74 -58.58,-12.71 -113.58,-38.41 -152.737,-83.2 -48.632,-55.62 -89.562,-118.07 -89.496,-195.76 -11.66,-8.27 -20.785,-14.75 -29.918,-21.24 -67.964,-10.06 -105.863,-51.6 -121.843,-116.19 -0.364,-1.47 -1.817,-2.68 -2.766,-4.01 -54.699,13.45 -107.16,38.78 -166.742,21.23 -40.18,-11.84 -85.016,-8.56 -119.578,-38.03 -23.75,-20.26 -49.586,-38.66 -70.477,-61.56 -81.14,-88.93 -96.39,-197.78 -84.152,-311.4 3.465,-32.16 25.012,-62.37 38.035,-92.93 -15.715,-9.34 -29.238,-15.91 -41.106,-24.72 -38.351,-28.48 -64.386,-93.37 -53.582,-132.37 9.047,-32.67 18.743,-65.15 28.043,-97.34 C 134.984,1440.63 90.4414,1381.91 68.832,1300.74 45.9922,1214.96 62.457,1142.9 135.605,1086.28 104.379,1017.42 71.0781,950.398 128.047,894.531 134.438,842.121 139.59,799.879 144.453,760 80.8086,687.59 39.1992,611.809 77.2422,512.77 49.2109,486.309 17.8945,461.082 10.9258,418.77 10.3594,415.34 3.78516,412.898 0,410"
         style="fill:#ffffff;fill-opacity:1;fill-rule:nonzero;stroke:none"
         id="path4309"
         inkscape:connector-curvature="0" /><path
         d="m 2680.18,199.27 c -14.86,-7.04 -29.71,-14.09 -45.98,-21.809 -12.56,5.98 -25.66,12.219 -43.25,20.578 -108.76,-115.3007 -221.01,-124.7773 -337.36,5.301 -17.48,5.519 -41.01,12.961 -67.85,21.449 -46.03,-30.598 -82.29,-8.309 -114.73,32.531 -156.13,-59.191 -306.33,-53.5 -451.06,41.84 C 1558.54,184.012 1461.77,190.23 1358.27,226.379 1314.67,104.219 1158.74,74.25 1062.26,117.93 996.262,62.9922 918.988,30.9414 834.641,14.1211 822.66,11.7422 811.582,4.82031 800.09,0 776.754,0 753.414,0 730.078,0 719.906,28.7109 694.836,17.8398 675.293,19.8711 561.055,31.7188 453.188,55.6406 386.699,167.32 c -37.535,-25.23 -76.57,-30.91 -121.25,-14.898 -47.847,17.16 -61.074,55.09 -67.097,88.418 -44.293,10.148 -81.653,18.711 -119.0082,27.269 4.1914,7.571 8.3789,15.153 12.5703,22.731 51.1559,-18.899 99.4529,-8.891 152.0779,25.969 0,-28.079 1.457,-44.911 -0.293,-61.387 -3.926,-36.981 3.864,-50.84 37.309,-66 42.199,-19.113 73.316,-2.133 100.765,28.879 24.793,5.301 35.274,-9.492 44.942,-29.16 10.066,-20.493 19.043,-46.461 36.449,-57.461 53.152,-33.5589 109.164,-63.8519 175.496,-62.3597 32.758,-3.8984 65.578,-7.2695 98.242,-11.7812 107.653,-14.8907 199.575,22.4414 281.968,87.1909 35.32,27.75 33.49,30.071 77.88,9.411 51.59,-24.012 153.36,-4.309 190.07,38.781 11.21,13.148 16.98,30.949 23.54,43.379 -16.17,24.07 -29,43.199 -41.83,62.32 3.14,3.961 6.29,7.899 9.44,11.848 15.53,-5.637 32.23,-9.219 46.38,-17.289 51.7,-29.442 105.15,-50 166.23,-43.25 51.69,5.711 87.12,38.871 89.67,90.281 1.72,34.711 3.81,71.309 -5,104.187 -12.5,46.641 8.8,78.5 30.47,114.442 17.02,-5.649 31.53,-10.449 55.94,-18.539 -3.4,28.027 -2.51,49.699 -9.34,68.597 -6.51,18.032 -21.05,33.192 -32.06,49.614 2.67,3.679 5.33,7.367 7.99,11.047 18.75,-2.989 37.99,-4.219 56.13,-9.34 38.82,-10.957 73.23,2.711 102.74,22.89 61.23,41.86 61.57,121.352 4.05,170.723 -14.26,12.227 -38.06,19.059 -25.29,48.938 27.24,10.339 57.55,19.199 85.37,33.082 30.51,15.23 42.71,43.82 44.51,73.908 -24.21,13.44 -47.45,23.03 -66.58,37.92 -19.19,14.94 -34.28,35.15 -49.55,51.33 -119.02,-17.33 -158.65,32.97 -127.57,155.42 -12.94,17.64 -25.56,34.86 -32.3,44.06 -31.92,4.75 -55.63,8.3 -79.34,11.83 -26.87,16.26 -39.94,42.24 -49.68,70.56 6.4,40.6 12.81,81.21 19.68,124.74 -8.04,4.82 -19.74,10.89 -30.44,18.38 -61.33,42.93 -73.41,106.15 -31.8,168.47 9.16,13.71 20.87,25.71 31.4,38.5 -0.13,9.67 3.21,21.32 -0.98,28.67 -21.64,37.91 -21.91,78 -14.64,118.81 4.26,23.98 11.38,47.44 17.22,71.13 2.92,3.63 5.85,7.25 8.77,10.87 72.63,53.82 145.04,56.34 217.17,-0.97 -1.99,-18.53 34.38,-31.34 9.8,-55.09 -83.66,72.64 -132.97,83.71 -183.22,35.24 -17.19,-16.57 -25.17,-45.36 -31.42,-70.07 -15.11,-59.7 12.49,-105.6 64.05,-145.39 -28.05,-10.28 -47.06,-17.24 -66.06,-24.2 -36.17,-28.03 -52.01,-65.36 -35.18,-107.85 14.02,-35.37 42.86,-57.56 85.38,-50.98 12.55,-2.88 25.1,-5.76 49.5,-11.36 -25.75,-18.81 -40.05,-29.26 -59.62,-43.55 -3.55,-21.18 -10.62,-46.86 -11.68,-72.76 -2.62,-64.43 31.92,-87.57 92,-63.75 14.34,5.68 28.46,11.94 48,20.17 1.33,-26.46 2.31,-45.75 3.18,-63.05 12.47,-10.9 23.31,-20.37 34.79,-30.38 -8.79,-24.54 -17.68,-46.02 -24.13,-68.21 -7.05,-24.29 -0.85,-45.65 18.3,-63.39 17.68,-16.37 37.2,-12.99 55.97,-5.35 13.46,5.47 24.84,15.86 37.84,22.73 9,4.75 19.2,7.25 31.54,11.72 3.77,-23.34 2.43,-43.3 10.55,-58.07 9.55,-17.39 25.2,-38.13 42.16,-42.69 14,-3.75 35.34,11.81 50.39,22.91 9.9,7.31 14.39,21.91 21.31,33.25 7.94,-0.43 15.88,-0.86 25.25,-1.38 7.84,-31.19 8.49,-65.85 36.22,-73.82 53.12,-6 52.56,44.43 82.11,57.29 17.52,-29.65 16.2,-47.87 -9.97,-67.42 -15.19,-11.34 -36.54,-24.35 -52.96,-21.94 -27.02,3.97 -52.28,19.86 -81.35,32 -7.59,-71.578 -19.94,-145.25 -103.72,-174.219 75.01,-156.941 33.72,-237.082 -142.71,-275.531 17.11,-73.918 -27.3,-107.91 -93.34,-123.988 3.82,-26.821 10,-47.942 9.21,-68.793 -2.45,-63.977 28.95,-99.457 88.91,-113.579 91.09,-43.808 185.16,-47.371 280.72,-18.511 33.85,10.23 66.31,25.09 98.89,37.633 24.14,-52.711 24.14,-52.711 53.17,-66.891 13.84,6.199 28.73,12.871 42.5,19.031 29.28,-11.152 56.79,-21.621 86.82,-33.062 32.81,-58.219 83.72,-92.758 155.16,-92.52 74.28,0.262 110.1,58.09 154.68,109.18 12.21,-7.141 22.78,-14.07 34.01,-19.668 10.96,-5.461 22.59,-9.551 32.69,-13.742 14.35,16.48 24.92,28.621 36.44,41.851 19.39,-9.179 36.67,-17.359 55.67,-26.371 21.37,22.969 41.1,44.168 59.7,64.149 36.41,-25 69.02,-47.387 101.62,-69.778 12.16,-7.961 24.31,-15.922 42.95,-28.14 -59.32,-3.93 -89.74,44.757 -118.5,50.519 -47.66,-13.719 -80.27,-22.16 -112.16,-32.781 -11.68,-3.891 -21.65,-12.918 -32.4,-19.609"
         style="fill:#2a2627;fill-opacity:1;fill-rule:nonzero;stroke:none"
         id="path4311"
         inkscape:connector-curvature="0" /><path
         d="M 91.9141,290.84 C 87.7227,283.262 83.5352,275.68 79.3438,268.109 66.0586,281.551 51.9766,294.309 39.7031,308.621 25.6289,325.031 13.1641,342.809 0,360 c 0,16.672 0,33.332 0,50 3.78516,2.898 10.3594,5.34 10.9258,8.77 6.9687,42.312 38.2851,67.539 66.3164,94 -38.043,99.039 3.5664,174.82 67.2108,247.23 -4.863,39.879 -10.015,82.121 -16.406,134.531 -56.9689,55.867 -23.668,122.889 7.558,191.749 -73.148,56.62 -89.6128,128.68 -66.773,214.46 21.6094,81.17 66.152,139.89 151.359,171.95 -9.3,32.19 -18.996,64.67 -28.043,97.34 -10.804,39 15.231,103.89 53.582,132.37 11.868,8.81 25.391,15.38 41.106,24.72 -13.023,30.56 -34.57,60.77 -38.035,92.93 -12.238,113.62 3.012,222.47 84.152,311.4 20.891,22.9 46.727,41.3 70.477,61.56 34.562,29.47 79.398,26.19 119.578,38.03 59.582,17.55 112.043,-7.78 166.742,-21.23 -19.105,-28.1 -44.484,-13.6 -66.551,-7.69 -58.402,15.63 -115.195,10.34 -168.261,-15.44 -104.899,-50.96 -152.665,-141.87 -175.508,-252.47 -11.309,-54.73 -8.125,-103.86 18.304,-151.79 12.539,-22.75 27.387,-44.22 45.649,-73.4 -52.875,-28.54 -113.836,-51.21 -111.07,-126.54 8.371,-9.97 17.628,-20.99 27.671,-32.95 -18.906,-30.26 -4.808,-54.95 10.079,-79.52 1.3,-31.46 -19.481,-42.06 -45.129,-49.77 -18.512,-5.56 -36.161,-13.99 -54.188,-21.14 -54.281,-49.71 -74.4921,-114.13 -68.652,-184.27 2.222,-26.74 20.234,-56.88 39.969,-76.52 44.265,-44.05 46.535,-41.77 17.761,-99.35 -31.648,-63.319 -29.297,-80.73 21.817,-136.429 -13.61,-40.351 -12.895,-83.91 10.058,-127.633 17.242,-5.796 35.266,-11.859 53.926,-18.136 3.914,10.578 6.816,16.578 8.363,22.91 14.02,57.289 49.797,87.437 109.2,91.316 37.609,2.461 75,8.141 114.062,12.551 12.574,58.949 56.688,83.859 112.184,96.25 10.269,2.301 19.57,8.883 29.32,13.492 -1.024,3.91 -2.043,7.809 -3.07,11.719 -12.356,2.14 -24.711,4.24 -37.055,6.41 -92.531,16.22 -137.375,115.8 -88.043,195.25 20.668,33.28 47.34,59.92 83.461,76.11 19.293,8.65 38.844,16.71 59.976,25.77 -18.398,76.71 7.25,131.66 74.7,160.21 -3.59,40.3 -6.793,76.27 -9.996,112.24 29.789,47.91 63.336,89.92 127.421,89.85 55.512,-0.06 112.446,7.98 158.133,-42.58 23.069,97.81 84.679,127.63 173.859,113.44 -3.32,15.13 -4.52,23.3 -6.9,31.11 -37.67,123.26 -29.44,242.31 32.36,356.52 15.78,22.87 31.57,45.74 47.35,68.62 52.94,55.59 112.57,100.49 189.3,117.8 20.7,4.66 41.55,8.7 62.34,13.03 24.68,0 49.36,0 64.22,0 35.62,27.09 62.12,49.6 90.93,68.58 37.91,24.96 79.32,31.19 122.59,13.18 6.76,-6.15 13.52,-12.3 21.62,-19.66 -61.55,-26.39 -113.67,-59 -131.14,-126.78 -7.1,-1.84 -14.21,-3.67 -21.31,-5.51 -34.43,10.43 -68.75,29.41 -103.32,29.86 -209.34,2.75 -323.35,-152.73 -353.75,-314.89 -16.9,-90.19 7.12,-181.27 46.32,-265.83 -7.66,-17.44 -22.14,-19.98 -38.8,-17.79 -33.35,13.39 -66.86,29.34 -103.14,11.2 -49.07,-24.54 -67.99,-81.77 -47.98,-140.39 6.53,-19.09 21.84,-38.26 -3.58,-64.1 -11.9,13.1 -22.91,25.22 -33.926,37.32 -25.957,101.12 -86.406,111.83 -163.261,104.12 -84.977,-8.52 -115.622,-93.35 -79.735,-149.76 9.152,-14.38 14.399,-31.25 21.235,-46.53 -9.586,-6.46 -13.77,-11.71 -17.606,-11.47 -36.398,2.32 -64.477,-9.57 -82.133,-43.2 -19.621,-37.37 2.848,-62.31 23.074,-89.46 6.207,-8.33 5.067,-22.13 8.786,-41.04 -78.227,31.8 -127.758,0.57 -168.282,-51.94 -28.953,-37.51 -31.769,-83.87 -10.886,-116.35 25.898,-40.28 62.718,-43.45 105.125,-33.96 19.297,4.32 39.722,3.6 69.832,5.97 -18.192,-34.74 -30.633,-58.51 -43.996,-84.049 27.711,-16 48.648,-32.461 34.304,-64.961 -5.508,-0.289 -11.011,-0.559 -16.519,-0.84 -53,37.332 -83.547,40.738 -121.02,13.488 -35.359,-25.707 -38.969,-50.418 -19.496,-115.937 4.496,-15.129 4.356,-31.629 6.344,-47.5 -26.621,-4.403 -40.102,11.23 -48.496,32.988 -20.239,52.449 -52.442,50.922 -91.934,43.602 -9.762,-1.809 -19.312,-4.809 -29.097,-6.403 -60.208,-9.738 -82.411,-38.679 -75.684,-99.136 0.859,-7.723 1.922,-15.43 2.891,-23.192 -24.79,-16.359 -39.051,3.449 -55.684,11.192 -45.633,21.25 -76.121,14.378 -101.414,-28.762 -14.883,-25.399 -26.223,-53.738 -34.121,-82.16 -11.4768,-41.289 -2.559,-57.231 33.129,-83.27 9.851,-7.191 16.371,-18.949 29.769,-35.039 C 115.465,485.02 76.5313,478.07 52.4688,441.039 33.7617,400.211 36.4609,361.07 62.918,324.512 71.5742,312.559 82.1914,302.02 91.9141,290.84"
         style="fill:#2a2627;fill-opacity:1;fill-rule:nonzero;stroke:none"
         id="path4313"
         inkscape:connector-curvature="0" /><path
         d="m 0,360 c 13.1641,-17.191 25.6289,-34.969 39.7031,-51.379 12.2735,-14.312 26.3555,-27.07 39.6407,-40.512 37.3552,-8.558 74.7152,-17.121 119.0082,-27.269 6.023,-33.328 19.25,-71.258 67.097,-88.418 44.68,-16.012 83.715,-10.332 121.25,14.898 C 453.188,55.6406 561.055,31.7188 675.293,19.8711 694.836,17.8398 719.906,28.7109 730.078,0 487.832,0 245.582,0 0,0 0,119.98 0,239.988 0,360"
         style="fill:#ffffff;fill-opacity:1;fill-rule:nonzero;stroke:none"
         id="path4315"
         inkscape:connector-curvature="0" /><path
         d="m 2570.86,2881.8 c 57.26,95.02 143.93,153.73 242.78,197.95 16.72,7.48 31.17,20.04 46.67,30.25 16.67,0 33.33,0 50,0 69.42,-41.47 72.76,-103.06 52.41,-171.9 -9.4,-31.83 -18.7,-63.69 -29.44,-100.29 26.02,9.36 49.41,20.9 74.13,25.88 30.4,6.11 63.05,13.48 92.73,8.47 89.12,-15.03 115.31,-74.69 70.61,-157.72 52.44,-14.11 97.66,-38.28 117.72,-93.01 23.26,0 44.84,0.58 66.38,-0.12 55.72,-1.81 85.18,-23.46 103.83,-75.11 6.64,-18.38 12.92,-36.95 20.77,-54.81 3.19,-7.23 10.13,-12.81 17.95,-13.28 28.05,-10.75 56.09,-21.51 83.19,-31.9 -1.51,-50.75 12.72,-80.6 59.7,-90.49 25.95,-5.47 41.67,-28.33 39.89,-56.1 -4.19,-65.31 30.16,-124.75 20.19,-196.38 25.97,0 45.07,0.74 64.09,-0.16 35.49,-1.69 74.48,6.49 98.11,-31.92 -4.19,-7.41 -8.37,-14.81 -12.56,-22.22 -24.59,25.99 -54.77,34.64 -89.99,31.27 -30.41,-2.91 -61.06,-3.45 -95.59,-5.25 5.91,28.9 10.75,52.57 15.56,76.11 -14.15,13.02 -26.09,24.01 -38.97,35.87 2.99,13.26 5.74,25.44 8.31,36.79 -12.35,6.32 -23.5,12.04 -36.8,18.85 14.26,23.24 26.68,43.49 38.38,62.57 -26.67,42.43 -67.28,37.01 -105.81,41.43 1.58,26.56 3.01,50.41 4.39,73.85 -26.58,19.44 -48.03,28.28 -73.14,2.76 -7.73,-7.85 -23.28,-8 -35.26,-11.68 8.91,44.66 4.34,87.75 -12.39,130.25 -12.73,32.36 -34.3,53.75 -68.86,56.87 -37.96,3.41 -77.82,6.91 -98.25,-36.48 13.37,-62.77 13.25,-63.13 -24.12,-71.17 -1.26,15.61 -2.49,30.97 -3.4,42.2 -22.64,17.36 -54.6,-14.74 -68.37,21.53 18.46,31.68 76.88,18.95 75.29,69.49 -33.22,45.75 -59.74,53.87 -115.94,40.8 -22.67,-5.27 -44.77,-25.57 -77.2,-3.52 9.97,12.72 17.49,26.1 28.44,35.48 20.13,17.23 44.09,30.2 63.15,48.39 30.87,29.46 26.74,59.44 -10.44,80.67 -13.84,7.92 -30.88,12.16 -46.93,13.95 -42.81,4.78 -82.69,-7.66 -119.45,-28.29 -34.69,-19.46 -67.34,-42.57 -101.76,-62.56 -18.49,-10.74 -39.48,-27.94 -61.55,7.02 51.54,32.78 91.92,74.86 109.3,131.75 16.49,53.94 43.85,108.95 8.95,174.58 -25.3,-4.26 -52.52,-3.79 -75.38,-13.53 -111.46,-47.49 -212.92,-108.41 -270.38,-222.14 -0.32,18.34 -0.63,36.67 -0.94,55"
         style="fill:#2c2829;fill-opacity:1;fill-rule:nonzero;stroke:none"
         id="path4317"
         inkscape:connector-curvature="0" /><path
         d="m 3850.01,2048.94 c 4.19,7.41 8.37,14.81 12.56,22.22 43.87,-31.31 42.68,-76.38 29.52,-119.41 -12.47,-40.77 -34.46,-78.63 -53.66,-120.84 7.85,-3.73 18.21,-7.78 27.69,-13.33 36.26,-21.24 55.45,-59.05 43.12,-96.7 -10.97,-33.48 0.56,-54.58 27.01,-70.68 59.5,-36.26 90.2,-107.17 55.87,-180.6 -7.1,-13.64 -14.2,-27.29 -21.3,-40.93 -26.72,-48.79 -80.93,-45.32 -125.91,-65.01 -0.72,-10.57 -1.49,-21.72 -2.26,-32.87 -1.08,-25.6 -2.16,-51.2 -3.25,-76.81 -11.03,-2.55 -22.06,-5.11 -34.29,-7.95 -7.57,-37.57 -21.75,-68.31 -62.36,-66.13 -26.46,-46.98 -26.3,-110.48 -78.09,-127.92 -44.47,-14.97 -96.36,-7.92 -150.53,-10.92 -5.05,-9.69 -13.42,-25.75 -21.79,-41.81 -36.45,-44.5 -88.84,-38.539 -135.45,-40.898 -36.39,-41.274 -37.56,-95.032 -5.58,-143.614 28.13,-42.75 68.72,-64.976 117.71,-77.078 30.98,-7.66 67.06,-6.5 88.62,-36.16 -15.06,-122.75 -15.06,-122.75 11.42,-157.43 15.36,1.7 30.72,3.442 43.23,4.852 5.65,-28.231 10.43,-52.063 14.89,-74.281 23.03,-3.5 38.94,-5.911 54.68,-8.301 10.34,-26.129 18.17,-51.051 29.78,-74.039 17.35,-34.332 41.77,-55.199 85.7,-53.371 62.97,2.621 124.53,7.691 182.91,33.218 38.54,10.012 77.08,20.032 112.54,29.243 19.68,-27.289 34.82,-48.282 53.38,-74.032 25.62,8.442 49.6,16.352 73.59,24.25 9.7,-5.539 23.49,-8.679 28.37,-17.039 17.87,-30.55 42.78,-33.601 72.38,-23.3 17.13,5.968 35.75,10.609 50.19,20.82 63.54,44.832 131.78,79.371 205.84,103.09 12.17,3.89 23.7,12.308 33.37,21.031 29.29,26.437 27.58,55.769 -3.93,79.078 -10.51,7.781 -22.14,14.063 -32.34,20.441 1.51,31.79 1.51,31.79 32.46,54.829 45.1,33.562 51.02,50.32 35.28,99.921 -4.78,71.008 -36.53,120.469 -109.33,137.622 -7.71,1.808 -14.83,6.168 -22.23,9.347 15.31,1.883 31.36,7.551 45.77,4.75 22.54,-4.398 43.98,-14.519 65.88,-22.219 36.01,-32.839 49.42,-78.082 58.14,-122.421 10.76,-54.707 -0.14,-106.399 -58.65,-139.079 10.96,-12.492 20.48,-20.98 27.14,-31.308 30.43,-47.184 20.07,-106.402 -35.27,-135.613 -43.95,-23.188 -93.62,-35.43 -140.3,-53.68 -10.3,-4.027 -18.55,-13.188 -28,-19.598 -43.49,-29.5 -85.56,-62.64 -142.17,-61.5 -15.58,0.309 -36.1,-3.332 -45.76,4.899 -30.58,26.07 -61.42,16 -101.77,5.82 -23.5,19.75 -50.53,42.469 -84.38,70.91 5.03,-0.93 -0.35,1.789 -4.64,0.578 -49.54,-13.859 -98.48,-30.129 -148.45,-42.148 -57.9,-13.942 -118.36,-26.192 -174.98,-2.391 -24.57,10.34 -43.13,38.832 -60.03,62.242 -12.09,16.75 -16.85,38.77 -24.8,58.239 -30.58,10.492 -61.42,17.48 -74.17,52.629 -3.23,8.902 -19.35,13.113 -31.16,20.5 -47.73,-82.2 -120.63,-106.411 -204.64,-108.329 -25.91,-23.07 -51.44,-46.179 -77.39,-68.789 -32.46,-28.281 -70.37,-24.671 -107.14,-15.882 -103.08,-120.278 -203.57,-189.188 -354.69,-72.797 -31.91,-42.813 -81.17,-39.133 -128.18,-42.992 10.75,6.691 20.72,15.718 32.4,19.609 31.89,10.621 64.5,19.062 112.16,32.781 28.76,-5.762 59.18,-54.449 118.5,-50.519 -18.64,12.218 -30.79,20.179 -42.95,28.14 129.35,-21.371 196.6,56.59 246.67,158.938 72.78,-52.758 75.59,-52.258 122.63,11.922 21.94,18.039 43.89,36.089 57.05,46.91 38.82,1.738 70.74,-2.84 98.52,5.847 39.8,12.454 79.66,35.102 84.48,82.301 4.97,48.692 1.1,98.289 1.1,148.5 -66.44,23.582 -135.24,33.903 -177.5,92.383 -42.62,59.008 -59.46,121.609 -18.33,194.469 -22.47,4.148 -40.05,6.879 -57.37,10.73 -21.41,4.758 -43.53,9.367 -44.94,38.049 14.33,1.56 29.12,6.13 42.92,4.08 34.48,-5.14 68.5,-13.35 102.73,-20.21 67.14,-13.462 95.38,2.82 117.13,66.4 4.51,13.21 11.34,25.64 17.71,39.75 27.33,-9.81 48.71,-19.18 70.99,-25.16 67.33,-18.07 93.34,-4.5 119.63,60.15 5.65,13.86 12.07,27.53 16.43,41.8 8.74,28.68 23.23,51.6 55.17,59 1.45,12.57 2.74,23.81 4.02,34.86 13.65,7.08 26.4,13.68 42.72,22.13 -2.82,33.28 -5.57,65.72 -8.82,104.06 17.17,1.52 33.09,2.06 48.72,4.45 35.83,5.5 73.35,6.26 98.68,39.46 48.02,62.93 35.39,129.44 -29.75,176.81 -29.17,21.22 -52.27,50.79 -79.71,78.15 20.47,15.02 34.56,25.36 47.43,34.8 -6.33,66.63 -65.42,52.29 -107.94,72.17 12.18,18.4 21.96,32.9 31.46,47.57 37.35,57.69 77.73,114.65 47.89,189.34"
         style="fill:#2a2627;fill-opacity:1;fill-rule:nonzero;stroke:none"
         id="path4319"
         inkscape:connector-curvature="0" /><path
         d="m 4154.39,1081.75 c 8.23,0.4 16.46,0.8 24.68,1.2 4.24,-4.5 8.47,-9.01 12.71,-13.52 -12.18,-11.52 -24.36,-23.04 -38.36,-36.31 99.78,-43.929 116.1,-60.909 154.9,-157.921 37.9,-15.41 69.13,-37.879 70.5,-84.961 -38.08,-9.218 -38.31,41.731 -69.5,45.602 -6.97,-12.852 -13.13,-24.219 -19.29,-35.578 -40.12,4.758 -25.59,37.519 -30.83,60.148 -12.21,91.41 -80.43,140.53 -170.92,123.75 -13.01,-2.41 -26.62,-1.558 -39.96,-2.219 -1.46,4.539 -2.93,9.09 -4.39,13.629 12.67,7.78 25.42,15.45 38,23.37 16.3,10.24 32.47,20.69 48.7,31.05 7.91,10.59 15.84,21.17 23.76,31.76"
         style="fill:#2c2829;fill-opacity:1;fill-rule:nonzero;stroke:none"
         id="path4321"
         inkscape:connector-curvature="0" /><path
         d="m 4154.39,1081.75 c -7.92,-10.59 -15.85,-21.17 -23.76,-31.76 -1.66,25.76 3.74,54.85 -29.89,65.71 -14.84,-9.35 -28.86,-18.2 -42.88,-27.05 -3.58,2.44 -7.17,4.89 -10.75,7.32 2.33,13.45 5.39,26.83 6.88,40.38 5.61,50.91 15.51,101.93 14.79,152.79 -0.94,65.91 -27.92,119.32 -97.96,139.53 7.1,13.64 14.2,27.29 21.3,40.93 8.02,-7.82 14.77,-17.98 24.26,-23.08 63.89,-34.33 90.43,-90.71 93.86,-159.61 2.15,-42.95 0.4,-86.08 0.4,-137.35 10.77,-16.68 27.26,-42.25 43.75,-67.81"
         style="fill:#2e2a2b;fill-opacity:1;fill-rule:nonzero;stroke:none"
         id="path4323"
         inkscape:connector-curvature="0" /><path
         d="m 4191.78,1069.43 c -4.24,4.51 -8.47,9.02 -12.71,13.52 109.41,29.91 166.79,10.48 234.64,-79.43 85.3,-2.89 101.6,-20.301 101.75,-106.598 35.92,-19.293 70.97,-38.113 106.01,-56.942 -21.9,7.7 -43.34,17.821 -65.88,22.219 -14.41,2.801 -30.46,-2.867 -45.77,-4.758 -8.98,-2.14 -17.96,-4.281 -26.94,-6.41 -2.86,18.699 -7.9,37.391 -8,56.11 -0.09,20.281 1.8,39.629 -20.08,51.98 -15.15,-4.562 -30.48,-9.18 -50.17,-15.121 -10.93,17 -23.39,32.191 -31.33,49.461 -25.23,54.859 -69.39,76.369 -127.05,76.269 -18.15,-0.03 -36.32,-0.2 -54.47,-0.3"
         style="fill:#2b2728;fill-opacity:1;fill-rule:nonzero;stroke:none"
         id="path4325"
         inkscape:connector-curvature="0" /><path
         d="m 270.063,1470.01 c -14.887,24.57 -28.985,49.26 -10.079,79.52 -10.043,11.96 -19.3,22.98 -27.671,32.95 -2.766,75.33 58.195,98 111.07,126.54 -18.262,29.18 -33.11,50.65 -45.649,73.4 -26.429,47.93 -29.613,97.06 -18.304,151.79 22.843,110.6 70.609,201.51 175.508,252.47 53.066,25.78 109.859,31.07 168.261,15.44 22.067,-5.91 47.446,-20.41 66.551,7.69 0.949,1.33 2.402,2.54 2.766,4.01 15.98,64.59 53.879,106.13 121.843,116.19 17.008,-6.03 31.52,-29.56 53.161,-6.31 13.16,115.78 61.562,218.19 174.84,258.41 131.26,46.6 267.39,56.82 366.42,-77.35 13.53,10.36 22.6,17.29 31.66,24.23 -0.95,-28.33 -20.29,-61.32 20.05,-79.2 -23.44,-6.7 -46.89,-13.4 -70.33,-20.11 -28.08,19.89 -55.14,41.48 -84.51,59.24 -37.29,22.56 -77.34,29.85 -120.83,12.76 9.76,-19.64 17.62,-35.45 25.48,-51.26 -6.65,-33.66 -13.31,-67.31 -19.96,-100.97 -3.46,-6.43 -6.91,-12.86 -10.37,-19.28 -17.74,-2.7 -35.47,-7.54 -53.22,-7.61 -29.03,-0.12 -56.41,-2.71 -73.84,-26.85 -20.89,-35.28 -41.78,-70.55 -62.668,-105.83 -28.019,-15.18 -52.375,-8.52 -78.211,8.35 -51.449,33.61 -62.336,30.65 -102.008,-18.16 -3.445,-20.72 -7.625,-41.36 -10.175,-62.19 -4.758,-38.86 -27.989,-58.43 -66.727,-56.29 -14.351,0.8 -28.836,-0.79 -43.258,-1.29 -12.457,6.46 -24.41,17.14 -37.453,18.7 -73.617,8.79 -148.972,-44.71 -166.047,-117.15 -2.316,-9.8 2.348,-21.25 3.778,-31.93 -6.633,-13.39 -13.27,-26.78 -19.907,-40.17 -8.488,-32.62 1.477,-61.83 15.032,-91.16 29.191,-63.15 19.297,-84.48 -32.922,-100.88 -43.852,-46.64 -78.871,-83.88 -112.172,-119.3 42.207,-85.61 39.98,-97.79 -17.324,-123.34 -18.297,5.17 -35.539,10.06 -52.785,14.94"
         style="fill:#d1d0d0;fill-opacity:1;fill-rule:nonzero;stroke:none"
         id="path4327"
         inkscape:connector-curvature="0" /><path
         d="m 1440.44,2528.99 c -9.06,-6.94 -18.13,-13.87 -31.66,-24.23 -99.03,134.17 -235.16,123.95 -366.42,77.35 -113.278,-40.22 -161.68,-142.63 -174.84,-258.41 -21.641,-23.25 -36.153,0.28 -53.161,6.31 9.133,6.49 18.258,12.97 29.918,21.24 -0.066,77.69 40.864,140.14 89.496,195.76 39.157,44.79 94.157,70.49 152.737,83.2 30.54,6.61 62.42,7.42 93.77,9.74 91.16,6.76 168.61,-24.31 233.88,-87.86 39.18,38.06 83.96,60.22 141.43,59.39 47.23,98.69 126.58,165.08 229.41,196.27 105.66,32.05 203.45,0.27 293.22,-65.39 38.6,52.55 85.67,62.99 143.5,27.1 9.58,29.27 13.93,57.79 27.45,80.97 39.4,67.61 80.9,134.15 124.68,199.02 27.33,40.5 72.33,37.3 113.25,30.03 35.22,-6.26 56.81,-33.05 64.54,-67.69 5.3,-23.74 5.65,-48.55 9.07,-72.76 2.72,-19.17 6.72,-38.16 10.15,-57.23 0.31,-18.33 0.62,-36.66 0.94,-55 -18.2,-58.96 -18.2,-58.96 -58.13,-46.51 4.6,30.22 12.78,60.94 13.14,91.76 0.53,44.27 2,90.33 -9.01,132.48 -14.17,54.27 -78.72,68.26 -114.46,29.14 -20.02,-21.92 -36.68,-46.9 -55.14,-70.27 -58.29,-73.79 -85.96,-159.77 -100.32,-251.1 -14.34,7.09 -28.88,13.82 -43,21.34 -17.06,9.1 -33.77,18.87 -53.84,30.15 -16.74,-16.06 -32.93,-27.84 -44.24,-43.22 -23.65,-32.16 -27.54,-70.06 -26.51,-109.07 0.48,-18.27 -2.53,-36.64 -4.83,-66.21 -23.86,21.24 -37.99,34.13 -52.45,46.63 -34.58,29.9 -73.49,37.46 -115.76,19.57 -64.39,-27.23 -106.73,-143.11 -75.33,-205.64 8.79,-17.49 23.68,-33.37 12.67,-47 -31.67,-9.69 -64.52,-10.17 -77.61,-26.49 -12.67,-15.8 -5.03,-47.9 -6.63,-79.02 -12.15,-0.7 -26.06,-1.52 -39.97,-2.33 -24.25,15.05 -27.74,-6.96 -32.64,-20.32 -5.3,-14.48 -6,-30.65 -8.61,-45.5 -23.64,-4.39 -28.32,9.1 -28.91,25.04 -0.66,17.92 0.32,35.91 0.59,53.87 17.47,67.78 69.59,100.39 131.14,126.78 -8.1,7.36 -14.86,13.51 -21.62,19.66 6.43,0.73 12.87,1.45 22.06,2.49 -13.14,86.95 23.02,155.6 77.63,217.38 31.35,9.2 62.77,25.75 94.05,25.5 30.35,-0.25 60.56,-17.75 92.61,-28.26 4.63,30.16 8.83,57.5 12.77,83.17 -84.81,77.19 -210.16,85.97 -288.24,48.3 -9.58,-4.62 -14.47,-18.96 -21.53,-28.79 -16.66,-5.09 -33.59,-9.45 -49.94,-15.39 -50.69,-18.41 -73.73,-61.95 -95.47,-106.5 -8.6,-16.54 -17.2,-33.06 -25.24,-48.52 -54.73,12.54 -104.79,24.71 -138.59,-30.93"
         style="fill:#2c2829;fill-opacity:1;fill-rule:nonzero;stroke:none"
         id="path4329"
         inkscape:connector-curvature="0" /><path
         d="m 1886.11,490.191 c 34.9,0.188 62.82,26.27 61.17,57.129 -1.58,29.59 -27.81,52.2 -60.9,52.481 -35.17,0.308 -55.32,-19.59 -55.39,-54.66 -0.07,-35.039 20.09,-55.153 55.12,-54.95 z m 917.96,1187.339 c -9.07,-42.2 14.51,-80.64 69.75,-117.02 56.23,28.18 80.06,69.56 63.02,117.02 -43.26,0 -88.25,0 -132.77,0 z m 466.11,598.06 c -0.25,51.34 -32.82,83.93 -84.17,84.23 -51.54,0.3 -84.62,-31.8 -85.46,-82.91 -0.89,-53.53 33.1,-87.55 86.63,-86.7 51.14,0.81 83.24,33.83 83,85.38 z M 2569.97,1160.08 c 51.01,-0.11 90.96,38.82 89.4,87.12 -1.53,47.23 -39.49,82.6 -88.76,82.72 -51.01,0.13 -90.97,-38.8 -89.43,-87.1 1.52,-47.04 39.71,-82.64 88.79,-82.74 z m -45.51,689.85 c -59.13,1.54 -92.17,-28.13 -94.1,-84.49 -2.02,-59.4 27.27,-92.94 83.22,-95.3 61.51,-2.6 95.56,28.02 96.63,86.91 1.08,58.93 -28.89,91.4 -85.75,92.88 z m 465.83,367.18 c -0.69,76.95 -63.08,141.16 -138.35,142.38 -76.36,1.23 -141.51,-65.04 -141.64,-144.1 -0.12,-79.26 64.3,-145.51 140.87,-144.86 77,0.66 139.85,66.87 139.12,146.58 z m 298.25,-419.22 c 46.95,3.32 88.54,6.65 121.57,36.83 82.78,75.67 81.68,212.7 -7.62,281.08 -58.06,44.46 -110.89,46.91 -164.78,5.1 -37.49,-29.08 -64.28,-66.6 -82.12,-110.74 -32.36,-80.06 38.65,-226.88 132.95,-212.27 z m 31.71,-215.62 c -1.66,82.27 -61.11,156.6 -155.33,155.43 -94.47,-1.18 -144.86,-63.3 -144.94,-160.48 -0.09,-106.03 62.61,-153.58 144.49,-154.82 96.18,-1.45 156.57,75.97 155.78,159.87 z m -1290.2,387.45 C 2017.99,1854.96 2129.32,1743.3 2270,1780 c 55.85,14.57 92.43,49.3 109.61,105.11 17.54,56.97 9.61,111.89 -10.69,165.96 -29.31,78.06 -121.92,125 -202.7,103.5 -86.19,-22.95 -135.33,-89.66 -136.17,-184.85 z M 2421.07,743.18 c 5.2,17.531 10.33,31.629 13.53,46.172 10.26,46.679 10.79,92.257 -16.91,134.367 -39.01,59.281 -125.6,100.351 -200.01,76.491 -73.33,-23.519 -130.99,-90.089 -137.06,-167.038 -5.9,-74.832 38.5,-142.801 111.57,-176.402 16.76,-7.719 29.99,-24.122 43.27,-38.02 10.2,-10.66 16.73,-24.852 26.98,-35.449 37.2,-38.492 95.09,-45.442 136.3,-17.473 47.75,32.402 65.4,89.281 42.85,139.992 -5.35,12.02 -12.65,23.16 -20.52,37.36 z m -70.8,728.02 c 5.28,109.37 -81.4,244.89 -242.73,246.64 -141.09,1.53 -247.13,-106.32 -247.8,-246.54 -0.68,-139.24 102.53,-248.85 245.23,-249.16 159.78,-0.35 251.42,134.08 245.3,249.06 z m -699.46,792.9 c -0.27,-17.96 -1.25,-35.95 -0.59,-53.87 0.59,-15.94 5.27,-29.43 28.91,-25.04 2.61,14.85 3.31,31.02 8.61,45.5 4.9,13.36 8.39,35.37 32.64,20.32 0.85,-14.4 1.71,-28.8 2.74,-46.01 16.2,-8.79 31.58,-17.13 46.96,-25.47 -0.2,-6.32 1.84,-13.92 -0.94,-18.75 -58.41,-101.54 14.99,-220.77 129.23,-211.62 78.75,6.31 131.2,56.92 131.86,137.93 0.7,84.92 -50.44,140.84 -131.08,142.79 -26.26,0.64 -52.56,0.14 -78.84,0.16 -0.73,22.1 11.84,33.08 31.71,38.04 14.45,3.6 29.13,6.51 43.27,11.07 63.56,20.5 126.75,41.73 137.05,122.12 0.2,1.6 1.14,3.09 1.71,4.65 10.82,29.83 30.73,45.56 63.84,44.25 15.62,-0.62 31.39,2.64 46.18,4.06 6.13,113.84 27.24,151.34 96.01,175.93 7.07,-1.94 14.14,-3.87 22.76,-6.23 -11.65,-22.89 -23.49,-41.35 -30.79,-61.45 -18.75,-51.63 -21.1,-105.18 0.56,-155.7 56.03,-130.73 209.48,-166.83 319.63,-74.71 98.39,82.3 91.01,239.46 -9.69,312.97 -68.11,49.72 -139.48,57.6 -216.42,21.8 -13.46,-6.26 -30.53,-4.77 -45.93,-6.85 -10.77,17.44 -21.54,34.87 -32.32,52.31 14.36,91.33 42.03,177.31 100.32,251.1 18.46,23.37 35.12,48.35 55.14,70.27 35.74,39.12 100.29,25.13 114.46,-29.14 11.01,-42.15 9.54,-88.21 9.01,-132.48 -0.36,-30.82 -8.54,-61.54 -13.14,-91.76 39.93,-12.45 39.93,-12.45 58.13,46.51 57.46,113.73 158.92,174.65 270.38,222.14 22.86,9.74 50.08,9.27 75.38,13.53 34.9,-65.63 7.54,-120.64 -8.95,-174.58 -17.38,-56.89 -57.76,-98.97 -109.3,-131.75 22.07,-34.96 43.06,-17.76 61.55,-7.02 34.42,19.99 67.07,43.1 101.76,62.56 36.76,20.63 76.64,33.07 119.45,28.29 16.05,-1.79 33.09,-6.03 46.93,-13.95 37.18,-21.23 41.31,-51.21 10.44,-80.67 -19.06,-18.19 -43.02,-31.16 -63.15,-48.39 -10.95,-9.38 -18.47,-22.76 -28.44,-35.48 32.43,-22.05 54.53,-1.75 77.2,3.52 56.2,13.07 82.72,4.95 115.94,-40.8 1.59,-50.54 -56.83,-37.81 -75.29,-69.49 13.77,-36.27 45.73,-4.17 68.37,-21.53 0.91,-11.23 2.14,-26.59 3.4,-42.2 37.37,8.04 37.49,8.4 24.12,71.17 20.43,43.39 60.29,39.89 98.25,36.48 34.56,-3.12 56.13,-24.51 68.86,-56.87 16.73,-42.5 21.3,-85.59 12.39,-130.25 11.01,-9.51 22.01,-19.01 33.22,-28.7 -1.36,-8.22 -1.04,-15.33 -3.76,-20.94 -6.53,-13.42 -14.27,-26.26 -21.91,-39.11 -25.84,-43.5 -23.18,-70.29 11.44,-107.55 9.06,-9.74 21.05,-17.38 27.97,-28.33 9.31,-14.76 20.22,-31.52 21.1,-47.92 1.46,-27.48 12.68,-46.83 31.38,-65.06 36.84,-35.93 35.85,-82.07 36.87,-125.77 -68.47,-39.77 -68.47,-39.77 -50.37,-114.91 7.84,-32.55 -5.41,-61.67 -38.75,-70.25 -26.44,-6.81 -55.36,-7.72 -82.81,-5.87 -27.74,1.87 -49.27,-3.92 -64.44,-27.55 -15.29,-23.79 -7.71,-46.21 9.66,-63.53 17.37,-17.32 38.48,-31.02 58.57,-45.44 40.39,-28.97 84.05,-54.14 121.02,-86.91 34.68,-30.72 26.63,-61.84 -16.33,-80.26 -25.82,-11.08 -47.33,-24.17 -54.23,-53.35 -40.61,-7.71 -75.76,-27.28 -109.4,-50.17 -59.81,35.48 -98.47,18.22 -108.89,-48.71 -0.77,-4.88 -1.03,-9.88 -1.16,-14.83 -1.34,-52.01 -21.32,-92.79 -69.93,-116.38 -50.78,0 -101.55,0 -156.28,0 0.63,-35.61 -36.63,-56.07 -13.35,-89.52 -19.45,-34.56 -13.3,-67.47 11.58,-95.231 25.39,-28.328 58.86,-41.949 97.55,-33.297 7.84,1.75 13.77,11.918 20.59,18.219 6.6,-10.102 13.2,-20.192 19.8,-30.289 6.58,-36.524 13.15,-73.043 19.73,-109.582 -3.15,-3.399 -6.3,-6.801 -9.44,-10.211 -37.2,2.261 -74.4,4.531 -113.87,6.929 -2.2,7.461 -5,15.114 -6.69,22.992 -14.61,68.051 -51.24,120.442 -106.35,163.27 -54.05,42.01 -114.36,50.03 -179.02,46.84 -182.88,-9.04 -264.29,-159.57 -248.46,-304.41 12.86,-117.59 87.88,-194.289 204.45,-225.848 -0.2,-3.223 -0.39,-6.441 -0.57,-9.66 -59.95,-21.793 -120.79,-26.684 -183.37,-12.09 -33.35,7.77 -48.44,-1.352 -62.93,-33.172 -5.84,-12.82 -11.68,-25.64 -16.77,-36.801 -33.56,10.52 -65.37,31.743 -88.64,24.719 -24.57,-7.418 -41.01,-41.789 -62.61,-66.187 -57.59,11.711 -84.38,56.711 -106.45,109.179 -19.88,0 -38.84,0 -55.02,0 -36.72,-41.269 -60.71,-90.261 -118.06,-102.371 -60.6,9.84 -60.17,9.492 -101.87,-41.097 -8.02,-9.723 -19.87,-19.293 -31.67,-22.403 -57.82,-15.199 -116.21,-28.187 -174.4,-41.969 -59.96,14.122 -91.36,49.602 -88.91,113.579 0.79,20.851 -5.39,41.972 -9.21,68.793 66.04,16.078 110.45,50.07 93.34,123.988 176.43,38.449 217.72,118.59 142.71,275.531 83.78,28.969 96.13,102.641 103.72,174.219 29.07,-12.14 54.33,-28.03 81.35,-32 16.42,-2.41 37.77,10.6 52.96,21.94 26.17,19.55 27.49,37.77 9.97,67.42 -29.55,-12.86 -28.99,-63.29 -82.11,-57.29 -27.73,7.97 -28.38,42.63 -36.22,73.82 -9.37,0.52 -17.31,0.95 -25.25,1.38 -9.48,12.73 -17.88,26.47 -28.71,37.93 -13.09,13.83 -28.23,25.72 -39.51,35.8 10.64,70.36 12.77,102.2 -86.55,95.82 -15.82,24.29 -32.74,50.27 -44.76,68.73 -2.84,30.92 -4.87,53.11 -6.72,73.31 -41.4,19.87 -79.52,-28.84 -118.21,11.54 23.86,37.13 49.13,76.43 77.85,121.1 -20.11,10 -34.85,19.79 -51.06,24.92 -44.55,14.07 -48.76,23.71 -27.03,61.96 24.01,10.87 51.83,15.14 63.29,31.13 10.15,14.16 2.12,41.36 2.12,64.73 20.27,2.69 41.17,5.47 60.18,7.99 7.43,30.47 13.07,57.8 20.8,84.52 18.83,65.12 3.48,91.81 -65.14,110.64 -72.13,57.31 -144.54,54.79 -217.17,0.97 9.61,43.09 21.15,85.88 27.66,129.43 1.97,13.21 -6.19,34.73 -16.64,41.12 -10.69,6.54 -30.96,2.14 -45.01,-3.01 -11.42,-4.19 -19.85,-16.55 -29.6,-25.28 6.29,45.78 57.5,91.59 105.6,95.81 44.46,3.91 73.86,25.74 97.54,60.07 7.1,1.84 14.21,3.67 21.31,5.51"
         style="fill:#a9a8a8;fill-opacity:1;fill-rule:nonzero;stroke:none"
         id="path4331"
         inkscape:connector-curvature="0" /><path
         d="m 52.4688,441.039 c 24.0625,37.031 62.9962,43.981 113.9802,49.332 -13.398,16.09 -19.918,27.848 -29.769,35.039 -35.688,26.039 -44.6058,41.981 -33.129,83.27 7.898,28.422 19.238,56.761 34.121,82.16 25.293,43.14 55.781,50.012 101.414,28.762 16.633,-7.743 30.894,-27.551 55.684,-11.192 -0.969,7.762 -2.032,15.469 -2.891,23.192 -6.727,60.457 15.476,89.398 75.684,99.136 9.785,1.594 19.335,4.594 29.097,6.403 39.492,7.32 71.695,8.847 91.934,-43.602 8.394,-21.758 21.875,-37.391 48.496,-32.988 20.328,-0.711 40.777,-1.742 53.121,19.398 9.102,-0.969 19.559,0.653 27.098,-3.308 59.121,-31.012 97.988,-12.68 112.355,54 0.121,3.007 0.316,6.007 0.578,9.007 31.297,16.25 9.696,40.012 7.297,55.954 11.504,19.527 20.524,34.828 28.649,48.617 -9.809,20.461 -17.571,36.621 -27.528,57.371 12.02,14.9 22.488,31.8 36.617,44.68 44.485,40.54 41.188,63.69 -13.73,83.34 -6.231,2.24 -13.164,3.16 -18.742,6.44 -22.129,13.01 -27.551,37.75 -14.403,60.05 21.661,36.75 42.953,73.7 67.34,115.62 33.512,20.07 72.278,43.27 111.035,66.48 1.075,-1.71 2.145,-3.41 3.219,-5.11 6.781,11.18 13.559,22.35 19.949,32.89 19.883,2.86 37.805,5.45 62.684,9.03 8.721,19.85 18.411,41.91 28.111,63.96 17,-12.82 34.01,-25.65 52.97,-39.96 16.2,7.54 31.04,14.46 45.88,21.37 16.85,-20.04 33.14,-40.57 50.63,-60.03 73.85,-82.21 214.24,-120.82 320.52,-19.47 9.74,-28.32 22.81,-54.3 49.68,-70.56 0.65,-6.51 0.76,-13.14 2.03,-19.54 21.78,-109.11 -26.31,-193.15 -132.29,-230.91 4.9,6.7 10.03,13.25 14.67,20.12 24.68,36.5 20.64,86.81 -9.44,119.37 -29.52,31.95 -76.51,40.41 -114.22,20.57 -40.41,-21.27 -60.73,-68.93 -49.12,-115.21 9.47,-37.79 45.76,-64.99 89.89,-64.21 19.51,0.35 38.92,6.15 58.38,9.47 -0.16,-16.75 -0.32,-33.49 -0.48,-50.23 0.02,-9.918 0.03,-19.828 0.05,-29.738 -8.18,4.957 -16.6,14.539 -24.47,14.097 -36.63,-2.05 -81.29,-65.429 -75.29,-104.16 -6.75,-0.109 -13.51,-0.211 -20.27,-0.328 -67.48,0.098 -78.29,-10.223 -79.48,-76.133 -0.36,-19.847 1.39,-39.937 -1.06,-59.508 -4,-31.968 -14.28,-62.109 -46.4,-76.91 -22.42,-10.332 -45.74,-19.429 -69.52,-25.922 -45.75,-12.5 -55.27,-22.527 -63.28,-69.218 -3.4,-19.852 -10.25,-39.121 -14.85,-56.121 -30.028,5.453 -52.461,9.519 -74.903,13.582 2.871,9.398 4.903,19.148 8.754,28.129 20.57,47.878 27.086,94.402 -8.293,139.289 -3.824,4.851 -0.586,15.269 -0.625,23.113 131.347,-51.09 263.167,25.957 265.567,160.379 1.84,103.48 -64.42,171.079 -164.69,188.049 -88.264,14.94 -181.701,-54.75 -201.31,-141.491 -13.059,-57.777 3.437,-107.847 30.335,-156.871 -6.023,-2.406 -13.347,-8.34 -17.863,-6.679 -36.125,13.32 -68.637,-0.887 -102.012,-10.918 -76.667,-23.02 -108.261,-117.942 -60.703,-183.371 -46.257,9.07 -76.074,-9.54 -92.015,-53.372 -4.461,-12.25 -11.977,-23.398 -18.086,-35.058 -25.692,-15.629 -47.961,-5.442 -69.641,9.219 31.801,1.531 32.129,23.101 28.356,45.98 -5.953,36.102 -46.93,75.832 -84.082,82.75 -47.961,8.941 -88.614,-7.68 -111.946,-45.758 -45.187,-73.769 -1.593,-154.09 88.539,-163.14 -10.394,-12.993 -20.785,-25.993 -31.179,-38.993 -15.16,-6.308 -30.317,-12.628 -43.805,-18.25 -5.414,1.082 -9.992,0.571 -11.707,2.543 -39.816,45.84 -86.481,38.379 -136.348,20.18 -34.297,-12.531 -64.769,-1.871 -91.465,23.027 -16.6988,15.582 -35.7027,28.692 -53.6792,42.891"
         style="fill:#a9a8a8;fill-opacity:1;fill-rule:nonzero;stroke:none"
         id="path4333"
         inkscape:connector-curvature="0" /><path
         d="m 1090.59,360.039 c 58.49,-1.309 88.61,26.18 89.5,81.711 0.91,55.82 -26.08,86.352 -77.97,88.191 -58.76,2.09 -90.4,-25.152 -91.96,-79.179 -1.71,-59.203 25.13,-89.473 80.43,-90.723 z m 309.25,639.711 c 0.16,16.74 0.32,33.48 0.48,50.23 3.28,3.3 6.56,6.59 9.84,9.89 105.98,37.76 154.07,121.8 132.29,230.91 -1.27,6.4 -1.38,13.03 -2.03,19.54 23.71,-3.53 47.42,-7.08 79.34,-11.83 6.74,-9.2 19.36,-26.42 32.3,-44.06 -31.08,-122.45 8.55,-172.75 127.57,-155.42 15.27,-16.18 30.36,-36.39 49.55,-51.33 19.13,-14.89 42.37,-24.48 66.58,-37.92 -1.8,-30.088 -14,-58.678 -44.51,-73.908 -27.82,-13.883 -58.13,-22.743 -85.37,-33.082 -12.77,-29.879 11.03,-36.711 25.29,-48.938 57.52,-49.371 57.18,-128.863 -4.05,-170.723 -29.51,-20.179 -63.92,-33.847 -102.74,-22.89 -18.14,5.121 -37.38,6.351 -56.13,9.34 -2.66,-3.68 -5.32,-7.368 -7.99,-11.047 11.01,-16.422 25.55,-31.582 32.06,-49.614 6.83,-18.898 5.94,-40.57 9.34,-68.597 -24.41,8.09 -38.92,12.89 -55.94,18.539 -21.67,-35.942 -42.97,-67.801 -30.47,-114.442 8.81,-32.878 6.72,-69.476 5,-104.187 -2.55,-51.41 -37.98,-84.57 -89.67,-90.281 -61.08,-6.75 -114.53,13.808 -166.23,43.25 -14.15,8.07 -30.85,11.652 -46.38,17.289 -3.15,-3.949 -6.3,-7.887 -9.44,-11.848 12.83,-19.121 25.66,-38.25 41.83,-62.32 -6.56,-12.43 -12.33,-30.231 -23.54,-43.379 -36.71,-43.09 -138.48,-62.793 -190.07,-38.781 -44.39,20.66 -42.56,18.339 -77.88,-9.411 C 936.477,79.9805 844.555,42.6484 736.902,57.5391 c -32.664,4.5117 -65.484,7.8828 -98.242,11.7812 67.863,-9.3711 120.305,12.3906 148.445,77.4497 10.336,23.89 14.727,50.32 22.458,75.39 5.199,16.879 9.421,34.539 17.71,49.891 19.657,36.41 15.875,55.531 -18.914,78.5 -11.679,7.711 -23.269,15.57 -39.527,26.461 11.234,6.867 16.34,9.988 21.445,13.117 54.082,-7.348 83.336,23.762 102.95,67.93 7.336,16.523 11.187,34.589 16.628,51.953 6.833,6.457 13.668,12.929 20.512,19.379 22.442,-4.063 44.875,-8.129 74.903,-13.582 4.6,17 11.45,36.269 14.85,56.121 8.01,46.691 17.53,56.718 63.28,69.218 23.78,6.493 47.1,15.59 69.52,25.922 32.12,14.801 42.4,44.942 46.4,76.91 2.45,19.571 0.7,39.661 1.06,59.508 1.19,65.91 12,76.231 79.48,76.133 -36.55,-120.801 21.78,-209.461 114.75,-248.351 78.99,-33.051 176.11,-1.02 227.46,67.152 49.56,65.777 51.07,160.539 3.1,228.867 -45.06,64.16 -138.89,104.001 -225.33,72.461"
         style="fill:#7f7c7d;fill-opacity:1;fill-rule:nonzero;stroke:none"
         id="path4335"
         inkscape:connector-curvature="0" /><path
         d="m 3169.96,830.27 c -6.58,36.539 -13.15,73.058 -19.73,109.582 16.7,26.718 33.4,53.429 50.11,80.148 4.08,-0.22 8.18,-0.45 12.26,-0.67 1.41,-28.682 23.53,-33.291 44.94,-38.049 17.32,-3.851 34.9,-6.582 57.37,-10.73 -41.13,-72.86 -24.29,-135.461 18.33,-194.469 42.26,-58.48 111.06,-68.801 177.5,-92.383 0,-50.211 3.87,-99.808 -1.1,-148.5 -4.82,-47.199 -44.68,-69.847 -84.48,-82.301 -27.78,-8.687 -59.7,-4.109 -98.52,-5.847 -13.16,-10.821 -35.11,-28.871 -57.05,-46.91 -47.04,-64.18 -49.85,-64.68 -122.63,-11.922 -50.07,-102.348 -117.32,-180.309 -246.67,-158.938 -32.6,22.391 -65.21,44.778 -101.62,69.778 -18.6,-19.981 -38.33,-41.18 -59.7,-64.149 -19,9.012 -36.28,17.192 -55.67,26.371 -11.52,-13.23 -22.09,-25.371 -36.44,-41.851 -10.1,4.191 -21.73,8.281 -32.69,13.742 -11.23,5.598 -21.8,12.527 -34.01,19.668 -44.58,-51.09 -80.4,-108.918 -154.68,-109.18 -71.44,-0.238 -122.35,34.301 -155.16,92.52 -30.03,11.441 -57.54,21.91 -86.82,33.062 -13.77,-6.16 -28.66,-12.832 -42.5,-19.031 -29.03,14.18 -29.03,14.18 -53.17,66.891 -32.58,-12.543 -65.04,-27.403 -98.89,-37.633 -95.56,-28.86 -189.63,-25.297 -280.72,18.511 58.19,13.782 116.58,26.77 174.4,41.969 11.8,3.11 23.65,12.68 31.67,22.403 41.7,50.589 41.27,50.937 101.87,41.097 57.35,12.11 81.34,61.102 118.06,102.371 16.18,0 35.14,0 55.02,0 22.07,-52.468 48.86,-97.468 106.45,-109.179 21.6,24.398 38.04,58.769 62.61,66.187 23.27,7.024 55.08,-14.199 88.64,-24.719 5.09,11.161 10.93,23.981 16.77,36.801 14.49,31.82 29.58,40.942 62.93,33.172 62.58,-14.594 123.42,-9.703 183.37,12.09 76.15,-5.602 148.78,4.918 214.43,47.066 21.99,14.102 43.82,28.434 65.73,42.653 9.14,-31.371 13.07,-65.602 28.37,-93.641 58.72,-107.66 229.12,-116.102 301.33,-16.918 79.35,108.957 32.14,261.148 -95.21,307.777 -18.58,6.801 -36.49,15.403 -54.7,23.161"
         style="fill:#7f7c7d;fill-opacity:1;fill-rule:nonzero;stroke:none"
         id="path4337"
         inkscape:connector-curvature="0" /><path
         d="m 1707.12,1959.48 c 68.62,-18.83 83.97,-45.52 65.14,-110.64 -7.73,-26.72 -13.37,-54.05 -20.8,-84.52 -19.01,-2.52 -39.91,-5.3 -60.18,-7.99 0,-23.37 8.03,-50.57 -2.12,-64.73 -11.46,-15.99 -39.28,-20.26 -63.29,-31.13 -21.73,-38.25 -17.52,-47.89 27.03,-61.96 16.21,-5.13 30.95,-14.92 51.06,-24.92 -28.72,-44.67 -53.99,-83.97 -77.85,-121.1 38.69,-40.38 76.81,8.33 118.21,-11.54 1.85,-20.2 3.88,-42.39 6.72,-73.31 12.02,-18.46 28.94,-44.44 44.76,-68.73 99.32,6.38 97.19,-25.46 86.55,-95.82 11.28,-10.08 26.42,-21.97 39.51,-35.8 10.83,-11.46 19.23,-25.2 28.71,-37.93 -6.92,-11.34 -11.41,-25.94 -21.31,-33.25 -15.05,-11.1 -36.39,-26.66 -50.39,-22.91 -16.96,4.56 -32.61,25.3 -42.16,42.69 -8.12,14.77 -6.78,34.73 -10.55,58.07 -12.34,-4.47 -22.54,-6.97 -31.54,-11.72 -13,-6.87 -24.38,-17.26 -37.84,-22.73 -18.77,-7.64 -38.29,-11.02 -55.97,5.35 -19.15,17.74 -25.35,39.1 -18.3,63.39 6.45,22.19 15.34,43.67 24.13,68.21 -11.48,10.01 -22.32,19.48 -34.79,30.38 -0.87,17.3 -1.85,36.59 -3.18,63.05 -19.54,-8.23 -33.66,-14.49 -48,-20.17 -60.08,-23.82 -94.62,-0.68 -92,63.75 1.06,25.9 8.13,51.58 11.68,72.76 19.57,14.29 33.87,24.74 59.62,43.55 -24.4,5.6 -36.95,8.48 -49.5,11.36 9.84,7.83 19.68,15.66 33.83,26.93 -14.09,36.17 -27.32,70.92 -41.21,105.42 -7.62,18.93 -22.77,26.99 -42.82,26.48 19,6.96 38.01,13.92 66.06,24.2 -51.56,39.79 -79.16,85.69 -64.05,145.39 6.25,24.71 14.23,53.5 31.42,70.07 50.25,48.47 99.56,37.4 183.22,-35.24 24.58,23.75 -11.79,36.56 -9.8,55.09"
         style="fill:#d1d0d0;fill-opacity:1;fill-rule:nonzero;stroke:none"
         id="path4339"
         inkscape:connector-curvature="0" /><path
         d="m 790.277,390.129 c -5.105,-3.129 -10.211,-6.25 -21.445,-13.117 16.258,-10.891 27.848,-18.75 39.527,-26.461 34.789,-22.969 38.571,-42.09 18.914,-78.5 -8.289,-15.352 -12.511,-33.012 -17.71,-49.891 -7.731,-25.07 -12.122,-51.5 -22.458,-75.39 C 758.965,81.7109 706.523,59.9492 638.66,69.3203 572.328,67.8281 516.316,98.1211 463.164,131.68 c -17.406,11 -26.383,36.968 -36.449,57.461 -9.668,19.668 -20.149,34.461 -44.942,29.16 -20.464,32.929 -12.253,66.801 -3.652,100.847 4.305,17.032 7.598,34.332 11.352,51.5 10.394,13 20.785,26 31.179,38.993 6.899,11.109 15.094,21.64 20.411,33.461 11.703,26.007 29.855,42.82 58.722,46.707 21.68,-14.661 43.949,-24.848 69.641,-9.219 53.816,-16.84 107.637,-33.68 161.453,-50.52 19.801,-13.308 39.601,-26.629 59.398,-39.941"
         style="fill:#888686;fill-opacity:1;fill-rule:nonzero;stroke:none"
         id="path4341"
         inkscape:connector-curvature="0" /><path
         d="m 1490.74,1380.88 c -106.28,-101.35 -246.67,-62.74 -320.52,19.47 -17.49,19.46 -33.78,39.99 -50.63,60.03 0.18,29.87 0.36,59.75 0.54,89.61 27.39,72.28 97.95,76.75 154.95,95.67 19.38,44.53 19.67,54.14 5.03,114.34 3.27,20.11 6.53,40.21 9.79,60.32 2.54,-12.26 5.08,-24.51 7.69,-37.17 17.51,0 30.63,0.92 43.57,-0.16 50.97,-4.25 104.06,-3.39 138.42,-52.02 -10.53,-12.79 -22.24,-24.79 -31.4,-38.5 -41.61,-62.32 -29.53,-125.54 31.8,-168.47 10.7,-7.49 22.4,-13.56 30.44,-18.38 -6.87,-43.53 -13.28,-84.14 -19.68,-124.74"
         style="fill:#b6b5b5;fill-opacity:1;fill-rule:nonzero;stroke:none"
         id="path4343"
         inkscape:connector-curvature="0" /><path
         d="m 1289.9,1820.32 c -3.26,-20.11 -6.52,-40.21 -9.79,-60.32 -24.21,12.83 -42.46,1.07 -61.36,-14.96 0,-12.12 0,-24.71 0,-37.31 -39.2,84.56 -63.22,175.64 -46.32,265.83 30.4,162.16 144.41,317.64 353.75,314.89 34.57,-0.45 68.89,-19.43 103.32,-29.86 -23.68,-34.33 -53.08,-56.16 -97.54,-60.07 -48.1,-4.22 -99.31,-50.03 -105.6,-95.81 9.75,8.73 18.18,21.09 29.6,25.28 14.05,5.15 34.32,9.55 45.01,3.01 10.45,-6.39 18.61,-27.91 16.64,-41.12 -6.51,-43.55 -18.05,-86.34 -27.66,-129.43 -2.92,-3.62 -5.85,-7.24 -8.77,-10.87 -1.51,-0.68 -3.11,-1.21 -4.5,-2.08 -88.16,-55.82 -88.16,-55.82 -177.16,-16.22 -17.76,-35.94 -5.96,-74.3 -9.62,-110.96"
         style="fill:#d1d0d0;fill-opacity:1;fill-rule:nonzero;stroke:none"
         id="path4345"
         inkscape:connector-curvature="0" /><path
         d="m 389.473,370.648 c -3.754,-17.168 -7.047,-34.468 -11.352,-51.5 -8.601,-34.046 -16.812,-67.918 3.652,-100.847 -27.449,-31.012 -58.566,-47.992 -100.765,-28.879 -33.445,15.16 -41.235,29.019 -37.309,66 1.75,16.476 0.293,33.308 0.293,61.387 C 191.367,281.949 143.07,271.941 91.9141,290.84 82.1914,302.02 71.5742,312.559 62.918,324.512 36.4609,361.07 33.7617,400.211 52.4688,441.039 70.4453,426.84 89.4492,413.73 106.148,398.148 c 26.696,-24.898 57.168,-35.558 91.465,-23.027 49.867,18.199 96.532,25.66 136.348,-20.18 1.715,-1.972 6.293,-1.461 11.707,-2.543 13.488,5.622 28.645,11.942 43.805,18.25"
         style="fill:#7f7c7d;fill-opacity:1;fill-rule:nonzero;stroke:none"
         id="path4347"
         inkscape:connector-curvature="0" /><path
         d="m 1289.9,1820.32 c 3.66,36.66 -8.14,75.02 9.62,110.96 89,-39.6 89,-39.6 177.16,16.22 1.39,0.87 2.99,1.4 4.5,2.08 -5.84,-23.69 -12.96,-47.15 -17.22,-71.13 -7.27,-40.81 -7,-80.9 14.64,-118.81 4.19,-7.35 0.85,-19 0.98,-28.67 -34.36,48.63 -87.45,47.77 -138.42,52.02 -12.94,1.08 -26.06,0.16 -43.57,0.16 -2.61,12.66 -5.15,24.91 -7.69,37.17"
         style="fill:#a9a8a8;fill-opacity:1;fill-rule:nonzero;stroke:none"
         id="path4349"
         inkscape:connector-curvature="0" /><path
         d="m 1500.27,1699.97 c 20.05,0.51 35.2,-7.55 42.82,-26.48 13.89,-34.5 27.12,-69.25 41.21,-105.42 -14.15,-11.27 -23.99,-19.1 -33.83,-26.93 -42.52,-6.58 -71.36,15.61 -85.38,50.98 -16.83,42.49 -0.99,79.82 35.18,107.85"
         style="fill:#d7d6d7;fill-opacity:1;fill-rule:nonzero;stroke:none"
         id="path4351"
         inkscape:connector-curvature="0" /><path
         d="m 698.727,1580.99 c 3.203,-35.97 6.406,-71.94 9.996,-112.24 -67.45,-28.55 -93.098,-83.5 -74.7,-160.21 -21.132,-9.06 -40.683,-17.12 -59.976,-25.77 -36.121,-16.19 -62.793,-42.83 -83.461,-76.11 -49.332,-79.45 -4.488,-179.03 88.043,-195.25 12.344,-2.17 24.699,-4.27 37.055,-6.41 1.027,-3.91 2.046,-7.809 3.07,-11.719 -9.75,-4.609 -19.051,-11.191 -29.32,-13.492 -55.496,-12.391 -99.61,-37.301 -112.184,-96.25 -39.062,-4.41 -76.453,-10.09 -114.062,-12.551 -59.403,-3.879 -95.18,-34.027 -109.2,-91.316 -1.547,-6.332 -4.449,-12.332 -8.363,-22.91 -18.66,6.277 -36.684,12.34 -53.926,18.136 -22.953,43.723 -23.668,87.282 -10.058,127.633 -51.114,55.699 -53.465,73.11 -21.817,136.429 28.774,57.58 26.504,55.3 -17.761,99.35 -19.735,19.64 -37.747,49.78 -39.969,76.52 -5.8401,70.14 14.371,134.56 68.652,184.27 9.762,-16.37 19.52,-32.73 29.277,-49.09 15.211,-10.96 30.422,-21.91 46.946,-33.81 1.074,-5.08 2.09,-11.63 3.859,-17.98 21.836,-78.1 123.199,-109.57 184.492,-56.13 13.149,11.45 26.789,28.09 29.895,44.32 12.269,64.11 9.519,116.8 -55.543,149.11 -7.27,3.6 -13.293,9.72 -19.899,14.68 3.036,5.88 5.973,11.82 9.118,17.65 27.078,50.24 44.316,53.86 92.882,23.08 16.125,-10.23 35.176,-15.84 52.723,-23.49 4.84,6.8 9.789,10.62 10.039,14.73 0.684,11.21 -0.457,22.56 -1.152,33.84 -3.418,55.6 28.836,82.63 82.137,70.89 20.511,-4.52 42.109,-4.09 63.207,-5.91"
         style="fill:#7f7c7d;fill-opacity:1;fill-rule:nonzero;stroke:none"
         id="path4353"
         inkscape:connector-curvature="0" /><path
         d="m 200.023,1350.01 c -9.757,16.36 -19.515,32.72 -29.277,49.09 18.027,7.15 35.676,15.58 54.188,21.14 25.648,7.71 46.429,18.31 45.129,49.77 17.246,-4.88 34.488,-9.77 52.785,-14.94 57.304,25.55 59.531,37.73 17.324,123.34 33.301,35.42 68.32,72.66 112.172,119.3 52.219,16.4 62.113,37.73 32.922,100.88 -13.555,29.33 -23.52,58.54 -15.032,91.16 7.993,-12.15 17.481,-23.58 23.746,-36.57 50.317,-104.29 182.512,-125.78 262.286,-41.31 16.472,17.44 28.523,39.06 42.48,58.57 115.285,-62.28 187.02,-61.66 245.284,1.47 53.77,58.27 60.07,135.35 16.56,202.4 -49.3,75.99 -115.258,87.96 -247.985,41.65 -0.906,22.55 -1.746,43.33 -2.582,64.11 39.672,48.81 50.559,51.77 102.008,18.16 25.836,-16.87 50.192,-23.53 78.211,-8.35 14.218,-12.38 29.698,-23.59 42.398,-37.38 32.89,-35.72 70.66,-51.26 118.4,-33.84 10.72,3.91 21.7,7.13 32.56,10.67 -61.8,-114.21 -70.03,-233.26 -32.36,-356.52 2.38,-7.81 3.58,-15.98 6.9,-31.11 -89.18,14.19 -150.79,-15.63 -173.859,-113.44 -45.687,50.56 -102.621,42.52 -158.133,42.58 -64.085,0.07 -97.632,-41.94 -127.421,-89.85 -21.098,1.82 -42.696,1.39 -63.207,5.91 -53.301,11.74 -85.555,-15.29 -82.137,-70.89 0.695,-11.28 1.836,-22.63 1.152,-33.84 -0.25,-4.11 -5.199,-7.93 -10.039,-14.73 -17.547,7.65 -36.598,13.26 -52.723,23.49 -48.566,30.78 -65.804,27.16 -92.882,-23.08 -3.145,-5.83 -6.082,-11.77 -9.118,-17.65 -7.66,-6.25 -14.39,-14.78 -23.148,-18.36 -42.031,-17.22 -79.879,-38.97 -107.937,-76.55 -15.676,-20.98 -37.926,-15.92 -58.665,-5.28"
         style="fill:#a9a8a8;fill-opacity:1;fill-rule:nonzero;stroke:none"
         id="path4355"
         inkscape:connector-curvature="0" /><path
         d="m 1020.74,1478.97 c -9.7,-22.05 -19.39,-44.11 -28.111,-63.96 -24.879,-3.58 -42.801,-6.17 -62.684,-9.03 -6.39,-10.54 -13.168,-21.71 -19.949,-32.89 -1.074,1.7 -2.144,3.4 -3.219,5.11 -38.757,-23.21 -77.523,-46.41 -111.035,-66.48 -24.387,-41.92 -45.679,-78.87 -67.34,-115.62 -13.148,-22.3 -7.726,-47.04 14.403,-60.05 5.578,-3.28 12.511,-4.2 18.742,-6.44 54.918,-19.65 58.215,-42.8 13.73,-83.34 -14.129,-12.88 -24.597,-29.78 -36.617,-44.68 9.957,-20.75 17.719,-36.91 27.528,-57.371 -8.125,-13.789 -17.145,-29.09 -28.649,-48.617 2.399,-15.942 24,-39.704 -7.297,-55.954 -1.215,31.563 -14.597,55.911 -42.461,71.692 14.344,32.5 -6.593,48.961 -34.304,64.961 13.363,25.539 25.804,49.309 43.996,84.049 -30.11,-2.37 -50.535,-1.65 -69.832,-5.97 -42.407,-9.49 -79.227,-6.32 -105.125,33.96 -20.883,32.48 -18.067,78.84 10.886,116.35 40.524,52.51 90.055,83.74 168.282,51.94 -3.719,18.91 -2.579,32.71 -8.786,41.04 -20.226,27.15 -42.695,52.09 -23.074,89.46 17.656,33.63 45.735,45.52 82.133,43.2 3.836,-0.24 8.02,5.01 17.606,11.47 -6.836,15.28 -12.083,32.15 -21.235,46.53 -35.887,56.41 -5.242,141.24 79.735,149.76 76.855,7.71 137.304,-3 163.261,-104.12 -5.117,-26.3 12.976,-40.21 29.416,-55"
         style="fill:#d1d0d0;fill-opacity:1;fill-rule:nonzero;stroke:none"
         id="path4357"
         inkscape:connector-curvature="0" /><path
         d="m 1860.02,2630.41 c -54.61,-61.78 -90.77,-130.43 -77.63,-217.38 -9.19,-1.04 -15.63,-1.76 -22.06,-2.49 -43.27,18.01 -84.68,11.78 -122.59,-13.18 -28.81,-18.98 -55.31,-41.49 -90.93,-68.58 -14.86,0 -39.54,0 -64.22,0 -39.58,14.97 -25.64,62.15 -51.48,85.35 -13.64,5.16 -27.3,10.36 -40.95,15.55 23.44,6.71 46.89,13.41 70.33,20.11 19.98,9.96 39.44,21.25 60.1,29.52 24.67,9.87 50.38,17.17 84.74,28.62 45.46,-14.55 52.76,-12.13 75.13,32.09 11.17,59.16 36.31,110.05 85.86,146.92 3.26,2.42 3.51,8.91 5.17,13.51 29.51,-23.36 59.02,-46.7 88.53,-70.04"
         style="fill:#b6b5b5;fill-opacity:1;fill-rule:nonzero;stroke:none"
         id="path4359"
         inkscape:connector-curvature="0" /><path
         d="m 1390.16,2429.68 c 13.65,-5.19 27.31,-10.39 40.95,-15.55 25.84,-23.2 11.9,-70.38 51.48,-85.35 -20.79,-4.33 -41.64,-8.37 -62.34,-13.03 -76.73,-17.31 -136.36,-62.21 -189.3,-117.8 -4.28,21.05 -5.72,43.25 -13.57,62.88 -9.68,24.23 -24.7,46.32 -37.41,69.34 3.46,6.42 6.91,12.85 10.37,19.28 6.96,4.14 13.93,8.28 20.64,12.27 31.68,-38.74 53.9,-48.05 78.93,-34.08 24.76,13.83 37.86,47.56 26.78,73.13 -3.73,8.62 -11.42,20.91 -18.44,21.73 -23.55,2.73 -47.61,1.04 -73.52,1.04 -3.65,6.8 -9.04,16.84 -14.43,26.88 -7.86,15.81 -15.72,31.62 -25.48,51.26 43.49,17.09 83.54,9.8 120.83,-12.76 29.37,-17.76 56.43,-39.35 84.51,-59.24"
         style="fill:#a9a8a8;fill-opacity:1;fill-rule:nonzero;stroke:none"
         id="path4361"
         inkscape:connector-curvature="0" /><path
         d="m 1179.97,2330.17 c 12.71,-23.02 27.73,-45.11 37.41,-69.34 7.85,-19.63 9.29,-41.83 13.57,-62.88 -15.78,-22.88 -31.57,-45.75 -47.35,-68.62 -10.86,-3.54 -21.84,-6.76 -32.56,-10.67 -47.74,-17.42 -85.51,-1.88 -118.4,33.84 -12.7,13.79 -28.18,25 -42.398,37.38 20.888,35.28 41.778,70.55 62.668,105.83 17.43,24.14 44.81,26.73 73.84,26.85 17.75,0.07 35.48,4.91 53.22,7.61"
         style="fill:#b6b5b5;fill-opacity:1;fill-rule:nonzero;stroke:none"
         id="path4363"
         inkscape:connector-curvature="0" /><path
         d="m 1020.74,1478.97 c -16.44,14.79 -34.533,28.7 -29.416,55 11.016,-12.1 22.026,-24.22 33.926,-37.32 25.42,25.84 10.11,45.01 3.58,64.1 -20.01,58.62 -1.09,115.85 47.98,140.39 36.28,18.14 69.79,2.19 103.14,-11.2 -51.92,-14.38 -80.05,-80.18 -59.82,-139.95 -0.18,-29.86 -0.36,-59.74 -0.54,-89.61 -14.84,-6.91 -29.68,-13.83 -45.88,-21.37 -18.96,14.31 -35.97,27.14 -52.97,39.96"
         style="fill:#d0cfd0;fill-opacity:1;fill-rule:nonzero;stroke:none"
         id="path4365"
         inkscape:connector-curvature="0" /><path
         d="m 1120.13,1549.99 c -20.23,59.77 7.9,125.57 59.82,139.95 16.66,-2.19 31.14,0.35 38.8,17.79 0,12.6 0,25.19 0,37.31 18.9,16.03 37.15,27.79 61.36,14.96 14.64,-60.2 14.35,-69.81 -5.03,-114.34 -57,-18.92 -127.56,-23.39 -154.95,-95.67"
         style="fill:#d8d7d7;fill-opacity:1;fill-rule:nonzero;stroke:none"
         id="path4367"
         inkscape:connector-curvature="0" /><path
         d="m 590.211,779.949 c -12.344,-21.14 -32.793,-20.109 -53.121,-19.398 -1.988,15.871 -1.848,32.371 -6.344,47.5 -19.473,65.519 -15.863,90.23 19.496,115.937 37.473,27.25 68.02,23.844 121.02,-13.488 -71.657,-3.73 -101.598,-41.09 -80.758,-100.73 -0.098,-9.95 -0.195,-19.879 -0.293,-29.821"
         style="fill:#d0cfcf;fill-opacity:1;fill-rule:nonzero;stroke:none"
         id="path4369"
         inkscape:connector-curvature="0" /><path
         d="m 590.504,809.77 c -20.84,59.64 9.101,97 80.758,100.73 5.508,0.281 11.011,0.551 16.519,0.84 27.864,-15.781 41.246,-40.129 42.461,-71.692 -0.262,-3 -0.457,-6 -0.578,-9.007 -51.25,25.449 -98.465,24 -139.16,-20.871"
         style="fill:#d7d6d7;fill-opacity:1;fill-rule:nonzero;stroke:none"
         id="path4371"
         inkscape:connector-curvature="0" /><path
         d="m 3624.5,1779.8 c -49.62,-0.36 -83.54,-32.64 -83.65,-79.59 -0.12,-46.93 33.75,-79.47 83.24,-80 47.3,-0.51 84.5,34.46 84.67,79.58 0.17,44.94 -37.13,80.36 -84.26,80.01 z m -411.9,-760.47 c -4.08,0.22 -8.18,0.45 -12.26,0.67 3.27,51.77 0.35,101.31 -51.22,132.94 8.82,7.08 15.02,12.05 21.22,17.03 48.61,23.59 68.59,64.37 69.93,116.38 0.13,4.95 0.39,9.95 1.16,14.83 10.42,66.93 49.08,84.19 108.89,48.71 -9.44,-35.54 -18.06,-70.96 3.91,-105.47 27.18,-42.65 74.54,-61.85 119.56,-48.05 48.06,14.73 78.3,55.81 76.29,103.58 -2.33,55.31 -32.96,89.25 -90.36,100.11 6.9,29.18 28.41,42.27 54.23,53.35 42.96,18.42 51.01,49.54 16.33,80.26 -36.97,32.77 -80.63,57.94 -121.02,86.91 -20.09,14.42 -41.2,28.12 -58.57,45.44 -17.37,17.32 -24.95,39.74 -9.66,63.53 15.17,23.63 36.7,29.42 64.44,27.55 27.45,-1.85 56.37,-0.94 82.81,5.87 33.34,8.58 46.59,37.7 38.75,70.25 -18.1,75.14 -18.1,75.14 50.37,114.91 -1.02,43.7 -0.03,89.84 -36.87,125.77 -18.7,18.23 -29.92,37.58 -31.38,65.06 -0.88,16.4 -11.79,33.16 -21.1,47.92 -6.92,10.95 -18.91,18.59 -27.97,28.33 -34.62,37.26 -37.28,64.05 -11.44,107.55 7.64,12.85 15.38,25.69 21.91,39.11 2.72,5.61 2.4,12.72 3.76,20.94 -11.21,9.69 -22.21,19.19 -33.22,28.7 11.98,3.68 27.53,3.83 35.26,11.68 25.11,25.52 46.56,16.68 73.14,-2.76 -1.38,-23.44 -2.81,-47.29 -4.39,-73.85 38.53,-4.42 79.14,1 105.81,-41.43 -11.7,-19.08 -24.12,-39.33 -38.38,-62.57 13.3,-6.81 24.45,-12.53 36.8,-18.85 -2.57,-11.35 -5.32,-23.53 -8.31,-36.79 12.88,-11.86 24.82,-22.85 38.97,-35.87 -4.81,-23.54 -9.65,-47.21 -15.56,-76.11 34.53,1.8 65.18,2.34 95.59,5.25 35.22,3.37 65.4,-5.28 89.99,-31.27 29.84,-74.69 -10.54,-131.65 -47.89,-189.34 -9.5,-14.67 -19.28,-29.17 -31.46,-47.57 42.52,-19.88 101.61,-5.54 107.94,-72.17 -12.87,-9.44 -26.96,-19.78 -47.43,-34.8 27.44,-27.36 50.54,-56.93 79.71,-78.15 65.14,-47.37 77.77,-113.88 29.75,-176.81 -25.33,-33.2 -62.85,-33.96 -98.68,-39.46 -15.63,-2.39 -31.55,-2.93 -48.72,-4.45 3.25,-38.34 6,-70.78 8.82,-104.06 -16.32,-8.45 -29.07,-15.05 -42.72,-22.13 -1.28,-11.05 -2.57,-22.29 -4.02,-34.86 -31.94,-7.4 -46.43,-30.32 -55.17,-59 -4.36,-14.27 -10.78,-27.94 -16.43,-41.8 -26.29,-64.65 -52.3,-78.22 -119.63,-60.15 -22.28,5.98 -43.66,15.35 -70.99,25.16 -6.37,-14.11 -13.2,-26.54 -17.71,-39.75 -21.75,-63.58 -49.99,-79.862 -117.13,-66.4 -34.23,6.86 -68.25,15.07 -102.73,20.21 -13.8,2.05 -28.59,-2.52 -42.92,-4.08"
         style="fill:#7f7c7d;fill-opacity:1;fill-rule:nonzero;stroke:none"
         id="path4373"
         inkscape:connector-curvature="0" /><path
         d="m 4219.76,351.609 c -23.99,-7.898 -47.97,-15.808 -73.59,-24.25 -18.56,25.75 -33.7,46.743 -53.38,74.032 -35.46,-9.211 -74,-19.231 -112.54,-29.243 15.92,22.731 40.74,44.34 19.32,75.262 -19.66,28.391 -48.28,23.059 -77.04,15.949 -16.04,-3.968 -33.42,-7.789 -49.38,-5.648 -30.91,4.16 -63.52,7.73 -91.25,20.551 -30.44,14.09 -56.16,38.347 -86.42,59.937 1.7,25.25 35.75,46.891 15.45,80.391 -20.6,33.961 -52.82,26.992 -85.56,26.48 -3.64,23.282 -6.93,44.282 -9.99,63.782 36.51,49.707 32.9,60.527 -25.13,80.949 13.56,20.058 27.11,40.129 40.67,60.187 23.16,0 46.32,0 69.47,0 16.92,-15.566 32.52,-32.968 51.05,-46.308 42.27,-30.45 87.31,-27.7 126.53,5.91 30.91,26.48 42.07,61.75 42.87,101.191 13.07,-17.031 26.14,-34.062 39.21,-51.101 -3.17,-16.539 -6.33,-33.071 -9.49,-49.598 -10.13,-12 -24.38,-22.441 -29.62,-36.293 -17.11,-45.129 -16.41,-91.91 2.66,-136.148 14.72,-34.172 25.5,-73.071 66.8,-87.719 45.3,-47.793 103.06,-53.981 163.92,-48.172 22.44,2.148 36.16,14.801 36.5,38.859 6.58,-16.808 13.15,-33.629 19.74,-50.429 20.47,-21.95 40.92,-43.891 64.44,-69.11 -21.48,-27.011 -38.37,-48.23 -55.24,-69.461"
         style="fill:#a9a8a8;fill-opacity:1;fill-rule:nonzero;stroke:none"
         id="path4375"
         inkscape:connector-curvature="0" /><path
         d="m 3960.05,859.68 c -13.07,17.039 -26.14,34.07 -39.21,51.101 -29.92,23.18 -59.84,46.348 -89.76,69.508 -16.29,24.211 -6.15,47.621 1.66,71.401 12.94,39.34 25.24,78.88 37.81,118.34 12.51,18.37 22.66,39.09 38.09,54.54 22.63,22.65 37.45,46.56 27.94,78.7 -10.44,35.25 -35.15,53.6 -74.03,55.4 -6.91,-9.68 -13.4,-18.78 -19.9,-27.88 0.77,11.15 1.54,22.3 2.26,32.87 44.98,19.69 99.19,16.22 125.91,65.01 70.04,-20.21 97.02,-73.62 97.96,-139.53 0.72,-50.86 -9.18,-101.88 -14.79,-152.79 -1.49,-13.55 -4.55,-26.93 -6.88,-40.38 3.58,-2.43 7.17,-4.88 10.75,-7.32 14.02,8.85 28.04,17.7 42.88,27.05 33.63,-10.86 28.23,-39.95 29.89,-65.71 -16.23,-10.36 -32.4,-20.81 -48.7,-31.05 -12.58,-7.92 -25.33,-15.59 -38,-23.37 1.46,-4.539 2.93,-9.09 4.39,-13.629 13.34,0.661 26.95,-0.191 39.96,2.219 90.49,16.78 158.71,-32.34 170.92,-123.75 -18.48,29.422 -44.95,48.36 -78.88,53.988 -66.03,10.981 -130.95,13.59 -186.55,-34.609 -9.74,-8.437 -22.4,-13.488 -33.72,-20.109"
         style="fill:#7f7c7d;fill-opacity:1;fill-rule:nonzero;stroke:none"
         id="path4377"
         inkscape:connector-curvature="0" /><path
         d="m 3590.25,789.801 c 58.03,-20.422 61.64,-31.242 25.13,-80.949 3.06,-19.5 6.35,-40.5 9.99,-63.782 32.74,0.512 64.96,7.481 85.56,-26.48 20.3,-33.5 -13.75,-55.141 -15.45,-80.391 30.26,-21.59 55.98,-45.847 86.42,-59.937 27.73,-12.821 60.34,-16.391 91.25,-20.551 15.96,-2.141 33.34,1.68 49.38,5.648 28.76,7.11 57.38,12.442 77.04,-15.949 21.42,-30.922 -3.4,-52.531 -19.32,-75.269 -58.38,-25.52 -119.94,-30.59 -182.91,-33.211 -43.93,-1.828 -68.35,19.039 -85.7,53.371 -11.61,22.988 -19.44,47.91 -29.78,74.039 -15.74,2.39 -31.65,4.801 -54.68,8.301 -4.46,22.218 -9.24,46.05 -14.89,74.281 -12.51,-1.41 -27.87,-3.152 -43.23,-4.852 -26.48,34.68 -26.48,34.68 -11.42,157.43 -21.56,29.66 -57.64,28.5 -88.62,36.16 -48.99,12.102 -89.58,34.328 -117.71,77.078 -31.98,48.582 -30.81,102.34 5.58,143.614 46.61,2.359 99,-3.602 135.45,40.898 31.49,-15.91 64.31,-29.738 93.8,-48.73 11.95,-7.7 16.63,-26.649 24.62,-40.489 -12.68,7.707 -24.7,17 -38.19,22.828 -42.19,18.231 -93.3,6.411 -117.32,-25.8 -31.55,-42.34 -30.69,-86.77 2.41,-127.348 25.27,-31.012 59.62,-31.313 95.14,-28.699 24.51,1.789 33.32,17.808 37.45,38.789"
         style="fill:#d1d0d0;fill-opacity:1;fill-rule:nonzero;stroke:none"
         id="path4379"
         inkscape:connector-curvature="0" /><path
         d="m 4219.76,351.609 c 16.87,21.231 33.76,42.45 55.24,69.461 -23.52,25.219 -43.97,47.16 -64.44,69.11 -0.71,30.312 26.09,39.269 43.38,55.449 31.14,29.16 63.42,57.422 66.53,104.371 11.14,-9.301 23.51,-17.469 33.15,-28.129 18.99,-20.961 42.84,-27.699 67.42,-18.32 25.85,9.879 50.44,11.39 77.13,7.34 12.61,-1.922 26.21,1.519 39.19,3.531 56.1,8.687 82.42,49.879 104.02,96.058 15.74,-49.601 9.82,-66.359 -35.28,-99.921 -30.95,-23.039 -30.95,-23.039 -32.46,-54.829 10.2,-6.378 21.83,-12.66 32.34,-20.441 31.51,-23.309 33.22,-52.641 3.93,-79.078 -9.67,-8.723 -21.2,-17.141 -33.37,-21.031 -74.06,-23.719 -142.3,-58.258 -205.84,-103.09 -14.44,-10.211 -33.06,-14.852 -50.19,-20.82 -29.6,-10.301 -54.51,-7.25 -72.38,23.3 -4.88,8.36 -18.67,11.5 -28.37,17.039"
         style="fill:#7f7c7d;fill-opacity:1;fill-rule:nonzero;stroke:none"
         id="path4381"
         inkscape:connector-curvature="0" /><path
         d="m 4641.38,710.48 c -21.6,-46.179 -47.92,-87.371 -104.02,-96.058 -12.98,-2.012 -26.58,-5.453 -39.19,-3.531 -26.69,4.05 -51.28,2.539 -77.13,-7.34 -24.58,-9.379 -48.43,-2.641 -67.42,18.32 -9.64,10.66 -22.01,18.828 -33.15,28.129 1.97,14.578 4.93,29.102 5.74,43.738 2.23,40.203 -1.83,78.602 -36.18,106.524 6.16,11.359 12.32,22.726 19.29,35.578 31.19,-3.871 31.42,-54.82 69.5,-45.602 17.05,30.051 26.06,67.492 68.36,74.34 11.9,-4.508 23.8,-9.027 35.7,-13.547 8.98,2.129 17.96,4.27 26.94,6.41 7.4,-3.171 14.52,-7.531 22.23,-9.339 72.8,-17.153 104.55,-66.614 109.33,-137.622"
         style="fill:#888686;fill-opacity:1;fill-rule:nonzero;stroke:none"
         id="path4383"
         inkscape:connector-curvature="0" /><path
         d="m 3610.76,910.031 c -7.99,13.84 -12.67,32.789 -24.62,40.489 -29.49,18.992 -62.31,32.82 -93.8,48.73 8.37,16.06 16.74,32.12 21.79,41.81 54.17,3 106.06,-4.05 150.53,10.92 51.79,17.44 51.63,80.94 78.09,127.92 40.61,-2.18 54.79,28.56 62.36,66.13 12.23,2.84 23.26,5.4 34.29,7.95 9.95,-12.9 19.89,-25.8 31.15,-40.41 0,-13.88 0,-28.72 0,-43.54 -12.57,-39.46 -24.87,-79 -37.81,-118.34 -7.81,-23.78 -17.95,-47.19 -1.66,-71.401 -11.96,5.07 -23.92,10.152 -35.01,14.84 -75.08,-23.809 -95.64,-55.32 -95.68,-145.141 -23.15,0 -46.31,0 -69.47,0 -6.72,20.012 -13.44,40.032 -20.16,60.043"
         style="fill:#a9a8a8;fill-opacity:1;fill-rule:nonzero;stroke:none"
         id="path4385"
         inkscape:connector-curvature="0" /><path
         d="m 3870.55,1170.03 c 0,14.82 0,29.66 0,43.54 -11.26,14.61 -21.2,27.51 -31.15,40.41 1.09,25.61 2.17,51.21 3.25,76.81 6.5,9.1 12.99,18.2 19.9,27.88 38.88,-1.8 63.59,-20.15 74.03,-55.4 9.51,-32.14 -5.31,-56.05 -27.94,-78.7 -15.43,-15.45 -25.58,-36.17 -38.09,-54.54"
         style="fill:#888686;fill-opacity:1;fill-rule:nonzero;stroke:none"
         id="path4387"
         inkscape:connector-curvature="0" /><path
         d="m 4290.03,800.262 c 34.35,-27.922 38.41,-66.321 36.18,-106.524 -0.81,-14.636 -3.77,-29.16 -5.74,-43.738 -3.11,-46.949 -35.39,-75.211 -66.53,-104.371 -17.29,-16.18 -44.09,-25.137 -43.38,-55.449 -6.59,16.8 -13.16,33.621 -19.74,50.429 -29.5,49.602 -73.05,58.61 -124.89,42.879 -25.27,-7.668 -50.34,-15.957 -75.51,-23.957 -30.67,22.641 -18.95,52.508 -14.51,81.578 3.16,20.782 3.83,41.95 6.6,62.813 5.34,40.34 -15.34,72.566 -31.95,106.16 3.16,16.527 6.32,33.059 9.49,49.598 11.32,6.621 23.98,11.672 33.72,20.109 55.6,48.199 120.52,45.59 186.55,34.609 33.93,-5.628 60.4,-24.566 78.88,-53.988 5.24,-22.629 -9.29,-55.39 30.83,-60.148"
         style="fill:#888686;fill-opacity:1;fill-rule:nonzero;stroke:none"
         id="path4389"
         inkscape:connector-curvature="0" /><path
         d="m 4482.88,851.031 c -11.9,4.52 -23.8,9.039 -35.7,13.547 -42.3,-6.848 -51.31,-44.289 -68.36,-74.34 -1.37,47.082 -32.6,69.551 -70.5,84.961 -38.8,97.012 -55.12,113.992 -154.9,157.921 14,13.27 26.18,24.79 38.36,36.31 18.15,0.1 36.32,0.27 54.47,0.3 57.66,0.1 101.82,-21.41 127.05,-76.269 7.94,-17.27 20.4,-32.461 31.33,-49.461 19.69,5.941 35.02,10.559 50.17,15.121 21.88,-12.351 19.99,-31.699 20.08,-51.98 0.1,-18.719 5.14,-37.411 8,-56.11"
         style="fill:#7e7c7c;fill-opacity:1;fill-rule:nonzero;stroke:none"
         id="path4391"
         inkscape:connector-curvature="0" /><path
         d="m 810.023,2180.07 c 0.836,-20.78 1.676,-41.56 2.582,-64.11 132.727,46.31 198.685,34.34 247.985,-41.65 43.51,-67.05 37.21,-144.13 -16.56,-202.4 -58.264,-63.13 -129.999,-63.75 -245.284,-1.47 -13.957,-19.51 -26.008,-41.13 -42.48,-58.57 -79.774,-84.47 -211.969,-62.98 -262.286,41.31 -6.265,12.99 -15.753,24.42 -23.746,36.57 6.637,13.39 13.274,26.78 19.907,40.17 18.82,18.16 35.172,40.37 56.968,53.64 46.075,28.06 95,51.44 142.754,76.74 14.422,0.5 28.907,2.09 43.258,1.29 38.738,-2.14 61.969,17.43 66.727,56.29 2.55,20.83 6.73,41.47 10.175,62.19"
         style="fill:#b6b5b5;fill-opacity:1;fill-rule:nonzero;stroke:none"
         id="path4393"
         inkscape:connector-curvature="0" /><path
         d="m 1680.46,2540.02 c -22.37,-44.22 -29.67,-46.64 -75.13,-32.09 -34.36,-11.45 -60.07,-18.75 -84.74,-28.62 -20.66,-8.27 -40.12,-19.56 -60.1,-29.52 -40.34,17.88 -21,50.87 -20.05,79.2 33.8,55.64 83.86,43.47 138.59,30.93 8.04,15.46 16.64,31.98 25.24,48.52 0,-23.52 0,-47.03 0,-76.87 6.69,-3.8 19.01,-10.81 31.95,-18.17 16.33,9.83 30.29,18.23 44.24,26.62"
         style="fill:#d7d7d7;fill-opacity:1;fill-rule:nonzero;stroke:none"
         id="path4395"
         inkscape:connector-curvature="0" /><path
         d="m 1210.3,2450.42 c 5.39,-10.04 10.78,-20.08 14.43,-26.88 25.91,0 49.97,1.69 73.52,-1.04 7.02,-0.82 14.71,-13.11 18.44,-21.73 11.08,-25.57 -2.02,-59.3 -26.78,-73.13 -25.03,-13.97 -47.25,-4.66 -78.93,34.08 -6.71,-3.99 -13.68,-8.13 -20.64,-12.27 6.65,33.66 13.31,67.31 19.96,100.97"
         style="fill:#d0cfcf;fill-opacity:1;fill-rule:nonzero;stroke:none"
         id="path4397"
         inkscape:connector-curvature="0" /><path
         d="m 689.863,2060.3 c -47.754,-25.3 -96.679,-48.68 -142.754,-76.74 -21.796,-13.27 -38.148,-35.48 -56.968,-53.64 -1.43,10.68 -6.094,22.13 -3.778,31.93 17.075,72.44 92.43,125.94 166.047,117.15 13.043,-1.56 24.996,-12.24 37.453,-18.7"
         style="fill:#d8d7d7;fill-opacity:1;fill-rule:nonzero;stroke:none"
         id="path4399"
         inkscape:connector-curvature="0" /><path
         d="m 1770.08,2179.53 c -15.38,8.34 -30.76,16.68 -46.96,25.47 -1.03,17.21 -1.89,31.61 -2.74,46.01 13.91,0.81 27.82,1.63 39.97,2.33 1.6,31.12 -6.04,63.22 6.63,79.02 13.09,16.32 45.94,16.8 77.61,26.49 11.01,13.63 -3.88,29.51 -12.67,47 -31.4,62.53 10.94,178.41 75.33,205.64 42.27,17.89 81.18,10.33 115.76,-19.57 14.46,-12.5 28.59,-25.39 52.45,-46.63 2.3,29.57 5.31,47.94 4.83,66.21 -1.03,39.01 2.86,76.91 26.51,109.07 11.31,15.38 27.5,27.16 44.24,43.22 20.07,-11.28 36.78,-21.05 53.84,-30.15 14.12,-7.52 28.66,-14.25 43,-21.34 10.78,-17.44 21.55,-34.87 32.32,-52.31 -13.37,-9.95 -26.75,-19.89 -40.12,-29.83 -68.77,-24.59 -89.88,-62.09 -96.01,-175.93 -14.79,-1.42 -30.56,-4.68 -46.18,-4.06 -33.11,1.31 -53.02,-14.42 -63.84,-44.25 -0.57,-1.56 -1.51,-3.05 -1.71,-4.65 -10.3,-80.39 -73.49,-101.62 -137.05,-122.12 -14.14,-4.56 -28.82,-7.47 -43.27,-11.07 -19.87,-4.96 -32.44,-15.94 -31.71,-38.04 -1.95,-13.63 -3.91,-27.25 -6.29,-43.87 -16.68,-2.52 -30.31,-4.58 -43.94,-6.64"
         style="fill:#d1d0d0;fill-opacity:1;fill-rule:nonzero;stroke:none"
         id="path4401"
         inkscape:connector-curvature="0" /><path
         d="m 1860.02,2630.41 c -29.51,23.34 -59.02,46.68 -88.53,70.04 -7.27,9.96 -14.54,19.92 -21.81,29.88 7.06,9.83 11.95,24.17 21.53,28.79 78.08,37.67 203.43,28.89 288.24,-48.3 -3.94,-25.67 -8.14,-53.01 -12.77,-83.17 -32.05,10.51 -62.26,28.01 -92.61,28.26 -31.28,0.25 -62.7,-16.3 -94.05,-25.5"
         style="fill:#a9a7a8;fill-opacity:1;fill-rule:nonzero;stroke:none"
         id="path4403"
         inkscape:connector-curvature="0" /><path
         d="m 1749.68,2730.33 c 7.27,-9.96 14.54,-19.92 21.81,-29.88 -1.66,-4.6 -1.91,-11.09 -5.17,-13.51 -49.55,-36.87 -74.69,-87.76 -85.86,-146.92 -13.95,-8.39 -27.91,-16.79 -44.24,-26.62 -12.94,7.36 -25.26,14.37 -31.95,18.17 0,29.84 0,53.35 0,76.87 21.74,44.55 44.78,88.09 95.47,106.5 16.35,5.94 33.28,10.3 49.94,15.39"
         style="fill:#d8d7d7;fill-opacity:1;fill-rule:nonzero;stroke:none"
         id="path4405"
         inkscape:connector-curvature="0" /><path
         d="m 2710.58,529.832 c -116.57,31.559 -191.59,108.258 -204.45,225.848 -15.83,144.84 65.58,295.37 248.46,304.41 64.66,3.19 124.97,-4.83 179.02,-46.84 55.11,-42.828 91.74,-95.219 106.35,-163.27 1.69,-7.878 4.49,-15.531 6.69,-22.992 39.47,-2.398 76.67,-4.668 113.87,-6.929 9.76,-26.528 5.99,-52.981 -8.49,-75.34 -25.49,-39.34 -54.3,-76.528 -81.71,-114.61 -36.08,-4.07 -72.79,-5.3 -108.1,-12.949 -43.78,-9.488 -73.35,8.719 -99.75,39.52 -12.47,14.539 -25.95,28.211 -38.03,41.269 -40.57,-12.219 -59.51,-33.867 -66.51,-71.429 -6.62,-35.481 -0.95,-79.688 -47.35,-96.688"
         style="fill:#b6b5b5;fill-opacity:1;fill-rule:nonzero;stroke:none"
         id="path4407"
         inkscape:connector-curvature="0" /><path
         d="m 2350.27,1471.2 c 6.12,-114.98 -85.52,-249.41 -245.3,-249.06 -142.7,0.31 -245.91,109.92 -245.23,249.16 0.67,140.22 106.71,248.07 247.8,246.54 161.33,-1.75 248.01,-137.27 242.73,-246.64"
         style="fill:#b6b5b5;fill-opacity:1;fill-rule:nonzero;stroke:none"
         id="path4409"
         inkscape:connector-curvature="0" /><path
         d="m 2240.08,2630.16 c 13.37,9.94 26.75,19.88 40.12,29.83 15.4,2.08 32.47,0.59 45.93,6.85 76.94,35.8 148.31,27.92 216.42,-21.8 100.7,-73.51 108.08,-230.67 9.69,-312.97 -110.15,-92.12 -263.6,-56.02 -319.63,74.71 -21.66,50.52 -19.31,104.07 -0.56,155.7 7.3,20.1 19.14,38.56 30.79,61.45 -8.62,2.36 -15.69,4.29 -22.76,6.23"
         style="fill:#b6b5b5;fill-opacity:1;fill-rule:nonzero;stroke:none"
         id="path4411"
         inkscape:connector-curvature="0" /><path
         d="m 2421.07,743.18 c 7.87,-14.2 15.17,-25.34 20.52,-37.36 22.55,-50.711 4.9,-107.59 -42.85,-139.992 -41.21,-27.969 -99.1,-21.019 -136.3,17.473 -10.25,10.597 -16.78,24.789 -26.98,35.449 -13.28,13.898 -26.51,30.301 -43.27,38.02 -73.07,33.601 -117.47,101.57 -111.57,176.402 6.07,76.949 63.73,143.519 137.06,167.038 74.41,23.86 161,-17.21 200.01,-76.491 27.7,-42.11 27.17,-87.688 16.91,-134.367 -3.2,-14.543 -8.33,-28.641 -13.53,-46.172"
         style="fill:#b6b5b5;fill-opacity:1;fill-rule:nonzero;stroke:none"
         id="path4413"
         inkscape:connector-curvature="0" /><path
         d="m 2160.51,1962.53 c 23.5,22.26 44.6,40.58 63.66,60.8 17.03,18.09 25.44,40.33 10.34,63.35 -15.76,24.02 -41.93,30.8 -65.79,19.35 -22.92,-11 -43.79,-28.95 -61.32,-47.8 -19.02,-20.45 -24.9,-47.8 -12.24,-74.15 13.45,-28.01 39.99,-24.85 65.35,-21.55 z m -130.46,7.19 c 0.84,95.19 49.98,161.9 136.17,184.85 80.78,21.5 173.39,-25.44 202.7,-103.5 20.3,-54.07 28.23,-108.99 10.69,-165.96 -17.18,-55.81 -53.76,-90.54 -109.61,-105.11 -140.68,-36.7 -252.01,74.96 -239.95,189.72"
         style="fill:#2a2627;fill-opacity:1;fill-rule:nonzero;stroke:none"
         id="path4415"
         inkscape:connector-curvature="0" /><path
         d="m 3070.32,630.109 c 27.41,38.082 56.22,75.27 81.71,114.61 14.48,22.359 18.25,48.812 8.49,75.34 3.14,3.41 6.29,6.812 9.44,10.211 18.21,-7.758 36.12,-16.36 54.7,-23.161 127.35,-46.629 174.56,-198.82 95.21,-307.777 -72.21,-99.184 -242.61,-90.742 -301.33,16.918 -15.3,28.039 -19.23,62.27 -28.37,93.641 27.47,3.75 59.55,-10.77 80.15,20.218"
         style="fill:#888686;fill-opacity:1;fill-rule:nonzero;stroke:none"
         id="path4417"
         inkscape:connector-curvature="0" /><path
         d="m 3320.25,1582.27 c 0.79,-83.9 -59.6,-161.32 -155.78,-159.87 -81.88,1.24 -144.58,48.79 -144.49,154.82 0.08,97.18 50.47,159.3 144.94,160.48 94.22,1.17 153.67,-73.16 155.33,-155.43"
         style="fill:#b6b5b5;fill-opacity:1;fill-rule:nonzero;stroke:none"
         id="path4419"
         inkscape:connector-curvature="0" /><path
         d="m 3311.51,2110.61 c -49.78,-0.91 -95,-39.58 -101.15,-75.68 -6.83,-40.15 17.4,-67.13 58.41,-66.39 38.78,0.71 57.7,28.32 77.05,55.24 13.12,18.25 23.28,40.52 7.32,59.28 -12.58,14.81 -33.56,22.48 -41.63,27.55 z m -22.97,-312.72 c -94.3,-14.61 -165.31,132.21 -132.95,212.27 17.84,44.14 44.63,81.66 82.12,110.74 53.89,41.81 106.72,39.36 164.78,-5.1 89.3,-68.38 90.4,-205.41 7.62,-281.08 -33.03,-30.18 -74.62,-33.51 -121.57,-36.83"
         style="fill:#2a2627;fill-opacity:1;fill-rule:nonzero;stroke:none"
         id="path4421"
         inkscape:connector-curvature="0" /><path
         d="m 1770.08,2179.53 c 13.63,2.06 27.26,4.12 43.94,6.64 2.38,16.62 4.34,30.24 6.29,43.87 26.28,-0.02 52.58,0.48 78.84,-0.16 80.64,-1.95 131.78,-57.87 131.08,-142.79 -0.66,-81.01 -53.11,-131.62 -131.86,-137.93 -114.24,-9.15 -187.64,110.08 -129.23,211.62 2.78,4.83 0.74,12.43 0.94,18.75"
         style="fill:#b6b5b5;fill-opacity:1;fill-rule:nonzero;stroke:none"
         id="path4423"
         inkscape:connector-curvature="0" /><path
         d="m 2990.29,2217.11 c 0.73,-79.71 -62.12,-145.92 -139.12,-146.58 -76.57,-0.65 -140.99,65.6 -140.87,144.86 0.13,79.06 65.28,145.33 141.64,144.1 75.27,-1.22 137.66,-65.43 138.35,-142.38"
         style="fill:#b6b5b5;fill-opacity:1;fill-rule:nonzero;stroke:none"
         id="path4425"
         inkscape:connector-curvature="0" /><path
         d="m 3459.72,1400.06 c 57.4,-10.86 88.03,-44.8 90.36,-100.11 2.01,-47.77 -28.23,-88.85 -76.29,-103.58 -45.02,-13.8 -92.38,5.4 -119.56,48.05 -21.97,34.51 -13.35,69.93 -3.91,105.47 33.64,22.89 68.79,42.46 109.4,50.17"
         style="fill:#888686;fill-opacity:1;fill-rule:nonzero;stroke:none"
         id="path4427"
         inkscape:connector-curvature="0" /><path
         d="m 3170.34,1169.97 c -6.2,-4.98 -12.4,-9.95 -21.22,-17.03 51.57,-31.63 54.49,-81.17 51.22,-132.94 -16.71,-26.719 -33.41,-53.43 -50.11,-80.148 -6.6,10.097 -13.2,20.187 -19.8,30.289 -31.49,50.579 -74.48,87.629 -129.72,110.309 -23.28,33.45 13.98,53.91 13.35,89.52 54.73,0 105.5,0 156.28,0"
         style="fill:#888686;fill-opacity:1;fill-rule:nonzero;stroke:none"
         id="path4429"
         inkscape:connector-curvature="0" /><path
         d="m 2524.46,1849.93 c 56.86,-1.48 86.83,-33.95 85.75,-92.88 -1.07,-58.89 -35.12,-89.51 -96.63,-86.91 -55.95,2.36 -85.24,35.9 -83.22,95.3 1.93,56.36 34.97,86.03 94.1,84.49"
         style="fill:#b6b5b5;fill-opacity:1;fill-rule:nonzero;stroke:none"
         id="path4431"
         inkscape:connector-curvature="0" /><path
         d="m 3070.32,630.109 c -20.6,-30.988 -52.68,-16.468 -80.15,-20.218 -21.91,-14.219 -43.74,-28.551 -65.73,-42.653 -65.65,-42.148 -138.28,-52.668 -214.43,-47.066 0.18,3.219 0.37,6.437 0.57,9.66 46.4,17 40.73,61.207 47.35,96.688 7,37.562 25.94,59.21 66.51,71.429 12.08,-13.058 25.56,-26.73 38.03,-41.269 26.4,-30.801 55.97,-49.008 99.75,-39.52 35.31,7.649 72.02,8.879 108.1,12.949"
         style="fill:#888687;fill-opacity:1;fill-rule:nonzero;stroke:none"
         id="path4433"
         inkscape:connector-curvature="0" /><path
         d="m 2569.97,1160.08 c -49.08,0.1 -87.27,35.7 -88.79,82.74 -1.54,48.3 38.42,87.23 89.43,87.1 49.27,-0.12 87.23,-35.49 88.76,-82.72 1.56,-48.3 -38.39,-87.23 -89.4,-87.12"
         style="fill:#b6b5b5;fill-opacity:1;fill-rule:nonzero;stroke:none"
         id="path4435"
         inkscape:connector-curvature="0" /><path
         d="m 3270.18,2275.59 c 0.24,-51.55 -31.86,-84.57 -83,-85.38 -53.53,-0.85 -87.52,33.17 -86.63,86.7 0.84,51.11 33.92,83.21 85.46,82.91 51.35,-0.3 83.92,-32.89 84.17,-84.23"
         style="fill:#b6b5b5;fill-opacity:1;fill-rule:nonzero;stroke:none"
         id="path4437"
         inkscape:connector-curvature="0" /><path
         d="m 2804.07,1677.53 c 44.52,0 89.51,0 132.77,0 17.04,-47.46 -6.79,-88.84 -63.02,-117.02 -55.24,36.38 -78.82,74.82 -69.75,117.02"
         style="fill:#2e2a2b;fill-opacity:1;fill-rule:nonzero;stroke:none"
         id="path4439"
         inkscape:connector-curvature="0" /><path
         d="m 1886.11,490.191 c -35.03,-0.203 -55.19,19.911 -55.12,54.95 0.07,35.07 20.22,54.968 55.39,54.66 33.09,-0.281 59.32,-22.891 60.9,-52.481 1.65,-30.859 -26.27,-56.941 -61.17,-57.129"
         style="fill:#b6b5b5;fill-opacity:1;fill-rule:nonzero;stroke:none"
         id="path4441"
         inkscape:connector-curvature="0" /><path
         d="m 3000.71,1080.45 c 55.24,-22.68 98.23,-59.73 129.72,-110.309 -6.82,-6.301 -12.75,-16.469 -20.59,-18.219 -38.69,-8.652 -72.16,4.969 -97.55,33.297 -24.88,27.761 -31.03,60.671 -11.58,95.231"
         style="fill:#b6b4b5;fill-opacity:1;fill-rule:nonzero;stroke:none"
         id="path4443"
         inkscape:connector-curvature="0" /><path
         d="m 1399.84,999.75 c 86.44,31.54 180.27,-8.301 225.33,-72.461 47.97,-68.328 46.46,-163.09 -3.1,-228.867 -51.35,-68.172 -148.47,-100.203 -227.46,-67.152 -92.97,38.89 -151.3,127.55 -114.75,248.351 6.76,0.117 13.52,0.219 20.27,0.328 19.31,-7.14 38.62,-14.269 57.3,-21.16 13.68,22.731 21.55,41.723 34.59,55.981 16.44,17.949 13.68,35.671 7.87,55.242 -0.02,9.91 -0.03,19.82 -0.05,29.738"
         style="fill:#888686;fill-opacity:1;fill-rule:nonzero;stroke:none"
         id="path4445"
         inkscape:connector-curvature="0" /><path
         d="m 860.105,769.988 c -26.898,49.024 -43.394,99.094 -30.335,156.871 19.609,86.741 113.046,156.431 201.31,141.491 100.27,-16.97 166.53,-84.569 164.69,-188.049 -2.4,-134.422 -134.22,-211.469 -265.567,-160.379 -23.363,16.687 -46.73,33.379 -70.098,50.066"
         style="fill:#b6b5b5;fill-opacity:1;fill-rule:nonzero;stroke:none"
         id="path4447"
         inkscape:connector-curvature="0" /><path
         d="m 860.105,769.988 c 23.368,-16.687 46.735,-33.379 70.098,-50.066 0.039,-7.844 -3.199,-18.262 0.625,-23.113 35.379,-44.887 28.863,-91.411 8.293,-139.289 -3.851,-8.981 -5.883,-18.731 -8.754,-28.129 -6.844,-6.45 -13.679,-12.922 -20.512,-19.379 -66.769,-41.832 -133.57,-55.371 -200.476,-0.274 -9.949,19.75 -19.902,39.524 -29.852,59.282 -47.558,65.429 -15.964,160.351 60.703,183.371 33.375,10.031 65.887,24.238 102.012,10.918 4.516,-1.661 11.84,4.273 17.863,6.679"
         style="fill:#b6b5b5;fill-opacity:1;fill-rule:nonzero;stroke:none"
         id="path4449"
         inkscape:connector-curvature="0" /><path
         d="m 499.785,489.809 c -28.867,-3.887 -47.019,-20.7 -58.722,-46.707 -5.317,-11.821 -13.512,-22.352 -20.411,-33.461 -90.132,9.05 -133.726,89.371 -88.539,163.14 23.332,38.078 63.985,54.699 111.946,45.758 37.152,-6.918 78.129,-46.648 84.082,-82.75 3.773,-22.879 3.445,-44.449 -28.356,-45.98"
         style="fill:#b6b5b5;fill-opacity:1;fill-rule:nonzero;stroke:none"
         id="path4451"
         inkscape:connector-curvature="0" /><path
         d="m 1410.16,1059.87 c -3.28,-3.3 -6.56,-6.59 -9.84,-9.89 -19.46,-3.32 -38.87,-9.12 -58.38,-9.47 -44.13,-0.78 -80.42,26.42 -89.89,64.21 -11.61,46.28 8.71,93.94 49.12,115.21 37.71,19.84 84.7,11.38 114.22,-20.57 30.08,-32.56 34.12,-82.87 9.44,-119.37 -4.64,-6.87 -9.77,-13.42 -14.67,-20.12"
         style="fill:#b6b5b5;fill-opacity:1;fill-rule:nonzero;stroke:none"
         id="path4453"
         inkscape:connector-curvature="0" /><path
         d="m 679.527,569.02 c 9.95,-19.758 19.903,-39.532 29.852,-59.282 7.168,-26.558 14.332,-53.117 21.5,-79.668 -53.816,16.84 -107.637,33.68 -161.453,50.52 6.109,11.66 13.625,22.808 18.086,35.058 15.941,43.832 45.758,62.442 92.015,53.372"
         style="fill:#7f7d7e;fill-opacity:1;fill-rule:nonzero;stroke:none"
         id="path4455"
         inkscape:connector-curvature="0" /><path
         d="m 1399.89,970.012 c 5.81,-19.571 8.57,-37.293 -7.87,-55.242 -13.04,-14.258 -20.91,-33.25 -34.59,-55.981 -18.68,6.891 -37.99,14.02 -57.3,21.16 -6,38.731 38.66,102.11 75.29,104.16 7.87,0.442 16.29,-9.14 24.47,-14.097"
         style="fill:#b5b4b4;fill-opacity:1;fill-rule:nonzero;stroke:none"
         id="path4457"
         inkscape:connector-curvature="0" /><path
         d="m 590.504,809.77 c 40.695,44.871 87.91,46.32 139.16,20.871 -14.367,-66.68 -53.234,-85.012 -112.355,-54 -7.539,3.961 -17.996,2.339 -27.098,3.308 0.098,9.942 0.195,19.871 0.293,29.821"
         style="fill:#b7b5b6;fill-opacity:1;fill-rule:nonzero;stroke:none"
         id="path4459"
         inkscape:connector-curvature="0" /><path
         d="m 1090.59,360.039 c -55.3,1.25 -82.14,31.52 -80.43,90.723 1.56,54.027 33.2,81.269 91.96,79.179 51.89,-1.839 78.88,-32.371 77.97,-88.191 -0.89,-55.531 -31.01,-83.02 -89.5,-81.711"
         style="fill:#888686;fill-opacity:1;fill-rule:nonzero;stroke:none"
         id="path4461"
         inkscape:connector-curvature="0" /><path
         d="m 730.879,430.07 c -7.168,26.551 -14.332,53.11 -21.5,79.668 66.906,-55.097 133.707,-41.558 200.476,0.274 -5.441,-17.364 -9.292,-35.43 -16.628,-51.953 -19.614,-44.168 -48.868,-75.278 -102.95,-67.93 -19.797,13.312 -39.597,26.633 -59.398,39.941"
         style="fill:#a9a7a7;fill-opacity:1;fill-rule:nonzero;stroke:none"
         id="path4463"
         inkscape:connector-curvature="0" /><path
         d="m 200.023,1350.01 c 20.739,-10.64 42.989,-15.7 58.665,5.28 28.058,37.58 65.906,59.33 107.937,76.55 8.758,3.58 15.488,12.11 23.148,18.36 6.606,-4.96 12.629,-11.08 19.899,-14.68 65.062,-32.31 67.812,-85 55.543,-149.11 -3.106,-16.23 -16.746,-32.87 -29.895,-44.32 -61.293,-53.44 -162.656,-21.97 -184.492,56.13 -1.769,6.35 -2.785,12.9 -3.859,17.98 -16.524,11.9 -31.735,22.85 -46.946,33.81"
         style="fill:#888686;fill-opacity:1;fill-rule:nonzero;stroke:none"
         id="path4465"
         inkscape:connector-curvature="0" /><path
         d="m 3624.5,1779.8 c 47.13,0.35 84.43,-35.07 84.26,-80.01 -0.17,-45.12 -37.37,-80.09 -84.67,-79.58 -49.49,0.53 -83.36,33.07 -83.24,80 0.11,46.95 34.03,79.23 83.65,79.59"
         style="fill:#888686;fill-opacity:1;fill-rule:nonzero;stroke:none"
         id="path4467"
         inkscape:connector-curvature="0" /><path
         d="m 3700.39,849.988 c 0.04,89.821 20.6,121.332 95.68,145.141 11.09,-4.688 23.05,-9.77 35.01,-14.84 29.92,-23.16 59.84,-46.328 89.76,-69.508 -0.8,-39.441 -11.96,-74.711 -42.87,-101.191 -39.22,-33.61 -84.26,-36.36 -126.53,-5.91 -18.53,13.34 -34.13,30.742 -51.05,46.308"
         style="fill:#b6b5b5;fill-opacity:1;fill-rule:nonzero;stroke:none"
         id="path4469"
         inkscape:connector-curvature="0" /><path
         d="m 3610.76,910.031 c 6.72,-20.011 13.44,-40.031 20.16,-60.043 -13.56,-20.058 -27.11,-40.129 -40.67,-60.187 -4.13,-20.981 -12.94,-37 -37.45,-38.789 -35.52,-2.614 -69.87,-2.313 -95.14,28.699 -33.1,40.578 -33.96,85.008 -2.41,127.348 24.02,32.211 75.13,44.031 117.32,25.8 13.49,-5.828 25.51,-15.121 38.19,-22.828"
         style="fill:#d8d8d8;fill-opacity:1;fill-rule:nonzero;stroke:none"
         id="path4471"
         inkscape:connector-curvature="0" /><path
         d="m 3990.42,559.531 c 25.17,8 50.24,16.289 75.51,23.957 51.84,15.731 95.39,6.723 124.89,-42.879 -0.34,-24.058 -14.06,-36.711 -36.5,-38.859 -60.86,-5.809 -118.62,0.379 -163.92,48.172 0.02,3.199 0.02,6.41 0.02,9.609"
         style="fill:#b6b4b5;fill-opacity:1;fill-rule:nonzero;stroke:none"
         id="path4473"
         inkscape:connector-curvature="0" /><path
         d="m 3990.42,559.531 c 0,-3.199 0,-6.41 -0.02,-9.609 -41.3,14.648 -52.08,53.547 -66.8,87.719 -19.07,44.238 -19.77,91.019 -2.66,136.148 5.24,13.852 19.49,24.293 29.62,36.293 16.61,-33.594 37.29,-65.82 31.95,-106.16 -2.77,-20.863 -3.44,-42.031 -6.6,-62.813 -4.44,-29.07 -16.16,-58.937 14.51,-81.578"
         style="fill:#b6b4b5;fill-opacity:1;fill-rule:nonzero;stroke:none"
         id="path4475"
         inkscape:connector-curvature="0" /><path
         d="m 2160.51,1962.53 c -25.36,-3.3 -51.9,-6.46 -65.35,21.55 -12.66,26.35 -6.78,53.7 12.24,74.15 17.53,18.85 38.4,36.8 61.32,47.8 23.86,11.45 50.03,4.67 65.79,-19.35 15.1,-23.02 6.69,-45.26 -10.34,-63.35 -19.06,-20.22 -40.16,-38.54 -63.66,-60.8"
         style="fill:#fcfcfc;fill-opacity:1;fill-rule:nonzero;stroke:none"
         id="path4477"
         inkscape:connector-curvature="0" /><path
         d="m 3311.51,2110.61 c 8.07,-5.07 29.05,-12.74 41.63,-27.55 15.96,-18.76 5.8,-41.03 -7.32,-59.28 -19.35,-26.92 -38.27,-54.53 -77.05,-55.24 -41.01,-0.74 -65.24,26.24 -58.41,66.39 6.15,36.1 51.37,74.77 101.15,75.68"
         style="fill:#fcfcfc;fill-opacity:1;fill-rule:nonzero;stroke:none"
         id="path4479"
         inkscape:connector-curvature="0" /></g></g></svg>