<?xml version="1.0" encoding="UTF-8" standalone="no"?>
<!-- Created with Inkscape (http://www.inkscape.org/) -->

<svg
   xmlns:dc="http://purl.org/dc/elements/1.1/"
   xmlns:cc="http://creativecommons.org/ns#"
   xmlns:rdf="http://www.w3.org/1999/02/22-rdf-syntax-ns#"
   xmlns:svg="http://www.w3.org/2000/svg"
   xmlns="http://www.w3.org/2000/svg"
   xmlns:sodipodi="http://sodipodi.sourceforge.net/DTD/sodipodi-0.dtd"
   xmlns:inkscape="http://www.inkscape.org/namespaces/inkscape"
   version="1.1"
   id="svg48"
   xml:space="preserve"
   width="427.84"
   height="425.88"
   viewBox="0 0 427.84 425.88"
   sodipodi:docname="flashlight.svg"
   inkscape:version="0.92.3 (2405546, 2018-03-11)"><metadata
     id="metadata54"><rdf:RDF><cc:Work
         rdf:about=""><dc:format>image/svg+xml</dc:format><dc:type
           rdf:resource="http://purl.org/dc/dcmitype/StillImage" /><dc:title></dc:title></cc:Work></rdf:RDF></metadata><defs
     id="defs52" /><sodipodi:namedview
     pagecolor="#ffffff"
     bordercolor="#666666"
     borderopacity="1"
     objecttolerance="10"
     gridtolerance="10"
     guidetolerance="10"
     inkscape:pageopacity="0"
     inkscape:pageshadow="2"
     inkscape:window-width="1858"
     inkscape:window-height="1071"
     id="namedview50"
     showgrid="false"
     inkscape:zoom="2.0216962"
     inkscape:cx="213.92"
     inkscape:cy="212.94"
     inkscape:window-x="0"
     inkscape:window-y="0"
     inkscape:window-maximized="1"
     inkscape:current-layer="g56" /><g
     id="g56"
     inkscape:groupmode="layer"
     inkscape:label="ink_ext_XXXXXX"
     transform="matrix(1.3333333,0,0,-1.3333333,0,425.88)"><g
       id="g58"
       transform="scale(0.1)"><path
         d="M 231.887,130.469 C 316.383,55.3711 397.984,-26.9297 528.082,8.46875 626.086,-21.1289 664.988,61.9688 716.488,112.57 c 270,265.301 537.902,532.801 805.002,801 157.79,158.5 312.89,319.7 469.19,479.7 73.7,72.9 147.4,145.8 221.01,218.7 269.29,53.5 497.29,188.6 708.4,357.4 74.29,-12.2 192.9,95.4 210.59,191 23.81,25.1 47.5,50.3 78.11,82.6 -85.4,81.6 -166.4,158.9 -247.41,236.2 -239.79,230.9 -479.5,461.9 -742,714.9 -11.6,-19.2 -30,-49.6 -48.3,-80.1 -93.19,-17.8 -196.4,-129.5 -189.79,-205.5 -167.6,-209.9 -308,-433.5 -355,-704.1 -76.7,-75.4 -153.41,-150.8 -230,-226.2 -102.1,-100.2 -204.2,-200.4 -306.3,-300.5 -9.41,7.9 -18.81,15.8 -28.21,23.8 -16.09,30.3 -32.19,60.5 -41.4,78 -190.294,-189 -354.396,-352.1 -524.692,-521.2 19.597,-18.7 46.496,-44.3 73.398,-69.8 0.5,-5.5 1.898,-10.8 4.102,-15.8 C 399.086,996.371 225.383,819.672 50.582,643.969 14.6836,607.871 -23.7148,575.172 18.4844,520.172 22.7852,468.469 9.88672,405.672 34.7891,367.469 90.582,281.77 165.086,208.672 231.887,130.469"
         style="fill:#ffffff;fill-opacity:1;fill-rule:nonzero;stroke:none"
         id="path60"
         inkscape:connector-curvature="0" /><path
         d="m 1090.09,1677.57 c 102.09,100.2 204.19,200.4 306.29,300.5 34.8,-31.3 69.6,-62.6 104.31,-93.9 12.79,-13.7 25.6,-27.4 38.39,-41.1 86.41,-91 172.8,-182.1 259.21,-273.1 -21.81,-39.1 -36.7,-84.6 -66.51,-116.1 -102.69,-108.8 -209.6,-213.8 -316.79,-318.4 C 1176.58,902.77 937.184,671.07 698.082,439.07 599.586,343.57 500.484,248.57 401.688,153.27 273.988,275.469 146.285,397.672 18.6836,519.871 -23.5117,574.969 14.8867,607.57 50.7852,643.672 225.582,819.371 399.285,996.07 573.387,1172.37 c 8.301,11.4 16.597,22.9 24.801,34.3 l 3.996,-1.9 c 132.902,133.6 265.8,267.2 398.706,400.8 l -4.402,3.9 5.002,-3.1 c 29.49,23.8 59,47.5 88.6,71.2"
         style="fill:#f8d00d;fill-opacity:1;fill-rule:nonzero;stroke:none"
         id="path62"
         inkscape:connector-curvature="0" /><path
         d="m 2920.09,1969.37 c -211.11,-168.7 -439.11,-303.9 -708.4,-357.4 -59.51,58.5 -118.91,117 -178.4,175.5 -91.51,90.9 -183.01,181.7 -274.5,272.6 -1.01,5.8 -1.91,11.6 -2.41,17.4 41.21,79.7 79.81,161 124.2,238.8 83.8,146.6 171.01,291.2 256.7,436.6 5.5,-0.2 11.01,-0.6 16.51,-1.3 22.99,-25.8 44.79,-52.8 69.29,-77 152.71,-150.5 306.01,-300.4 459.1,-450.5 79.41,-84.9 158.61,-169.8 237.91,-254.7"
         style="fill:#e9b50e;fill-opacity:1;fill-rule:nonzero;stroke:none"
         id="path64"
         inkscape:connector-curvature="0" /><path
         d="m 401.586,153.27 c 98.797,95.199 197.801,190.3 296.398,285.8 239.2,231.899 478.506,463.602 716.906,696.4 107.09,104.6 213.99,209.5 316.8,318.4 29.79,31.5 44.69,77 66.49,116.1 6.01,0 11.91,-0.3 17.8,-1 58.21,-58.6 116.51,-117.1 174.7,-175.7 -156.3,-160 -311.4,-321.2 -469.19,-479.7 C 1254.39,645.371 986.586,377.871 716.488,112.57 664.988,61.9688 626.086,-21.1289 528.082,8.46875 486.984,50.3711 445.785,92.1719 404.684,134.07 c -1.7,6.301 -2.7,12.7 -3.098,19.2"
         style="fill:#e9b50e;fill-opacity:1;fill-rule:nonzero;stroke:none"
         id="path66"
         inkscape:connector-curvature="0" /><path
         d="m 2137.39,2752.87 c -85.8,-145.4 -173.01,-290 -256.71,-436.6 -44.49,-77.8 -83,-159.1 -124.3,-238.8 -13.09,7.6 -26.29,15.2 -39.39,22.8 -30.21,34.7 -60.4,69.3 -90.61,104 47.01,270.6 187.41,494.2 355,704.1 44.3,-38.9 88.61,-77.9 133,-116.9 7.61,-12.8 15.3,-25.7 23.01,-38.6"
         style="fill:#f8d00d;fill-opacity:1;fill-rule:nonzero;stroke:none"
         id="path68"
         inkscape:connector-curvature="0" /><path
         d="m 2171.08,3113.97 c 18.41,30.4 36.81,60.9 48.3,80.1 262.5,-253 502.21,-484 741.91,-714.9 -29.3,-21.5 -58.51,-43 -87.81,-64.5 -30.8,27.8 -62.5,54.7 -92.29,83.6 -157.4,152.3 -314.31,305.1 -471.3,457.7 -14.31,15.5 -28.51,31 -42.8,46.5 -31.91,37.1 -64.01,74.3 -96.01,111.5"
         style="fill:#f8d00d;fill-opacity:1;fill-rule:nonzero;stroke:none"
         id="path70"
         inkscape:connector-curvature="0" /><path
         d="m 2920.09,1969.37 c -79.3,84.9 -158.5,169.8 -237.81,254.7 8.61,32.1 17.31,64.2 23.7,88.2 18.11,-1.7 41.8,-11.6 54.41,-3.7 40.9,25.6 77.69,57.6 116.09,87.2 84.71,-78.5 169.31,-157 254.01,-235.4 -17.5,-95.6 -136.11,-203.2 -210.4,-191"
         style="fill:#343a41;fill-opacity:1;fill-rule:nonzero;stroke:none"
         id="path72"
         inkscape:connector-curvature="0" /><path
         d="m 1990.68,1393.27 c -58.19,58.6 -116.49,117.1 -174.7,175.7 72.41,72.8 144.91,145.7 217.31,218.5 59.49,-58.5 118.89,-117 178.4,-175.5 -73.7,-72.9 -147.31,-145.8 -221.01,-218.7"
         style="fill:#343a41;fill-opacity:1;fill-rule:nonzero;stroke:none"
         id="path74"
         inkscape:connector-curvature="0" /><path
         d="m 569.188,1188.27 c -26.903,25.6 -53.805,51.2 -73.403,69.8 170.301,169.2 334.399,332.2 524.705,521.2 9.3,-17.4 25.29,-47.7 41.4,-78 -20.2,-31.6 -40.31,-63.3 -60.51,-94.9 l -4.997,3.1 c 0,0 4.397,-3.9 4.307,-3.8 -16.604,-2.3 -38.803,1.4 -48.803,-7.9 -116.602,-109.9 -232,-220.9 -345.199,-334.2 -10.602,-10.6 -3.5,-38.7 -4.602,-58.7 0,0 -4.004,1.9 -4.102,1.9 -9.597,-6.1 -19.199,-12.3 -28.796,-18.5"
         style="fill:#d23124;fill-opacity:1;fill-rule:nonzero;stroke:none"
         id="path76"
         inkscape:connector-curvature="0" /><path
         d="m 401.586,153.27 c 0.398,-6.5 1.398,-12.899 3.098,-19.2 -57.598,-1.199 -115.2,-2.398 -172.797,-3.601 C 165.086,208.57 90.582,281.77 34.8867,367.172 9.98828,405.371 22.7852,468.172 18.5859,519.871 146.285,397.672 273.883,275.469 401.586,153.27"
         style="fill:#3b4548;fill-opacity:1;fill-rule:nonzero;stroke:none"
         id="path78"
         inkscape:connector-curvature="0" /><path
         d="m 2171.08,3113.97 c 32,-37.2 64.1,-74.4 96.1,-111.6 -50.99,-70.2 -101.9,-140.5 -152.9,-210.8 -44.29,39 -88.6,78 -132.99,116.9 -6.61,76 96.49,187.8 189.79,205.5"
         style="fill:#3b4548;fill-opacity:1;fill-rule:nonzero;stroke:none"
         id="path80"
         inkscape:connector-curvature="0" /><path
         d="m 3130.68,2160.37 c -84.7,78.5 -169.3,157 -253.99,235.4 -1.01,6.3 -2.1,12.5 -3.11,18.8 29.31,21.5 58.51,43 87.8,64.5 81.01,-77.3 162.01,-154.6 247.41,-236.2 -30.61,-32.2 -54.41,-57.4 -78.11,-82.5"
         style="fill:#e9b50e;fill-opacity:1;fill-rule:nonzero;stroke:none"
         id="path82"
         inkscape:connector-curvature="0" /><path
         d="m 1626.38,2204.37 c 30.21,-34.7 60.4,-69.3 90.61,-104 -72.1,-72 -144.2,-144.1 -216.3,-216.1 -34.8,31.3 -69.6,62.6 -104.31,93.9 76.61,75.4 153.3,150.8 230,226.2"
         style="fill:#3b4548;fill-opacity:1;fill-rule:nonzero;stroke:none"
         id="path84"
         inkscape:connector-curvature="0" /><path
         d="m 231.887,130.469 c 57.597,1.203 115.199,2.402 172.797,3.601 C 445.785,92.1719 486.984,50.3711 528.082,8.46875 397.984,-26.8281 316.383,55.3711 231.887,130.469"
         style="fill:#343a41;fill-opacity:1;fill-rule:nonzero;stroke:none"
         id="path86"
         inkscape:connector-curvature="0" /><path
         d="m 1001.38,1606.47 c 20.2,31.6 40.31,63.2 60.51,94.9 9.4,-7.9 18.8,-15.8 28.1,-23.7 -29.5,-23.8 -59.01,-47.5 -88.61,-71.2"
         style="fill:#c52424;fill-opacity:1;fill-rule:nonzero;stroke:none"
         id="path88"
         inkscape:connector-curvature="0" /><path
         d="m 569.188,1188.27 c 9.597,6.2 19.199,12.4 28.894,18.5 -8.195,-11.5 -16.496,-22.9 -24.797,-34.3 -2.199,5 -3.601,10.3 -4.097,15.8"
         style="fill:#c52424;fill-opacity:1;fill-rule:nonzero;stroke:none"
         id="path90"
         inkscape:connector-curvature="0" /><path
         d="m 2033.29,1787.47 c -72.4,-72.8 -144.9,-145.7 -217.31,-218.5 -5.89,0.7 -11.89,1 -17.8,1 -86.4,91 -172.79,182.1 -259.1,273.1 73.31,72.3 146.5,144.7 219.8,217 91.4,-90.8 182.9,-181.7 274.41,-272.6"
         style="fill:#3b4548;fill-opacity:1;fill-rule:nonzero;stroke:none"
         id="path92"
         inkscape:connector-curvature="0" /><path
         d="m 602.086,1204.87 c 1.102,20 -5.902,48.1 4.602,58.7 113.199,113.3 228.597,224.4 345.199,334.2 9.898,9.4 32.199,5.6 48.803,7.9 -132.807,-133.6 -265.702,-267.2 -398.604,-400.8"
         style="fill:#c52424;fill-opacity:1;fill-rule:nonzero;stroke:none"
         id="path94"
         inkscape:connector-curvature="0" /><path
         d="m 1758.79,2060.07 c -73.3,-72.3 -146.51,-144.7 -219.8,-217 -12.81,13.7 -25.6,27.4 -38.41,41.1 72.1,72 144.2,144.1 216.3,216.1 13.11,-7.6 26.3,-15.2 39.41,-22.8 0.7,-5.8 1.49,-11.6 2.5,-17.4"
         style="fill:#515c64;fill-opacity:1;fill-rule:nonzero;stroke:none"
         id="path96"
         inkscape:connector-curvature="0" /><path
         d="m 2635.98,2401.07 c -5.8,2.5 -11.7,5 -17.5,7.6 -2.5,-5.9 -8.3,-13 -6.6,-17.2 1.6,-4.2 10.8,-5.4 16.6,-7.9 2.5,5.8 5,11.6 7.5,17.5 z m -75.49,71.4 c -8,7.2 -14.6,17.8 -20.81,17.5 -6.2,-0.2 -18.2,-14 -16.9,-17 4.21,-9.6 13.51,-16.9 20.8,-25.1 5.11,7.4 10.11,14.8 16.91,24.6 z m -313.4,267.5 c 45.4,-37.1 85.8,-70.2 127,-103.9 8.9,41.6 17.29,80.8 26.99,126.3 -54.79,-7.9 -101.09,-14.7 -153.99,-22.4 z m 165.09,-154.4 c -2.9,1.6 -5.8,3.2 -8.79,4.8 2.9,-1.6 5.8,-3.2 8.79,-4.8 15,-12.7 30,-25.3 45,-37.9 3.21,9 6.4,17.9 9.6,26.9 -18.2,3.7 -36.39,7.4 -54.6,11 z m 461.4,-171 c 1.01,-6.3 2,-12.5 3.11,-18.8 -38.4,-29.6 -75.21,-61.6 -116.2,-87.2 -12.6,-7.9 -36.4,2 -54.41,3.7 -6.49,-24.1 -15.1,-56.1 -23.69,-88.2 -153.11,150.1 -306.41,299.9 -459.1,450.5 -24.6,24.2 -46.3,51.3 -69.31,77 52,68.1 104.1,136.2 156.11,204.3 157.09,-152.6 313.89,-305.4 471.29,-457.7 29.7,-28.8 61.4,-55.8 92.2,-83.6"
         style="fill:#3b4548;fill-opacity:1;fill-rule:nonzero;stroke:none"
         id="path98"
         inkscape:connector-curvature="0" /><path
         d="m 2309.99,2955.87 c -52,-68.1 -104.01,-136.2 -156.11,-204.3 -5.49,0.7 -10.99,1.2 -16.49,1.4 -7.71,12.9 -15.4,25.8 -23.11,38.7 50.9,70.3 101.91,140.6 152.9,210.8 14.3,-15.6 28.5,-31.1 42.81,-46.6"
         style="fill:#515c64;fill-opacity:1;fill-rule:nonzero;stroke:none"
         id="path100"
         inkscape:connector-curvature="0" /><path
         d="m 2247.09,2739.97 c 52.9,7.7 99.2,14.5 153.99,22.5 -9.7,-45.6 -18.09,-84.7 -26.99,-126.3 -41.2,33.6 -81.7,66.7 -127,103.8"
         style="fill:#343a41;fill-opacity:1;fill-rule:nonzero;stroke:none"
         id="path102"
         inkscape:connector-curvature="0" /><path
         d="m 2560.49,2472.47 c -6.7,-9.8 -11.8,-17.2 -16.91,-24.6 -7.29,8.2 -16.7,15.5 -20.8,25.1 -1.3,3.1 10.61,16.8 16.9,17 6.11,0.2 12.81,-10.3 20.81,-17.5"
         style="fill:#343a41;fill-opacity:1;fill-rule:nonzero;stroke:none"
         id="path104"
         inkscape:connector-curvature="0" /><path
         d="m 2412.18,2585.57 c 18.21,-3.7 36.4,-7.3 54.6,-11 -3.2,-9 -6.39,-17.9 -9.6,-26.9 -15,12.7 -30,25.3 -45,37.9 v 0"
         style="fill:#343a41;fill-opacity:1;fill-rule:nonzero;stroke:none"
         id="path106"
         inkscape:connector-curvature="0" /><path
         d="m 2635.98,2401.07 c -2.5,-5.9 -5,-11.7 -7.5,-17.5 -5.8,2.5 -15,3.8 -16.6,7.9 -1.6,4.2 4.1,11.4 6.6,17.2 5.8,-2.6 11.7,-5.1 17.5,-7.6"
         style="fill:#343a41;fill-opacity:1;fill-rule:nonzero;stroke:none"
         id="path108"
         inkscape:connector-curvature="0" /><path
         d="m 2412.09,2585.57 c -2.9,1.6 -5.8,3.2 -8.7,4.9 2.9,-1.6 5.8,-3.2 8.7,-4.9 v 0"
         style="fill:#343a41;fill-opacity:1;fill-rule:nonzero;stroke:none"
         id="path110"
         inkscape:connector-curvature="0" /></g></g></svg>