<?xml version="1.0" encoding="iso-8859-1"?>
<!-- Generator: Adobe Illustrator 19.0.0, SVG Export Plug-In . SVG Version: 6.00 Build 0)  -->
<svg version="1.1" id="Layer_1" xmlns="http://www.w3.org/2000/svg" xmlns:xlink="http://www.w3.org/1999/xlink" x="0px" y="0px"
	 viewBox="0 0 512.001 512.001" style="enable-background:new 0 0 512.001 512.001;" xml:space="preserve">
<g>
	<g>
		<g>
			<path d="M508.875,123.804L388.197,3.125c-2.003-2-4.716-3.125-7.545-3.125c-2.829,0-5.542,1.125-7.543,3.125l-60.341,60.341
				c-0.155,0.154-0.293,0.319-0.435,0.481c-0.063,0.07-0.129,0.137-0.19,0.208c-0.269,0.319-0.516,0.652-0.744,0.997
				c-0.031,0.045-0.057,0.094-0.083,0.14c-0.194,0.305-0.371,0.619-0.533,0.941c-0.05,0.1-0.096,0.203-0.144,0.305
				c-0.138,0.299-0.262,0.604-0.373,0.914c-0.021,0.062-0.052,0.118-0.073,0.18l-21.829,65.494L30.437,391.054
				c-0.004,0.004-0.009,0.006-0.013,0.011c-0.002,0.003-0.006,0.007-0.011,0.012L7.741,413.75
				C2.748,418.742-0.002,425.396,0,432.486c0,7.089,2.75,13.742,7.743,18.735l53.038,53.038C65.774,509.251,72.427,512,79.518,512
				c7.089,0,13.742-2.749,18.733-7.741l280.623-280.62l65.492-21.829c0.075-0.025,0.144-0.063,0.219-0.089
				c0.288-0.103,0.571-0.218,0.848-0.345c0.118-0.055,0.238-0.109,0.354-0.167c0.293-0.148,0.581-0.312,0.863-0.486
				c0.068-0.044,0.142-0.082,0.21-0.127c0.337-0.222,0.66-0.465,0.973-0.727c0.087-0.073,0.166-0.153,0.252-0.227
				c0.15-0.134,0.306-0.265,0.45-0.409l30.152-30.151c0.006-0.006,0.013-0.011,0.019-0.017s0.011-0.013,0.017-0.019l30.152-30.153
				C513.042,134.725,513.042,127.97,508.875,123.804z M239.448,332.886c-1.996,1.997-4.676,3.098-7.541,3.098
				c-2.844,0-5.503-1.083-7.495-3.051c-0.015-0.016-0.031-0.031-0.046-0.047c-1.998-1.997-3.098-4.675-3.098-7.54
				c0-2.866,1.1-5.544,3.098-7.541l23.917-23.917c1.544,3.239,3.642,6.223,6.249,8.831c2.606,2.609,5.593,4.707,8.831,6.252
				L239.448,332.886z M300.521,271.736c-0.227,0.278-0.471,0.548-0.731,0.809l-15.089,15.088c-1.996,1.998-4.674,3.098-7.539,3.098
				c-2.865,0-5.545-1.101-7.541-3.098c-1.998-1.998-3.098-4.677-3.098-7.542s1.1-5.541,3.098-7.54l15.089-15.087
				c1.996-1.998,4.674-3.097,7.539-3.097c2.865-0.001,5.542,1.099,7.541,3.099c1.559,1.559,2.534,3.484,2.923,5.501
				C303.297,265.993,302.567,269.225,300.521,271.736z M321.121,251.214c-1.038-2.179-2.334-4.263-3.892-6.206
				c-0.73-0.909-1.509-1.79-2.352-2.633c-6.028-6.027-14.064-9.347-22.627-9.347c-8.564,0-16.599,3.319-22.627,9.347l-60.344,60.34
				c-6.028,6.028-9.348,14.065-9.348,22.63c0,8.53,3.292,16.534,9.272,22.554c0.027,0.026,0.052,0.052,0.077,0.078
				c2.606,2.606,5.59,4.703,8.831,6.247L83.16,489.172c-1.296,1.296-2.838,1.49-3.642,1.49c-0.807,0-2.35-0.194-3.649-1.492
				l-53.038-53.038c-1.3-1.299-1.494-2.845-1.494-3.65s0.194-2.347,1.491-3.646l15.14-15.141l16.218,16.218
				c2.084,2.084,4.814,3.125,7.545,3.125c2.73,0,5.459-1.042,7.543-3.125c4.167-4.166,4.167-10.922,0-15.088L53.057,398.61
				L297.686,153.98l60.335,60.335L321.121,251.214z M375.993,202.108l-66.098-66.099l15.082-45.247l96.264,96.263L375.993,202.108z
				 M471.161,146.431l-30.95-30.95c-4.167-4.166-10.921-4.166-15.088,0c-4.165,4.166-4.165,10.922,0,15.089l30.95,30.95
				l-15.08,15.08L335.401,71.007l45.25-45.252l105.592,105.591L471.161,146.431z"/>
			<path d="M403.436,108.874c2.084,2.097,4.823,3.147,7.566,3.147c2.719,0,5.441-1.034,7.523-3.102
				c4.178-4.154,4.197-10.91,0.044-15.088l-0.177-0.178c-4.153-4.178-10.909-4.198-15.089-0.044
				c-4.178,4.154-4.199,10.91-0.044,15.088L403.436,108.874z"/>
			<path d="M90.903,436.45c-4.189-4.142-10.946-4.104-15.087,0.086c-4.143,4.191-4.105,10.945,0.085,15.088l0.184,0.18
				c2.079,2.056,4.788,3.081,7.499,3.081c2.75,0,5.501-1.057,7.587-3.169c4.143-4.191,4.105-10.945-0.085-15.088L90.903,436.45z"/>
		</g>
	</g>
</g>
<g>
</g>
<g>
</g>
<g>
</g>
<g>
</g>
<g>
</g>
<g>
</g>
<g>
</g>
<g>
</g>
<g>
</g>
<g>
</g>
<g>
</g>
<g>
</g>
<g>
</g>
<g>
</g>
<g>
</g>
</svg>
