<svg height="512pt" viewBox="-108 0 512 512" width="512pt" xmlns="http://www.w3.org/2000/svg"><path d="m182.027344 38.199219c2.933594-5.652344 2.035156-12.777344-2.707032-17.519531-4.742187-4.742188-11.867187-5.640626-17.519531-2.707032-1.921875-6.070312-7.59375-10.472656-14.300781-10.472656s-12.382812 4.402344-14.300781 10.472656c-5.652344-2.933594-12.777344-2.035156-17.519531 2.707032-4.742188 4.742187-5.640626 11.867187-2.707032 17.519531-6.070312 1.917969-10.472656 7.59375-10.472656 14.300781v45h90v-45c0-6.707031-4.402344-12.382812-10.472656-14.300781zm0 0" fill="#80bf63"/><path d="m142.5 192.5 5 145c24.851562 0 45-20.148438 45-45v-100zm0 0" fill="#80bf63"/><path d="m102.5 192.5v100c0 24.851562 20.148438 45 45 45 8.285156 0 15-20.148438 15-45v-100zm0 0" fill="#aacf88"/><path d="m147.5 52.5v90c24.851562 0 45-20.148438 45-45s-20.148438-45-45-45zm0 0" fill="#80bf63"/><path d="m162.5 97.5c0-24.851562-6.714844-45-15-45-24.851562 0-45 20.148438-45 45s20.148438 45 45 45c8.285156 0 15-20.148438 15-45zm0 0" fill="#aacf88"/><path d="m187.5 172.5h-30l20 30 30 15v-25c0-11.046875-8.953125-20-20-20zm0 0" fill="#40b862"/><path d="m157.5 172.5h-50c-11.046875 0-20 8.953125-20 20v25l31-15 29 30 30-30v-10c0-11.046875-8.953125-20-20-20zm0 0" fill="#80bf63"/><path d="m147.5 150c28.949219 0 52.5-23.550781 52.5-52.5v-45c0-7.269531-3.433594-13.863281-9-18.019531 1-6.875-1.238281-13.964844-6.378906-19.105469-5.140625-5.136719-12.226563-7.378906-19.105469-6.375-4.152344-5.566406-10.75-9-18.015625-9-7.269531 0-13.863281 3.429688-18.019531 9-6.875-1.003906-13.964844 1.238281-19.105469 6.375-5.136719 5.140625-7.375 12.230469-6.375 19.105469-5.570312 4.15625-9 10.75-9 18.019531v45c0 28.949219 23.550781 52.5 52.5 52.5zm-37.5-97.5c0-3.289062 2.105469-6.160156 5.234375-7.148438 2.109375-.667968 3.816406-2.234374 4.667969-4.28125.847656-2.046874.746094-4.363281-.273438-6.328124-1.515625-2.914063-.96875-6.433594 1.355469-8.757813s5.847656-2.867187 8.757813-1.355469c1.964843 1.023438 4.28125 1.121094 6.328124.273438 2.046876-.847656 3.613282-2.554688 4.28125-4.667969.988282-3.128906 3.863282-5.234375 7.148438-5.234375s6.160156 2.105469 7.148438 5.234375c.667968 2.113281 2.234374 3.820313 4.28125 4.667969 2.046874.847656 4.359374.75 6.328124-.273438 2.910157-1.511718 6.433594-.96875 8.757813 1.355469s2.867187 5.84375 1.355469 8.757813c-1.023438 1.964843-1.121094 4.28125-.273438 6.328124.847656 2.046876 2.554688 3.613282 4.667969 4.28125 3.128906.988282 5.234375 3.863282 5.234375 7.148438v8.308594c-9.539062-9.746094-22.820312-15.808594-37.5-15.808594s-27.964844 6.0625-37.5 15.808594zm37.5 7.5c20.675781 0 37.5 16.820312 37.5 37.5 0 20.675781-16.824219 37.5-37.5 37.5-20.679688 0-37.5-16.824219-37.5-37.5 0-20.679688 16.820312-37.5 37.5-37.5zm0 0"/><path d="m214.019531 185.242188c-3.191406-11.652344-13.871093-20.242188-26.519531-20.242188h-80c-12.652344 0-23.328125 8.589844-26.519531 20.242188-45.214844 3.347656-80.980469 41.203124-80.980469 87.257812 0 4.140625 3.355469 7.5 7.5 7.5s7.5-3.359375 7.5-7.5c0-37.445312 28.535156-68.347656 65-72.113281v17.113281c0 2.582031 1.328125 4.980469 3.515625 6.351562 2.1875 1.375 4.925781 1.523438 7.25.398438l4.234375-2.046875v70.296875c0 14.269531 5.730469 27.21875 15 36.691406v159.902344l-24.871094 8.289062c-3.929687 1.308594-6.054687 5.558594-4.746094 9.488282 1.050782 3.140625 3.976563 5.128906 7.117188 5.128906.785156 0 1.585938-.125 2.371094-.386719l30-10c3.0625-1.019531 5.128906-3.886719 5.128906-7.113281v-154.578125c6.824219 3.25 14.453125 5.078125 22.5 5.078125s15.675781-1.828125 22.5-5.078125v154.578125c0 3.226562 2.0625 6.09375 5.128906 7.113281l30 10c.785156.261719 1.585938.386719 2.371094.386719 3.140625 0 6.066406-1.988281 7.113281-5.128906 1.3125-3.929688-.8125-8.179688-4.742187-9.488282l-24.871094-8.289062v-159.902344c9.269531-9.472656 15-22.421875 15-36.691406v-70.363281l4.144531 2.070312c2.324219 1.164063 5.085938 1.039063 7.296875-.328125 2.210938-1.367187 3.558594-3.78125 3.558594-6.378906v-17.113281c36.464844 3.765625 65 34.667969 65 72.113281 0 4.140625 3.355469 7.5 7.5 7.5s7.5-3.359375 7.5-7.5c0-46.054688-35.765625-83.910156-80.980469-87.257812zm-29.019531 107.257812c0 20.675781-16.824219 37.5-37.5 37.5-20.679688 0-37.5-16.824219-37.5-37.5v-77.554688l6.878906-3.328124 25.230469 26.097656c1.394531 1.445312 3.316406 2.269531 5.328125 2.285156h.0625c1.988281 0 3.894531-.789062 5.304688-2.195312l26.175781-26.179688 6.019531 3.011719zm15-87.136719-19.148438-9.570312c-2.886718-1.445313-6.375-.878907-8.65625 1.402343l-24.605468 24.605469-23.699219-24.515625c-1.445313-1.496094-3.402344-2.285156-5.394531-2.285156-1.105469 0-2.222656.246094-3.261719.75l-14.292969 6.914062c-1.210937.257813-2.3125.800782-3.226562 1.5625l-2.714844 1.3125v-13.039062c0-6.894531 5.605469-12.5 12.5-12.5h80c6.890625 0 12.5 5.605469 12.5 12.5zm0 0"/></svg>