<?xml version="1.0" encoding="UTF-8" standalone="no"?>
<!-- Generator: Adobe Illustrator 19.0.0, SVG Export Plug-In . SVG Version: 6.00 Build 0)  -->

<svg
   xmlns:dc="http://purl.org/dc/elements/1.1/"
   xmlns:cc="http://creativecommons.org/ns#"
   xmlns:rdf="http://www.w3.org/1999/02/22-rdf-syntax-ns#"
   xmlns:svg="http://www.w3.org/2000/svg"
   xmlns="http://www.w3.org/2000/svg"
   xmlns:sodipodi="http://sodipodi.sourceforge.net/DTD/sodipodi-0.dtd"
   xmlns:inkscape="http://www.inkscape.org/namespaces/inkscape"
   version="1.1"
   id="Layer_1"
   x="0px"
   y="0px"
   viewBox="0 0 512.013 512.013"
   style="enable-background:new 0 0 512.013 512.013;"
   xml:space="preserve"
   sodipodi:docname="hammer.svg"
   inkscape:version="0.92.3 (2405546, 2018-03-11)"><metadata
   id="metadata170"><rdf:RDF><cc:Work
       rdf:about=""><dc:format>image/svg+xml</dc:format><dc:type
         rdf:resource="http://purl.org/dc/dcmitype/StillImage" /></cc:Work></rdf:RDF></metadata><defs
   id="defs168" /><sodipodi:namedview
   pagecolor="#ffffff"
   bordercolor="#666666"
   borderopacity="1"
   objecttolerance="10"
   gridtolerance="10"
   guidetolerance="10"
   inkscape:pageopacity="0"
   inkscape:pageshadow="2"
   inkscape:window-width="1858"
   inkscape:window-height="1071"
   id="namedview166"
   showgrid="false"
   inkscape:zoom="1.6815979"
   inkscape:cx="256.0065"
   inkscape:cy="256.0065"
   inkscape:window-x="0"
   inkscape:window-y="0"
   inkscape:window-maximized="1"
   inkscape:current-layer="Layer_1" />
<g
   id="g133">
	<g
   id="g131">
		<path
   d="M508.885,205.799l-42.667-42.667c-2.005-1.963-4.715-3.115-7.552-3.115H448v-10.667c0-2.837-1.109-5.547-3.115-7.552    l-85.333-85.333C342.421,39.356,313.771,10.684,256,10.684c-57.749,0-84.224,26.453-103.552,45.781    c-3.029,3.051-3.947,7.659-2.304,11.648c1.643,3.968,5.547,6.571,9.856,6.571c86.037,0,96,36.523,96,64    c0,33.195-27.627,55.381-27.925,55.595c-0.171,0.149-0.256,0.363-0.427,0.512c-0.171,0.149-0.363,0.192-0.512,0.341    L16.128,406.119C5.739,416.508,0,430.353,0,446.289c0,30.357,24.683,55.04,55.04,55.04c15.467,0,30.315-6.571,40.747-18.005    l199.403-219.328c28.757-21.397,57.429-34.432,67.477-33.557v14.912c0,2.837,1.131,5.547,3.115,7.552l53.333,53.333    c2.005,1.963,4.715,3.115,7.552,3.115c0.128,0,0.235,0,0.363,0c2.944-0.085,5.717-1.408,7.659-3.627l74.667-85.333    C513.067,216.145,512.875,209.788,508.885,205.799z M79.979,468.967c-6.379,7.04-15.467,11.051-24.939,11.051    c-18.581,0-33.707-15.147-33.707-34.987c0-9.003,3.499-17.472,9.877-23.829l203.456-203.456l38.613,38.613L79.979,468.967z     M426.155,283.068L384,240.913v-16.896c0-2.837-1.131-5.547-3.115-7.552c-20.139-20.139-66.453,7.616-91.776,25.557    l-39.125-39.125c10.709-11.328,27.349-33.835,27.349-64.213c0-49.941-30.699-78.165-91.371-84.139    C201.536,42.129,222.037,32.017,256,32.017c48.939,0,72.704,23.787,88.448,39.531l82.219,82.197v16.939    c0,5.888,4.779,10.667,10.667,10.667h16.917l32.491,32.491L426.155,283.068z"
   id="path129" />
	</g>
</g>
<g
   id="g135">
</g>
<g
   id="g137">
</g>
<g
   id="g139">
</g>
<g
   id="g141">
</g>
<g
   id="g143">
</g>
<g
   id="g145">
</g>
<g
   id="g147">
</g>
<g
   id="g149">
</g>
<g
   id="g151">
</g>
<g
   id="g153">
</g>
<g
   id="g155">
</g>
<g
   id="g157">
</g>
<g
   id="g159">
</g>
<g
   id="g161">
</g>
<g
   id="g163">
</g>
<path
   style="fill:#a05a2c;stroke-width:0.5946725"
   d="m 49.655152,479.31174 c -9.922771,-1.65917 -19.818541,-9.14456 -24.33501,-18.40757 -5.364033,-11.00133 -4.566164,-24.89707 1.971354,-34.33326 1.160353,-1.67485 48.278959,-49.20622 104.708014,-105.62528 l 102.59828,-102.5801 19.07429,19.07429 19.07429,19.07429 -96.12292,105.80603 c -52.86762,58.19332 -97.510386,107.07488 -99.206161,108.62571 -7.307339,6.68271 -18.199196,9.96488 -27.762137,8.36589 z"
   id="path172"
   inkscape:connector-curvature="0" /><path
   style="fill:#cccccc;stroke-width:0.5946725"
   d="m 405.15349,261.62616 -20.62563,-20.66487 -0.18472,-10.15486 c -0.18024,-9.90868 -0.2239,-10.21401 -1.80085,-12.595 -0.88888,-1.34208 -2.85097,-3.28973 -4.36023,-4.32813 -15.14957,-10.42318 -42.25922,-3.09175 -79.85049,21.59447 l -9.11409,5.98524 -19.37619,-19.37619 -19.3762,-19.37619 3.0154,-3.38321 c 12.29845,-13.79855 20.75854,-31.7514 23.36605,-49.58426 1.00654,-6.88375 0.3983,-23.5853 -1.13005,-31.0302 C 270.95166,95.502645 258.22108,78.804657 237.02386,67.962013 225.08258,61.8539 212.93628,58.204532 195.6541,55.532431 l -8.89439,-1.375214 4.7411,-3.352034 c 13.09619,-9.259203 28.68678,-15.115959 46.24997,-17.37424 9.10891,-1.171227 26.83331,-1.173136 35.75312,-0.0038 21.37138,2.801543 40.23932,11.207457 57.134,25.453946 1.96241,1.654816 24.35774,23.742857 49.76739,49.084541 l 46.19936,46.07578 0.18509,10.50399 c 0.1844,10.46439 0.19138,10.51223 1.85118,12.68629 2.95285,3.86773 4.23906,4.23445 15.63117,4.45674 l 10.16118,0.19828 15.9595,15.96772 15.95951,15.96773 -3.82046,4.368 c -46.61022,53.29012 -56.12415,64.10091 -56.41138,64.10091 -0.18773,0 -9.62285,-9.29919 -20.96695,-20.66486 z"
   id="path174"
   inkscape:connector-curvature="0" /></svg>