<?xml version='1.0' encoding='iso-8859-1'?>
<!DOCTYPE svg PUBLIC '-//W3C//DTD SVG 1.1//EN' 'http://www.w3.org/Graphics/SVG/1.1/DTD/svg11.dtd'>
<svg version="1.1" xmlns="http://www.w3.org/2000/svg" viewBox="0 0 297.001 297.001" xmlns:xlink="http://www.w3.org/1999/xlink" enable-background="new 0 0 297.001 297.001">
  <g>
    <path d="m167.413,162.681c-7.276,0-13.915,2.829-18.912,7.464-4.998-4.635-11.638-7.464-18.914-7.464-15.501,0-28.112,12.841-28.112,28.625 0,23.268 35.034,46.932 42.057,51.439 1.515,0.972 3.241,1.457 4.97,1.457s3.456-0.485 4.97-1.457c7.023-4.508 42.055-28.173 42.055-51.439-0.001-15.785-12.613-28.625-28.114-28.625zm-18.918,61.196c-12.985-9.287-28.619-23.901-28.619-32.571 0-5.637 4.357-10.224 9.711-10.224 5.357,0 9.713,4.587 9.713,10.224 0,5.081 4.119,9.201 9.201,9.201 5.082,0 9.201-4.12 9.201-9.201 0-5.637 4.357-10.224 9.711-10.224 5.354,0 9.711,4.587 9.711,10.224-2.84217e-14,8.637-15.64,23.265-28.629,32.571z"/>
    <path d="m293.669,150.76c0-21.408-16.052-38.825-35.781-38.825h-29.379c4.004-8.079 6.121-16.791 6.121-25.804 0-4.721-0.594-9.416-1.77-14.024 6.547-7.85 10.204-17.794 10.204-28.146 0-24.239-19.721-43.96-43.96-43.96-14.031,0-27.225,6.85-35.426,17.949-10.027-1.437-20.33-1.437-30.357,0-8.201-11.1-21.394-17.95-35.425-17.95-24.239,0-43.96,19.721-43.96,43.96 0,10.353 3.657,20.297 10.204,28.146-1.176,4.608-1.77,9.304-1.77,14.024 0,9.013 2.117,17.725 6.121,25.804h-29.378c-19.73,0-35.781,17.417-35.781,38.825 0,21.406 16.052,38.822 35.781,38.822h30.783c-0.134,0.93-0.274,1.869-0.417,2.819-0.96,6.407-2.004,13.371-1.059,20.442l-13.479,4.398c-0.409,0.134-0.811,0.293-1.199,0.477-8.446,3.996-14.813,11.168-17.926,20.196-3.317,9.62-2.519,20.521 2.191,29.911l3.866,7.706c4.692,9.354 12.943,16.526 22.637,19.677 3.685,1.196 7.445,1.791 11.169,1.791 5.501,0 10.918-1.297 15.876-3.862l37.859-19.578c12.561,2.623 25.61,2.623 38.172,0l37.857,19.577c8.313,4.303 17.921,5.039 27.047,2.072 9.693-3.15 17.944-10.322 22.636-19.675l3.868-7.71c4.709-9.388 5.508-20.289 2.19-29.909-3.113-9.028-9.48-16.2-17.926-20.196-0.389-0.184-0.79-0.343-1.199-0.477l-13.48-4.398c0.945-7.071-0.099-14.035-1.06-20.442-0.142-0.95-0.282-1.89-0.416-2.819h30.783c19.731,0.001 35.783-17.415 35.783-38.821zm-195.773-130.314c9.08,3.55271e-15 17.189,5.079 21.163,13.256 2.059,4.232 6.736,6.515 11.341,5.525 11.821-2.538 24.38-2.538 36.201,0 4.6,0.985 9.283-1.293 11.341-5.525 3.974-8.177 12.083-13.256 21.163-13.256 12.966,0 23.514,10.548 23.514,23.514 0,6.78-2.938,13.235-8.06,17.71-3.221,2.814-4.351,7.335-2.831,11.332 1.63,4.286 2.456,8.703 2.456,13.129 0,25.249-25.929,46.082-59.037,48.565v-12.291c5.469-2.225 9.281-7.091 9.281-12.737 0-5.553-3.98-8.458-7.912-8.458-1.755,0-3.267,0.513-4.729,1.01-1.159,0.395-2.359,0.803-3.286,0.803-0.928,0-2.127-0.408-3.287-0.803-1.461-0.497-2.973-1.01-4.728-1.01-3.932,0-7.912,2.905-7.912,8.458 0,5.646 3.813,10.513 9.281,12.737v12.292c-33.109-2.483-59.039-23.316-59.039-48.566 0-4.426 0.826-8.843 2.456-13.129 1.52-3.997 0.39-8.518-2.831-11.332-5.121-4.475-8.06-10.93-8.06-17.71 0.001-12.966 10.549-23.514 23.515-23.514zm109.405,174.987c1.339,8.933 2.036,14.645-0.401,19.345-1.383,2.664-1.525,5.801-0.388,8.579 1.136,2.778 3.438,4.917 6.29,5.848l22.215,7.247c3.182,1.667 5.599,4.533 6.839,8.129 1.533,4.447 1.119,9.579-1.136,14.076l-3.869,7.709c-2.257,4.5-6.149,7.926-10.681,9.398-3.886,1.262-7.91,0.985-11.332-0.788l-41.194-21.303c-2.223-1.147-4.788-1.442-7.21-0.828-11.739,2.979-24.128,2.979-35.867,0-2.423-0.614-4.989-0.319-7.21,0.828l-41.197,21.304c-3.42,1.771-7.443,2.049-11.33,0.787-4.531-1.473-8.424-4.898-10.682-9.4l-3.867-7.705c-2.256-4.499-2.67-9.631-1.137-14.078 1.24-3.596 3.657-6.462 6.839-8.129l22.215-7.247c2.853-0.931 5.154-3.069 6.29-5.848 1.138-2.778 0.995-5.915-0.388-8.579-2.438-4.699-1.74-10.412-0.402-19.345 0.729-4.851 1.552-10.349 1.552-16.073 0-2.712-1.077-5.312-2.994-7.23-1.918-1.917-4.518-2.994-7.229-2.994h-41.914c-8.313,0-15.335-8.415-15.335-18.376 0-9.963 7.022-18.379 15.335-18.379h45.197c1.361,1.218 2.761,2.416 4.24,3.565 16.122,12.541 37.413,19.446 59.95,19.446s43.828-6.905 59.95-19.446c1.48-1.149 2.879-2.348 4.24-3.565h45.197c8.313,0 15.335,8.416 15.335,18.379 0,9.961-7.022,18.376-15.335,18.376h-41.915c-2.711,0-5.311,1.077-7.229,2.994-1.917,1.918-2.994,4.518-2.994,7.23 0.001,5.724 0.824,11.222 1.552,16.073z"/>
    <path d="m114.761,103.766c2.423,0 4.794-0.981 6.512-2.699 1.707-1.708 2.688-4.079 2.688-6.502 0-2.423-0.981-4.795-2.688-6.502-1.718-1.717-4.089-2.698-6.512-2.698-2.423,0-4.795,0.981-6.503,2.698-1.717,1.707-2.698,4.079-2.698,6.502 0,2.423 0.981,4.794 2.698,6.502 1.708,1.717 4.08,2.699 6.503,2.699z"/>
    <path d="m182.234,103.766c2.423,0 4.794-0.981 6.513-2.699 1.707-1.708 2.688-4.079 2.688-6.502 0-2.423-0.982-4.795-2.688-6.502-1.719-1.717-4.08-2.698-6.513-2.698-2.423,0-4.795,0.981-6.502,2.698-1.718,1.707-2.699,4.079-2.699,6.502 0,2.423 0.982,4.794 2.699,6.502 1.707,1.717 4.079,2.699 6.502,2.699z"/>
  </g>
</svg>
