<?xml version="1.0" encoding="iso-8859-1"?>
<!-- Generator: Adobe Illustrator 19.0.0, SVG Export Plug-In . SVG Version: 6.00 Build 0)  -->
<svg version="1.1" id="Capa_1" xmlns="http://www.w3.org/2000/svg" xmlns:xlink="http://www.w3.org/1999/xlink" x="0px" y="0px"
	 viewBox="0 0 377.292 377.292" style="enable-background:new 0 0 377.292 377.292;" xml:space="preserve">
<g>
	<g>
		<g>
			<path d="M267.543,47.546c-18.175,0.312-32.657,15.298-32.345,33.474c0.144,8.396,3.492,16.42,9.358,22.428
				c12.786,12.477,33.19,12.477,45.976,0c12.541-12.963,12.541-33.535,0-46.498C284.422,50.885,276.151,47.501,267.543,47.546z"/>
			<path d="M324.295,23.84c-0.109-0.109-0.218-0.218-0.327-0.327C309.05,8.462,288.735-0.003,267.543,0.003
				c-44.145-0.371-80.233,35.115-80.603,79.26c-0.151,18.022,5.792,35.565,16.865,49.785L77.372,255.48h-0.522l-43.886,44.408
				c-4.04,3.706-4.31,9.986-0.603,14.025c0.192,0.21,0.394,0.411,0.603,0.603L92,374.076c3.706,4.04,9.986,4.31,14.025,0.603
				c0.21-0.192,0.411-0.394,0.603-0.603c4.04-3.706,4.31-9.986,0.603-14.025c-0.192-0.21-0.394-0.411-0.603-0.603l-51.722-51.722
				l29.78-29.78l51.722,51.722c1.854,2.076,4.532,3.224,7.314,3.135c2.756-0.039,5.385-1.166,7.314-3.135
				c4.04-3.706,4.31-9.986,0.603-14.025c-0.192-0.21-0.394-0.411-0.603-0.603l-51.722-51.722l119.641-119.641
				c13.817,10.949,30.96,16.847,48.588,16.718c21.203,0.064,41.54-8.409,56.424-23.51C355.274,105.759,355.421,55.147,324.295,23.84
				z M301.502,114.419c-8.969,9.067-21.206,14.149-33.959,14.106c-26.834,0.151-48.709-21.48-48.86-48.314
				c-0.151-26.834,21.48-48.709,48.314-48.86c26.834-0.151,48.709,21.48,48.86,48.314
				C315.931,92.707,310.758,105.231,301.502,114.419z"/>
		</g>
	</g>
</g>
<g>
</g>
<g>
</g>
<g>
</g>
<g>
</g>
<g>
</g>
<g>
</g>
<g>
</g>
<g>
</g>
<g>
</g>
<g>
</g>
<g>
</g>
<g>
</g>
<g>
</g>
<g>
</g>
<g>
</g>
</svg>
