<?xml version="1.0" encoding="UTF-8" standalone="no"?>
<!-- Created with Inkscape (http://www.inkscape.org/) -->

<svg
   xmlns:dc="http://purl.org/dc/elements/1.1/"
   xmlns:cc="http://creativecommons.org/ns#"
   xmlns:rdf="http://www.w3.org/1999/02/22-rdf-syntax-ns#"
   xmlns:svg="http://www.w3.org/2000/svg"
   xmlns="http://www.w3.org/2000/svg"
   xmlns:sodipodi="http://sodipodi.sourceforge.net/DTD/sodipodi-0.dtd"
   xmlns:inkscape="http://www.inkscape.org/namespaces/inkscape"
   version="1.1"
   id="svg4519"
   xml:space="preserve"
   width="311.69333"
   height="332.72"
   viewBox="0 0 311.69333 332.72"
   sodipodi:docname="key.svg"
   inkscape:version="0.92.3 (2405546, 2018-03-11)"><metadata
     id="metadata4525"><rdf:RDF><cc:Work
         rdf:about=""><dc:format>image/svg+xml</dc:format><dc:type
           rdf:resource="http://purl.org/dc/dcmitype/StillImage" /><dc:title></dc:title></cc:Work></rdf:RDF></metadata><defs
     id="defs4523" /><sodipodi:namedview
     pagecolor="#ffffff"
     bordercolor="#666666"
     borderopacity="1"
     objecttolerance="10"
     gridtolerance="10"
     guidetolerance="10"
     inkscape:pageopacity="0"
     inkscape:pageshadow="2"
     inkscape:window-width="855"
     inkscape:window-height="493"
     id="namedview4521"
     showgrid="false"
     inkscape:zoom="0.70930512"
     inkscape:cx="155.84666"
     inkscape:cy="166.36"
     inkscape:window-x="0"
     inkscape:window-y="0"
     inkscape:window-maximized="0"
     inkscape:current-layer="g4527" /><g
     id="g4527"
     inkscape:groupmode="layer"
     inkscape:label="ink_ext_XXXXXX"
     transform="matrix(1.3333333,0,0,-1.3333333,0,332.72)"><g
       id="g4529"
       transform="scale(0.1)"><path
         d="M 1094.18,1396.53 30.125,332.469 c -40.168,-40.16 -40.168,-105.278 0,-145.449 v 0 c 40.1641,-40.161 105.285,-40.161 145.457,0 l 1064.058,1064.05 -145.46,145.46"
         style="fill:#e1bb2b;fill-opacity:1;fill-rule:nonzero;stroke:none"
         id="path4531"
         inkscape:connector-curvature="0" /><path
         d="M 69.2891,293.309 1133.34,1357.37 1094.18,1396.53 30.125,332.469 c -40.168,-40.16 -40.168,-105.278 0,-145.449 6.7969,-6.79 14.3438,-12.34 22.3281,-16.84 -22.0859,39.211 -16.539,89.761 16.836,123.129"
         style="fill:#e09e2e;fill-opacity:1;fill-rule:nonzero;stroke:none"
         id="path4533"
         inkscape:connector-curvature="0" /><path
         d="M 735.523,634.43 677.73,692.219 212.477,226.969 270.266,169.172 735.523,634.43"
         style="fill:#e09e2e;fill-opacity:1;fill-rule:nonzero;stroke:none"
         id="path4535"
         inkscape:connector-curvature="0" /><path
         d="M 1898.48,1567.85 C 1782,1555 1841.24,1794.44 1738.97,1896.7 c -102.25,102.26 -341.7,43.03 -328.86,159.51 7.25,66.22 33.89,127.01 80.8,173.92 129.51,129.5 361.53,100.62 521.82,-59.67 160.28,-160.28 189.17,-392.31 59.67,-521.82 -46.91,-46.91 -107.7,-73.55 -173.92,-80.79 z m -560.83,-72.47 c -85.11,85.12 -99.19,209.07 -31.41,276.83 67.77,67.78 246.69,108.69 331.8,23.56 85.12,-85.11 44.21,-264.03 -23.55,-331.8 -67.77,-67.77 -191.72,-53.71 -276.84,31.41 z m 808.29,808.3 c -231.94,231.93 -583.21,256.94 -784.36,55.78 -110.97,-110.96 -153.14,-267.64 -129.6,-424.82 -125.63,-152.01 -117.34,-377.57 25.01,-519.92 142.35,-142.35 367.91,-150.64 519.92,-25.01 157.1,-23.62 313.76,18.54 424.82,129.59 201.16,201.16 176.24,552.35 -55.79,784.38"
         style="fill:#e1bb2b;fill-opacity:1;fill-rule:nonzero;stroke:none"
         id="path4537"
         inkscape:connector-curvature="0" /><path
         d="m 1268.13,1898.49 c -23.53,157.18 18.63,313.85 129.6,424.82 195.9,195.9 534.12,177.22 765.9,-38.11 -5.78,6.22 -11.62,12.41 -17.69,18.48 -231.94,231.93 -583.21,256.94 -784.36,55.78 -110.97,-110.97 -153.14,-267.64 -129.6,-424.82 -125.63,-152.01 -117.34,-377.57 25.01,-519.92 6.09,-6.1 12.55,-11.61 18.93,-17.22 -125.26,142.8 -128.03,355.49 -7.79,500.99"
         style="fill:#e09e2e;fill-opacity:1;fill-rule:nonzero;stroke:none"
         id="path4539"
         inkscape:connector-curvature="0" /><path
         d="m 1384.71,1333.94 -204.86,204.87 c -24.95,24.95 -65.42,24.95 -90.38,0 v 0 c -24.95,-24.96 -24.95,-65.43 0,-90.38 l 204.86,-204.87 c 24.96,-24.95 65.42,-24.95 90.38,0.01 v 0 c 24.96,24.95 24.96,65.42 0,90.37"
         style="fill:#e1bb2b;fill-opacity:1;fill-rule:nonzero;stroke:none"
         id="path4541"
         inkscape:connector-curvature="0" /><path
         d="m 1345.69,1244.57 -204.86,204.86 c -24.95,24.96 -24.95,65.43 0.01,90.38 5.5,5.51 11.85,9.6 18.54,12.68 -23.21,9.74 -50.99,5.22 -69.91,-13.68 -24.95,-24.96 -24.95,-65.42 0.01,-90.38 l 204.85,-204.86 c 19.45,-19.45 48.23,-23.53 71.83,-12.68 -7.43,3.12 -14.42,7.63 -20.47,13.68"
         style="fill:#e09e2e;fill-opacity:1;fill-rule:nonzero;stroke:none"
         id="path4543"
         inkscape:connector-curvature="0" /><path
         d="m 1295.34,1244.57 -204.86,204.86 c -24.96,24.96 -65.42,24.96 -90.39,0 v 0 c -24.945,-24.95 -24.945,-65.42 0,-90.38 l 204.87,-204.86 c 24.96,-24.96 65.42,-24.96 90.38,0 v 0 c 24.96,24.96 24.96,65.42 0,90.38"
         style="fill:#e1bb2b;fill-opacity:1;fill-rule:nonzero;stroke:none"
         id="path4545"
         inkscape:connector-curvature="0" /><path
         d="m 1253.3,1152.18 -204.87,204.86 c -24.96,24.96 -24.95,65.42 0,90.38 6.85,6.84 14.91,11.63 23.44,14.72 -23.59,10.82 -52.34,6.72 -71.78,-12.71 v 0 c -24.945,-24.95 -24.945,-65.42 0,-90.38 l 204.87,-204.86 c 18.11,-18.11 44.34,-22.9 66.94,-14.72 -6.71,3.08 -13.07,7.18 -18.6,12.71"
         style="fill:#e09e2e;fill-opacity:1;fill-rule:nonzero;stroke:none"
         id="path4547"
         inkscape:connector-curvature="0" /><path
         d="m 390.258,124.66 47.406,47.41 c 2.707,2.711 7.109,2.711 9.816,-0.011 l 70.305,-70.289 c 11.778,-11.7778 30.867,-11.7778 42.649,0 l 13.171,13.16 c 11.778,11.781 11.778,30.879 0,42.66 l -46.753,46.75 c -2.711,2.711 -2.711,7.109 0,9.808 l 47.41,47.422 c 2.707,2.711 7.105,2.711 9.816,0 l 46.75,-46.75 c 11.777,-11.781 30.879,-11.781 42.656,0 v 0 c 11.778,11.77 11.778,30.871 0,42.641 l -6.281,6.269 c -2.715,2.719 -2.715,7.11 0,9.829 l 47.402,47.402 c 2.715,2.711 7.11,2.711 9.825,0 l 6.281,-6.27 c 11.777,-11.781 30.867,-11.781 42.644,0 l 10.977,10.981 c 11.777,11.769 11.777,30.867 0,42.637 l -61.492,61.5 c -2.715,2.703 -2.715,7.101 0,9.812 l 47.41,47.41 c 2.707,2.707 7.102,2.707 9.816,0 l 61.493,-61.492 c 11.777,-11.777 30.871,-11.777 42.648,0 l 8.777,8.781 c 11.778,11.782 11.778,30.871 0,42.649 L 735.523,634.43 270.266,169.172 432.641,6.80078 c 9.058,-9.05859 23.761,-9.05859 32.832,0 v 0 c 9.058,9.07032 9.058,23.76952 0,32.82812 l -75.211,75.2231 c -2.715,2.699 -2.715,7.097 -0.004,9.808"
         style="fill:#e1bb2b;fill-opacity:1;fill-rule:nonzero;stroke:none"
         id="path4549"
         inkscape:connector-curvature="0" /></g></g></svg>