<svg id="Capa_1" enable-background="new 0 0 349.648 349.648" height="512" viewBox="0 0 349.648 349.648" width="512" xmlns="http://www.w3.org/2000/svg"><path d="m298.744 334.145h35.405c3.063 0 5.612-2.337 5.877-5.393l8.072-92.827c2.514-28.879 1.965-58.106-1.634-86.861-4.054-32.408-31.741-56.855-64.408-56.855h-214.467c-32.667 0-60.354 24.447-64.408 56.861-3.594 28.755-4.148 57.982-1.635 86.861l8.072 92.827c.271 3.051 2.821 5.388 5.883 5.388h35.405c3.257 0 5.901-2.644 5.901-5.901v-10.734l99.341 16.558c1.487.248 3.004-.077 4.243-.909l14.428-9.618 14.428 9.618c.98.643 2.124.985 3.281.985.324 0 .649-.024.974-.083l99.341-16.552v10.734c0 3.258 2.644 5.901 5.901 5.901zm-226.841-230.134h27.162c-8.238 14.298-12.752 30.673-12.752 47.207v35.405h-35.406v-10.557c0-25.639 7.294-50.464 20.996-72.055zm226.841 72.056.006 10.557h-35.411v-35.405c0-16.534-4.514-32.909-12.752-47.207h27.162c13.702 21.59 20.995 46.415 20.995 72.055zm-47.207-24.849v35.405h-11.802v-35.405c0-16.534-4.514-32.909-12.752-47.207h9.654c9.59 13.779 14.9 30.407 14.9 47.207zm0 64.91h-11.802v-17.703h11.802zm-23.603-64.91v35.405h-18.234c-2.821-16.717-17.36-29.504-34.874-29.504s-32.048 12.787-34.874 29.504h-18.234v-35.405c0-16.8 5.311-33.428 14.9-47.207h76.416c9.589 13.779 14.9 30.407 14.9 47.207zm-39.04 60.183c-3.234-4.272-8.308-7.075-14.068-7.075s-10.834 2.803-14.068 7.075c-4.314-3.216-7.394-7.777-8.733-12.976h45.608c-1.346 5.199-4.426 9.76-8.739 12.976zm3.634 28.33v35.405h-35.405v-35.405zm-23.603-11.802v-5.901c0-3.251 2.65-5.901 5.901-5.901s5.901 2.65 5.901 5.901v5.901zm-16.865-41.306c2.638-10.15 11.802-17.703 22.766-17.703s20.128 7.553 22.766 17.703zm-42.144-35.405v35.405h-11.802v-35.405c0-16.8 5.311-33.428 14.9-47.207h9.654c-8.238 14.298-12.752 30.673-12.752 47.207zm0 64.91h-11.802v-17.703h11.802zm-58.714-17.703h35.11v94.414h-30.383zm46.912 29.504h11.802v64.91h-11.802zm23.604-29.504h18.24c1.747 10.362 8.019 19.402 17.166 24.689v4.815h-5.901c-3.257 0-5.901 2.644-5.901 5.901v47.207c0 3.257 2.644 5.901 5.901 5.901h47.207c3.257 0 5.901-2.644 5.901-5.901v-47.207c0-3.257-2.644-5.901-5.901-5.901h-5.901v-4.815c9.152-5.287 15.419-14.333 17.166-24.689h18.24v94.414h-106.217zm118.018 29.504h11.802v64.91h-11.802zm23.603-29.504h35.104l-4.721 94.414h-30.384v-94.414zm65.399 123.919h-24.093v-11.678l5.606-112.241h27.48c.053 12.179-.336 24.365-1.387 36.485zm6.019-171.81c1.493 11.967 2.337 24.022 2.744 36.09h-26.955v-10.557c0-25.037-6.367-49.373-18.446-71.088 22.17 4.278 39.766 22.429 42.657 45.555zm-277.205-45.555c-12.079 21.715-18.446 46.05-18.446 71.088l.006 10.557h-26.962c.407-12.073 1.251-24.123 2.744-36.09 2.892-23.126 20.488-41.277 42.658-45.555zm-36.639 217.365-7.606-87.439c-1.056-12.12-1.446-24.3-1.387-36.479h27.475l5.612 112.241v11.678h-24.094zm172.949-.301-15.761-10.509c-1.983-1.322-4.561-1.322-6.544 0l-15.761 10.509-99.229-16.54-.047-.862h236.613l-.041.862z"/><path d="m168.925 251.533h11.802v11.802h-11.802z"/><path d="m21.403 163.02h11.802v11.802h-11.802z"/><path d="m21.403 210.227h11.802v11.802h-11.802z"/><path d="m21.403 257.434h11.802v11.802h-11.802z"/><path d="m316.447 163.02h11.802v11.802h-11.802z"/><path d="m316.447 210.227h11.802v11.802h-11.802z"/><path d="m316.447 257.434h11.802v11.802h-11.802z"/><path d="m3.7 56.804h11.802v11.802h-11.802z"/><path d="m15.502 68.606h11.802v11.802h-11.802z"/><path d="m27.304 56.804h11.802v11.802h-11.802z"/><path d="m15.502 45.002h11.802v11.802h-11.802z"/><path d="m257.438 56.804h11.802v11.802h-11.802z"/><path d="m269.24 68.606h11.802v11.802h-11.802z"/><path d="m281.042 56.804h11.802v11.802h-11.802z"/><path d="m269.24 45.002h11.802v11.802h-11.802z"/><path d="m310.546 39.101h11.802v11.802h-11.802z"/><path d="m292.843 15.498h11.802v11.802h-11.802z"/><path d="m56.808 68.606h11.802v11.802h-11.802z"/><path d="m56.808 21.399h11.802v11.802h-11.802z"/></svg>