<?xml version="1.0" encoding="UTF-8" standalone="no"?>
<!-- Created with Inkscape (http://www.inkscape.org/) -->

<svg
   xmlns:dc="http://purl.org/dc/elements/1.1/"
   xmlns:cc="http://creativecommons.org/ns#"
   xmlns:rdf="http://www.w3.org/1999/02/22-rdf-syntax-ns#"
   xmlns:svg="http://www.w3.org/2000/svg"
   xmlns="http://www.w3.org/2000/svg"
   xmlns:sodipodi="http://sodipodi.sourceforge.net/DTD/sodipodi-0.dtd"
   xmlns:inkscape="http://www.inkscape.org/namespaces/inkscape"
   version="1.1"
   id="svg169"
   xml:space="preserve"
   width="303.50668"
   height="241.10667"
   viewBox="0 0 303.50668 241.10667"
   sodipodi:docname="locked_chest.svg"
   inkscape:version="0.92.3 (2405546, 2018-03-11)"><metadata
     id="metadata175"><rdf:RDF><cc:Work
         rdf:about=""><dc:format>image/svg+xml</dc:format><dc:type
           rdf:resource="http://purl.org/dc/dcmitype/StillImage" /><dc:title></dc:title></cc:Work></rdf:RDF></metadata><defs
     id="defs173"><clipPath
       clipPathUnits="userSpaceOnUse"
       id="clipPath191"><path
         d="m 736.906,1771.67 c 0,0 -434.035,21.58 -589.492,-600.31 H 1591.12 c 0,0 103.42,523.05 308.49,600.31 H 736.906"
         id="path189"
         inkscape:connector-curvature="0" /></clipPath><clipPath
       clipPathUnits="userSpaceOnUse"
       id="clipPath283"><path
         d="M 171.949,908.832 H 1572.1 V 90.0508 H 294.773 L 171.949,908.832"
         id="path281"
         inkscape:connector-curvature="0" /></clipPath><clipPath
       clipPathUnits="userSpaceOnUse"
       id="clipPath325"><path
         d="M 1825.92,908.832 2202.57,1039.84 2112.5,278.352 1789.68,125.18 1825.92,908.832"
         id="path323"
         inkscape:connector-curvature="0" /></clipPath><clipPath
       clipPathUnits="userSpaceOnUse"
       id="clipPath363"><path
         d="m 1789.68,125.18 v 0 l 74.47,35.332 V 150 l -74.47,-24.82 m 36.24,783.652 327.1,113.778 v 0 l -327.1,-113.778"
         id="path361"
         inkscape:connector-curvature="0" /></clipPath><clipPath
       clipPathUnits="userSpaceOnUse"
       id="clipPath399"><path
         d="m 1837.03,1176.24 403.12,87.67 c 0,0 -69.44,453.82 -192.05,429.05 -122.58,-24.75 -211.07,-516.72 -211.07,-516.72"
         id="path397"
         inkscape:connector-curvature="0" /></clipPath></defs><sodipodi:namedview
     pagecolor="#ffffff"
     bordercolor="#666666"
     borderopacity="1"
     objecttolerance="10"
     gridtolerance="10"
     guidetolerance="10"
     inkscape:pageopacity="0"
     inkscape:pageshadow="2"
     inkscape:window-width="640"
     inkscape:window-height="480"
     id="namedview171"
     showgrid="false"
     inkscape:zoom="0.97881986"
     inkscape:cx="151.75334"
     inkscape:cy="120.55334"
     inkscape:window-x="504"
     inkscape:window-y="194"
     inkscape:window-maximized="0"
     inkscape:current-layer="g177" /><g
     id="g177"
     inkscape:groupmode="layer"
     inkscape:label="ink_ext_XXXXXX"
     transform="matrix(1.3333333,0,0,-1.3333333,0,241.10667)"><g
       id="g179"
       transform="scale(0.1)"><path
         d="m 0,1097.19 h 1752.23 c 0,0 84.1,628.45 295.87,674.48 H 548.602 c 0,0 -507.6684,-84.96 -548.602,-674.48"
         style="fill:#f0be4c;fill-opacity:1;fill-rule:nonzero;stroke:none"
         id="path181"
         inkscape:connector-curvature="0" /><path
         d="m 736.906,1771.67 c 0,0 -434.035,21.58 -589.492,-600.31 H 1591.12 c 0,0 103.42,523.05 308.49,600.31 H 736.906"
         style="fill:#c53d21;fill-opacity:1;fill-rule:nonzero;stroke:none"
         id="path183"
         inkscape:connector-curvature="0" /><g
         id="g185"><g
           id="g187"
           clip-path="url(#clipPath191)"><path
             d="M 1572.1,1248.71 H 238.211 c 0,0 662.746,-55.73 1333.889,0"
             style="fill:#f57a1b;fill-opacity:1;fill-rule:nonzero;stroke:none"
             id="path193"
             inkscape:connector-curvature="0" /><path
             d="m 1572.1,1364.02 -1296.444,8.4 c 0,0 637.641,-49.13 1296.444,-8.4"
             style="fill:#f57a1b;fill-opacity:1;fill-rule:nonzero;stroke:none"
             id="path195"
             inkscape:connector-curvature="0" /><path
             d="M 1601.77,1459.22 367.551,1490.5 c 0,0 567.91,-56.07 1234.219,-31.28"
             style="fill:#f57a1b;fill-opacity:1;fill-rule:nonzero;stroke:none"
             id="path197"
             inkscape:connector-curvature="0" /><path
             d="m 1671.59,1570.53 -1177.86,44.68 c 0,0 487.489,-78.9 1177.86,-44.68"
             style="fill:#f57a1b;fill-opacity:1;fill-rule:nonzero;stroke:none"
             id="path199"
             inkscape:connector-curvature="0" /><path
             d="m 1732.4,1651.07 -1137.111,42.95 c 0,0 475.831,-58.11 1137.111,-42.95"
             style="fill:#f57a1b;fill-opacity:1;fill-rule:nonzero;stroke:none"
             id="path201"
             inkscape:connector-curvature="0" /><path
             d="m 1781.4,1739.46 -1092.865,13.67 c 0,0 449.595,-59.11 1092.865,-13.67"
             style="fill:#f57a1b;fill-opacity:1;fill-rule:nonzero;stroke:none"
             id="path203"
             inkscape:connector-curvature="0" /><path
             d="M 1632.48,1259.19 H 171.949 c -5.793,0 -10.488,-4.69 -10.488,-10.48 0,-5.8 4.695,-10.49 10.488,-10.49 H 1632.48 c 5.79,0 10.48,4.69 10.48,10.49 0,5.79 -4.69,10.48 -10.48,10.48"
             style="fill:#8b1f26;fill-opacity:1;fill-rule:nonzero;stroke:none"
             id="path205"
             inkscape:connector-curvature="0" /><path
             d="m 218.309,1362.37 1447.181,-10.81 c 5.8,-0.04 10.53,4.62 10.57,10.41 0.04,5.79 -4.62,10.52 -10.41,10.56 l -1447.185,10.81 c -5.793,0.05 -10.524,-4.61 -10.567,-10.41 -0.043,-5.79 4.618,-10.52 10.411,-10.56"
             style="fill:#8b1f26;fill-opacity:1;fill-rule:nonzero;stroke:none"
             id="path207"
             inkscape:connector-curvature="0" /><path
             d="m 1712.81,1469.71 -1410.357,31.27 c -5.789,0.13 -10.586,-4.46 -10.715,-10.25 -0.129,-5.79 4.461,-10.59 10.25,-10.71 l 1410.352,-31.28 c 5.79,-0.13 10.59,4.46 10.72,10.25 0.13,5.79 -4.46,10.59 -10.25,10.72"
             style="fill:#8b1f26;fill-opacity:1;fill-rule:nonzero;stroke:none"
             id="path209"
             inkscape:connector-curvature="0" /><path
             d="m 445.441,1606.67 1286.529,-52.41 c 5.79,-0.24 10.67,4.26 10.91,10.05 0.23,5.79 -4.27,10.67 -10.06,10.9 l -1286.523,52.42 c -5.785,0.23 -10.668,-4.27 -10.906,-10.06 -0.235,-5.78 4.265,-10.66 10.05,-10.9"
             style="fill:#8b1f26;fill-opacity:1;fill-rule:nonzero;stroke:none"
             id="path211"
             inkscape:connector-curvature="0" /><path
             d="M 1790.04,1662.09 553.09,1704.5 c -5.789,0.2 -10.641,-4.33 -10.84,-10.12 -0.199,-5.79 4.332,-10.65 10.121,-10.84 l 1236.949,-42.41 c 5.79,-0.2 10.65,4.33 10.84,10.12 0.2,5.79 -4.33,10.64 -10.12,10.84"
             style="fill:#8b1f26;fill-opacity:1;fill-rule:nonzero;stroke:none"
             id="path213"
             inkscape:connector-curvature="0" /><path
             d="m 638.832,1740.85 1197.778,-19.06 c 5.79,-0.09 10.56,4.53 10.65,10.32 0.09,5.79 -4.53,10.56 -10.32,10.66 l -1197.772,19.05 c -5.793,0.09 -10.563,-4.52 -10.652,-10.32 -0.094,-5.79 4.527,-10.55 10.316,-10.65"
             style="fill:#8b1f26;fill-opacity:1;fill-rule:nonzero;stroke:none"
             id="path215"
             inkscape:connector-curvature="0" /></g></g><path
         d="m 812.027,1771.67 h -32.281 c 0.313,0.04 0.656,0.09 0.969,0.13 h 31.68 c 0,0 -0.125,-0.04 -0.368,-0.13"
         style="fill:#bc7469;fill-opacity:1;fill-rule:nonzero;stroke:none"
         id="path217"
         inkscape:connector-curvature="0" /><path
         d="M 1591.12,1171.36 H 184.367 v 0 H 1591.12 c 0,0 3.38,17.1 10.14,45.59 h 1.13 l -11.27,-45.59"
         style="fill:#b76034;fill-opacity:1;fill-rule:nonzero;stroke:none"
         id="path219"
         inkscape:connector-curvature="0" /><path
         d="M 1591.12,1171.36 H 184.367 c 0,0 4.223,25.83 16.278,66.86 h 80.324 c -1.887,-7.02 -3.653,-14.09 -5.313,-21.27 H 1601.26 c -6.76,-28.49 -10.14,-45.59 -10.14,-45.59 m -1304.128,87.83 h -79.898 c 9.519,29.63 22.574,64.91 40.16,102.96 l 81.187,-0.6 c -16.308,-32.03 -30.343,-66.09 -41.449,-102.36 m 52.567,123.25 -82.317,0.61 c 15.469,31.3 33.969,64.04 56.016,96.72 l 90.078,-2 c -23.18,-29.32 -44.773,-61.1 -63.777,-95.33 m 80.66,115.93 -92.528,2.05 c 29.786,41.17 65.372,81.69 107.856,118.57 -0.082,-0.46 -0.137,-0.94 -0.156,-1.42 -0.235,-5.78 4.265,-10.66 10.05,-10.9 l 81.45,-3.32 C 490.27,1572.91 453.855,1538 420.219,1498.37 m 131.523,124.96 -105.445,4.3 c -0.145,0 -0.289,0.01 -0.434,0.01 -0.05,0 -0.101,0 -0.148,-0.01 29,24.16 61.066,46.57 96.527,66.36 0.012,-5.61 4.473,-10.26 10.129,-10.45 l 81.152,-2.79 c -26.289,-16.66 -53.918,-35.76 -81.781,-57.42 m 114.356,77.3 -104.762,3.58 c 26.812,13.78 55.492,26.07 86.098,36.5 l 90.496,-1.43 c -20.981,-10.3 -45.375,-23.14 -71.832,-38.65 m 115.812,58.92 -63.887,1.02 c 19.852,4.46 40.415,8.18 61.723,11.1 h 32.281 c -2.078,-0.75 -12.879,-4.71 -30.117,-12.12"
         style="fill:#a62d25;fill-opacity:1;fill-rule:nonzero;stroke:none"
         id="path221"
         inkscape:connector-curvature="0" /><path
         d="m 280.969,1238.22 h -80.324 c 1.941,6.61 4.085,13.62 6.449,20.97 h 79.898 c -2.109,-6.89 -4.133,-13.92 -6.023,-20.97"
         style="fill:#8b1f26;fill-opacity:1;fill-rule:nonzero;stroke:none"
         id="path223"
         inkscape:connector-curvature="0" /><path
         d="m 328.441,1361.55 -81.187,0.6 c 3.176,6.89 6.508,13.86 9.988,20.9 l 82.317,-0.61 c -3.817,-6.87 -7.516,-13.82 -11.118,-20.89"
         style="fill:#8b1f26;fill-opacity:1;fill-rule:nonzero;stroke:none"
         id="path225"
         inkscape:connector-curvature="0" /><path
         d="m 403.336,1477.77 -90.078,2 c 4.644,6.88 9.469,13.79 14.433,20.65 l 92.528,-2.05 c -5.727,-6.74 -11.332,-13.58 -16.883,-20.6"
         style="fill:#8b1f26;fill-opacity:1;fill-rule:nonzero;stroke:none"
         id="path227"
         inkscape:connector-curvature="0" /><path
         d="m 526.891,1603.35 -81.45,3.32 c -5.785,0.24 -10.285,5.12 -10.05,10.9 0.019,0.48 0.074,0.96 0.156,1.42 3.336,2.89 6.746,5.8 10.168,8.64 0.047,0.01 0.098,0.01 0.148,0.01 0.145,0 0.289,-0.01 0.434,-0.01 l 105.445,-4.3 c -8.265,-6.43 -16.574,-13.1 -24.851,-19.98"
         style="fill:#8b1f26;fill-opacity:1;fill-rule:nonzero;stroke:none"
         id="path229"
         inkscape:connector-curvature="0" /><path
         d="m 633.523,1680.75 -81.152,2.79 c -5.656,0.19 -10.117,4.84 -10.129,10.45 6.266,3.49 12.617,6.9 19.094,10.22 l 104.762,-3.58 c -10.559,-6.2 -21.446,-12.82 -32.575,-19.88"
         style="fill:#8b1f26;fill-opacity:1;fill-rule:nonzero;stroke:none"
         id="path231"
         inkscape:connector-curvature="0" /><path
         d="m 737.93,1739.28 -90.496,1.43 c 22.472,7.67 45.961,14.33 70.589,19.86 l 63.887,-1.02 c -11.855,-5.1 -26.777,-11.84 -43.98,-20.27"
         style="fill:#8b1f26;fill-opacity:1;fill-rule:nonzero;stroke:none"
         id="path233"
         inkscape:connector-curvature="0" /><path
         d="M 0,1097.19 163.762,0 H 1711.29 l 40.94,1097.19 H 0"
         style="fill:#f0be4c;fill-opacity:1;fill-rule:nonzero;stroke:none"
         id="path235"
         inkscape:connector-curvature="0" /><path
         d="M 1711.29,0 2178.01,212.871 2276.27,1224.4 1752.23,1097.19 1711.29,0"
         style="fill:#f57a1b;fill-opacity:1;fill-rule:nonzero;stroke:none"
         id="path237"
         inkscape:connector-curvature="0" /><path
         d="m 1752.23,1097.19 c 0,0 76.76,662.72 295.87,674.48 180.06,9.69 228.17,-547.27 228.17,-547.27 l -524.04,-127.21"
         style="fill:#f57a1b;fill-opacity:1;fill-rule:nonzero;stroke:none"
         id="path239"
         inkscape:connector-curvature="0" /><path
         d="M 171.949,908.832 H 1572.1 V 90.0508 H 294.773 L 171.949,908.832"
         style="fill:#c53d21;fill-opacity:1;fill-rule:nonzero;stroke:none"
         id="path241"
         inkscape:connector-curvature="0" /><path
         d="M 1825.92,908.832 2202.57,1039.84 2112.5,278.352 1789.68,125.18 1825.92,908.832"
         style="fill:#c53d21;fill-opacity:1;fill-rule:nonzero;stroke:none"
         id="path243"
         inkscape:connector-curvature="0" /><path
         d="m 1837.03,1176.24 403.12,87.67 c 0,0 -69.44,453.82 -192.05,429.05 -122.58,-24.75 -211.07,-516.72 -211.07,-516.72"
         style="fill:#c53d21;fill-opacity:1;fill-rule:nonzero;stroke:none"
         id="path245"
         inkscape:connector-curvature="0" /><path
         d="m 1576.2,767.379 -4.1,0.082 v 141.371 h 4.1 V 767.379"
         style="fill:#b76034;fill-opacity:1;fill-rule:nonzero;stroke:none"
         id="path247"
         inkscape:connector-curvature="0" /><path
         d="M 420.398,90.0508 H 298.867 L 176.035,908.832 H 1572.1 V 767.461 L 337.656,791.172 420.398,90.0508"
         style="fill:#a62d25;fill-opacity:1;fill-rule:nonzero;stroke:none"
         id="path249"
         inkscape:connector-curvature="0" /><path
         d="m 1400.64,1769.79 c 0,0 -315.23,-8.07 -354.01,-598.43 H 793.375 c 0,0 17.52,524.11 439.455,635.7 l 130.25,-3.43 37.56,-33.84"
         style="fill:#f57a1b;fill-opacity:1;fill-rule:nonzero;stroke:none"
         id="path251"
         inkscape:connector-curvature="0" /><path
         d="m 1400.64,1769.79 c 0,0 -315.23,-8.07 -354.01,-598.43 H 793.375 c 0,0 17.52,524.11 439.455,635.7 l 130.25,-3.43 37.56,-33.84"
         style="fill:#f57a1b;fill-opacity:1;fill-rule:nonzero;stroke:none"
         id="path253"
         inkscape:connector-curvature="0" /><path
         d="m 1400.64,1769.79 c 0,0 -315.23,-8.07 -354.01,-598.43 H 793.375 c 0,0 17.52,524.11 439.455,635.7 l 130.25,-3.43 37.56,-33.84"
         style="fill:#f57a1b;fill-opacity:1;fill-rule:nonzero;stroke:none"
         id="path255"
         inkscape:connector-curvature="0" /><path
         d="m 780.715,1771.8 c 0,0 -436.402,-23.32 -596.348,-600.44 H 82.8242 c 0,0 122.5038,524.11 544.4458,635.7 h 128.246 l 25.199,-35.26"
         style="fill:#f57a1b;fill-opacity:1;fill-rule:nonzero;stroke:none"
         id="path257"
         inkscape:connector-curvature="0" /><path
         d="m 1363.08,1803.63 c 0,0 -354.04,-85.84 -361.43,-673.25 H 726.551 c 0,0 37.758,566.32 459.699,677.89 l 176.83,-4.64"
         style="fill:#f0be4c;fill-opacity:1;fill-rule:nonzero;stroke:none"
         id="path259"
         inkscape:connector-curvature="0" /><path
         d="m 147.414,1171.36 c 0,0 122.039,520.2 608.102,635.7 H 627.27 c 0,0 -525.356,-58.24 -619.34031,-635.7 H 147.414"
         style="fill:#f0be4c;fill-opacity:1;fill-rule:nonzero;stroke:none"
         id="path261"
         inkscape:connector-curvature="0" /><path
         d="m 1.98828,1083.87 v 0 L 0,1097.19 1.98828,1083.87"
         style="fill:#f1cfbc;fill-opacity:1;fill-rule:nonzero;stroke:none"
         id="path263"
         inkscape:connector-curvature="0" /><path
         d="M 1751.7,1082.82 1.98828,1083.87 0,1097.19 h 1752.23 l -0.53,-14.37"
         style="fill:#e6a13f;fill-opacity:1;fill-rule:nonzero;stroke:none"
         id="path265"
         inkscape:connector-curvature="0" /><path
         d="m 1752.23,1082.82 h -0.53 l 0.53,14.37 h 5.39 l 518.65,127.21 -2.31,-23.72 -521.73,-117.86"
         style="fill:#ea6d1c;fill-opacity:1;fill-rule:nonzero;stroke:none"
         id="path267"
         inkscape:connector-curvature="0" /><path
         d="m 1983,1747.44 c 0,0 -103.06,-57.51 -214.89,-554.46 0,0 21.57,398.65 214.89,554.46"
         style="fill:#efdda5;fill-opacity:1;fill-rule:nonzero;stroke:none"
         id="path269"
         inkscape:connector-curvature="0" /><path
         d="m 1224.28,1724.53 c 0,0 -173.67,-106.62 -218.83,-507.58 0,0 -25.997,330.23 218.83,507.58"
         style="fill:#efdda5;fill-opacity:1;fill-rule:nonzero;stroke:none"
         id="path271"
         inkscape:connector-curvature="0" /><path
         d="m 563.137,1732.28 c 0,0 -250.543,-122.37 -391.188,-483.57 0,0 89.192,355.35 391.188,483.57"
         style="fill:#efdda5;fill-opacity:1;fill-rule:nonzero;stroke:none"
         id="path273"
         inkscape:connector-curvature="0" /><path
         d="M 1747.37,966.859 1714.65,90.0508 c 0,0 -20.23,632.6792 32.72,876.8082"
         style="fill:#efdda5;fill-opacity:1;fill-rule:nonzero;stroke:none"
         id="path275"
         inkscape:connector-curvature="0" /><g
         id="g277"><g
           id="g279"
           clip-path="url(#clipPath283)"><path
             d="M 1482.53,830.508 268.473,823.434 c 0,0 736.177,-40.422 1214.057,7.074"
             style="fill:#f57a1b;fill-opacity:1;fill-rule:nonzero;stroke:none"
             id="path285"
             inkscape:connector-curvature="0" /><path
             d="M 1458.86,707.078 281.867,740.012 c 0,0 590.153,-50.184 1176.993,-32.934"
             style="fill:#f57a1b;fill-opacity:1;fill-rule:nonzero;stroke:none"
             id="path287"
             inkscape:connector-curvature="0" /><path
             d="M 1429.74,628.02 263.336,603.09 c 0,0 657.633,-20.578 1166.404,24.93"
             style="fill:#f57a1b;fill-opacity:1;fill-rule:nonzero;stroke:none"
             id="path289"
             inkscape:connector-curvature="0" /><path
             d="M 1435.04,514.238 268.613,489.281 c 0,0 657.657,-20.562 1166.427,24.957"
             style="fill:#f57a1b;fill-opacity:1;fill-rule:nonzero;stroke:none"
             id="path291"
             inkscape:connector-curvature="0" /><path
             d="M 1435.04,394.051 268.625,369.102 c 0,0 657.66,-20.563 1166.415,24.949"
             style="fill:#f57a1b;fill-opacity:1;fill-rule:nonzero;stroke:none"
             id="path293"
             inkscape:connector-curvature="0" /><path
             d="M 1472.4,280.172 305.977,255.199 c 0,0 657.656,-20.578 1166.423,24.973"
             style="fill:#f57a1b;fill-opacity:1;fill-rule:nonzero;stroke:none"
             id="path295"
             inkscape:connector-curvature="0" /><path
             d="m 1481.78,167.781 -1125.534,13.34 c 0,0 616.777,-58.859 1125.534,-13.34"
             style="fill:#f57a1b;fill-opacity:1;fill-rule:nonzero;stroke:none"
             id="path297"
             inkscape:connector-curvature="0" /><path
             d="M 197.066,729.52 1571.89,702.09 c 5.79,-0.121 10.57,4.48 10.69,10.269 0.12,5.789 -4.48,10.582 -10.28,10.7 L 197.484,750.488 c -5.789,0.121 -10.578,-4.476 -10.691,-10.269 -0.117,-5.789 4.484,-10.578 10.273,-10.699"
             style="fill:#8b1f26;fill-opacity:1;fill-rule:nonzero;stroke:none"
             id="path299"
             inkscape:connector-curvature="0" /><path
             d="M 1571.96,640.34 197.141,622.68 c -5.789,-0.078 -10.426,-4.828 -10.352,-10.621 0.074,-5.789 4.832,-10.43 10.621,-10.348 l 1374.82,17.66 c 5.79,0.07 10.43,4.828 10.35,10.617 -0.07,5.793 -4.83,10.422 -10.62,10.352"
             style="fill:#8b1f26;fill-opacity:1;fill-rule:nonzero;stroke:none"
             id="path301"
             inkscape:connector-curvature="0" /><path
             d="m 233.508,488.961 1338.732,18.711 c 5.79,0.078 10.42,4.84 10.34,10.629 -0.08,5.789 -4.84,10.418 -10.63,10.34 L 233.215,509.93 c -5.793,-0.078 -10.422,-4.84 -10.34,-10.629 0.078,-5.789 4.84,-10.422 10.633,-10.34"
             style="fill:#8b1f26;fill-opacity:1;fill-rule:nonzero;stroke:none"
             id="path303"
             inkscape:connector-curvature="0" /><path
             d="M 1571.96,404.539 251.52,388 c -5.79,-0.078 -10.426,-4.828 -10.356,-10.621 0.074,-5.789 4.828,-10.43 10.617,-10.359 l 1320.449,16.55 c 5.79,0.071 10.42,4.821 10.35,10.61 -0.07,5.8 -4.82,10.429 -10.62,10.359"
             style="fill:#8b1f26;fill-opacity:1;fill-rule:nonzero;stroke:none"
             id="path305"
             inkscape:connector-curvature="0" /><path
             d="M 268.574,254.859 1572.2,267.73 c 5.79,0.051 10.44,4.79 10.38,10.59 -0.06,5.789 -4.8,10.442 -10.59,10.379 L 268.367,275.828 c -5.789,-0.058 -10.437,-4.797 -10.383,-10.59 0.059,-5.789 4.801,-10.437 10.59,-10.379"
             style="fill:#8b1f26;fill-opacity:1;fill-rule:nonzero;stroke:none"
             id="path307"
             inkscape:connector-curvature="0" /><path
             d="M 1572.22,177.031 281.09,192.512 c -5.793,0.07 -10.543,-4.571 -10.613,-10.364 -0.071,-5.789 4.57,-10.546 10.359,-10.609 l 1291.134,-15.48 c 5.79,-0.071 10.54,4.57 10.61,10.363 0.07,5.789 -4.57,10.539 -10.36,10.609"
             style="fill:#8b1f26;fill-opacity:1;fill-rule:nonzero;stroke:none"
             id="path309"
             inkscape:connector-curvature="0" /><path
             d="M 184.367,815.547 H 1572.1 c 5.79,0 10.48,4.695 10.48,10.488 0,5.793 -4.69,10.488 -10.48,10.488 H 184.367 c -5.793,0 -10.488,-4.695 -10.488,-10.488 0,-5.793 4.695,-10.488 10.488,-10.488"
             style="fill:#8b1f26;fill-opacity:1;fill-rule:nonzero;stroke:none"
             id="path311"
             inkscape:connector-curvature="0" /></g></g><path
         d="M 679.598,974.336 V 612.191 H 1024.05 V 1039.84 L 679.598,974.336"
         style="fill:#f0be4c;fill-opacity:1;fill-rule:nonzero;stroke:none"
         id="path313"
         inkscape:connector-curvature="0" /><path
         d="M 834.102,855.293 755.516,689.828 h 179.945 l -74.453,165.465 c 0,0 70.402,47.211 23.676,105.117 -46.731,57.91 -156.055,-28.566 -50.582,-105.117"
         style="fill:#36252e;fill-opacity:1;fill-rule:nonzero;stroke:none"
         id="path315"
         inkscape:connector-curvature="0" /><path
         d="m 1024.05,612.191 v 296.641 c 0,0 -42.73,-141.582 0,-296.641"
         style="fill:#efdda5;fill-opacity:1;fill-rule:nonzero;stroke:none"
         id="path317"
         inkscape:connector-curvature="0" /><g
         id="g319"><g
           id="g321"
           clip-path="url(#clipPath325)"><path
             d="m 2177.34,934.766 -344.22,-91.895 c 0,0 167.23,-0.316 344.22,91.895"
             style="fill:#f57a1b;fill-opacity:1;fill-rule:nonzero;stroke:none"
             id="path327"
             inkscape:connector-curvature="0" /><path
             d="M 2168.23,826.035 1835.8,747.141 c 0,0 155.44,-13.332 332.43,78.894"
             style="fill:#f57a1b;fill-opacity:1;fill-rule:nonzero;stroke:none"
             id="path329"
             inkscape:connector-curvature="0" /><path
             d="m 2143.31,706.711 -314.94,-45.973 c 0,0 132.97,-20.558 314.94,45.973"
             style="fill:#f57a1b;fill-opacity:1;fill-rule:nonzero;stroke:none"
             id="path331"
             inkscape:connector-curvature="0" /><path
             d="M 2143.31,614.238 1827.34,557.32 c 0,0 140.21,-8.75 315.97,56.918"
             style="fill:#f57a1b;fill-opacity:1;fill-rule:nonzero;stroke:none"
             id="path333"
             inkscape:connector-curvature="0" /><path
             d="m 2122.12,515.391 -304.01,-52.032 c 0,0 147.36,-17.597 304.01,52.032"
             style="fill:#f57a1b;fill-opacity:1;fill-rule:nonzero;stroke:none"
             id="path335"
             inkscape:connector-curvature="0" /><path
             d="m 2122.12,393.988 -303.28,-63.066 c 0,0 121.82,-13.402 303.28,63.066"
             style="fill:#f57a1b;fill-opacity:1;fill-rule:nonzero;stroke:none"
             id="path337"
             inkscape:connector-curvature="0" /><path
             d="m 2096.07,300.129 -293.52,-99.801 c 0,0 133.98,5.5 293.52,99.801"
             style="fill:#f57a1b;fill-opacity:1;fill-rule:nonzero;stroke:none"
             id="path339"
             inkscape:connector-curvature="0" /><path
             d="M 1808.89,824.441 2193.3,928.18 c 5.6,1.511 8.91,7.265 7.4,12.859 -1.51,5.59 -7.27,8.899 -12.86,7.391 L 1803.43,844.691 c -5.6,-1.511 -8.91,-7.265 -7.4,-12.859 1.51,-5.59 7.27,-8.902 12.86,-7.391"
             style="fill:#8b1f26;fill-opacity:1;fill-rule:nonzero;stroke:none"
             id="path341"
             inkscape:connector-curvature="0" /><path
             d="m 1807.29,729.789 372.34,86.027 c 5.64,1.305 9.16,6.938 7.86,12.579 -1.31,5.644 -6.94,9.164 -12.58,7.859 L 1802.57,750.23 c -5.65,-1.308 -9.16,-6.941 -7.86,-12.582 1.3,-5.636 6.93,-9.16 12.58,-7.859"
             style="fill:#8b1f26;fill-opacity:1;fill-rule:nonzero;stroke:none"
             id="path343"
             inkscape:connector-curvature="0" /><path
             d="m 2159.55,722.941 -365.2,-56.882 c -5.72,-0.887 -9.64,-6.25 -8.75,-11.969 0.89,-5.719 6.25,-9.641 11.98,-8.75 l 365.2,56.871 c 5.72,0.891 9.64,6.25 8.75,11.98 -0.89,5.719 -6.25,9.641 -11.98,8.75"
             style="fill:#8b1f26;fill-opacity:1;fill-rule:nonzero;stroke:none"
             id="path345"
             inkscape:connector-curvature="0" /><path
             d="m 1784.52,538.281 370.52,72.449 c 5.68,1.11 9.39,6.622 8.28,12.301 -1.12,5.688 -6.62,9.391 -12.31,8.278 l -370.52,-72.438 c -5.68,-1.121 -9.39,-6.621 -8.28,-12.312 1.12,-5.68 6.62,-9.387 12.31,-8.278"
             style="fill:#8b1f26;fill-opacity:1;fill-rule:nonzero;stroke:none"
             id="path347"
             inkscape:connector-curvature="0" /><path
             d="m 2139.1,528.488 -359.35,-61 c -5.71,-0.968 -9.55,-6.386 -8.58,-12.097 0.97,-5.711 6.38,-9.551 12.09,-8.582 l 359.35,61.011 c 5.71,0.961 9.55,6.379 8.58,12.09 -0.97,5.711 -6.38,9.551 -12.09,8.578"
             style="fill:#8b1f26;fill-opacity:1;fill-rule:nonzero;stroke:none"
             id="path349"
             inkscape:connector-curvature="0" /><path
             d="m 1801.13,316.57 327.16,67.211 c 5.67,1.168 9.33,6.707 8.16,12.379 -1.17,5.68 -6.71,9.328 -12.38,8.16 l -327.16,-67.199 c -5.67,-1.172 -9.33,-6.711 -8.16,-12.383 1.16,-5.679 6.71,-9.328 12.38,-8.168"
             style="fill:#8b1f26;fill-opacity:1;fill-rule:nonzero;stroke:none"
             id="path351"
             inkscape:connector-curvature="0" /><path
             d="M 2122.28,320.141 1789.62,207.039 c -5.49,-1.867 -8.42,-7.82 -6.55,-13.309 1.86,-5.48 7.82,-8.41 13.3,-6.55 l 332.67,113.109 c 5.48,1.859 8.41,7.82 6.55,13.301 -1.87,5.48 -7.82,8.422 -13.31,6.551"
             style="fill:#8b1f26;fill-opacity:1;fill-rule:nonzero;stroke:none"
             id="path353"
             inkscape:connector-curvature="0" /></g></g><path
         d="m 2153.02,1022.61 -68.97,-757.27 28.45,13.012 90.07,761.488 -49.55,-17.23"
         style="fill:#f14625;fill-opacity:1;fill-rule:nonzero;stroke:none"
         id="path355"
         inkscape:connector-curvature="0" /><g
         id="g357"><g
           id="g359"
           clip-path="url(#clipPath363)"><path
             d="m 1789.68,125.18 h 363.34 v 897.434 h -363.34 z"
             style="fill:#ba4525;fill-opacity:1;fill-rule:nonzero;stroke:none"
             id="path365"
             inkscape:connector-curvature="0" /></g></g><path
         d="m 1789.68,125.18 2.85,61.449 c 0.15,-0.008 0.31,-0.008 0.46,-0.008 1.12,0 2.26,0.18 3.38,0.559 l 60.21,20.468 c 2.45,0.473 4.98,0.973 7.57,1.5 v -48.636 l -74.47,-35.332 m 3.85,83.191 5,108 c 0.16,-0.012 0.32,-0.012 0.48,-0.012 0.7,0 1.41,0.071 2.12,0.211 l 63.02,12.95 v -97.141 l -70.62,-24.008 m 5.98,129.277 5.22,112.801 59.42,10.09 V 350.93 l -64.64,-13.282 m 6.21,134.25 3.29,71.172 55.14,10.782 v -72.043 l -58.43,-9.911 m 4.29,92.743 3.85,83.238 50.29,7.832 v -80.492 l -54.14,-10.578 m 4.83,104.621 2.92,62.949 46.39,10.719 v -66 l -49.31,-7.668 m 3.92,84.707 3.43,74.058 72.19,19.485 c 54.04,6.636 138.23,22.761 229.56,61.949 l 19.24,5.191 -2.73,-29.886 -276.3,-74.985 v -45.332 l -45.39,-10.48 m 4.44,96.058 2.72,58.805 327.1,113.778 -7.81,-85.684 -322.01,-86.899"
         style="fill:#a62d25;fill-opacity:1;fill-rule:nonzero;stroke:none"
         id="path367"
         inkscape:connector-curvature="0" /><path
         d="m 1894.38,847.512 229.56,61.949 c -91.33,-39.188 -175.52,-55.313 -229.56,-61.949"
         style="fill:#ba4525;fill-opacity:1;fill-rule:nonzero;stroke:none"
         id="path369"
         inkscape:connector-curvature="0" /><path
         d="m 1856.58,207.648 7.57,2.571 v -1.071 c -2.59,-0.527 -5.12,-1.027 -7.57,-1.5"
         style="fill:#ba4525;fill-opacity:1;fill-rule:nonzero;stroke:none"
         id="path371"
         inkscape:connector-curvature="0" /><path
         d="m 1822.19,828.027 1.01,22 322.01,86.899 -2.03,-22.274 -19.24,-5.191 -229.56,-61.949 -72.19,-19.485"
         style="fill:#8b1f26;fill-opacity:1;fill-rule:nonzero;stroke:none"
         id="path373"
         inkscape:connector-curvature="0" /><path
         d="m 1817.76,732.211 1,21.758 45.39,10.48 V 742.93 l -46.39,-10.719"
         style="fill:#8b1f26;fill-opacity:1;fill-rule:nonzero;stroke:none"
         id="path375"
         inkscape:connector-curvature="0" /><path
         d="m 1813.86,647.879 0.98,21.383 49.31,7.668 v -21.219 l -50.29,-7.832"
         style="fill:#8b1f26;fill-opacity:1;fill-rule:nonzero;stroke:none"
         id="path377"
         inkscape:connector-curvature="0" /><path
         d="m 1809.01,543.07 1,21.571 54.14,10.578 v -21.367 l -55.14,-10.782"
         style="fill:#8b1f26;fill-opacity:1;fill-rule:nonzero;stroke:none"
         id="path379"
         inkscape:connector-curvature="0" /><path
         d="m 1804.73,450.449 0.99,21.449 58.43,9.911 v -21.27 l -59.42,-10.09"
         style="fill:#8b1f26;fill-opacity:1;fill-rule:nonzero;stroke:none"
         id="path381"
         inkscape:connector-curvature="0" /><path
         d="m 1799.01,316.359 c -0.16,0 -0.32,0 -0.48,0.012 l 0.98,21.277 64.64,13.282 v -21.41 l -63.02,-12.95 c -0.71,-0.14 -1.42,-0.211 -2.12,-0.211"
         style="fill:#8b1f26;fill-opacity:1;fill-rule:nonzero;stroke:none"
         id="path383"
         inkscape:connector-curvature="0" /><path
         d="m 1792.99,186.621 c -0.15,0 -0.31,0 -0.46,0.008 l 1,21.742 70.62,24.008 v -22.16 l -7.57,-2.571 -60.21,-20.468 c -1.12,-0.379 -2.26,-0.559 -3.38,-0.559"
         style="fill:#8b1f26;fill-opacity:1;fill-rule:nonzero;stroke:none"
         id="path385"
         inkscape:connector-curvature="0" /><path
         d="M 1711.29,0 H 163.762 L 7.92969,1044.03 7.95703,1043.87 163.762,0 H 1711.29"
         style="fill:#f1cfbc;fill-opacity:1;fill-rule:nonzero;stroke:none"
         id="path387"
         inkscape:connector-curvature="0" /><path
         d="M 1711.29,0 H 163.762 L 7.95703,1043.87 188.785,41.4102 1712.57,34.332 1711.29,0"
         style="fill:#e6a13f;fill-opacity:1;fill-rule:nonzero;stroke:none"
         id="path389"
         inkscape:connector-curvature="0" /><path
         d="M 82.8242,1082.82 H 1602.39 c 0,0 -959.507,-43.43 -1519.5658,0"
         style="fill:#efdda5;fill-opacity:1;fill-rule:nonzero;stroke:none"
         id="path391"
         inkscape:connector-curvature="0" /><g
         id="g393"><g
           id="g395"
           clip-path="url(#clipPath399)"><path
             d="m 2202.57,1322.61 -336.37,-73.9 c 0,0 205.28,3.46 336.37,73.9"
             style="fill:#f57a1b;fill-opacity:1;fill-rule:nonzero;stroke:none"
             id="path401"
             inkscape:connector-curvature="0" /><path
             d="m 2182.43,1394.95 -275.69,-38.85 c 0,0 144.61,-31.62 275.69,38.85"
             style="fill:#f57a1b;fill-opacity:1;fill-rule:nonzero;stroke:none"
             id="path403"
             inkscape:connector-curvature="0" /><path
             d="m 2182.43,1472.05 -264.39,-24.85 c 0,0 166.01,-27.25 264.39,24.85"
             style="fill:#f57a1b;fill-opacity:1;fill-rule:nonzero;stroke:none"
             id="path405"
             inkscape:connector-curvature="0" /><path
             d="M 2164.3,1544.65 1942.56,1528 c 0,0 105.54,-38.8 221.74,16.65"
             style="fill:#f57a1b;fill-opacity:1;fill-rule:nonzero;stroke:none"
             id="path407"
             inkscape:connector-curvature="0" /><path
             d="M 2117.56,1643.32 1983,1635.93 c 0,0 75.55,-48.44 134.56,7.39"
             style="fill:#f57a1b;fill-opacity:1;fill-rule:nonzero;stroke:none"
             id="path409"
             inkscape:connector-curvature="0" /><path
             d="m 1839.11,1238.43 392.9,79.43 c 5.67,1.15 9.34,6.69 8.2,12.36 -1.15,5.68 -6.68,9.35 -12.36,8.2 l -392.9,-79.44 c -5.68,-1.14 -9.35,-6.68 -8.2,-12.35 1.15,-5.68 6.68,-9.35 12.36,-8.2"
             style="fill:#8b1f26;fill-opacity:1;fill-rule:nonzero;stroke:none"
             id="path411"
             inkscape:connector-curvature="0" /><path
             d="m 1857.18,1339.23 374.07,47.58 c 5.75,0.73 9.81,5.98 9.08,11.73 -0.73,5.74 -5.98,9.8 -11.73,9.07 l -374.07,-47.57 c -5.74,-0.74 -9.81,-5.99 -9.08,-11.73 0.73,-5.74 5.98,-9.81 11.73,-9.08"
             style="fill:#8b1f26;fill-opacity:1;fill-rule:nonzero;stroke:none"
             id="path413"
             inkscape:connector-curvature="0" /><path
             d="m 2201.76,1479.8 -315.69,-24.57 c -5.78,-0.45 -10.09,-5.5 -9.64,-11.27 0.44,-5.78 5.49,-10.09 11.26,-9.64 l 315.7,24.57 c 5.77,0.45 10.09,5.49 9.64,11.26 -0.45,5.78 -5.5,10.1 -11.27,9.65"
             style="fill:#8b1f26;fill-opacity:1;fill-rule:nonzero;stroke:none"
             id="path415"
             inkscape:connector-curvature="0" /><path
             d="m 1928.43,1516.63 274.79,16.96 c 5.78,0.36 10.18,5.33 9.82,11.11 -0.36,5.78 -5.33,10.18 -11.11,9.82 l -274.8,-16.97 c -5.78,-0.35 -10.17,-5.33 -9.82,-11.11 0.36,-5.78 5.33,-10.17 11.12,-9.81"
             style="fill:#8b1f26;fill-opacity:1;fill-rule:nonzero;stroke:none"
             id="path417"
             inkscape:connector-curvature="0" /><path
             d="m 2152.95,1647.61 -181.67,-1.21 c -5.79,-0.04 -10.45,-4.76 -10.41,-10.56 0.04,-5.79 4.76,-10.45 10.55,-10.41 l 181.67,1.2 c 5.79,0.04 10.46,4.77 10.42,10.56 -0.04,5.79 -4.77,10.45 -10.56,10.42"
             style="fill:#8b1f26;fill-opacity:1;fill-rule:nonzero;stroke:none"
             id="path419"
             inkscape:connector-curvature="0" /></g></g><path
         d="m 2048.1,1692.96 c 0,0 118.17,-130.93 135.6,-444.25 l 56.45,15.2 c 0,0 -59.78,455.96 -192.05,429.05"
         style="fill:#f14625;fill-opacity:1;fill-rule:nonzero;stroke:none"
         id="path421"
         inkscape:connector-curvature="0" /><path
         d="m 1837.03,1176.24 v 0 l 346.47,75.35 0.2,-2.88 -346.67,-72.47 m 0,0 c 0.08,0.47 84.47,480.51 206.92,515.71 -120.36,-34.77 -206.84,-515.24 -206.92,-515.71"
         style="fill:#ba4525;fill-opacity:1;fill-rule:nonzero;stroke:none"
         id="path423"
         inkscape:connector-curvature="0" /><path
         d="m 1837.03,1176.24 c 0,0 0,0 0,0 0.08,0.47 86.56,480.94 206.92,515.71 1.38,0.39 2.77,0.73 4.15,1.01 0,0 -11.24,-14.8 -28.71,-46.24 l -29.18,-0.2 c -4.65,-6.48 -9.22,-13.54 -13.71,-21.06 l 27.75,0.18 c 1.04,-0.4 2.11,-0.8 3.22,-1.2 -11.51,-22.3 -24.74,-50.29 -38.74,-84.31 l -33.83,-2.09 c -2.77,-7.02 -5.5,-14.15 -8.17,-21.39 0.34,-0.03 0.69,-0.05 1.04,-0.05 0.22,0 0.44,0.01 0.66,0.03 l 31.66,1.95 c -7.13,-18.23 -14.39,-37.96 -21.68,-59.28 l -32.15,-2.5 c -2.28,-7.17 -4.51,-14.37 -6.69,-21.56 l 31.62,2.46 c -7.17,-21.99 -14.33,-45.53 -21.35,-70.63 l -30.63,-3.89 c -1.96,-7.39 -3.84,-14.68 -5.67,-21.87 l 30.31,3.86 c -6.4,-23.99 -12.66,-49.32 -18.69,-76.03 l -30.28,-6.12 c -1.76,-7.88 -3.4,-15.37 -4.91,-22.39 l 30.26,6.11 c -1.58,-7.35 -3.14,-14.79 -4.68,-22.34 l 306.09,54.81 1.86,-27.62 -346.47,-75.35"
         style="fill:#a62d25;fill-opacity:1;fill-rule:nonzero;stroke:none"
         id="path425"
         inkscape:connector-curvature="0" /><path
         d="m 2007.47,1624.44 c -1.11,0.4 -2.18,0.8 -3.22,1.2 l 3.85,0.03 c -0.21,-0.41 -0.42,-0.82 -0.63,-1.23"
         style="fill:#ba4525;fill-opacity:1;fill-rule:nonzero;stroke:none"
         id="path427"
         inkscape:connector-curvature="0" /><path
         d="m 1849.97,1240.63 c 1.51,7.02 3.15,14.51 4.91,22.39 l 30.28,6.12 c -1.66,-7.36 -3.31,-14.84 -4.93,-22.4 l -30.26,-6.11"
         style="fill:#8b1f26;fill-opacity:1;fill-rule:nonzero;stroke:none"
         id="path429"
         inkscape:connector-curvature="0" /><path
         d="m 1873.54,1341.31 c 1.83,7.19 3.71,14.48 5.67,21.87 l 30.63,3.89 c -2.01,-7.18 -4,-14.46 -5.99,-21.9 l -30.31,-3.86"
         style="fill:#8b1f26;fill-opacity:1;fill-rule:nonzero;stroke:none"
         id="path431"
         inkscape:connector-curvature="0" /><path
         d="m 1899.57,1435.24 c 2.18,7.19 4.41,14.39 6.69,21.56 l 32.15,2.5 c -2.41,-7.02 -4.82,-14.23 -7.22,-21.6 l -31.62,-2.46"
         style="fill:#8b1f26;fill-opacity:1;fill-rule:nonzero;stroke:none"
         id="path433"
         inkscape:connector-curvature="0" /><path
         d="m 1927.77,1516.6 c -0.35,0 -0.7,0.02 -1.04,0.05 2.67,7.24 5.4,14.37 8.17,21.39 l 33.83,2.09 c -2.85,-6.93 -5.74,-14.12 -8.64,-21.55 l -31.66,-1.95 c -0.22,-0.02 -0.44,-0.03 -0.66,-0.03"
         style="fill:#8b1f26;fill-opacity:1;fill-rule:nonzero;stroke:none"
         id="path435"
         inkscape:connector-curvature="0" /><path
         d="m 1976.5,1625.46 c 4.49,7.52 9.06,14.58 13.71,21.06 l 29.18,0.2 c -3.52,-6.34 -7.3,-13.34 -11.29,-21.05 l -3.85,-0.03 -27.75,-0.18"
         style="fill:#8b1f26;fill-opacity:1;fill-rule:nonzero;stroke:none"
         id="path437"
         inkscape:connector-curvature="0" /></g></g></svg>