<?xml version="1.0" encoding="UTF-8" standalone="no"?>
<!-- Generator: Adobe Illustrator 19.0.0, SVG Export Plug-In . SVG Version: 6.00 Build 0)  -->

<svg
   xmlns:dc="http://purl.org/dc/elements/1.1/"
   xmlns:cc="http://creativecommons.org/ns#"
   xmlns:rdf="http://www.w3.org/1999/02/22-rdf-syntax-ns#"
   xmlns:svg="http://www.w3.org/2000/svg"
   xmlns="http://www.w3.org/2000/svg"
   xmlns:sodipodi="http://sodipodi.sourceforge.net/DTD/sodipodi-0.dtd"
   xmlns:inkscape="http://www.inkscape.org/namespaces/inkscape"
   version="1.1"
   id="Capa_1"
   x="0px"
   y="0px"
   viewBox="0 0 511 511"
   style="enable-background:new 0 0 511 511;"
   xml:space="preserve"
   sodipodi:docname="magic_glasses.svg"
   inkscape:version="0.92.3 (2405546, 2018-03-11)"><metadata
   id="metadata637"><rdf:RDF><cc:Work
       rdf:about=""><dc:format>image/svg+xml</dc:format><dc:type
         rdf:resource="http://purl.org/dc/dcmitype/StillImage" /><dc:title></dc:title></cc:Work></rdf:RDF></metadata><defs
   id="defs635" /><sodipodi:namedview
   pagecolor="#ffffff"
   bordercolor="#666666"
   borderopacity="1"
   objecttolerance="10"
   gridtolerance="10"
   guidetolerance="10"
   inkscape:pageopacity="0"
   inkscape:pageshadow="2"
   inkscape:window-width="3840"
   inkscape:window-height="1823"
   id="namedview633"
   showgrid="false"
   inkscape:zoom="1.8473581"
   inkscape:cx="141.99301"
   inkscape:cy="255.5"
   inkscape:window-x="0"
   inkscape:window-y="0"
   inkscape:window-maximized="1"
   inkscape:current-layer="Capa_1" />
<g
   id="g600">
	<path
   d="M499.43,132.824l-22.627-22.627c-2.928-2.929-7.677-2.929-10.606,0c-2.929,2.929-2.929,7.678,0,10.606l22.627,22.628   c4.628,4.627,7.176,10.779,7.176,17.324V228h-45.736c-18.855-19.708-45.4-32-74.764-32c-39.437,0-73.789,22.174-91.254,54.706   C277.789,241.805,267.313,236,255.5,236s-22.289,5.805-28.746,14.706C209.289,218.174,174.937,196,135.5,196   c-29.364,0-55.909,12.292-74.764,32H15v-67.245c0-6.544,2.548-12.697,7.176-17.324l22.627-22.627c2.929-2.929,2.929-7.678,0-10.606   c-2.929-2.929-7.678-2.929-10.606,0l-22.627,22.627C4.109,140.284,0,150.204,0,160.755V243.5C0,260.869,14.131,275,31.5,275h3.437   C33.023,282.858,32,291.061,32,299.5C32,356.57,78.43,403,135.5,403S239,356.57,239,299.5c0-9.863-1.388-19.408-3.977-28.45   c0.243-11.095,9.325-20.05,20.477-20.05s20.234,8.955,20.477,20.05c-2.589,9.043-3.977,18.587-3.977,28.45   c0,57.07,46.43,103.5,103.5,103.5S479,356.57,479,299.5c0-8.439-1.023-16.642-2.937-24.5h3.437c17.369,0,31.5-14.131,31.5-31.5   v-82.745C511,150.204,506.891,140.284,499.43,132.824z M39.5,260h-8c-9.098,0-16.5-7.402-16.5-16.5V243h33.825   c-3.5,5.351-6.518,11.043-8.992,17.017C39.722,260.012,39.613,260,39.5,260z M135.5,388C86.701,388,47,348.299,47,299.5   S86.701,211,135.5,211s88.5,39.701,88.5,88.5S184.299,388,135.5,388z M375.5,388c-48.799,0-88.5-39.701-88.5-88.5   s39.701-88.5,88.5-88.5s88.5,39.701,88.5,88.5S424.299,388,375.5,388z M479.5,260h-8c-0.113,0-0.222,0.012-0.333,0.017   c-2.474-5.973-5.492-11.666-8.992-17.017H496v0.5C496,252.598,488.598,260,479.5,260z"
   id="path594" />
	<path
   d="M192,299.5c0,31.154-25.346,56.5-56.5,56.5c-4.142,0-7.5,3.358-7.5,7.5s3.358,7.5,7.5,7.5c39.425,0,71.5-32.075,71.5-71.5   c0-4.142-3.358-7.5-7.5-7.5S192,295.358,192,299.5z"
   id="path596" />
	<path
   d="M432,299.5c0,31.154-25.346,56.5-56.5,56.5c-4.142,0-7.5,3.358-7.5,7.5s3.358,7.5,7.5,7.5c39.425,0,71.5-32.075,71.5-71.5   c0-4.142-3.358-7.5-7.5-7.5S432,295.358,432,299.5z"
   id="path598" />
</g>
<g
   id="g602">
</g>
<g
   id="g604">
</g>
<g
   id="g606">
</g>
<g
   id="g608">
</g>
<g
   id="g610">
</g>
<g
   id="g612">
</g>
<g
   id="g614">
</g>
<g
   id="g616">
</g>
<g
   id="g618">
</g>
<g
   id="g620">
</g>
<g
   id="g622">
</g>
<g
   id="g624">
</g>
<g
   id="g626">
</g>
<g
   id="g628">
</g>
<g
   id="g630">
</g>
<path
   style="fill:#cccccc;stroke-width:0.54131359"
   d="m 126.67383,387.33178 c -15.21433,-1.82487 -30.238303,-7.46919 -41.951796,-15.76077 -6.58508,-4.66135 -16.565508,-14.64043 -21.235735,-21.23287 -6.754269,-9.53425 -11.980045,-21.60993 -14.582573,-33.6973 -1.003184,-4.65925 -1.199904,-7.32548 -1.228099,-16.64487 -0.02872,-9.49322 0.144474,-11.97526 1.198428,-17.17466 3.970656,-19.58816 14.332635,-37.45872 28.976099,-49.973 35.403536,-30.25579 86.852206,-28.46363 119.689676,4.16926 13.5659,13.48139 22.22963,30.50489 25.30196,49.71622 0.994,6.21553 0.8386,21.04033 -0.28506,27.19331 -5.14408,28.16821 -21.94645,51.07921 -46.89402,63.94268 -9.75164,5.02815 -17.94324,7.61022 -28.67769,9.03948 -5.15619,0.68654 -16.19543,0.91618 -20.31119,0.42252 z m 21.38189,-17.30222 c 22.09334,-3.83038 41.4825,-18.3572 51.7715,-38.78843 5.82768,-11.57223 9.19042,-31.00364 6.21093,-35.88965 -1.91503,-3.14044 -6.49382,-4.3269 -10.098,-2.6166 -2.89628,1.37437 -3.58383,2.989 -4.34592,10.20592 -0.82671,7.82882 -1.34872,10.24573 -3.46575,16.04655 -7.53992,20.65988 -27.14364,35.21321 -49.27509,36.58065 -2.82836,0.17476 -5.93031,0.67881 -6.89322,1.12011 -2.49931,1.14543 -3.93305,3.74071 -3.93305,7.11938 0,2.39125 0.25046,3.05925 1.76789,4.71505 1.00484,1.09648 2.5819,2.12267 3.65386,2.37756 2.33043,0.55415 8.51559,0.18552 14.60685,-0.87054 z"
   id="path639"
   inkscape:connector-curvature="0" /><path
   style="fill:#cccccc;stroke-width:0.54131359"
   d="m 363.49852,386.871 c -36.0545,-4.95131 -65.2236,-31.56114 -73.86806,-67.38693 -4.62029,-19.1482 -2.29318,-40.0562 6.47692,-58.19201 10.54376,-21.8036 29.39371,-38.2337 52.39886,-45.6722 9.87458,-3.19285 15.70806,-4.06861 27.17183,-4.07922 7.99193,-0.007 10.85559,0.21252 15.92865,1.22329 23.89443,4.7608 44.08978,18.18654 57.433,38.1811 6.17323,9.25047 10.80639,20.53188 13.09126,31.87628 1.64324,8.15865 1.75809,23.85741 0.23456,32.06079 -2.29157,12.33884 -7.83655,25.58326 -14.83891,35.44336 -4.0967,5.7686 -13.2258,15.26794 -18.52566,19.27696 -12.21877,9.24278 -28.0116,15.66082 -43.03794,17.49019 -6.29769,0.7667 -15.96207,0.67137 -22.46451,-0.22161 z M 386.775,370.27587 c 23.7572,-3.305 46.18787,-21.16189 55.24497,-43.98013 3.38511,-8.52834 5.97904,-22.7887 5.09598,-28.0155 -0.89388,-5.29085 -6.92939,-8.10642 -11.45799,-5.34516 -2.88256,1.75761 -3.5459,3.33403 -4.03387,9.5864 -1.63122,20.90074 -12.96863,38.12451 -31.04559,47.16438 -7.43321,3.71718 -16.71434,6.06384 -23.9923,6.06625 -6.42089,0.002 -10.36365,5.39307 -8.02905,10.97815 1.89722,4.53874 5.72453,5.28362 18.21785,3.54561 z"
   id="path641"
   inkscape:connector-curvature="0" /></svg>