<?xml version="1.0" encoding="iso-8859-1"?>
<!-- Generator: Adobe Illustrator 19.0.0, SVG Export Plug-In . SVG Version: 6.00 Build 0)  -->
<svg version="1.1" id="Capa_1" xmlns="http://www.w3.org/2000/svg" xmlns:xlink="http://www.w3.org/1999/xlink" x="0px" y="0px"
	 viewBox="0 0 512.001 512.001" style="enable-background:new 0 0 512.001 512.001;" xml:space="preserve">
<g>
	<g>
		<path d="M504.5,235.258H503V69.435c0-29.324-23.856-53.181-53.18-53.181H138.089c-4.142,0-7.5,3.357-7.5,7.5
			c0,4.143,3.358,7.5,7.5,7.5H449.82c21.052,0,38.18,17.128,38.18,38.181v165.823h-2.833v-12.507
			c0-6.734-4.961-12.315-11.417-13.322V76.558c0-17.698-14.399-32.098-32.098-32.098H70.348c-17.699,0-32.098,14.399-32.098,32.098
			v111.651c-6.456,1.007-11.417,6.588-11.417,13.322v33.727H24V69.435c0-21.053,17.127-38.181,38.18-38.181h41.731
			c4.142,0,7.5-3.357,7.5-7.5c0-4.143-3.358-7.5-7.5-7.5H62.18C32.856,16.255,9,40.11,9,69.435v165.823H7.5
			c-4.142,0-7.5,3.357-7.5,7.5v38.44c0,4.143,3.358,7.5,7.5,7.5h1.496v138.486c0,29.324,23.857,53.181,53.181,53.181h25.99v7.881
			c0,4.143,3.358,7.5,7.5,7.5h42c4.142,0,7.5-3.357,7.5-7.5v-7.881h221.667v7.881c0,4.143,3.358,7.5,7.5,7.5h42
			c4.142,0,7.5-3.357,7.5-7.5v-7.881h25.991c29.324,0,53.18-23.856,53.18-53.181v-75.096c0-4.143-3.358-7.5-7.5-7.5
			c-4.142,0-7.5,3.357-7.5,7.5v75.096c0,21.053-17.127,38.181-38.18,38.181h-25.991V288.698h64.171v29.213
			c0,4.143,3.358,7.5,7.5,7.5c4.142,0,7.5-3.357,7.5-7.5v-29.213h1.496c4.142,0,7.5-3.357,7.5-7.5v-38.44
			C512,238.615,508.642,235.258,504.5,235.258z M53.25,76.558c0-9.428,7.67-17.098,17.098-17.098h371.305
			c9.428,0,17.098,7.67,17.098,17.098v132.693h-12.153v-31.358c0-7.444-6.056-13.5-13.5-13.5H402.71l-19.372-19.372V118.25
			c0-7.444-6.056-13.5-13.5-13.5H292.56c-3.352,0-6.567,1.238-9.056,3.487l-30.394,27.488h-31.79
			c-1.651-15.344-14.675-27.333-30.45-27.333c-15.775,0-28.799,11.989-30.45,27.333H92.964c-7.444,0-13.5,6.056-13.5,13.5v38.806
			H53.25V76.558z M391.654,174.55l-17.324,17.324l-17.324-17.324l17.324-17.324L391.654,174.55z M206.5,139.023
			c0,8.618-7.012,15.63-15.63,15.63c-8.618,0-15.63-7.012-15.63-15.63c0-8.619,7.012-15.631,15.63-15.631
			C199.488,123.393,206.5,130.404,206.5,139.023z M41.833,203.031h39.13c7.444,0,13.5-6.056,13.5-13.5v-38.806h68.104
			c4.607,11.1,15.555,18.928,28.302,18.928c12.747,0,23.695-7.828,28.302-18.928H256c1.859,0,3.652-0.69,5.031-1.938l32.107-29.038
			h75.201v22.253l-27.243,27.243c-2.929,2.93-2.929,7.678,0,10.607l27.931,27.931c1.464,1.464,3.384,2.196,5.303,2.196
			s3.839-0.732,5.303-2.196l27.931-27.931c0.148-0.148,0.283-0.304,0.417-0.461h23.616v31.358c0,7.444,6.056,13.5,13.5,13.5h25.07
			v11.007H295.98c-1.376-1.629-3.431-2.666-5.73-2.666h-68.5c-2.299,0-4.354,1.037-5.73,2.666H179.5v-39.727
			c0-4.143-3.358-7.5-7.5-7.5h-37c-4.142,0-7.5,3.357-7.5,7.5v39.727H41.833V203.031z M282.75,247.592v110.419h-53.5V247.592H282.75
			z M164.5,203.031v32.227h-22v-32.227H164.5z M88.166,465.365h-25.99c-21.053,0-38.181-17.128-38.181-38.181V288.698h64.171
			V465.365z M15,273.698v-23.44h199.25v23.44H15z M366.833,465.365H145.167V357.089c0-4.143-3.358-7.5-7.5-7.5
			c-4.142,0-7.5,3.357-7.5,7.5v123.657h-27V288.698h27v34.213c0,4.143,3.358,7.5,7.5,7.5c4.142,0,7.5-3.357,7.5-7.5v-34.213h69.083
			v76.813c0,4.143,3.358,7.5,7.5,7.5h68.5c4.142,0,7.5-3.357,7.5-7.5v-76.813h69.083V465.365z M408.833,480.746h-27V288.698h27
			V480.746z M497,273.698H297.75v-23.44H497V273.698z"/>
	</g>
</g>
<g>
	<g>
		<path d="M172,412.092c-4.142,0-7.5,3.357-7.5,7.5v0.938c0,4.143,3.358,7.5,7.5,7.5c4.142,0,7.5-3.357,7.5-7.5v-0.938
			C179.5,415.449,176.142,412.092,172,412.092z"/>
	</g>
</g>
<g>
	<g>
		<path d="M214,412.092c-4.142,0-7.5,3.357-7.5,7.5v0.938c0,4.143,3.358,7.5,7.5,7.5c4.142,0,7.5-3.357,7.5-7.5v-0.938
			C221.5,415.449,218.142,412.092,214,412.092z"/>
	</g>
</g>
<g>
	<g>
		<path d="M256,412.092c-4.142,0-7.5,3.357-7.5,7.5v0.938c0,4.143,3.358,7.5,7.5,7.5c4.142,0,7.5-3.357,7.5-7.5v-0.938
			C263.5,415.449,260.142,412.092,256,412.092z"/>
	</g>
</g>
<g>
	<g>
		<path d="M298,412.092c-4.142,0-7.5,3.357-7.5,7.5v0.938c0,4.143,3.358,7.5,7.5,7.5c4.142,0,7.5-3.357,7.5-7.5v-0.938
			C305.5,415.449,302.142,412.092,298,412.092z"/>
	</g>
</g>
<g>
	<g>
		<path d="M340,412.092c-4.142,0-7.5,3.357-7.5,7.5v0.938c0,4.143,3.358,7.5,7.5,7.5c4.142,0,7.5-3.357,7.5-7.5v-0.938
			C347.5,415.449,344.142,412.092,340,412.092z"/>
	</g>
</g>
<g>
	<g>
		<path d="M256,304.625c-9.833,0-17.833,8-17.833,17.833c0,7.152,4.241,13.317,10.333,16.157v5.148c0,4.143,3.358,7.5,7.5,7.5
			c4.142,0,7.5-3.357,7.5-7.5v-5.148c6.092-2.84,10.333-9.005,10.333-16.157C273.833,312.625,265.833,304.625,256,304.625z
			 M256,325.292c-1.563,0-2.833-1.271-2.833-2.833s1.27-2.833,2.833-2.833s2.833,1.271,2.833,2.833S257.562,325.292,256,325.292z"/>
	</g>
</g>
<g>
	<g>
		<path d="M266.333,162.852c-14.589,0-26.457,11.868-26.457,26.457c0,14.588,11.869,26.456,26.457,26.456
			s26.457-11.868,26.457-26.456C292.79,174.719,280.922,162.852,266.333,162.852z M266.333,200.764
			c-6.318,0-11.457-5.14-11.457-11.456c0-6.318,5.14-11.457,11.457-11.457s11.457,5.14,11.457,11.457
			C277.79,195.624,272.651,200.764,266.333,200.764z"/>
	</g>
</g>
<g>
	<g>
		<path d="M313.5,134.227h-7.75c-4.142,0-7.5,3.357-7.5,7.5s3.358,7.5,7.5,7.5h7.75c4.142,0,7.5-3.357,7.5-7.5
			S317.642,134.227,313.5,134.227z"/>
	</g>
</g>
<g>
	<g>
		<path d="M321.25,158.834h-7.75c-4.142,0-7.5,3.357-7.5,7.5s3.358,7.5,7.5,7.5h7.75c4.142,0,7.5-3.357,7.5-7.5
			S325.392,158.834,321.25,158.834z"/>
	</g>
</g>
<g>
	<g>
		<path d="M225.625,188.609h-7.75c-4.142,0-7.5,3.357-7.5,7.5s3.358,7.5,7.5,7.5h7.75c4.142,0,7.5-3.357,7.5-7.5
			S229.767,188.609,225.625,188.609z"/>
	</g>
</g>
<g>
	<g>
		<path d="M147.625,158.852h-7.75c-4.142,0-7.5,3.357-7.5,7.5s3.358,7.5,7.5,7.5h7.75c4.142,0,7.5-3.357,7.5-7.5
			S151.767,158.852,147.625,158.852z"/>
	</g>
</g>
<g>
	<g>
		<path d="M120.542,172.727h-7.75c-4.142,0-7.5,3.357-7.5,7.5s3.358,7.5,7.5,7.5h7.75c4.142,0,7.5-3.358,7.5-7.5
			C128.042,176.083,124.684,172.727,120.542,172.727z"/>
	</g>
</g>
<g>
	<g>
		<path d="M340,205.727h-7.75c-4.142,0-7.5,3.357-7.5,7.5s3.358,7.5,7.5,7.5H340c4.142,0,7.5-3.357,7.5-7.5
			S344.142,205.727,340,205.727z"/>
	</g>
</g>
<g>
	<g>
		<path d="M410.011,200.764h-7.75c-4.142,0-7.5,3.357-7.5,7.5s3.358,7.5,7.5,7.5h7.75c4.142,0,7.5-3.357,7.5-7.5
			S414.153,200.764,410.011,200.764z"/>
	</g>
</g>
<g>
	<g>
		<path d="M103.417,209.251h-7.75c-4.142,0-7.5,3.357-7.5,7.5s3.358,7.5,7.5,7.5h7.75c4.142,0,7.5-3.357,7.5-7.5
			S107.559,209.251,103.417,209.251z"/>
	</g>
</g>
<g>
</g>
<g>
</g>
<g>
</g>
<g>
</g>
<g>
</g>
<g>
</g>
<g>
</g>
<g>
</g>
<g>
</g>
<g>
</g>
<g>
</g>
<g>
</g>
<g>
</g>
<g>
</g>
<g>
</g>
</svg>
