<?xml version="1.0" encoding="iso-8859-1"?>
<!-- Generator: Adobe Illustrator 19.0.0, SVG Export Plug-In . SVG Version: 6.00 Build 0)  -->
<svg version="1.1" id="Capa_1" xmlns="http://www.w3.org/2000/svg" xmlns:xlink="http://www.w3.org/1999/xlink" x="0px" y="0px"
	 viewBox="0 0 480.004 480.004" style="enable-background:new 0 0 480.004 480.004;" xml:space="preserve">
<g>
	<g>
		<g>
			<path d="M376.002,48.003h-272c-4.418,0-8,3.582-8,8v368c0,4.418,3.582,8,8,8h272c4.418,0,8-3.582,8-8v-368
				C384.002,51.584,380.42,48.003,376.002,48.003z M368.002,416.003h-256v-352h256V416.003z"/>
			<path d="M416.178,239.947l15.648-72.992c0.24-1.107,0.24-2.253,0-3.36l-15.664-73.096l14.008-78.032
				c0.467-2.607-0.387-5.276-2.28-7.128c-1.879-1.865-4.566-2.667-7.16-2.136l-63.128,12.592L300.754,0.283
				c-1.38-0.377-2.836-0.377-4.216,0l-56.536,15.432L183.41,0.283c-1.378-0.375-2.831-0.375-4.208,0l-56.856,15.496L59.274,3.203
				c-0.991-0.198-2.011-0.207-3.005-0.026c-4.347,0.793-7.227,4.959-6.435,9.306L63.85,90.571l-15.672,73.16
				c-0.24,1.104-0.24,2.248,0,3.352l15.648,72.976l-15.648,72.992c-0.24,1.107-0.24,2.253,0,3.36l15.664,73.096l-14.008,78.032
				c-0.178,0.988-0.169,2.001,0.028,2.986c0.865,4.333,5.079,7.144,9.412,6.278l63.128-12.592l56.888,15.512
				c1.378,0.376,2.83,0.376,4.208,0l56.544-15.432l56.568,15.432c0.686,0.185,1.393,0.279,2.104,0.28l0,0
				c0.705-0.002,1.407-0.096,2.088-0.28l56.856-15.512l63.072,12.576c0.985,0.197,1.998,0.206,2.986,0.028
				c4.348-0.784,7.238-4.944,6.454-9.292l-14.008-77.76l15.664-73.496c0.232-1.103,0.232-2.241,0-3.344L416.178,239.947z
				 M400.154,391.043l12.2,67.76l-53.408-10.64c-1.214-0.244-2.468-0.203-3.664,0.12l-56.552,15.432l-56.568-15.432
				c-1.38-0.377-2.836-0.377-4.216,0l-56.536,15.432l-56.592-15.432c-0.686-0.185-1.393-0.279-2.104-0.28h-0.016
				c-0.524,0.004-1.047,0.06-1.56,0.168l-53.48,10.648l12.216-68c0.184-1.025,0.168-2.077-0.048-3.096l-15.648-72.968l15.648-72.992
				c0.24-1.107,0.24-2.253,0-3.36l-15.648-73l15.648-73.024c0.216-1.016,0.233-2.065,0.048-3.088L67.658,21.203l53.416,10.64
				c1.214,0.248,2.469,0.207,3.664-0.12l56.552-15.432l56.568,15.432c1.38,0.377,2.836,0.377,4.216,0l56.536-15.432l56.592,15.432
				c1.195,0.327,2.45,0.368,3.664,0.12l53.48-10.656l-12.216,68c-0.184,1.025-0.168,2.077,0.048,3.096l15.648,72.968l-15.648,72.992
				c-0.24,1.107-0.24,2.253,0,3.36l15.664,73.008l-15.64,73.352C399.987,388.977,399.971,390.023,400.154,391.043z"/>
		</g>
	</g>
</g>
<g>
</g>
<g>
</g>
<g>
</g>
<g>
</g>
<g>
</g>
<g>
</g>
<g>
</g>
<g>
</g>
<g>
</g>
<g>
</g>
<g>
</g>
<g>
</g>
<g>
</g>
<g>
</g>
<g>
</g>
</svg>
