<?xml version="1.0" encoding="UTF-8" standalone="no"?>
<!-- Generator: Adobe Illustrator 19.0.0, SVG Export Plug-In . SVG Version: 6.00 Build 0)  -->

<svg
   xmlns:dc="http://purl.org/dc/elements/1.1/"
   xmlns:cc="http://creativecommons.org/ns#"
   xmlns:rdf="http://www.w3.org/1999/02/22-rdf-syntax-ns#"
   xmlns:svg="http://www.w3.org/2000/svg"
   xmlns="http://www.w3.org/2000/svg"
   xmlns:sodipodi="http://sodipodi.sourceforge.net/DTD/sodipodi-0.dtd"
   xmlns:inkscape="http://www.inkscape.org/namespaces/inkscape"
   version="1.1"
   id="Capa_1"
   x="0px"
   y="0px"
   viewBox="0 0 480.004 480.004"
   style="enable-background:new 0 0 480.004 480.004;"
   xml:space="preserve"
   sodipodi:docname="picture_frame.svg"
   inkscape:version="0.92.3 (2405546, 2018-03-11)"><metadata
   id="metadata984"><rdf:RDF><cc:Work
       rdf:about=""><dc:format>image/svg+xml</dc:format><dc:type
         rdf:resource="http://purl.org/dc/dcmitype/StillImage" /></cc:Work></rdf:RDF></metadata><defs
   id="defs982" /><sodipodi:namedview
   pagecolor="#ffffff"
   bordercolor="#666666"
   borderopacity="1"
   objecttolerance="10"
   gridtolerance="10"
   guidetolerance="10"
   inkscape:pageopacity="0"
   inkscape:pageshadow="2"
   inkscape:window-width="3840"
   inkscape:window-height="1823"
   id="namedview980"
   showgrid="false"
   inkscape:zoom="1.9666503"
   inkscape:cx="191.44227"
   inkscape:cy="240.002"
   inkscape:window-x="0"
   inkscape:window-y="0"
   inkscape:window-maximized="1"
   inkscape:current-layer="Capa_1" />
<g
   id="g947">
	<g
   id="g945">
		<g
   id="g943">
			<path
   d="M376.002,48.003h-272c-4.418,0-8,3.582-8,8v368c0,4.418,3.582,8,8,8h272c4.418,0,8-3.582,8-8v-368     C384.002,51.584,380.42,48.003,376.002,48.003z M368.002,416.003h-256v-352h256V416.003z"
   id="path939" />
			<path
   d="M416.178,239.947l15.648-72.992c0.24-1.107,0.24-2.253,0-3.36l-15.664-73.096l14.008-78.032     c0.467-2.607-0.387-5.276-2.28-7.128c-1.879-1.865-4.566-2.667-7.16-2.136l-63.128,12.592L300.754,0.283     c-1.38-0.377-2.836-0.377-4.216,0l-56.536,15.432L183.41,0.283c-1.378-0.375-2.831-0.375-4.208,0l-56.856,15.496L59.274,3.203     c-0.991-0.198-2.011-0.207-3.005-0.026c-4.347,0.793-7.227,4.959-6.435,9.306L63.85,90.571l-15.672,73.16     c-0.24,1.104-0.24,2.248,0,3.352l15.648,72.976l-15.648,72.992c-0.24,1.107-0.24,2.253,0,3.36l15.664,73.096l-14.008,78.032     c-0.178,0.988-0.169,2.001,0.028,2.986c0.865,4.333,5.079,7.144,9.412,6.278l63.128-12.592l56.888,15.512     c1.378,0.376,2.83,0.376,4.208,0l56.544-15.432l56.568,15.432c0.686,0.185,1.393,0.279,2.104,0.28l0,0     c0.705-0.002,1.407-0.096,2.088-0.28l56.856-15.512l63.072,12.576c0.985,0.197,1.998,0.206,2.986,0.028     c4.348-0.784,7.238-4.944,6.454-9.292l-14.008-77.76l15.664-73.496c0.232-1.103,0.232-2.241,0-3.344L416.178,239.947z      M400.154,391.043l12.2,67.76l-53.408-10.64c-1.214-0.244-2.468-0.203-3.664,0.12l-56.552,15.432l-56.568-15.432     c-1.38-0.377-2.836-0.377-4.216,0l-56.536,15.432l-56.592-15.432c-0.686-0.185-1.393-0.279-2.104-0.28h-0.016     c-0.524,0.004-1.047,0.06-1.56,0.168l-53.48,10.648l12.216-68c0.184-1.025,0.168-2.077-0.048-3.096l-15.648-72.968l15.648-72.992     c0.24-1.107,0.24-2.253,0-3.36l-15.648-73l15.648-73.024c0.216-1.016,0.233-2.065,0.048-3.088L67.658,21.203l53.416,10.64     c1.214,0.248,2.469,0.207,3.664-0.12l56.552-15.432l56.568,15.432c1.38,0.377,2.836,0.377,4.216,0l56.536-15.432l56.592,15.432     c1.195,0.327,2.45,0.368,3.664,0.12l53.48-10.656l-12.216,68c-0.184,1.025-0.168,2.077,0.048,3.096l15.648,72.968l-15.648,72.992     c-0.24,1.107-0.24,2.253,0,3.36l15.664,73.008l-15.64,73.352C399.987,388.977,399.971,390.023,400.154,391.043z"
   id="path941" />
		</g>
	</g>
</g>
<g
   id="g949">
</g>
<g
   id="g951">
</g>
<g
   id="g953">
</g>
<g
   id="g955">
</g>
<g
   id="g957">
</g>
<g
   id="g959">
</g>
<g
   id="g961">
</g>
<g
   id="g963">
</g>
<g
   id="g965">
</g>
<g
   id="g967">
</g>
<g
   id="g969">
</g>
<g
   id="g971">
</g>
<g
   id="g973">
</g>
<g
   id="g975">
</g>
<g
   id="g977">
</g>
<g
   id="g1032"
   transform="matrix(0.24,0,0,0.24,174.61417,172.07174)"><g
     id="g600">
	<path
   id="path594"
   d="m 499.43,132.824 -22.627,-22.627 c -2.928,-2.929 -7.677,-2.929 -10.606,0 -2.929,2.929 -2.929,7.678 0,10.606 l 22.627,22.628 c 4.628,4.627 7.176,10.779 7.176,17.324 V 228 h -45.736 c -18.855,-19.708 -45.4,-32 -74.764,-32 -39.437,0 -73.789,22.174 -91.254,54.706 C 277.789,241.805 267.313,236 255.5,236 c -11.813,0 -22.289,5.805 -28.746,14.706 C 209.289,218.174 174.937,196 135.5,196 106.136,196 79.591,208.292 60.736,228 H 15 v -67.245 c 0,-6.544 2.548,-12.697 7.176,-17.324 l 22.627,-22.627 c 2.929,-2.929 2.929,-7.678 0,-10.606 -2.929,-2.929 -7.678,-2.929 -10.606,0 L 11.57,132.825 C 4.109,140.284 0,150.204 0,160.755 V 243.5 C 0,260.869 14.131,275 31.5,275 h 3.437 C 33.023,282.858 32,291.061 32,299.5 32,356.57 78.43,403 135.5,403 192.57,403 239,356.57 239,299.5 c 0,-9.863 -1.388,-19.408 -3.977,-28.45 0.243,-11.095 9.325,-20.05 20.477,-20.05 11.152,0 20.234,8.955 20.477,20.05 -2.589,9.043 -3.977,18.587 -3.977,28.45 0,57.07 46.43,103.5 103.5,103.5 57.07,0 103.5,-46.43 103.5,-103.5 0,-8.439 -1.023,-16.642 -2.937,-24.5 h 3.437 c 17.369,0 31.5,-14.131 31.5,-31.5 v -82.745 c 0,-10.551 -4.109,-20.471 -11.57,-27.931 z M 39.5,260 h -8 C 22.402,260 15,252.598 15,243.5 V 243 h 33.825 c -3.5,5.351 -6.518,11.043 -8.992,17.017 C 39.722,260.012 39.613,260 39.5,260 Z m 96,128 C 86.701,388 47,348.299 47,299.5 47,250.701 86.701,211 135.5,211 c 48.799,0 88.5,39.701 88.5,88.5 0,48.799 -39.701,88.5 -88.5,88.5 z m 240,0 c -48.799,0 -88.5,-39.701 -88.5,-88.5 0,-48.799 39.701,-88.5 88.5,-88.5 48.799,0 88.5,39.701 88.5,88.5 0,48.799 -39.701,88.5 -88.5,88.5 z m 104,-128 h -8 c -0.113,0 -0.222,0.012 -0.333,0.017 -2.474,-5.973 -5.492,-11.666 -8.992,-17.017 H 496 v 0.5 c 0,9.098 -7.402,16.5 -16.5,16.5 z"
   inkscape:connector-curvature="0" />
	<path
   id="path596"
   d="m 192,299.5 c 0,31.154 -25.346,56.5 -56.5,56.5 -4.142,0 -7.5,3.358 -7.5,7.5 0,4.142 3.358,7.5 7.5,7.5 39.425,0 71.5,-32.075 71.5,-71.5 0,-4.142 -3.358,-7.5 -7.5,-7.5 -4.142,0 -7.5,3.358 -7.5,7.5 z"
   inkscape:connector-curvature="0" />
	<path
   id="path598"
   d="m 432,299.5 c 0,31.154 -25.346,56.5 -56.5,56.5 -4.142,0 -7.5,3.358 -7.5,7.5 0,4.142 3.358,7.5 7.5,7.5 39.425,0 71.5,-32.075 71.5,-71.5 0,-4.142 -3.358,-7.5 -7.5,-7.5 -4.142,0 -7.5,3.358 -7.5,7.5 z"
   inkscape:connector-curvature="0" />
</g><g
     id="g602">
</g><g
     id="g604">
</g><g
     id="g606">
</g><g
     id="g608">
</g><g
     id="g610">
</g><g
     id="g612">
</g><g
     id="g614">
</g><g
     id="g616">
</g><g
     id="g618">
</g><g
     id="g620">
</g><g
     id="g622">
</g><g
     id="g624">
</g><g
     id="g626">
</g><g
     id="g628">
</g><g
     id="g630">
</g><path
     inkscape:connector-curvature="0"
     id="path639"
     d="m 126.67383,387.33178 c -15.21433,-1.82487 -30.238303,-7.46919 -41.951796,-15.76077 -6.58508,-4.66135 -16.565508,-14.64043 -21.235735,-21.23287 -6.754269,-9.53425 -11.980045,-21.60993 -14.582573,-33.6973 -1.003184,-4.65925 -1.199904,-7.32548 -1.228099,-16.64487 -0.02872,-9.49322 0.144474,-11.97526 1.198428,-17.17466 3.970656,-19.58816 14.332635,-37.45872 28.976099,-49.973 35.403536,-30.25579 86.852206,-28.46363 119.689676,4.16926 13.5659,13.48139 22.22963,30.50489 25.30196,49.71622 0.994,6.21553 0.8386,21.04033 -0.28506,27.19331 -5.14408,28.16821 -21.94645,51.07921 -46.89402,63.94268 -9.75164,5.02815 -17.94324,7.61022 -28.67769,9.03948 -5.15619,0.68654 -16.19543,0.91618 -20.31119,0.42252 z m 21.38189,-17.30222 c 22.09334,-3.83038 41.4825,-18.3572 51.7715,-38.78843 5.82768,-11.57223 9.19042,-31.00364 6.21093,-35.88965 -1.91503,-3.14044 -6.49382,-4.3269 -10.098,-2.6166 -2.89628,1.37437 -3.58383,2.989 -4.34592,10.20592 -0.82671,7.82882 -1.34872,10.24573 -3.46575,16.04655 -7.53992,20.65988 -27.14364,35.21321 -49.27509,36.58065 -2.82836,0.17476 -5.93031,0.67881 -6.89322,1.12011 -2.49931,1.14543 -3.93305,3.74071 -3.93305,7.11938 0,2.39125 0.25046,3.05925 1.76789,4.71505 1.00484,1.09648 2.5819,2.12267 3.65386,2.37756 2.33043,0.55415 8.51559,0.18552 14.60685,-0.87054 z"
     style="fill:#cccccc;stroke-width:0.54131359" /><path
     inkscape:connector-curvature="0"
     id="path641"
     d="m 363.49852,386.871 c -36.0545,-4.95131 -65.2236,-31.56114 -73.86806,-67.38693 -4.62029,-19.1482 -2.29318,-40.0562 6.47692,-58.19201 10.54376,-21.8036 29.39371,-38.2337 52.39886,-45.6722 9.87458,-3.19285 15.70806,-4.06861 27.17183,-4.07922 7.99193,-0.007 10.85559,0.21252 15.92865,1.22329 23.89443,4.7608 44.08978,18.18654 57.433,38.1811 6.17323,9.25047 10.80639,20.53188 13.09126,31.87628 1.64324,8.15865 1.75809,23.85741 0.23456,32.06079 -2.29157,12.33884 -7.83655,25.58326 -14.83891,35.44336 -4.0967,5.7686 -13.2258,15.26794 -18.52566,19.27696 -12.21877,9.24278 -28.0116,15.66082 -43.03794,17.49019 -6.29769,0.7667 -15.96207,0.67137 -22.46451,-0.22161 z M 386.775,370.27587 c 23.7572,-3.305 46.18787,-21.16189 55.24497,-43.98013 3.38511,-8.52834 5.97904,-22.7887 5.09598,-28.0155 -0.89388,-5.29085 -6.92939,-8.10642 -11.45799,-5.34516 -2.88256,1.75761 -3.5459,3.33403 -4.03387,9.5864 -1.63122,20.90074 -12.96863,38.12451 -31.04559,47.16438 -7.43321,3.71718 -16.71434,6.06384 -23.9923,6.06625 -6.42089,0.002 -10.36365,5.39307 -8.02905,10.97815 1.89722,4.53874 5.72453,5.28362 18.21785,3.54561 z"
     style="fill:#cccccc;stroke-width:0.54131359" /></g><path
   style="fill:#ffccaa;stroke-width:0.50847882"
   d="M 112.22127,239.84946 V 64.170026 H 240.10369 367.98612 V 239.84946 415.52888 H 240.10369 112.22127 Z m 100.30752,28.49043 c 1.89327,-0.40119 4.79908,-1.45259 6.45736,-2.33645 3.64697,-1.94381 8.54904,-6.91475 10.37776,-10.52356 2.5364,-5.00535 3.44706,-11.44289 2.3141,-16.35857 -0.64644,-2.80478 0.0892,-4.85791 2.11607,-5.90606 2.03996,-1.0549 3.21854,-0.92084 4.98707,0.56728 l 1.55211,1.30602 -0.31623,6.2395 c -0.27813,5.48766 -0.18539,6.67027 0.76962,9.81443 1.26023,4.14903 4.32683,8.99875 7.36203,11.64276 2.98154,2.59727 8.58661,5.14799 12.92976,5.88401 10.10488,1.71245 21.41094,-4.10335 25.88317,-13.31419 2.16085,-4.45041 2.90486,-8.19216 2.61715,-13.16213 l -0.23868,-4.12315 1.31422,-0.002 c 1.82528,-0.003 4.43557,-1.70607 5.63905,-3.67993 0.93488,-1.53333 1.01055,-2.58077 1.01231,-14.01306 0.002,-14.29436 0.15528,-13.71009 -4.98936,-19.04271 -3.30022,-3.4208 -4.80017,-4.11546 -6.09358,-2.82205 -1.10479,1.10479 -0.6522,1.95249 3.20342,6.00005 l 3.81359,4.00343 v 8.93058 8.93057 h -5.16494 -5.16494 l -2.61366,-2.01642 c -3.4379,-2.65232 -7.60045,-4.45005 -11.97767,-5.17293 -8.51487,-1.4062 -18.16636,2.50733 -23.45342,9.50999 l -2.03026,2.68906 -1.76382,-1.19696 c -3.3592,-2.27961 -6.73847,-2.26105 -10.1525,0.0558 -1.81283,1.23022 -1.94209,1.24976 -2.43367,0.36791 -0.99297,-1.7813 -5.55038,-6.25107 -7.93162,-7.77911 -8.95049,-5.74351 -20.94089,-4.9987 -29.34908,1.82309 -2.11005,1.71207 -2.14344,1.71973 -7.50006,1.71973 h -5.38057 v -8.10256 c 0,-4.45641 0.23343,-8.71652 0.51872,-9.46692 0.28531,-0.75039 2.01992,-2.91931 3.8547,-4.81982 2.5041,-2.59379 3.29403,-3.75169 3.16775,-4.64337 -0.11839,-0.83598 -0.54972,-1.23241 -1.45589,-1.33812 -1.81795,-0.21208 -8.78085,6.92274 -9.58592,9.82262 -0.33098,1.19221 -0.5581,6.51092 -0.55319,12.9549 0.007,9.56112 0.12695,11.19348 0.95408,13.01475 1.08131,2.38094 3.74138,4.27353 6.00654,4.27353 h 1.51557 l -0.4547,2.89955 c -0.9953,6.34696 1.79671,14.94808 6.47628,19.95091 6.25797,6.69027 14.72562,9.33436 23.76133,7.41965 z"
   id="path1034"
   inkscape:connector-curvature="0" /><path
   style="fill:#ffccaa;stroke-width:0.50847882"
   d="m 202.09283,264.46712 c -4.781,-1.1268 -10.45576,-5.25413 -12.85652,-9.35071 -2.19023,-3.73734 -2.86492,-6.36641 -2.87402,-11.19912 -0.0135,-7.19103 2.56918,-12.5705 8.04107,-16.74861 3.83498,-2.92822 7.33291,-4.03081 12.90345,-4.06735 4.4098,-0.0289 5.12832,0.10938 8.24922,1.58782 8.42378,3.99052 13.04197,11.56498 12.47221,20.45612 -0.3425,5.34467 -1.88901,9.07692 -5.27788,12.73731 -3.16138,3.41467 -5.84482,5.14204 -9.81545,6.31837 -2.96361,0.87799 -7.74777,0.99544 -10.84208,0.26617 z m 12.46991,-4.98226 c 4.8604,-2.35754 8.46113,-7.16713 9.51126,-12.70443 0.57432,-3.02837 0.0637,-4.64282 -1.46845,-4.64282 -1.339,0 -1.89215,0.92157 -2.26434,3.77242 -0.77364,5.92599 -5.56087,10.49417 -11.96234,11.41498 -2.38742,0.34341 -3.48025,1.40907 -2.92605,2.8533 0.49351,1.28605 5.87315,0.87655 9.10992,-0.69345 z"
   id="path1036"
   inkscape:connector-curvature="0" /><path
   style="fill:#ffccaa;stroke-width:0.50847882"
   d="m 258.08158,263.84141 c -7.83018,-2.66896 -12.83969,-8.58158 -14.13369,-16.68165 -1.93167,-12.09178 6.78751,-23.0549 19.21047,-24.15443 8.5981,-0.76099 16.85866,4.04816 20.63291,12.01212 1.45503,3.07022 1.56704,3.70637 1.56704,8.89984 0,5.05216 -0.13661,5.88497 -1.41212,8.60861 -2.76813,5.91088 -6.99141,9.62068 -13.12578,11.52991 -4.14097,1.28882 -8.54624,1.21467 -12.73883,-0.2144 z m 12.98885,-3.93183 c 3.64505,-1.36379 7.50341,-5.00351 9.13712,-8.61935 1.59034,-3.51986 2.19894,-7.35153 1.33333,-8.39452 -1.42327,-1.71494 -3.55551,-0.31915 -3.55551,2.32747 0,3.72213 -3.38512,8.73862 -7.21541,10.69269 -1.10372,0.56308 -3.13346,1.15722 -4.51052,1.32031 -2.79789,0.33137 -3.77321,1.12596 -3.28194,2.67379 0.27379,0.86265 0.75764,1.04136 2.81956,1.04136 1.36898,0 3.742,-0.46879 5.27337,-1.04175 z"
   id="path1038"
   inkscape:connector-curvature="0" /><path
   style="fill:#ffccaa;stroke-width:0.50847882"
   d="m 286.92099,232.39839 c -0.43998,-0.88196 -0.79996,-1.68281 -0.79996,-1.77968 0,-0.0969 1.6017,-0.17611 3.55935,-0.17611 2.82488,0 3.55935,0.15738 3.55935,0.76272 0,1.36147 -1.93793,2.79663 -3.77635,2.79663 -1.44681,0 -1.87816,-0.27207 -2.54239,-1.60356 z"
   id="path1040"
   inkscape:connector-curvature="0" /><path
   style="fill:#ffccaa;stroke-width:0.50847882"
   d="m 179.37738,232.66218 c -0.57962,-0.73687 -1.05386,-1.53773 -1.05386,-1.77968 0,-0.24195 1.71241,-0.4399 3.80536,-0.4399 h 3.80537 l -0.84867,1.77967 c -0.74662,1.56568 -1.07747,1.77968 -2.7515,1.77968 -1.45003,0 -2.15362,-0.31882 -2.9567,-1.33977 z"
   id="path1042"
   inkscape:connector-curvature="0" /><path
   style="fill:#a05a2c;stroke-width:0.50847882"
   d="m 157.22165,456.90132 c -12.58485,-3.47169 -25.43836,-6.98211 -28.56334,-7.80094 l -5.6818,-1.48878 -27.262758,5.37895 c -14.994519,2.95842 -27.354798,5.28691 -27.467288,5.17442 -0.112489,-0.11249 2.528137,-15.39578 5.868059,-33.96287 3.339921,-18.56708 6.072585,-34.26009 6.072585,-34.87335 0,-0.61326 -3.549136,-17.66559 -7.886968,-37.89406 l -7.886968,-36.77904 7.886968,-36.66884 c 4.337832,-20.16787 7.886968,-37.21165 7.886968,-37.87508 0,-0.66343 -3.546746,-17.75458 -7.881658,-37.98033 l -7.881658,-36.77409 7.881658,-36.77409 c 4.334912,-20.22575 7.881658,-37.252326 7.881658,-37.836837 0,-0.584507 -2.741277,-16.341792 -6.091726,-35.016187 -3.350449,-18.674395 -6.039031,-34.004213 -5.974626,-34.066264 0.0644,-0.06205 12.010149,2.26875 26.5461,5.179555 14.535954,2.910805 27.120994,5.292374 27.966754,5.292374 0.84577,0 14.38751,-3.505155 30.09276,-7.789233 l 28.55501,-7.789232 28.3942,7.767388 c 15.61681,4.272064 29.16157,7.777218 30.09946,7.789232 0.9379,0.01202 14.32361,-3.43087 29.74601,-7.650854 15.42242,-4.219985 28.49838,-7.677678 29.05771,-7.683763 0.55932,-0.0061 13.67313,3.446629 29.14179,7.672698 15.46867,4.22607 28.73996,7.683361 29.49177,7.68287 0.75182,-4.92e-4 13.36636,-2.397381 28.03231,-5.32642 14.66596,-2.929038 26.69854,-5.273994 26.73909,-5.211013 0.0405,0.06298 -2.62278,14.987516 -5.9185,33.165634 -3.29572,18.178117 -5.99809,34.1952 -6.00529,35.593517 -0.007,1.409055 3.44984,18.671805 7.75522,38.725195 l 7.7683,36.18281 -7.77767,36.27542 c -4.27773,19.95149 -7.77944,37.21609 -7.78159,38.36578 -0.002,1.14969 3.43868,18.08204 7.64631,37.62743 4.20761,19.5454 7.65323,36.22353 7.65691,37.06252 0.004,0.83899 -3.4389,17.61037 -7.65021,37.26973 -4.2113,19.65936 -7.65272,36.70611 -7.6476,37.88167 0.005,1.17556 2.70594,17.06759 6.0018,35.31562 3.57263,19.78041 5.77617,33.17787 5.45683,33.17731 -0.29461,-5.1e-4 -12.59849,-2.38411 -27.34196,-5.29687 -25.83893,-5.10482 -26.90321,-5.2729 -29.49177,-4.65751 -1.47701,0.35113 -14.66025,3.90984 -29.2961,7.90825 l -26.61062,7.26982 -28.55933,-7.80048 c -15.70762,-4.29026 -29.36017,-7.77517 -30.339,-7.74424 -0.97882,0.0309 -14.39801,3.5101 -29.82042,7.73149 -15.4224,4.2214 -28.46488,7.64997 -28.98329,7.61906 -0.5184,-0.0309 -11.23924,-2.89668 -23.82409,-6.36837 z m 222.47886,-25.73671 c 1.65868,-0.83643 2.57697,-1.75529 3.41489,-3.41701 l 1.14613,-2.27293 -0.12917,-186.20831 -0.12916,-186.208317 -1.06371,-1.435592 c -0.58505,-0.789576 -1.82017,-1.950427 -2.74471,-2.57967 l -1.681,-1.144077 H 240.22485 101.93592 l -1.84891,1.051373 c -1.016896,0.578255 -2.306536,1.665128 -2.865862,2.415274 -1.012028,1.35729 -1.017634,2.267239 -1.156391,187.721389 -0.07669,102.49661 -0.01955,186.85468 0.126971,187.46237 0.391579,1.62404 2.785065,4.26969 4.563562,5.04435 1.27631,0.55592 25.88832,0.67894 139.11354,0.69532 l 137.5629,0.0199 z"
   id="path1044"
   inkscape:connector-curvature="0" /></svg>