<?xml version="1.0" encoding="UTF-8" standalone="no"?>
<!-- Created with Inkscape (http://www.inkscape.org/) -->

<svg
   xmlns:dc="http://purl.org/dc/elements/1.1/"
   xmlns:cc="http://creativecommons.org/ns#"
   xmlns:rdf="http://www.w3.org/1999/02/22-rdf-syntax-ns#"
   xmlns:svg="http://www.w3.org/2000/svg"
   xmlns="http://www.w3.org/2000/svg"
   xmlns:sodipodi="http://sodipodi.sourceforge.net/DTD/sodipodi-0.dtd"
   xmlns:inkscape="http://www.inkscape.org/namespaces/inkscape"
   version="1.1"
   id="svg12122"
   xml:space="preserve"
   width="154.72"
   height="57.853401"
   viewBox="0 0 154.72 57.853401"
   sodipodi:docname="pink_stone.svg"
   inkscape:version="0.92.3 (2405546, 2018-03-11)"><metadata
     id="metadata12128"><rdf:RDF><cc:Work
         rdf:about=""><dc:format>image/svg+xml</dc:format><dc:type
           rdf:resource="http://purl.org/dc/dcmitype/StillImage" /><dc:title></dc:title></cc:Work></rdf:RDF></metadata><defs
     id="defs12126" /><sodipodi:namedview
     pagecolor="#ffffff"
     bordercolor="#666666"
     borderopacity="1"
     objecttolerance="10"
     gridtolerance="10"
     guidetolerance="10"
     inkscape:pageopacity="0"
     inkscape:pageshadow="2"
     inkscape:window-width="1858"
     inkscape:window-height="1071"
     id="namedview12124"
     showgrid="false"
     inkscape:zoom="1.2704174"
     inkscape:cx="16.53"
     inkscape:cy="32.920523"
     inkscape:window-x="0"
     inkscape:window-y="0"
     inkscape:window-maximized="1"
     inkscape:current-layer="g12132" /><g
     id="g12130"
     inkscape:groupmode="layer"
     inkscape:label="ink_ext_XXXXXX"
     transform="matrix(1.3333333,0,0,-1.3333333,0,57.852881)"><g
       id="g12132"
       transform="scale(0.1)"><path
         d="m 480.496,63.6016 c -8.394,-1.3008 -16.098,-15.9024 -18.492,-25.0977 -2.164,-7.793 -3.668,-15.7656 -4.504,-23.8008 0,-12.00388 17.797,-11.50388 27.301,-12.30466 2.125,0 4.242,0.27344 6.297,0.80078 C 490,14.1953 480,20.9023 478.902,29.3984 c -2.011,11.3789 -1.464,23.0586 1.594,34.2032"
         style="fill:#949294;fill-opacity:1;fill-rule:nonzero;stroke:none"
         id="path12178"
         inkscape:connector-curvature="0" /><path
         d="m 507.797,22.3008 c -3.195,20 -18.996,41.6015 -26.098,41.6992 h -1.203 C 477.422,52.8281 476.875,41.1094 478.902,29.7031 480,20.9023 490,14.1953 491.098,3.60156 498.902,5.19922 510,10.7969 507.797,22.3008"
         style="fill:#676369;fill-opacity:1;fill-rule:nonzero;stroke:none"
         id="path12180"
         inkscape:connector-curvature="0" /><path
         d="m 493.699,55.6016 c -1.558,3.3711 -4.058,6.2109 -7.199,8.1953 -2.598,1.5039 -5,3.3008 -8.703,0 -5.258,-3.9571 -9.34,-9.2891 -11.797,-15.3946 2.102,0 4.098,5.6954 9.199,10 -1.984,-11.2656 -0.301,-22.871 4.801,-33.1015 0,5.2031 -1.699,13.6992 -1.301,19.0976 0.219,4.9336 1.235,9.7969 3,14.3985 1.699,3.5039 3.598,0 5.801,-1.3008 1.953,-0.8398 3.723,-2.0703 5.199,-3.5938 1.301,-1.8046 4.102,-8.3984 6.699,-8.3984 -0.296,0.5977 -4.398,8.0977 -5.699,10.0977"
         style="fill:#bbb4b8;fill-opacity:1;fill-rule:nonzero;stroke:none"
         id="path12182"
         inkscape:connector-curvature="0" /><path
         d="m 306.402,47.3984 c 1.496,0 0.801,7.7032 2.297,8.3008 4.699,1.7071 9.508,3.0742 14.403,4.1016 10.738,1.1015 21.562,1.1015 32.296,0 15.153,0.793 30.211,2.8984 45,6.3008 -7,-0.5977 -9.097,3.2031 -8.097,4.5976 -6.5,15.0977 -9.305,23.0977 -26.102,23.3985 -21.59,-0.8594 -42.754,-6.2813 -62.097,-15.8985 -6.075,-2.1601 -12.016,-4.6601 -17.801,-7.5 -1.149,-3.2812 -2.117,-6.6094 -2.903,-10 C 282.203,52.8008 300,46.8047 306.402,47.3984"
         style="fill:#837e83;fill-opacity:1;fill-rule:nonzero;stroke:none"
         id="path12196"
         inkscape:connector-curvature="0" /><path
         d="m 273.102,54.5977 c 0,-11.3985 16.296,-17.2969 24.695,-20.5977 19.406,-5.9844 39.738,-8.3906 60,-7.1016 11.707,0 28.605,-0.6015 38.805,6.2032 9.41,7.2461 11.714,20.5 5.296,30.5 -15.355,-2.6211 -30.918,-3.8985 -46.5,-3.8008 -10.734,1.1015 -21.558,1.1015 -32.296,0 -4.895,-1.0274 -9.704,-2.3945 -14.403,-4.1016 -1.496,-0.5976 -0.801,-8.2031 -2.297,-8.3008 -6.601,-0.5937 -24.199,5.4024 -23.004,13.2032 0.786,3.3789 1.754,6.7187 2.903,10 -7.199,-3.3985 -13.305,-8.5039 -13.199,-16.0039"
         style="fill:#676369;fill-opacity:1;fill-rule:nonzero;stroke:none"
         id="path12198"
         inkscape:connector-curvature="0" /><path
         d="m 388.102,80.5039 c -13.598,-3.4062 -27.5,-12.9023 -41.5,-13.8086 -7,0 -20,1.707 -25.704,-2.0976 -3.093,-4.1055 -7.339,-7.1993 -12.199,-8.8985 8.602,-6.9023 28.199,0 38.899,0 7.875,-0.7695 15.793,-1.0469 23.703,-0.8008 10.594,1.4532 20.906,4.4922 30.597,9.0039 -1.296,3.8985 -7.394,5 -10,7.1016 -1.007,3.2617 -2.281,6.4336 -3.796,9.5"
         style="fill:#949294;fill-opacity:1;fill-rule:nonzero;stroke:none"
         id="path12200"
         inkscape:connector-curvature="0" /><path
         d="m 384.199,86.9961 c -11.402,15.3049 -41.402,7.0039 -50,4.3008 -13.988,-3.8789 -27.429,-9.5235 -40,-16.8008 -5.297,-3.4922 6.297,0 7.805,0.8047 12.297,3.1015 30,10.8945 42.898,13.4961 7.2,1.5039 35.098,-4.6016 39.297,-1.8008"
         style="fill:#bbb4b8;fill-opacity:1;fill-rule:nonzero;stroke:none"
         id="path12202"
         inkscape:connector-curvature="0" /><path
         d="m 921.5,146.695 c 1.496,0 0.801,7.703 2.301,8.301 4.668,1.809 9.484,3.176 14.398,4.102 10.778,1.054 21.625,1.054 32.403,0 15.125,0.703 30.158,2.812 44.898,6.297 -7,-0.594 -9.1,3.109 -8.1,4.601 -6.4,15 -9.298,23.008 -26.099,23.301 -21.582,-0.82 -42.746,-6.211 -62.102,-15.801 -4.398,-1.894 -11.402,-4.199 -17.699,-7.5 -1.164,-3.281 -2.164,-6.609 -3,-10 -1.199,-7.898 16.402,-13.894 23,-13.301"
         style="fill:#837e83;fill-opacity:1;fill-rule:nonzero;stroke:none"
         id="path12204"
         inkscape:connector-curvature="0" /><path
         d="m 888.199,153.602 c 0,-11.399 16.305,-17.407 24.699,-20.598 19.399,-6.035 39.735,-8.445 60,-7.102 11.704,0 28.602,-0.703 38.802,6.094 10.07,7.348 12.42,21.379 5.3,31.606 -15.33,-2.59 -30.855,-3.821 -46.398,-3.704 -10.778,1.055 -21.625,1.055 -32.403,0 -4.914,-0.925 -9.73,-2.296 -14.398,-4.101 -1.5,-0.598 -0.805,-8.098 -2.301,-8.301 -6.598,-0.598 -24.199,5.399 -23,13.301 0.836,3.379 1.836,6.719 3,10 -7.199,-4.199 -13.398,-9.395 -13.301,-17.195"
         style="fill:#676369;fill-opacity:1;fill-rule:nonzero;stroke:none"
         id="path12206"
         inkscape:connector-curvature="0" /><path
         d="m 1003.2,179.898 c -13.598,-3.398 -27.501,-13 -41.501,-13.796 -6.996,0 -20,1.699 -25.699,-2.2 -3.094,-4.113 -7.344,-7.207 -12.199,-8.906 8.601,-6.894 28.203,0 38.898,0 7.875,-0.769 15.793,-1.035 23.703,-0.801 10.59,1.453 20.908,4.493 30.598,9.004 -1.3,3.899 -7.4,5 -10,7.196 -1.01,3.261 -2.28,6.449 -3.8,9.503"
         style="fill:#949294;fill-opacity:1;fill-rule:nonzero;stroke:none"
         id="path12208"
         inkscape:connector-curvature="0" /><path
         d="m 999.301,186.297 c -11.403,15.398 -41.403,7.105 -50,4.305 -13.988,-3.848 -27.43,-9.461 -40,-16.7 -5.301,-3.507 6.301,0 7.801,0.696 12.296,3.101 30,11.004 42.898,13.504 7.203,1.496 34.602,-4.5 39.301,-1.805"
         style="fill:#bbb4b8;fill-opacity:1;fill-rule:nonzero;stroke:none"
         id="path12210"
         inkscape:connector-curvature="0" /><path
         d="m 1093.7,163.602 c -8.2,-5.903 -32.1,-7.407 -40.7,-12.407 -14,-8.191 -13.3,-24.898 -26.8,-45.496 C 1004.6,72.8008 986.898,71.5 936.199,84 c 16.797,23.496 41.004,40 60,59.297 19.001,19.305 40.001,49.101 67.701,49.199 9.39,1.524 19,0.867 28.1,-1.894 5.73,-2.559 10.9,-6.231 15.2,-10.801 0.04,-0.43 0.04,-0.867 0,-1.297 -2.59,-6.418 -7.37,-11.699 -13.5,-14.902"
         style="fill:#a09a9f;fill-opacity:1;fill-rule:nonzero;stroke:none"
         id="path12212"
         inkscape:connector-curvature="0" /><path
         d="M 973.598,63.6016 C 961.602,65.9023 946.602,69 936.301,63.0039 927.898,58.1992 925,31.2969 924,23.0039 c 0,-1.707 0,-3.5078 0,-5.3047 l -7.102,1.7969 c -0.511,22.8555 6.516,45.2461 20,63.7031 50.602,-12.5 68.302,-11.2031 90.002,21.6988 13.5,20.606 12.8,37.305 26.8,45.497 8.6,5 32.5,6.503 40.7,12.406 5.94,3.301 10.54,8.562 13,14.898 0.04,0.434 0.04,0.871 0,1.301 5.1,-5.305 9.75,-11.023 13.9,-17.102 6.1,-9.128 11.71,-18.574 16.8,-28.296 -15.59,-5.344 -30.23,-13.11 -43.4,-23 -17.3,-14.6997 -46.5,-27.8012 -49.3,-50.6059 -3.29,-19.8125 -4.39,-39.9336 -3.3,-60.00000625 -4.8,0 -10,0 -14.8,0 C 1026.7,11.4023 1015.3,23.1992 1003.9,41.1953 c -7.119,10.832 -17.861,18.7813 -30.302,22.4063"
         style="fill:#837e83;fill-opacity:1;fill-rule:nonzero;stroke:none"
         id="path12214"
         inkscape:connector-curvature="0" /><path
         d="m 924,23.6016 c 1,8.0937 3.898,35 12.301,40 10,5.9961 25.301,2.8984 37.297,0.5937 12.257,-3.5547 22.879,-11.3086 30.002,-21.8945 11.4,-17.9961 22.8,-30 23.4,-41.19924 -35.145,1.55078 -69.969,7.40235 -103.699,17.40234 0.398,1.5977 0.5,3.3945 0.699,5.0977"
         style="fill:#545057;fill-opacity:1;fill-rule:nonzero;stroke:none"
         id="path12216"
         inkscape:connector-curvature="0" /><path
         d="m 1071.7,76.5 c -15.9,-2.9961 -20,-3.4961 -26.4,-16.9023 v 0.7031 c 2.8,22.8008 32,35.8945 49.3,50.6012 13.17,9.895 27.82,17.657 43.4,23 12.26,-21.308 19.89,-44.9528 22.4,-69.4059 -8.5,-8.3008 -20,-19.2969 -32,-30 -0.8,7.5 -6.3,39.1055 -13.3,45.1016 -10.9,9.5 -32.3,-0.9961 -43.4,-3.0977"
         style="fill:#676369;fill-opacity:1;fill-rule:nonzero;stroke:none"
         id="path12218"
         inkscape:connector-curvature="0" /><path
         d="m 1045.3,59.5977 c 6.2,13.4062 10,13.9062 26.4,16.9023 11.1,2.1016 32.5,12.5977 43.5,3.3008 7,-6.0039 12.5,-37.5977 13.3,-45.0977 C 1111.2,19.8984 1091.4,6.19531 1073,3.19922 1063.3,1.70313 1053.51,0.835938 1043.7,0.601563 h -1.6 c 0,4.597657 -1.3,8.703127 -1.3,13.000037 0.37,15.4179 1.88,30.7968 4.5,45.9961"
         style="fill:#545057;fill-opacity:1;fill-rule:nonzero;stroke:none"
         id="path12220"
         inkscape:connector-curvature="0" /><path
         d="m 951,80.3945 c 8.504,0.7071 24.297,0 32.699,1.2032 11.035,0.5546 21.081,6.5507 26.801,16.0039 9.11,10.2264 16.88,21.5824 23.1,33.8004 2.7,5.196 3.5,18.594 8.9,20.996 1.8,0.801 13.6,5.606 17.9,7.598 4.3,2 17,2.402 24,7.5 4.7,4.055 7.46,9.902 7.6,16.106 0,3.894 -13.6,9 -12.7,9.097 12.7,1.098 18.6,-3.101 28.9,-14.804 3.8,-4.2 -14.5,-17.196 -15,-17.293 -10,-6.407 -32.6,-9.2 -37.5,-15.899 -4.9,-6.699 -1.4,-22.305 1.8,-31.301 4.32,-14.3122 5.71,-29.3434 4.1,-44.2067 -3.9,-11.6992 -10,-7.2969 -12,-9.0937 -5,-4.4024 -1.6,-24.5 -8.3,-32 -0.9,8.3984 2.3,37.1992 -6.9,48.0937 -2.7,3.2031 -8.8,1.6992 -26.7,0 -15.598,-1.1992 -23.598,-7.0976 -56.7,4.1992"
         style="fill:#bbb4b8;fill-opacity:1;fill-rule:nonzero;stroke:none"
         id="path12222"
         inkscape:connector-curvature="0" /><path
         d="m 33.3008,162.801 c 1.5,0 0.8008,7.703 2.3008,8.301 4.6797,1.753 9.4961,3.125 14.3984,4.097 10.7422,1.047 21.5586,1.047 32.3008,0 15.1601,0.696 30.2262,2.805 45.0002,6.301 -7.102,-0.598 -9.102,3.098 -8.199,4.504 -6.403,15.098 -9.301,23.094 -26.0004,23.394 -21.6094,-0.886 -42.793,-6.265 -62.2032,-15.796 -4.2968,-1.907 -11.3945,-4.204 -17.6992,-7.598 -0.9961,-3.606 -2.5976,-7.707 -3,-10 -1.09764,-7.805 16.5,-13.801 23.1016,-13.203"
         style="fill:#837e83;fill-opacity:1;fill-rule:nonzero;stroke:none"
         id="path12224"
         inkscape:connector-curvature="0" /><path
         d="m 0,170.102 c 0,-11.407 16.2969,-17.403 24.7031,-20.606 19.3946,-6.023 39.7266,-8.465 60,-7.195 11.5938,0 28.5979,-0.606 38.7969,6.203 9.723,7.156 12.219,20.633 5.699,30.801 -15.355,-2.641 -30.9177,-3.879 -46.4998,-3.703 -10.7422,1.043 -21.5547,1.043 -32.2969,0 C 45.4961,174.625 40.6836,173.258 36,171.5 34.5039,170.902 35.1992,163.297 33.7031,163.199 27.0977,162.602 9.5,168.602 10.6016,176.5 c 0,2.598 1.9961,6.699 2.9961,10 C 6,182.602 0,177.496 0,170.102"
         style="fill:#676369;fill-opacity:1;fill-rule:nonzero;stroke:none"
         id="path12226"
         inkscape:connector-curvature="0" /><path
         d="M 114.902,195.902 C 101.402,192.496 87.5,183.004 73.5,182.203 c -7.0977,-0.508 -20,1.699 -25.8008,-2.207 -3.0234,-4.141 -7.2461,-7.246 -12.0976,-8.894 18.1523,-10.586 38.0742,-17.805 58.7968,-21.301 6.6016,0 -6,19.394 3.8008,20.5 10.5898,1.465 20.9028,4.5 30.6018,9.004 -1.301,3.894 -7.399,5 -10,7.097 -0.926,3.313 -2.235,6.493 -3.899,9.5"
         style="fill:#949294;fill-opacity:1;fill-rule:nonzero;stroke:none"
         id="path12228"
         inkscape:connector-curvature="0" /><path
         d="m 111,202.398 c -11.2969,15.403 -41.2969,7 -50,4.297 -13.9766,-3.867 -27.4141,-9.48 -40,-16.699 -5.3008,-3.594 6.3008,0 7.7969,0.703 12.3008,3.098 30,10.899 42.9023,13.496 C 79,205.699 106.402,199.598 111,202.398"
         style="fill:#bbb4b8;fill-opacity:1;fill-rule:nonzero;stroke:none"
         id="path12230"
         inkscape:connector-curvature="0" /><path
         d="m 270.496,431.098 c -11.594,-1.801 -22.195,-22 -25.496,-34.7 -2.996,-10.738 -5.066,-21.71 -6.199,-32.796 -0.602,-16.606 24.5,-15.903 37.699,-17.004 2.934,-0.02 5.863,0.351 8.699,1.101 -2.097,15 -15.695,24.297 -16.801,36.102 -1.097,11.801 -3.796,34.597 2.098,47.297"
         style="fill:#949294;fill-opacity:1;fill-rule:nonzero;stroke:none"
         id="path12238"
         inkscape:connector-curvature="0" /><path
         d="m 308.301,373.602 c -4.602,27.898 -26.297,57.398 -36,57.496 -0.602,0.05 -1.203,0.05 -1.805,0 -5.894,-12.7 -3.293,-34.301 -2.098,-47.297 1.204,-13 14.704,-21.102 16.801,-36.102 10.699,2.703 25.602,10.403 23.102,25.903"
         style="fill:#676369;fill-opacity:1;fill-rule:nonzero;stroke:none"
         id="path12240"
         inkscape:connector-curvature="0" /><path
         d="m 288.801,419.898 c -2.16,4.637 -5.637,8.532 -10,11.2 -3.504,2.203 -6.903,4.601 -12,0.8 -7.235,-5.476 -12.863,-12.796 -16.305,-21.199 2.902,0 5.703,7.801 12.703,13.903 -4.801,-13.602 1.703,-36.7 6.703,-46.602 0,7.301 -2.304,18.996 -1.906,26.496 0.387,6.832 1.77,13.57 4.106,20 2.402,4.902 5.101,-0.496 8.097,-1.699 2.688,-1.258 5.121,-2.981 7.203,-5.098 1.797,-2.5 5.594,-11.504 9.2,-11.504 -0.403,0.504 -6.106,11.203 -7.801,13.703"
         style="fill:#bbb4b8;fill-opacity:1;fill-rule:nonzero;stroke:none"
         id="path12242"
         inkscape:connector-curvature="0" /><path
         d="m 184.504,313.102 c -1.805,0 -1.004,10 -2.902,10.699 -6.082,2.258 -12.34,4.031 -18.704,5.297 -12.8,3.3 -28.796,0 -41.898,0.504 -19.637,0.941 -39.1484,3.652 -58.3008,8.097 9.1992,-0.801 11.8047,4.098 10.6016,5.996 8.3008,20 12.1015,30 33.8012,30 27.937,-1.011 55.359,-7.859 80.496,-20.093 5.601,-2.407 14.804,-5.403 23.004,-10 1.296,-4.801 3.3,-10 3.796,-13.504 C 216,320 193.102,312.301 184.504,313.102"
         style="fill:#837e83;fill-opacity:1;fill-rule:nonzero;stroke:none"
         id="path12244"
         inkscape:connector-curvature="0" /><path
         d="m 227.699,322.398 c 0,-14.699 -21.097,-22.398 -32,-26.699 -25.097,-10 -51.097,-8.801 -77.301,-9.199 -15,0 -36.9957,-0.801 -49.9996,7.996 -12.5078,9.371 -15.7265,26.777 -7.3984,40 19.8203,-3.344 39.898,-4.945 60,-4.797 13.102,-0.5 29.098,2.801 41.898,-0.5 6.364,-1.269 12.622,-3.043 18.704,-5.301 1.898,-0.796 1.097,-10.597 2.902,-10.699 8.598,-0.801 31.496,6.899 30,17.102 -0.504,3.394 -2.5,8.699 -3.805,13.5 9.301,-5 17.199,-11.699 17,-21.403"
         style="fill:#676369;fill-opacity:1;fill-rule:nonzero;stroke:none"
         id="path12246"
         inkscape:connector-curvature="0" /><path
         d="m 78.7031,356.004 c 17.5938,-4.406 35.5979,-16.805 53.6989,-17.902 9.2,0 25.496,2.199 33.399,-2.801 3.969,-5.403 9.472,-9.481 15.801,-11.699 -11.204,-9 -36.602,-0.5 -50,0 -10.239,-0.957 -20.524,-1.293 -30.801,-1.004 -13.8479,1.8 -27.3401,5.718 -40.0002,11.601 1.6992,5.098 10,6.5 12.5,9.305 1.4023,4.324 3.207,8.508 5.4023,12.5"
         style="fill:#949294;fill-opacity:1;fill-rule:nonzero;stroke:none"
         id="path12248"
         inkscape:connector-curvature="0" /><path
         d="m 83.7969,364.297 c 14.7031,20 53.6051,9.207 65.2031,5.601 18.07,-4.957 35.418,-12.25 51.602,-21.699 6.898,-4.504 -8.102,0 -10,1 -15.899,4 -39.301,14.199 -55.602,17.5 -9.703,1.903 -45,-6 -51.2031,-2.402"
         style="fill:#bbb4b8;fill-opacity:1;fill-rule:nonzero;stroke:none"
         id="path12250"
         inkscape:connector-curvature="0" /></g><g
       transform="matrix(0.19371025,0,0,0.19371024,48.347385,12.337173)"
       inkscape:label="ink_ext_XXXXXX"
       id="g12279"><g
         transform="scale(0.1)"
         id="g12281"><path
           inkscape:connector-curvature="0"
           id="path12283"
           style="fill:#e67d9f;fill-opacity:1;fill-rule:nonzero;stroke:none"
           d="m 110.863,422.09 c 13.5,-9.09 39.703,5.91 56.305,44.008 77.699,178.097 80.996,413.902 213.398,555.502 41,43.8 24.797,-7.3 22.297,-25.901 -25.597,-195.402 32.2,-292.804 27.801,-466.699 -0.898,-34.199 -34.199,-133.898 -39,-175 -7.898,-67.602 -4.101,-134.012 -17.699,-200.211 0.398,-0.398 0.801,-0.789 1.199,-1.187 6.902,-5.911 14.102,-11.204 21.602,-16.102 9.8,14.199 22,36.891 39.097,73.199 28.004,59.403 71.899,56.59 68.5,42.602 -1.699,-10.5 -3.597,-21.199 -5.8,-31.903 -4.598,-33.796 -5.497,-56.296 -1,-90.41 12.304,1.512 70.703,-7.898 84.703,-10.09 10.597,-1.699 52.203,-39.2964 84.703,-72.1988 56.594,-16.0078 113.195,-32 169.894,-47.597637 C 829.363,233.102 793.465,464.195 726.766,687.797 661.465,906.699 535.566,1140.9 569.965,1448.4 465.363,1348.2 269.965,1124.3 182.465,981.301 75.6641,806.898 16.3672,609.398 0.0625,406.199 c -0.996094,-13 9.70313,-24.597 21.3047,-28.398 11.8984,23 25.3984,43.488 37.3008,55.699 12.7968,13.102 32.5,1.898 52.195,-11.41" /><path
           inkscape:connector-curvature="0"
           id="path12285"
           style="fill:#d572a1;fill-opacity:1;fill-rule:nonzero;stroke:none"
           d="m 582.367,119.801 c -14.004,2.199 -72.402,11.597 -84.703,10.097 -4.5,34.204 -3.598,56.602 1.004,90.403 2.195,10.699 4.195,21.39 5.801,31.898 3.394,14 -40.504,16.699 -68.504,-42.609 -17.098,-36.289 -29.301,-58.988 -39.102,-73.192 51.301,-33.398 116.403,-45.2964 174,-61.5972 32.102,-9 64.102,-18.1992 96.203,-27.1992 -32.5,33 -74.101,70.5974 -84.699,72.1994" /><path
           inkscape:connector-curvature="0"
           id="path12287"
           style="fill:#d572a1;fill-opacity:1;fill-rule:nonzero;stroke:none"
           d="m 245.262,302.398 c 59.801,-35.199 78.406,-104.5 128.804,-148.699 13.497,66.289 9.801,132.59 17.7,200.199 4.8,41.09 38.199,140.805 39,175.004 4.398,173.895 -53.399,271.395 -27.801,466.7 2.398,18.698 18.601,69.798 -22.301,25.898 C 248.266,880 244.867,644.195 167.168,466.098 150.566,428 124.363,413 110.863,422.09 91.168,435.398 71.4648,446.602 58.5625,433.5 46.7656,421.398 33.1641,400.801 21.2656,377.801 c 0.1992,-0.102 0.3008,-0.199 0.5,-0.199 72.1992,-22.301 158.0004,-36.711 223.4964,-75.204" /><path
           inkscape:connector-curvature="0"
           id="path12289"
           style="fill:#ee86b0;fill-opacity:1;fill-rule:nonzero;stroke:none"
           d="m 1085.96,748 c 42.71,31.098 88.3,57.297 136.01,79.797 58.09,27.402 138.8,74.101 183.09,130.203 -1.6,1.898 -3,4.098 -4.6,5.895 -172.1,140.905 -379.79,281.505 -492.292,349.805 -88.301,53.7 -228.402,146.4 -335.203,137.69 -0.899,-0.89 -2,-1.99 -3,-2.89 -34.399,-307.5 91.5,-541.703 156.898,-760.703 33.2,-111.199 58.703,-224.199 76.903,-338.297 40,85.09 91.199,178.199 117.996,220.797 C 964.965,639 1020.37,700.102 1085.96,748" /><path
           inkscape:connector-curvature="0"
           id="path12291"
           style="fill:#e67d9f;fill-opacity:1;fill-rule:nonzero;stroke:none"
           d="m 1067.27,1056.1 c -36.01,26.5 -91.204,20 -126.504,-3.7 -8.203,5.5 -61.907,32.9 -73.399,33.4 -33.301,1.3 -156.601,-31.7 -191.504,14.2 -25.297,33.2 -32.898,27.2 -27.097,-14 12.297,-87.305 38.898,-149.699 100,-213 13.699,-14.199 36.898,3.797 55.101,12.5 78.793,37.996 173.696,108.699 268.003,104.699 29.7,26.001 6.4,57.801 -4.6,65.901" /><path
           inkscape:connector-curvature="0"
           id="path12293"
           style="fill:#d572a1;fill-opacity:1;fill-rule:nonzero;stroke:none"
           d="M 1608.46,584.996 C 1554.37,708.5 1491.47,853.598 1404.96,958 c -10.09,-12.703 -22.19,-24.898 -35.3,-36.5 2.21,-1.301 4.2,-3.203 5.21,-5.504 20.9,-49.898 57.29,-88.496 55.8,-145.496 -1.41,-55.602 -29.01,-106.5 -46.6,-157.898 -11.11,-32.5 -9.2,-66.004 -15.71,-99.403 -6.79,-35.097 -20.4,-59.097 -13.3,-96.508 10,-53.089 29.31,-134.089 53.91,-194.293 72.6,25.602 143.9,57.192 197.79,110.204 77.71,76.296 40,164.894 1.7,252.394" /><path
           inkscape:connector-curvature="0"
           id="path12295"
           style="fill:#d572a1;fill-opacity:1;fill-rule:nonzero;stroke:none"
           d="m 1133.86,763.598 c -5.69,0.297 -10.5,5.8 -8.99,10.8 -13.21,-8.402 -26.2,-17.097 -38.91,-26.398 C 1020.37,700.102 964.965,638.902 921.762,570.199 894.965,527.496 843.668,434.5 803.766,349.398 822.168,233.898 833.164,117.199 836.969,-0.0117188 v 0 C 919.66,49.8984 1057.87,102.199 1179.47,144.699 c -21.3,79.699 -19.31,163.403 -21.41,246.903 -3,120.699 -43.8,251.5 -24.2,371.996" /><path
           inkscape:connector-curvature="0"
           id="path12297"
           style="fill:#cc6ab0;fill-opacity:1;fill-rule:nonzero;stroke:none"
           d="m 1369.77,921.5 c -3.51,2.098 -7.71,2.5 -10.91,-1.301 -30.4,-35.398 -83,-47.699 -123.09,-69.203 -38.5,-20.699 -74.2,-45.394 -108.11,-72.797 -1.49,-1.203 -2.2,-2.5 -2.7,-3.902 31.21,19.902 63.61,37.601 97.01,53.402 44.79,21.301 103.09,54.098 147.8,93.801" /><path
           inkscape:connector-curvature="0"
           id="path12299"
           style="fill:#cc6ab0;fill-opacity:1;fill-rule:nonzero;stroke:none"
           d="m 1368.46,513.199 c 6.5,33.301 4.6,66.797 15.7,99.403 17.5,51.398 45.21,102.199 46.61,157.898 1.5,56.898 -34.91,95.598 -55.81,145.496 -0.99,2.301 -2.99,4.203 -5.19,5.504 -44.71,-39.703 -102.9,-72.5 -147.8,-93.602 -33.51,-15.8 -65.9,-33.601 -97.01,-53.402 -1.6,-5 3.31,-10.496 9.01,-10.801 -19.6,-120.496 21.19,-251.297 24.2,-371.894 2.1,-83.5 0.1,-167.211 21.39,-246.903 40.9,14.293 79.91,27.5 114.3,39.204 37.1,12.589 76.41,24.687 115.3,38.386 -24.5,60.211 -43.89,141.211 -53.89,194.313 -7.21,37.301 6.39,61.301 13.19,96.398" /><path
           inkscape:connector-curvature="0"
           id="path12301"
           style="fill:#f583c2;fill-opacity:1;fill-rule:nonzero;stroke:none"
           d="m 1308.67,1036.6 c -47.6,0.3 -94.81,6.5 -142.2,1.9 -59.5,-5.7 -117.71,-23.4 -173.7,-43.699 -48.11,-17.403 -85.801,-49.504 -132.102,-68.203 -63.301,-25.7 -126.504,8.097 -160.305,47.699 -37,54.803 -52.097,178.903 -67.199,252.403 -7.398,36.3 -69,161.1 -60.199,224.69 -29.402,0.61 -227.5,-219.49 -264.699,-295.39 59.597,28.5 134.898,172 197.398,80.2 38.301,-56.2 58.902,-164.1 71,-220.8 19.399,-91.002 54.703,-243.9 129,-349.302 33.5,-47.5 63.301,-163.094 59.301,-199.102 -8.598,-78.496 -7.797,-139.508 55.5,-239.598 10.703,62.301 38.394,87.102 59.898,183.602 19.797,88.398 86.106,161.895 135.197,233.898 70.4,103.204 224.9,171.2 312.31,221.2 24.5,14 74.19,31.601 102.9,58.8 -39.6,69.7 -91.11,87.702 -122.1,111.702" /><path
           inkscape:connector-curvature="0"
           id="path12303"
           style="fill:#f68cc9;fill-opacity:1;fill-rule:nonzero;stroke:none"
           d="M 1076.76,1029.4 C 1029.77,1017.5 900.363,950.297 880.961,940.5 814.066,907.098 750.363,930.996 723.066,975.297 681.863,1084.6 668.465,1185 623.965,1291.9 c -3.703,10.2 -12.399,36.99 -16.598,52.9 -3.601,13.4 2.598,53.9 16.797,61 53.399,26.8 194.399,-43.9 229.695,-65.1 88.11,-53 317.901,-235.3 348.801,-261.9 7.11,-6.1 6.31,-23.9 -9.3,-27.6 -30.99,-7.31 -78.8,-16 -116.6,-21.8 z m 308.3,-42.205 C 1352.16,1013 873.363,1366 792.066,1399.4 c -28.8,11.8 -145.203,84 -236.601,49.7 -49.402,-18.6 -109.199,-104.5 -144.602,-154.1 30.602,25.3 101.602,66.6 138.203,60.9 36.098,-5.6 52.399,-72.7 68,-106.3 27.899,-87.9 40.102,-182.6 73.5,-268.405 24.696,-63.496 79.301,-117.5 120.801,-150.996 10,-8.101 47.492,-40.101 36.801,-85.101 -8.105,-34.301 -7.805,-68.903 2.297,-105.297 2.703,-9.504 8.301,-3.906 11.805,5.496 18.898,51.699 20.593,104.504 49.796,154.601 3.204,5.399 1.5,13.7 -4.406,16.7 -30.195,15.199 1.309,40.3 18.809,56.898 21.894,20.602 28.301,51.902 52.898,69.004 30.593,21.195 116.803,61.7 200.003,45.699 44.6,-8.601 73.29,8.196 113.5,-4.304 53.79,-16.797 113.3,-53.196 137.8,-58.895 7.29,5.098 -36.6,55.199 -45.61,62.195" /></g></g></g></svg>