<?xml version="1.0" encoding="iso-8859-1"?>
<!-- Generator: Adobe Illustrator 16.0.0, SVG Export Plug-In . SVG Version: 6.00 Build 0)  -->
<!DOCTYPE svg PUBLIC "-//W3C//DTD SVG 1.1//EN" "http://www.w3.org/Graphics/SVG/1.1/DTD/svg11.dtd">
<svg version="1.1" id="Capa_1" xmlns="http://www.w3.org/2000/svg" xmlns:xlink="http://www.w3.org/1999/xlink" x="0px" y="0px"
	 width="328.863px" height="328.863px" viewBox="0 0 328.863 328.863" style="enable-background:new 0 0 328.863 328.863;"
	 xml:space="preserve">
<g>
	<g>
		<g>
			<path d="M69.795,77.272c0-7.344-1.836-18.36-10.404-20.196C45.315,54.628,35.523,67.48,33.688,80.944
				c-4.284-3.672-9.792-6.12-15.912-6.732c-8.568-0.612-18.36,3.06-17.748,12.852c1.836,22.032,31.824,35.496,50.796,31.212
				c0.612,0,1.224-0.612,1.224-0.612c0.612-0.612,1.224-0.612,1.224-1.224C61.84,105.424,69.185,91.35,69.795,77.272z
				 M18.389,99.305c-1.836-1.836-4.284-4.284-5.508-6.732c-1.224-1.224-1.224-3.06-0.612-4.896c-1.224-3.672,0-4.896,3.672-3.672
				c7.344-1.224,15.3,6.12,18.972,11.628c2.448,4.284,9.792,1.224,7.956-3.672c-1.836-5.508-1.836-10.404,0.612-15.912
				c2.448-5.508,11.628-15.3,16.524-5.508c3.06,6.12-1.836,17.748-4.284,23.256c-3.06,6.12-6.732,11.628-10.404,17.748
				C35.523,110.32,26.344,106.648,18.389,99.305z"/>
			<path d="M206.271,75.437c-32.437-17.748-55.692,20.196-60.588,50.184c-7.344-12.24-17.748-22.032-31.824-24.48
				c-19.584-3.06-36.108,12.24-39.168,30.6c-7.956,47.124,56.916,82.62,96.695,74.664c0.612,0,1.225-0.612,1.836-1.225
				c2.448,2.448,6.731,2.448,9.181-0.611C200.151,177.641,255.231,102.365,206.271,75.437z M211.779,120.112
				c-3.061,28.764-25.093,54.468-39.168,78.947C172,199.673,172,200.284,172,200.896h-0.612
				c-28.151-3.062-64.871-17.748-78.947-43.452c-7.344-12.852-7.956-42.228,12.852-44.676c22.644-2.448,29.988,19.584,40.392,34.884
				c3.06,4.284,9.792,1.836,7.956-3.672c0-1.224-0.612-2.448-1.224-3.672c1.224-14.688,4.896-28.152,13.464-40.392
				c4.896-6.732,16.523-17.136,25.704-16.524C209.332,85.229,213.004,106.648,211.779,120.112z"/>
			<path d="M306.027,27.088c-4.896-7.956-14.076-9.792-22.645-6.732c-6.731,2.448-11.017,7.956-13.464,14.076
				c-1.836-3.672-4.284-6.12-7.956-7.956c-7.344-3.672-14.688,0.612-18.359,7.344c-9.181,18.36,14.688,36.72,29.376,42.228
				c3.061,1.224,4.896-3.672,1.836-4.896c-8.567-4.284-15.912-10.404-20.809-18.36c-1.225-1.836-2.448-4.284-3.061-6.732
				c-1.225-2.448-0.611-5.508,0.611-7.956c2.448-0.612,4.896-0.612,7.345-1.224c3.061,1.224,4.283,9.18,5.509,11.628
				c1.836,4.284,9.18,4.284,8.566-1.224c0,0,0,0,0-0.612c0,0,0,0,0-0.612c2.448-6.732,6.732-15.3,14.076-16.524
				c9.181-1.836,12.853,6.732,9.792,14.688c-4.284,11.016-18.972,14.688-22.031,25.092c-0.611,2.448,1.836,5.508,4.896,4.896
				c4.896-1.224,8.567-5.508,12.852-9.18c4.284-3.672,8.568-7.344,11.018-12.24C309.088,44.226,310.924,34.434,306.027,27.088z"/>
			<path d="M95.5,240.677c-1.224-11.628-4.284-23.868-15.3-29.376c-10.404-4.896-22.032,0-28.152,9.181
				c-4.896,7.956-4.896,16.523-2.448,24.479c-6.12-4.283-13.464-7.344-21.42-5.508c-12.24,2.448-18.36,13.464-17.136,25.092
				c3.06,33.049,47.736,45.9,74.664,37.944l0,0c1.224,0.611,3.06,0,3.672-1.225C97.949,284.129,97.335,259.648,95.5,240.677z
				 M35.523,284.74c-7.344-4.896-15.3-14.688-14.076-23.868c3.06-26.315,27.54-6.12,35.496,1.836c0,0,0.612,0.612,1.224,0.612l0,0
				c1.836,2.447,5.508,1.224,4.896-1.836c0-0.612,0-0.612-0.612-1.225c0-0.611,0-1.225-0.612-1.225l0,0
				c-3.672-9.792-9.18-23.868-1.836-33.048c19.584-3.672,28.152,1.225,26.928,15.3c0,3.672,0,7.956,0,11.628
				c-0.612,14.688-3.672,29.988-2.448,44.677C67.349,293.309,50.211,295.145,35.523,284.74z"/>
			<path d="M206.884,277.396c-0.611-7.956-1.225-18.973-7.956-24.48c-4.896-4.283-12.239-3.672-17.136,0
				c-4.284,3.672-6.12,7.956-6.12,12.853c-10.403-7.344-28.151-1.836-29.375,13.465c-0.612,10.403,7.344,17.748,15.3,22.644
				c9.18,6.732,20.808,11.018,31.211,5.509c2.448-1.225,0.612-4.896-1.836-3.673c-11.628,3.673-27.539-6.73-33.659-15.911
				c-3.672-5.509-3.672-12.853,2.448-17.137c6.12-4.283,13.463-1.224,17.136,4.284c0,0.611,0,0.611,0,1.224
				c0.611,1.226,1.224,1.837,2.447,1.837c1.225,0,2.448-0.611,2.448-2.447v-0.612c-1.225-4.896-0.612-9.181,1.224-13.464
				c9.181-2.448,14.076,0,14.688,6.12c1.224,4.283,1.224,11.016,1.224,15.3c0,7.956-4.284,15.912-2.447,23.868
				c0.611,1.836,3.061,2.447,4.283,1.224C208.107,300.652,207.496,286.576,206.884,277.396z"/>
			<path d="M326.836,233.944c-1.225-3.672-5.509-6.731-7.956-9.792c0.611-1.225,0.611-2.448,0-3.061
				c-4.284-10.403-19.584-3.673-25.093,1.836c-4.896,4.896-9.18,11.017-11.628,17.748c-4.896-9.792-12.239-17.137-23.256-18.359
				c-13.464-1.225-22.032,8.567-22.032,21.42c-0.611,30.6,30.601,59.977,60.589,59.363c0.611,0,1.224,0,1.836-0.611
				c1.836,1.225,4.284,1.225,6.12,0c13.464-11.628,20.808-31.212,22.644-48.349C329.283,246.797,329.283,240.064,326.836,233.944z
				 M318.268,254.141c-3.672,15.912-12.239,28.151-20.195,42.229c0,0.612-0.611,0.612-0.611,1.225
				c-18.973-3.061-34.885-14.076-44.063-31.212c-2.448-4.284-4.284-8.567-5.509-13.465c-2.447-9.792-3.061-12.239,5.509-17.748
				c4.896-5.508,9.792-5.508,14.688,0.612c2.447,2.447,4.283,4.896,5.508,7.956c2.448,4.284,3.672,9.792,6.12,14.075
				c1.225,2.448,3.672,2.448,5.508,1.225l0,0l0,0l0.612-0.611c0.611-0.611,0.611-1.225,0.611-1.837
				c1.836-8.566,4.283-15.911,9.792-23.256c2.447-3.06,4.896-6.119,9.181-7.956c2.447-1.224,4.896-1.224,7.344-0.611v0.611
				c1.225,4.284,6.12,8.568,6.731,14.076C320.716,244.349,319.491,249.244,318.268,254.141z"/>
		</g>
	</g>
</g>
<g>
</g>
<g>
</g>
<g>
</g>
<g>
</g>
<g>
</g>
<g>
</g>
<g>
</g>
<g>
</g>
<g>
</g>
<g>
</g>
<g>
</g>
<g>
</g>
<g>
</g>
<g>
</g>
<g>
</g>
</svg>
