<svg viewBox="0 0 512.00002 512" xmlns="http://www.w3.org/2000/svg"><path d="m238.144531 342.25c-10.796875 0-21.15625 2.847656-30.21875 8.191406l-46.371093-46.371094c5.347656-9.0625 8.199218-19.421874 8.199218-30.21875-.003906-15.929687-6.207031-30.902343-17.46875-42.164062-11.261718-11.265625-26.238281-17.464844-42.164062-17.464844-15.929688 0-30.902344 6.199219-42.164063 17.464844-9.300781 9.300781-15.105469 21.039062-16.890625 33.632812-12.679687 1.8125-24.382812 7.640626-33.601562 16.855469-23.25 23.25-23.25 61.082031 0 84.332031 11.261718 11.261719 26.234375 17.464844 42.164062 17.464844 10.796875 0 21.15625-2.851562 30.21875-8.195312l46.386719 46.386718c-13.417969 22.847657-10.332031 52.78125 9.253906 72.371094 11.261719 11.261719 26.238281 17.464844 42.164063 17.464844h.003906c15.925781 0 30.898438-6.203125 42.164062-17.464844 9.140626-9.144531 14.976563-21.03125 16.820313-33.628906 12.707031-1.800781 24.4375-7.632812 33.667969-16.863281 11.265625-11.261719 17.46875-26.238281 17.46875-42.164063 0-15.925781-6.203125-30.902344-17.464844-42.164062-11.261719-11.261719-26.238281-17.464844-42.167969-17.464844zm20.953125 80.582031c-5.59375 5.59375-13.035156 8.675781-20.953125 8.675781-1.402343 0-2.8125-.101562-4.199219-.296874-4.667968-.664063-9.378906.910156-12.714843 4.246093-3.335938 3.332031-4.90625 8.042969-4.246094 12.714844 1.328125 9.332031-1.726563 18.5-8.375 25.148437-5.597656 5.597657-13.039063 8.679688-20.953125 8.679688s-15.355469-3.082031-20.949219-8.679688c-11.554687-11.550781-11.554687-30.351562-.003906-41.902343 5.859375-5.855469 5.859375-15.355469 0-21.210938l-64.910156-64.910156c-2.925781-2.929687-6.765625-4.394531-10.605469-4.394531-3.835938 0-7.675781 1.464844-10.605469 4.394531-5.597656 5.59375-13.039062 8.675781-20.949219 8.675781-7.917968 0-15.355468-3.082031-20.953124-8.675781-11.554688-11.554687-11.554688-30.351563 0-41.90625 5.59375-5.59375 13.03125-8.671875 20.945312-8.671875 1.402344 0 2.816406.097656 4.203125.296875 4.667969.664063 9.378906-.90625 12.714844-4.242187 3.335937-3.335938 4.910156-8.046876 4.246093-12.714844-1.320312-9.339844 1.734376-18.507813 8.382813-25.15625 5.597656-5.597656 13.035156-8.679688 20.949219-8.679688 7.914062 0 15.355468 3.082032 20.953125 8.679688 5.597656 5.59375 8.679687 13.035156 8.679687 20.949218 0 7.914063-3.082031 15.355469-8.679687 20.949219-2.8125 2.816407-4.390625 6.628907-4.390625 10.609375 0 3.976563 1.578125 7.792969 4.390625 10.605469l64.910156 64.910156c5.855469 5.855469 15.355469 5.855469 21.210937 0 5.597657-5.597656 13.039063-8.679687 20.953126-8.679687 7.914062 0 15.355468 3.082031 20.953124 8.679687 5.59375 5.597657 8.675782 13.039063 8.675782 20.953125 0 7.914063-3.082032 15.351563-8.679688 20.953125zm0 0"/><path d="m115.273438 150.695312c1.15625 1.609376 27.1875 37.398438 62.617187 41.515626l13.367187 13.367187c4.117188 35.429687 39.90625 61.460937 41.515626 62.617187 2.613281 1.871094 5.675781 2.804688 8.734374 2.804688 3.0625 0 6.125-.933594 8.734376-2.804688 1.710937-1.226562 41.90625-30.460937 41.90625-69.214843 0-3.28125-.285157-6.582031-.855469-9.902344 22.734375-6.058594 41.304687-16.195313 55.351562-30.242187 49.417969-49.417969 35.070313-140.25 34.433594-144.09375-1.046875-6.339844-6.015625-11.304688-12.351563-12.351563-.589843-.097656-14.671874-2.38671875-34.445312-2.38671875-33.226562 0-79.222656 6.38671875-109.648438 36.81640575-14.050781 14.046876-24.1875 32.617188-30.246093 55.351563-3.316407-.566406-6.617188-.851563-9.894531-.851563-.003907 0-.003907 0-.003907 0-38.753906 0-67.988281 40.191407-69.214843 41.902344-3.742188 5.222656-3.742188 12.25 0 17.472656zm69.214843-29.375c4.625 0 9.585938 1.222657 14.753907 3.632813 4.246093 1.984375 9.175781 1.867187 13.324218-.3125 4.148438-2.183594 7.042969-6.175781 7.816406-10.800781 4.050782-24.1875 12.617188-42.960938 25.460938-55.804688 23.167969-23.171875 60.882812-28.035156 88.4375-28.035156 7.167969 0 13.488281.347656 18.425781.746094 1.867188 23.21875 2.496094 77.105468-27.273437 106.875-12.847656 12.847656-31.621094 21.414062-55.808594 25.464844-4.625.773437-8.621094 3.664062-10.800781 7.8125-2.179688 4.148437-2.296875 9.082031-.3125 13.328124 2.414062 5.167969 3.636719 10.132813 3.636719 14.753907 0 14.121093-11.335938 28.394531-20.632813 37.363281-9.195313-8.910156-20.644531-23.277344-20.644531-37.363281 0-3.980469-1.578125-7.792969-4.390625-10.605469l-21.386719-21.382812c-2.8125-2.816407-6.628906-4.394532-10.605469-4.394532-14.128906 0-28.40625-11.347656-37.367187-20.632812 8.910156-9.195313 23.28125-20.644532 37.367187-20.644532zm0 0"/><path d="m512 296.875c0-19.09375-7.4375-37.039062-20.933594-50.535156-13.5-13.5-31.445312-20.9375-50.539062-20.9375-14.4375 0-28.226563 4.253906-39.929688 12.171875-11.703125-7.917969-25.488281-12.171875-39.929687-12.171875-19.089844 0-37.039063 7.4375-50.539063 20.9375-27.863281 27.867187-27.863281 73.207031 0 101.074218l79.863282 79.859376c2.8125 2.8125 6.628906 4.390624 10.605468 4.390624 3.976563 0 7.792969-1.578124 10.605469-4.390624l79.859375-79.859376c13.5-13.5 20.9375-31.449218 20.9375-50.539062zm-42.148438 29.324219-69.253906 69.253906-69.253906-69.253906c-16.167969-16.167969-16.167969-42.480469 0-58.648438 7.835938-7.832031 18.25-12.148437 29.324219-12.148437 11.078125 0 21.492187 4.316406 29.324219 12.148437 2.8125 2.8125 6.628906 4.394531 10.605468 4.394531 3.980469 0 7.792969-1.582031 10.609375-4.394531 7.832031-7.832031 18.246094-12.144531 29.320313-12.144531 11.078125 0 21.488281 4.3125 29.324218 12.148438 7.832032 7.832031 12.148438 18.246093 12.148438 29.320312 0 11.078125-4.316406 21.492188-12.148438 29.324219zm0 0"/><path d="m15 30c3.949219 0 7.820312-1.601562 10.609375-4.390625 2.789063-2.800781 4.390625-6.660156 4.390625-10.609375s-1.601562-7.808594-4.390625-10.609375c-2.789063-2.789063-6.660156-4.390625-10.609375-4.390625s-7.808594 1.601562-10.609375 4.390625c-2.789063 2.800781-4.390625 6.660156-4.390625 10.609375s1.601562 7.808594 4.390625 10.609375c2.800781 2.789063 6.660156 4.390625 10.609375 4.390625zm0 0"/><path d="m16.070312 159.601562c0 3.949219 1.601563 7.808594 4.390626 10.609376 2.789062 2.789062 6.660156 4.390624 10.609374 4.390624 3.949219 0 7.808594-1.601562 10.597657-4.390624 2.800781-2.800782 4.402343-6.660157 4.402343-10.609376 0-3.953124-1.601562-7.820312-4.402343-10.609374-2.789063-2.792969-6.648438-4.390626-10.597657-4.390626-3.949218 0-7.820312 1.597657-10.609374 4.390626-2.789063 2.789062-4.390626 6.65625-4.390626 10.609374zm0 0"/><path d="m111.398438 62.128906c3.953124 0 7.820312-1.597656 10.609374-4.390625 2.792969-2.789062 4.390626-6.660156 4.390626-10.609375 0-3.9375-1.597657-7.808594-4.390626-10.597656-2.789062-2.800781-6.65625-4.402344-10.609374-4.402344-3.949219 0-7.808594 1.601563-10.609376 4.402344-2.789062 2.789062-4.390624 6.648438-4.390624 10.597656 0 3.949219 1.601562 7.820313 4.390624 10.609375 2.800782 2.792969 6.660157 4.390625 10.609376 4.390625zm0 0"/><path d="m497 30c3.949219 0 7.816406-1.601562 10.609375-4.390625 2.789063-2.800781 4.390625-6.660156 4.390625-10.609375s-1.601562-7.808594-4.390625-10.609375c-2.792969-2.789063-6.660156-4.390625-10.609375-4.390625s-7.820312 1.601562-10.609375 4.390625c-2.792969 2.789063-4.390625 6.660156-4.390625 10.609375s1.597656 7.820312 4.390625 10.609375c2.789063 2.789063 6.660156 4.390625 10.609375 4.390625zm0 0"/><path d="m464.867188 142.46875c3.949218 0 7.8125-1.597656 10.601562-4.398438 2.800781-2.789062 4.398438-6.660156 4.398438-10.601562 0-3.949219-1.597657-7.820312-4.398438-10.609375-2.789062-2.789063-6.648438-4.390625-10.601562-4.390625-3.949219 0-7.816407 1.601562-10.609376 4.390625-2.789062 2.789063-4.390624 6.660156-4.390624 10.609375 0 3.941406 1.601562 7.8125 4.390624 10.601562 2.792969 2.800782 6.660157 4.398438 10.609376 4.398438zm0 0"/><path d="m15 482c-3.949219 0-7.808594 1.597656-10.609375 4.390625-2.789063 2.796875-4.390625 6.660156-4.390625 10.609375s1.601562 7.808594 4.390625 10.609375c2.789063 2.789063 6.660156 4.390625 10.609375 4.390625s7.808594-1.601562 10.609375-4.390625c2.789063-2.800781 4.390625-6.660156 4.390625-10.609375s-1.601562-7.820312-4.390625-10.609375c-2.800781-2.792969-6.660156-4.390625-10.609375-4.390625zm0 0"/><path d="m497 482c-3.949219 0-7.8125 1.597656-10.609375 4.390625-2.792969 2.789063-4.390625 6.660156-4.390625 10.609375s1.597656 7.808594 4.390625 10.609375c2.789063 2.789063 6.660156 4.390625 10.609375 4.390625s7.808594-1.601562 10.609375-4.390625c2.789063-2.800781 4.390625-6.660156 4.390625-10.609375s-1.601562-7.8125-4.390625-10.609375c-2.800781-2.792969-6.660156-4.390625-10.609375-4.390625zm0 0"/><path d="m352.398438 465.929688c-3.949219 0-7.808594 1.597656-10.609376 4.390624-2.789062 2.800782-4.390624 6.660157-4.390624 10.609376 0 3.949218 1.601562 7.820312 4.390624 10.609374 2.789063 2.789063 6.660157 4.390626 10.609376 4.390626 3.949218 0 7.8125-1.601563 10.609374-4.390626 2.789063-2.789062 4.390626-6.660156 4.390626-10.609374 0-3.949219-1.601563-7.8125-4.390626-10.609376-2.796874-2.792968-6.660156-4.390624-10.609374-4.390624zm0 0"/></svg>