<?xml version="1.0" encoding="UTF-8" standalone="no"?>
<!-- Generator: Adobe Illustrator 17.1.0, SVG Export Plug-In . SVG Version: 6.00 Build 0)  -->

<svg
   xmlns:dc="http://purl.org/dc/elements/1.1/"
   xmlns:cc="http://creativecommons.org/ns#"
   xmlns:rdf="http://www.w3.org/1999/02/22-rdf-syntax-ns#"
   xmlns:svg="http://www.w3.org/2000/svg"
   xmlns="http://www.w3.org/2000/svg"
   xmlns:sodipodi="http://sodipodi.sourceforge.net/DTD/sodipodi-0.dtd"
   xmlns:inkscape="http://www.inkscape.org/namespaces/inkscape"
   version="1.1"
   id="Capa_1"
   x="0px"
   y="0px"
   viewBox="0 0 465 465"
   style="enable-background:new 0 0 465 465;"
   xml:space="preserve"
   sodipodi:docname="santas_magic_book.svg"
   inkscape:version="0.92.3 (2405546, 2018-03-11)"><metadata
   id="metadata1320"><rdf:RDF><cc:Work
       rdf:about=""><dc:format>image/svg+xml</dc:format><dc:type
         rdf:resource="http://purl.org/dc/dcmitype/StillImage" /></cc:Work></rdf:RDF></metadata><defs
   id="defs1318" /><sodipodi:namedview
   pagecolor="#ffffff"
   bordercolor="#666666"
   borderopacity="1"
   objecttolerance="10"
   gridtolerance="10"
   guidetolerance="10"
   inkscape:pageopacity="0"
   inkscape:pageshadow="2"
   inkscape:window-width="3840"
   inkscape:window-height="1823"
   id="namedview1316"
   showgrid="false"
   inkscape:zoom="2.0301075"
   inkscape:cx="-90.484467"
   inkscape:cy="232.5"
   inkscape:window-x="0"
   inkscape:window-y="0"
   inkscape:window-maximized="1"
   inkscape:current-layer="g1283" />
<g
   id="g1283">
	<path
   d="M240,356.071V132.12c0-4.143-3.357-7.5-7.5-7.5s-7.5,3.357-7.5,7.5v223.951c0,4.143,3.357,7.5,7.5,7.5   S240,360.214,240,356.071z"
   id="path1277" />
	<path
   d="M457.5,75.782c-15.856,0-35.614-6.842-56.533-14.085c-26.492-9.174-56.521-19.571-87.663-19.571   c-36.035,0-58.019,15.791-70.115,29.038c-4.524,4.956-8.03,9.922-10.688,14.327c-2.658-4.405-6.164-9.371-10.688-14.327   c-12.097-13.247-34.08-29.038-70.115-29.038c-31.143,0-61.171,10.397-87.663,19.571C43.114,68.94,23.356,75.782,7.5,75.782   c-4.143,0-7.5,3.357-7.5,7.5v302.092c0,4.143,3.357,7.5,7.5,7.5c18.38,0,39.297-7.243,61.441-14.911   c25.375-8.786,54.136-18.745,82.755-18.745c24.54,0,44.403,8.126,59.038,24.152c2.792,3.058,7.537,3.273,10.596,0.48   s3.273-7.537,0.48-10.596c-12.097-13.246-34.08-29.037-70.114-29.037c-31.143,0-61.171,10.397-87.663,19.571   C46.298,369.931,29.396,375.782,15,377.422V90.41c16.491-1.571,34.755-7.896,53.941-14.539   c25.375-8.786,54.136-18.745,82.755-18.745c57.881,0,73.025,45.962,73.634,47.894c0.968,3.148,3.876,5.298,7.17,5.298   s6.202-2.149,7.17-5.298c0.146-0.479,15.383-47.894,73.634-47.894c28.619,0,57.38,9.959,82.755,18.745   c19.187,6.644,37.45,12.968,53.941,14.539v287.012c-14.396-1.64-31.298-7.491-49.033-13.633   c-26.492-9.174-56.521-19.571-87.663-19.571c-36.036,0-58.02,15.791-70.115,29.038c-2.793,3.06-2.578,7.803,0.48,10.596   c3.06,2.793,7.804,2.578,10.596-0.48c14.635-16.027,34.498-24.153,59.039-24.153c28.619,0,57.38,9.959,82.755,18.745   c22.145,7.668,43.062,14.911,61.441,14.911c4.143,0,7.5-3.357,7.5-7.5V83.282C465,79.14,461.643,75.782,457.5,75.782z"
   id="path1279" />
	<path
   d="M457.5,407.874c-15.856,0-35.614-6.842-56.533-14.085c-26.492-9.174-56.521-19.571-87.663-19.571   c-33.843,0-55.291,13.928-67.796,26.596l-26.017-0.001c-12.505-12.668-33.954-26.595-67.795-26.595   c-31.143,0-61.171,10.397-87.663,19.571c-20.919,7.243-40.677,14.085-56.533,14.085c-4.143,0-7.5,3.357-7.5,7.5s3.357,7.5,7.5,7.5   c18.38,0,39.297-7.243,61.441-14.911c25.375-8.786,54.136-18.745,82.755-18.745c24.54,0,44.403,8.126,59.038,24.152   c1.421,1.556,3.431,2.442,5.538,2.442l32.454,0.001c2.107,0,4.117-0.887,5.538-2.442c14.635-16.027,34.498-24.153,59.039-24.153   c28.619,0,57.38,9.959,82.755,18.745c22.145,7.668,43.062,14.911,61.441,14.911c4.143,0,7.5-3.357,7.5-7.5   S461.643,407.874,457.5,407.874z"
   id="path1281" />
<path
   style="fill:#999999;stroke-width:0.49258474"
   d="m 15.519642,338.38109 c -7e-5,-21.19961 -0.147619,-85.57583 -0.327886,-143.05824 L 14.863998,90.809365 16.546492,90.533424 c 0.925372,-0.151768 3.788294,-0.620643 6.36205,-1.041946 10.451578,-1.710836 22.085929,-5.157514 52.95286,-15.687291 19.767845,-6.743494 32.832788,-10.536242 44.332628,-12.869748 29.42394,-5.970595 51.10688,-4.412016 69.90216,5.024598 14.66275,7.361785 27.0049,20.358431 33.31052,35.076963 1.11262,2.59707 2.2766,5.2394 2.58662,5.87183 1.4671,2.99284 6.4859,4.40545 9.89849,2.78607 2.12481,-1.00829 3.1365,-2.3868 4.69614,-6.39888 4.6859,-12.05425 15.57931,-25.334243 27.03975,-32.963768 23.16369,-15.420693 53.09428,-16.976463 95.21073,-4.948984 5.25744,1.501402 17.42802,5.406586 27.04574,8.678187 30.81648,10.482654 41.7824,13.723459 52.21398,15.431023 2.57376,0.421303 5.39996,0.88329 6.28046,1.026639 l 1.6009,0.260634 V 233.8523 376.92585 h -1.29272 c -2.37388,0 -13.3148,-2.42665 -20.9545,-4.64762 -4.15479,-1.20786 -17.08568,-5.43676 -28.7353,-9.39758 -38.88268,-13.2199 -55.00033,-17.09097 -77.28618,-18.56227 -23.48838,-1.55069 -44.94932,3.4913 -61.7597,14.50971 -4.63628,3.03886 -12.40672,9.25916 -14.84957,11.8872 L 243.90736,372 h -11.40401 -11.40401 l -1.19418,-1.28471 c -0.6568,-0.70659 -3.18915,-2.96355 -5.62744,-5.01548 -25.99891,-21.87916 -59.62057,-27.01783 -105.16685,-16.07349 -10.91805,2.6235 -20.242315,5.49228 -43.22195,13.29801 -11.583196,3.93458 -24.459731,8.14294 -28.61452,9.35189 -7.289687,2.12116 -18.55084,4.64963 -20.708203,4.64963 h -1.046426 z m 221.510578,23.95544 c 0.70631,-0.52734 1.6946,-1.72404 2.1962,-2.65932 0.88009,-1.641 0.91199,-5.6927 0.91199,-115.79186 V 129.794 l -1.11229,-1.67375 c -2.52371,-3.79761 -7.58957,-4.76745 -11.06319,-2.11799 -3.37407,2.57353 -3.11397,-7.79772 -2.9746,118.61003 l 0.12625,114.50832 1.02018,1.3907 c 2.30263,3.13892 7.88365,4.07385 10.89546,1.82522 z"
   id="path1367"
   inkscape:connector-curvature="0" /></g>
<g
   id="g1285">
</g>
<g
   id="g1287">
</g>
<g
   id="g1289">
</g>
<g
   id="g1291">
</g>
<g
   id="g1293">
</g>
<g
   id="g1295">
</g>
<g
   id="g1297">
</g>
<g
   id="g1299">
</g>
<g
   id="g1301">
</g>
<g
   id="g1303">
</g>
<g
   id="g1305">
</g>
<g
   id="g1307">
</g>
<g
   id="g1309">
</g>
<g
   id="g1311">
</g>
<g
   id="g1313">
</g>
</svg>