<svg height="512pt" viewBox="-5 0 512 512.16302" width="512pt" xmlns="http://www.w3.org/2000/svg"><path d="m213.414062 85.496094c0-40.992188 30.625-42.617188 34.175782-42.667969 4.714844-.011719 8.523437-3.839844 8.511718-8.550781-.011718-4.714844-3.839843-8.527344-8.554687-8.515625-17.707031 0-51.199219 12.484375-51.199219 59.734375 0 4.714844 3.820313 8.535156 8.535156 8.535156 4.710938 0 8.53125-3.820312 8.53125-8.535156zm0 0"/><path d="m17.148438 367.097656h179.199218v136.53125c0 4.714844 3.820313 8.535156 8.535156 8.535156h85.332032c4.710937 0 8.535156-3.820312 8.535156-8.535156v-136.53125h132.09375c5.570312-.007812 10.789062-2.722656 13.984375-7.285156l53.757813-76.800781c4.101562-5.878907 4.101562-13.691407 0-19.570313l-53.757813-76.800781c-3.199219-4.558594-8.414063-7.273437-13.984375-7.277344h-132.09375v-45.320312c23.730469-21.226563 31.90625-54.902344 20.542969-84.648438-11.363281-29.746093-39.902344-49.394531-71.746094-49.394531-31.839844 0-60.382813 19.648438-71.742187 49.394531-11.363282 29.746094-3.191407 63.421875 20.542968 84.648438v45.320312h-179.199218c-9.421876.011719-17.054688 7.644531-17.0664068 17.066407v153.601562c.0117188 9.417969 7.6445308 17.054688 17.0664068 17.066406zm228.382812 0-32.117188 16.058594v-16.058594zm-32.117188 86.339844 68.265626-34.132812v32.117187l-68.265626 34.132813zm0-19.082031v-32.117188l68.265626-34.132812v32.117187zm19.082032 60.742187 49.183594-24.59375v24.59375zm17.070312-315.734375 32.113282-16.058593v16.058593zm-61.75-102.398437c0-32.992188 26.742188-59.734375 59.730469-59.734375 32.992187 0 59.734375 26.742187 59.734375 59.734375 0 32.988281-26.742188 59.730468-59.734375 59.730468-32.972656-.035156-59.695313-26.757812-59.730469-59.730468zm59.730469 76.796875c7.128906-.015625 14.222656-1.027344 21.070313-3.007813l-55.203126 27.601563v-32.699219c10.59375 5.320312 22.28125 8.09375 34.132813 8.105469zm-230.398437 42.667969h413.695312l53.761719 76.800781-53.761719 76.800781h-413.695312zm0 0"/><path d="m93.949219 213.496094c-4.714844 0-8.535157 3.820312-8.535157 8.535156v66.253906l-35.03125-70.074218c-1.769531-3.539063-5.742187-5.398438-9.59375-4.488282-3.855468.910156-6.574218 4.347656-6.574218 8.308594v102.398438c0 4.710937 3.820312 8.535156 8.535156 8.535156 4.710938 0 8.53125-3.824219 8.53125-8.535156v-66.253907l35.035156 70.070313c1.769532 3.542968 5.742188 5.398437 9.59375 4.492187 3.851563-.910156 6.574219-4.351562 6.570313-8.308593v-102.398438c0-4.714844-3.820313-8.535156-8.53125-8.535156zm0 0"/><path d="m367.015625 332.964844c4.710937 0 8.53125-3.824219 8.53125-8.535156v-42.667969h34.132813v42.667969c0 4.710937 3.824218 8.535156 8.535156 8.535156 4.710937 0 8.535156-3.824219 8.535156-8.535156v-102.398438c0-4.714844-3.824219-8.535156-8.535156-8.535156-4.710938 0-8.535156 3.820312-8.535156 8.535156v42.664062h-34.132813v-42.664062c0-4.714844-3.820313-8.535156-8.53125-8.535156-4.714844 0-8.535156 3.820312-8.535156 8.535156v102.398438c0 4.710937 3.820312 8.535156 8.535156 8.535156zm0 0"/><path d="m162.214844 213.496094h-17.066406c-14.132813.015625-25.585938 11.46875-25.601563 25.601562v68.265625c.015625 14.132813 11.46875 25.585938 25.601563 25.601563h17.066406c14.132812-.015625 25.585937-11.46875 25.601562-25.601563v-68.265625c-.015625-14.132812-11.46875-25.585937-25.601562-25.601562zm8.535156 93.867187c-.007812 4.710938-3.824219 8.527344-8.535156 8.53125h-17.066406c-4.710938-.003906-8.53125-3.820312-8.535157-8.53125v-68.265625c.003907-4.710937 3.824219-8.53125 8.535157-8.535156h17.066406c4.710937.003906 8.527344 3.824219 8.535156 8.535156zm0 0"/><path d="m213.414062 332.964844c4.714844 0 8.535157-3.824219 8.535157-8.535156v-42.667969h11.789062l23.242188 46.484375c1.363281 2.726562 4.078125 4.519531 7.125 4.703125 3.042969.183593 5.953125-1.273438 7.632812-3.816407 1.679688-2.546874 1.875-5.792968.507813-8.519531l-19.675782-39.355469c11.953126-2.40625 20.558594-12.898437 20.578126-25.09375v-17.066406c-.015626-14.132812-11.46875-25.585937-25.601563-25.601562h-34.132813c-4.710937 0-8.53125 3.820312-8.53125 8.535156v102.398438c0 4.710937 3.820313 8.535156 8.53125 8.535156zm8.535157-102.402344h25.597656c4.710937.003906 8.53125 3.824219 8.535156 8.535156v17.066406c-.003906 4.710938-3.824219 8.527344-8.535156 8.53125h-25.597656zm0 0"/><path d="m290.214844 230.5625h17.066406v93.867188c0 4.710937 3.820312 8.535156 8.535156 8.535156 4.710938 0 8.53125-3.824219 8.53125-8.535156v-93.867188h17.066406c4.714844 0 8.535157-3.820312 8.535157-8.53125 0-4.714844-3.820313-8.535156-8.535157-8.535156h-51.199218c-4.710938 0-8.535156 3.820312-8.535156 8.535156 0 4.710938 3.824218 8.53125 8.535156 8.53125zm0 0"/></svg>